%TF.GenerationSoftware,KiCad,Pcbnew,9.0.6*%
%TF.CreationDate,2026-02-12T01:14:46+01:00*%
%TF.ProjectId,2026_C_AV_FDR,32303236-5f43-45f4-9156-5f4644522e6b,rev?*%
%TF.SameCoordinates,Original*%
%TF.FileFunction,Copper,L3,Inr*%
%TF.FilePolarity,Positive*%
%FSLAX46Y46*%
G04 Gerber Fmt 4.6, Leading zero omitted, Abs format (unit mm)*
G04 Created by KiCad (PCBNEW 9.0.6) date 2026-02-12 01:14:46*
%MOMM*%
%LPD*%
G01*
G04 APERTURE LIST*
G04 Aperture macros list*
%AMRoundRect*
0 Rectangle with rounded corners*
0 $1 Rounding radius*
0 $2 $3 $4 $5 $6 $7 $8 $9 X,Y pos of 4 corners*
0 Add a 4 corners polygon primitive as box body*
4,1,4,$2,$3,$4,$5,$6,$7,$8,$9,$2,$3,0*
0 Add four circle primitives for the rounded corners*
1,1,$1+$1,$2,$3*
1,1,$1+$1,$4,$5*
1,1,$1+$1,$6,$7*
1,1,$1+$1,$8,$9*
0 Add four rect primitives between the rounded corners*
20,1,$1+$1,$2,$3,$4,$5,0*
20,1,$1+$1,$4,$5,$6,$7,0*
20,1,$1+$1,$6,$7,$8,$9,0*
20,1,$1+$1,$8,$9,$2,$3,0*%
G04 Aperture macros list end*
%TA.AperFunction,ComponentPad*%
%ADD10C,2.000000*%
%TD*%
%TA.AperFunction,ComponentPad*%
%ADD11R,1.700000X1.700000*%
%TD*%
%TA.AperFunction,ComponentPad*%
%ADD12C,1.700000*%
%TD*%
%TA.AperFunction,ComponentPad*%
%ADD13C,4.400000*%
%TD*%
%TA.AperFunction,ComponentPad*%
%ADD14R,1.800000X1.800000*%
%TD*%
%TA.AperFunction,ComponentPad*%
%ADD15C,1.800000*%
%TD*%
%TA.AperFunction,ComponentPad*%
%ADD16C,4.000000*%
%TD*%
%TA.AperFunction,ComponentPad*%
%ADD17C,1.500000*%
%TD*%
%TA.AperFunction,ComponentPad*%
%ADD18RoundRect,0.140625X0.609375X-0.609375X0.609375X0.609375X-0.609375X0.609375X-0.609375X-0.609375X0*%
%TD*%
%TA.AperFunction,HeatsinkPad*%
%ADD19O,1.100000X2.100000*%
%TD*%
%TA.AperFunction,HeatsinkPad*%
%ADD20O,1.100000X2.600000*%
%TD*%
%TA.AperFunction,ViaPad*%
%ADD21C,0.600000*%
%TD*%
G04 APERTURE END LIST*
D10*
%TO.N,+3V3*%
%TO.C,TP4*%
X177150000Y-84100000D03*
%TD*%
%TO.N,+5V*%
%TO.C,TP3*%
X173500000Y-84100000D03*
%TD*%
%TO.N,/Project Architecture/RX*%
%TO.C,TP8*%
X156800000Y-86650000D03*
%TD*%
D11*
%TO.N,+3V3*%
%TO.C,J4*%
X143375000Y-84010000D03*
D12*
%TO.N,/Project Architecture/SYS_JTMS-SWDIO*%
X140835000Y-84010000D03*
%TO.N,GND*%
X143375000Y-81470000D03*
%TO.N,/Project Architecture/SYS_JTCK-SWCLK*%
X140835000Y-81470000D03*
%TO.N,GND*%
X143375000Y-78930000D03*
%TO.N,/Project Architecture/SYS_JTD0-SWO*%
X140835000Y-78930000D03*
%TO.N,GND*%
X143375000Y-76390000D03*
%TO.N,/Project Architecture/NRST*%
X140835000Y-76390000D03*
%TD*%
D10*
%TO.N,/Project Architecture/RS232_TX*%
%TO.C,TP6*%
X161150000Y-89000000D03*
%TD*%
D13*
%TO.N,GND*%
%TO.C,H3*%
X173900000Y-109500000D03*
%TD*%
D14*
%TO.N,+5V_SPINE*%
%TO.C,J3*%
X170800000Y-92800000D03*
D15*
%TO.N,/Project Architecture/RS232_TX*%
X168850000Y-93425000D03*
%TO.N,/Project Architecture/RS232_RX*%
X170800000Y-96200000D03*
%TO.N,GND*%
X168850000Y-95575000D03*
D16*
X170300000Y-100750000D03*
X170300000Y-88250000D03*
%TD*%
D17*
%TO.N,/Project Architecture/VDD_BUZ*%
%TO.C,BZ1*%
X163900000Y-110000000D03*
D18*
%TO.N,/Project Architecture/BUZZ-*%
X163900000Y-105000000D03*
%TD*%
D19*
%TO.N,GND*%
%TO.C,J2*%
X155120000Y-81705000D03*
D20*
X155120000Y-76345000D03*
D19*
X146480000Y-81705000D03*
D20*
X146480000Y-76345000D03*
%TD*%
D13*
%TO.N,GND*%
%TO.C,H1*%
X133900000Y-109500000D03*
%TD*%
%TO.N,GND*%
%TO.C,H4*%
X173900000Y-79500000D03*
%TD*%
%TO.N,GND*%
%TO.C,H2*%
X133900000Y-79500000D03*
%TD*%
D10*
%TO.N,/Project Architecture/RS232_RX*%
%TO.C,TP5*%
X164900000Y-89000000D03*
%TD*%
%TO.N,/Project Architecture/TX*%
%TO.C,TP7*%
X156800000Y-89800000D03*
%TD*%
%TO.N,+5V_SPINE*%
%TO.C,TP2*%
X169800000Y-84100000D03*
%TD*%
D21*
%TO.N,+3V3*%
X167235817Y-83968163D03*
X141600000Y-98600000D03*
X158500000Y-88700000D03*
X148400000Y-89250000D03*
X158800000Y-92500000D03*
X153500000Y-93050000D03*
X152700000Y-110600000D03*
X141692185Y-89342185D03*
X134524265Y-98475735D03*
X133100000Y-90400000D03*
X133095431Y-96895431D03*
X146400000Y-110450000D03*
X162600000Y-112350000D03*
X157850000Y-84000000D03*
X161800000Y-86800000D03*
X163550000Y-87350000D03*
%TO.N,GND*%
X140725000Y-104302438D03*
X147100000Y-98750000D03*
X174750000Y-93850000D03*
X155900000Y-83500000D03*
X166650000Y-107700000D03*
X161900000Y-81350000D03*
X149550000Y-91400000D03*
X147083560Y-92322832D03*
X133100000Y-91500000D03*
X148300000Y-104300000D03*
X160503686Y-90895422D03*
X160450000Y-86650000D03*
X130900000Y-101100000D03*
X151182504Y-87692494D03*
X137450000Y-105100000D03*
X150775000Y-104314143D03*
X149607631Y-84705474D03*
X150050000Y-110500000D03*
X145350000Y-84300000D03*
X141872758Y-97419272D03*
X164984644Y-81400355D03*
X140700000Y-90150000D03*
X160200000Y-76650000D03*
X135409620Y-98490380D03*
X155200000Y-106100000D03*
X135500000Y-102900000D03*
X146650000Y-87750000D03*
X140200000Y-102600000D03*
X153500000Y-94500000D03*
X156500000Y-101250000D03*
X140350000Y-110550000D03*
X143250000Y-104300000D03*
X166650000Y-84850000D03*
X168200000Y-104800000D03*
X151825000Y-101762500D03*
X157200000Y-110450000D03*
X166650000Y-101400000D03*
X131150000Y-103100000D03*
X168800000Y-78250000D03*
X145800000Y-104300000D03*
X133100000Y-98000000D03*
X137529868Y-85464210D03*
X160600000Y-111650000D03*
X131350000Y-87700000D03*
X134850000Y-86950000D03*
%TO.N,+5V*%
X162000000Y-82700000D03*
X164063548Y-76848483D03*
X133850000Y-84800000D03*
X162100000Y-78800000D03*
X163900000Y-79450000D03*
%TO.N,/Project Architecture/Delay*%
X160350000Y-79750000D03*
%TO.N,/Project Architecture/ON_K*%
X150800000Y-106300000D03*
%TO.N,/Project Architecture/ON_LED*%
X137600000Y-96700000D03*
%TO.N,/Project Architecture/Buff_full*%
X134759293Y-96690707D03*
%TO.N,/Project Architecture/Buff_K*%
X143300000Y-106300000D03*
%TO.N,/Project Architecture/EN_SD*%
X133866328Y-96681602D03*
X144600000Y-90850000D03*
X147300000Y-90200000D03*
%TO.N,/Project Architecture/EN_SD_K*%
X140750000Y-106300000D03*
%TO.N,/Project Architecture/RX_LED*%
X135750000Y-96700000D03*
%TO.N,/Project Architecture/RX_K*%
X145850000Y-106300000D03*
%TO.N,/Project Architecture/TX_LED*%
X136712938Y-96687062D03*
%TO.N,/Project Architecture/SW_BOOT0*%
X143250000Y-111900000D03*
%TO.N,/Project Architecture/SW_BOOT0_K*%
X150050000Y-112754998D03*
%TO.N,/Project Architecture/Debug_sw*%
X136725735Y-102374265D03*
%TO.N,/Project Architecture/Debug_sw_K*%
X160600000Y-113300000D03*
%TO.N,/Project Architecture/CLK*%
X147050000Y-93150000D03*
%TO.N,/Project Architecture/CMD*%
X147008961Y-94545941D03*
%TO.N,/Project Architecture/DAT1*%
X141300000Y-86051000D03*
%TO.N,/Project Architecture/DAT0*%
X140400000Y-85450000D03*
%TO.N,/Project Architecture/DAT2*%
X148599986Y-94750000D03*
%TO.N,/Project Architecture/DAT3*%
X147799983Y-94750000D03*
%TO.N,/Project Architecture/RS232_TX*%
X161900000Y-90650000D03*
%TO.N,/Project Architecture/RX*%
X144225734Y-87775737D03*
%TO.N,/Project Architecture/Power_mux_st*%
X158100000Y-76400000D03*
X162750000Y-76000000D03*
%TO.N,/Project Architecture/BUZZER*%
X141300000Y-96000000D03*
X146800000Y-99850000D03*
%TO.N,/Project Architecture/PWRGD*%
X158625000Y-81380000D03*
%TO.N,/Project Architecture/NRST*%
X138200000Y-95250000D03*
X138200000Y-97700000D03*
X158800000Y-106100000D03*
%TO.N,/Project Architecture/SYS_JTD0-SWO*%
X140400000Y-92550000D03*
%TO.N,/Project Architecture/SYS_JTCK-SWCLK*%
X141050000Y-91950000D03*
%TO.N,/Project Architecture/RS232_invalid*%
X144899998Y-96100000D03*
X162400000Y-95000000D03*
X141197017Y-94191051D03*
%TO.N,/Project Architecture/RS232_ready*%
X158600000Y-99650000D03*
X141450000Y-94950000D03*
X144844412Y-96956830D03*
%TO.N,/Project Architecture/CC2*%
X149750000Y-79051472D03*
X148900000Y-83800000D03*
%TO.N,/Project Architecture/SCL*%
X153400000Y-86500000D03*
%TO.N,/Project Architecture/SDA*%
X153024265Y-89874265D03*
%TO.N,/Project Architecture/USBC_D+*%
X151250000Y-79100000D03*
X151150000Y-83150000D03*
%TO.N,/Project Architecture/USBC_D-*%
X150349997Y-83150000D03*
X151200000Y-80000000D03*
%TO.N,/Project Architecture/TX_K*%
X148350000Y-106300000D03*
%TO.N,/Project Architecture/3V3_INA*%
X160064601Y-77941935D03*
X162276352Y-84961122D03*
%TO.N,/Project Architecture/SYS_JTMS-SWDIO*%
X139901000Y-90299000D03*
%TO.N,/Project Architecture/TX*%
X145050000Y-87800000D03*
%TO.N,+5V_USB*%
X152600000Y-83250000D03*
%TO.N,/Project Architecture/LEDDATA1*%
X134550000Y-102750000D03*
%TD*%
%TA.AperFunction,Conductor*%
%TO.N,GND*%
G36*
X140744908Y-75020185D02*
G01*
X140790663Y-75072989D01*
X140800607Y-75142147D01*
X140771582Y-75205703D01*
X140712804Y-75243477D01*
X140697267Y-75246973D01*
X140565589Y-75267829D01*
X140393363Y-75323787D01*
X140393360Y-75323788D01*
X140232002Y-75406006D01*
X140085505Y-75512441D01*
X140085500Y-75512445D01*
X139957445Y-75640500D01*
X139957441Y-75640505D01*
X139851006Y-75787002D01*
X139768788Y-75948360D01*
X139768787Y-75948363D01*
X139712829Y-76120589D01*
X139684500Y-76299448D01*
X139684500Y-76480551D01*
X139712829Y-76659410D01*
X139768787Y-76831636D01*
X139768788Y-76831639D01*
X139851006Y-76992997D01*
X139957441Y-77139494D01*
X139957445Y-77139499D01*
X140085500Y-77267554D01*
X140085505Y-77267558D01*
X140178415Y-77335060D01*
X140232006Y-77373996D01*
X140337484Y-77427740D01*
X140393360Y-77456211D01*
X140393363Y-77456212D01*
X140446821Y-77473581D01*
X140565591Y-77512171D01*
X140638639Y-77523740D01*
X140725678Y-77537527D01*
X140788813Y-77567456D01*
X140825744Y-77626768D01*
X140824746Y-77696631D01*
X140786136Y-77754863D01*
X140725678Y-77782473D01*
X140565589Y-77807829D01*
X140393363Y-77863787D01*
X140393360Y-77863788D01*
X140232002Y-77946006D01*
X140085505Y-78052441D01*
X140085500Y-78052445D01*
X139957445Y-78180500D01*
X139957441Y-78180505D01*
X139851006Y-78327002D01*
X139768788Y-78488360D01*
X139768787Y-78488363D01*
X139712829Y-78660589D01*
X139684500Y-78839448D01*
X139684500Y-79020551D01*
X139712829Y-79199410D01*
X139768787Y-79371636D01*
X139768788Y-79371639D01*
X139824664Y-79481300D01*
X139850495Y-79531996D01*
X139851006Y-79532997D01*
X139957441Y-79679494D01*
X139957445Y-79679499D01*
X140085500Y-79807554D01*
X140085505Y-79807558D01*
X140209565Y-79897692D01*
X140232006Y-79913996D01*
X140337484Y-79967740D01*
X140393360Y-79996211D01*
X140393363Y-79996212D01*
X140446821Y-80013581D01*
X140565591Y-80052171D01*
X140638639Y-80063740D01*
X140725678Y-80077527D01*
X140788813Y-80107456D01*
X140825744Y-80166768D01*
X140824746Y-80236631D01*
X140786136Y-80294863D01*
X140725678Y-80322473D01*
X140565589Y-80347829D01*
X140393363Y-80403787D01*
X140393360Y-80403788D01*
X140232002Y-80486006D01*
X140085505Y-80592441D01*
X140085500Y-80592445D01*
X139957445Y-80720500D01*
X139957441Y-80720505D01*
X139851006Y-80867002D01*
X139768788Y-81028360D01*
X139768787Y-81028363D01*
X139712829Y-81200589D01*
X139684500Y-81379448D01*
X139684500Y-81560551D01*
X139712829Y-81739410D01*
X139768787Y-81911636D01*
X139768788Y-81911639D01*
X139851006Y-82072997D01*
X139957441Y-82219494D01*
X139957445Y-82219499D01*
X140085500Y-82347554D01*
X140085505Y-82347558D01*
X140142828Y-82389205D01*
X140232006Y-82453996D01*
X140332106Y-82505000D01*
X140393360Y-82536211D01*
X140393363Y-82536212D01*
X140479476Y-82564191D01*
X140565591Y-82592171D01*
X140638639Y-82603740D01*
X140725678Y-82617527D01*
X140788813Y-82647456D01*
X140825744Y-82706768D01*
X140824746Y-82776631D01*
X140786136Y-82834863D01*
X140725678Y-82862473D01*
X140565589Y-82887829D01*
X140393363Y-82943787D01*
X140393360Y-82943788D01*
X140232002Y-83026006D01*
X140085505Y-83132441D01*
X140085500Y-83132445D01*
X139957445Y-83260500D01*
X139957441Y-83260505D01*
X139851006Y-83407002D01*
X139768788Y-83568360D01*
X139768787Y-83568363D01*
X139712829Y-83740589D01*
X139684500Y-83919448D01*
X139684500Y-84100551D01*
X139712829Y-84279410D01*
X139768787Y-84451636D01*
X139768788Y-84451639D01*
X139824664Y-84561300D01*
X139844637Y-84600499D01*
X139851006Y-84612997D01*
X139957441Y-84759494D01*
X139957445Y-84759499D01*
X140011674Y-84813728D01*
X140045159Y-84875051D01*
X140040175Y-84944743D01*
X140011674Y-84989090D01*
X139919481Y-85081282D01*
X139919475Y-85081290D01*
X139840426Y-85218209D01*
X139840423Y-85218216D01*
X139799500Y-85370943D01*
X139799500Y-85529057D01*
X139810600Y-85570480D01*
X139840423Y-85681783D01*
X139840426Y-85681790D01*
X139919475Y-85818709D01*
X139919479Y-85818714D01*
X139919480Y-85818716D01*
X140031284Y-85930520D01*
X140031286Y-85930521D01*
X140031290Y-85930524D01*
X140168209Y-86009573D01*
X140168216Y-86009577D01*
X140320943Y-86050500D01*
X140320945Y-86050500D01*
X140479054Y-86050500D01*
X140479057Y-86050500D01*
X140545297Y-86032751D01*
X140615144Y-86034414D01*
X140673007Y-86073576D01*
X140694518Y-86122978D01*
X140697397Y-86122207D01*
X140699500Y-86130055D01*
X140699500Y-86130057D01*
X140736518Y-86268209D01*
X140740423Y-86282783D01*
X140740426Y-86282790D01*
X140819475Y-86419709D01*
X140819479Y-86419714D01*
X140819480Y-86419716D01*
X140931284Y-86531520D01*
X140931286Y-86531521D01*
X140931290Y-86531524D01*
X141013621Y-86579057D01*
X141068216Y-86610577D01*
X141220943Y-86651500D01*
X141220945Y-86651500D01*
X141379055Y-86651500D01*
X141379057Y-86651500D01*
X141531784Y-86610577D01*
X141668716Y-86531520D01*
X141779293Y-86420943D01*
X152799500Y-86420943D01*
X152799500Y-86579057D01*
X152807946Y-86610576D01*
X152840423Y-86731783D01*
X152840426Y-86731790D01*
X152919475Y-86868709D01*
X152919479Y-86868714D01*
X152919480Y-86868716D01*
X153031284Y-86980520D01*
X153031286Y-86980521D01*
X153031290Y-86980524D01*
X153120087Y-87031790D01*
X153168216Y-87059577D01*
X153320943Y-87100500D01*
X153320945Y-87100500D01*
X153479055Y-87100500D01*
X153479057Y-87100500D01*
X153631784Y-87059577D01*
X153768716Y-86980520D01*
X153880520Y-86868716D01*
X153959577Y-86731784D01*
X154000500Y-86579057D01*
X154000500Y-86547648D01*
X155499500Y-86547648D01*
X155499500Y-86752351D01*
X155531522Y-86954534D01*
X155594781Y-87149223D01*
X155641251Y-87240423D01*
X155681532Y-87319480D01*
X155687715Y-87331613D01*
X155808028Y-87497213D01*
X155952786Y-87641971D01*
X156079077Y-87733725D01*
X156118390Y-87762287D01*
X156234607Y-87821503D01*
X156300776Y-87855218D01*
X156300778Y-87855218D01*
X156300781Y-87855220D01*
X156374138Y-87879055D01*
X156495465Y-87918477D01*
X156588712Y-87933246D01*
X156697648Y-87950500D01*
X156697649Y-87950500D01*
X156902351Y-87950500D01*
X156902352Y-87950500D01*
X157104534Y-87918477D01*
X157299219Y-87855220D01*
X157481610Y-87762287D01*
X157574590Y-87694732D01*
X157647213Y-87641971D01*
X157647215Y-87641968D01*
X157647219Y-87641966D01*
X157791966Y-87497219D01*
X157791968Y-87497215D01*
X157791971Y-87497213D01*
X157857498Y-87407021D01*
X157912287Y-87331610D01*
X158005220Y-87149219D01*
X158068477Y-86954534D01*
X158100500Y-86752352D01*
X158100500Y-86720943D01*
X161199500Y-86720943D01*
X161199500Y-86879057D01*
X161226687Y-86980518D01*
X161240423Y-87031783D01*
X161240426Y-87031790D01*
X161319475Y-87168709D01*
X161319479Y-87168714D01*
X161319480Y-87168716D01*
X161431284Y-87280520D01*
X161431286Y-87280521D01*
X161431290Y-87280524D01*
X161498765Y-87319480D01*
X161568216Y-87359577D01*
X161720943Y-87400500D01*
X161720945Y-87400500D01*
X161879055Y-87400500D01*
X161879057Y-87400500D01*
X162031784Y-87359577D01*
X162168716Y-87280520D01*
X162178293Y-87270943D01*
X162949500Y-87270943D01*
X162949500Y-87429057D01*
X162986788Y-87568216D01*
X162990423Y-87581783D01*
X162990426Y-87581790D01*
X163069475Y-87718709D01*
X163069479Y-87718714D01*
X163069480Y-87718716D01*
X163181284Y-87830520D01*
X163181286Y-87830521D01*
X163181290Y-87830524D01*
X163295472Y-87896446D01*
X163318216Y-87909577D01*
X163470943Y-87950500D01*
X163470945Y-87950500D01*
X163629055Y-87950500D01*
X163629057Y-87950500D01*
X163781784Y-87909577D01*
X163840236Y-87875829D01*
X163908135Y-87859357D01*
X163974162Y-87882209D01*
X164017352Y-87937130D01*
X164023994Y-88006684D01*
X163991978Y-88068786D01*
X163989917Y-88070898D01*
X163908027Y-88152788D01*
X163787715Y-88318386D01*
X163694781Y-88500776D01*
X163631522Y-88695465D01*
X163599500Y-88897648D01*
X163599500Y-89102351D01*
X163631522Y-89304534D01*
X163694781Y-89499223D01*
X163787715Y-89681613D01*
X163908028Y-89847213D01*
X164052786Y-89991971D01*
X164207719Y-90104534D01*
X164218390Y-90112287D01*
X164328143Y-90168209D01*
X164400776Y-90205218D01*
X164400778Y-90205218D01*
X164400781Y-90205220D01*
X164505137Y-90239127D01*
X164595465Y-90268477D01*
X164662258Y-90279056D01*
X164797648Y-90300500D01*
X164797649Y-90300500D01*
X165002351Y-90300500D01*
X165002352Y-90300500D01*
X165204534Y-90268477D01*
X165399219Y-90205220D01*
X165581610Y-90112287D01*
X165747219Y-89991966D01*
X165891966Y-89847219D01*
X165891968Y-89847215D01*
X165891971Y-89847213D01*
X165962599Y-89750000D01*
X166012287Y-89681610D01*
X166105220Y-89499219D01*
X166168477Y-89304534D01*
X166200500Y-89102352D01*
X166200500Y-88897648D01*
X166178849Y-88760953D01*
X166168477Y-88695465D01*
X166135762Y-88594780D01*
X166105220Y-88500781D01*
X166105218Y-88500778D01*
X166105218Y-88500776D01*
X166012287Y-88318390D01*
X165911022Y-88179009D01*
X165911021Y-88179008D01*
X165891967Y-88152782D01*
X165848783Y-88109598D01*
X167800000Y-88109598D01*
X167800000Y-88390401D01*
X167831437Y-88669412D01*
X167831439Y-88669424D01*
X167893921Y-88943178D01*
X167893922Y-88943180D01*
X167986662Y-89208217D01*
X168108492Y-89461200D01*
X168257884Y-89698956D01*
X168364187Y-89832257D01*
X169077339Y-89119104D01*
X169155864Y-89227184D01*
X169322816Y-89394136D01*
X169430893Y-89472658D01*
X168717741Y-90185810D01*
X168717741Y-90185811D01*
X168851043Y-90292115D01*
X169088799Y-90441507D01*
X169341782Y-90563337D01*
X169606819Y-90656077D01*
X169606821Y-90656078D01*
X169880575Y-90718560D01*
X169880587Y-90718562D01*
X170159598Y-90749999D01*
X170159600Y-90750000D01*
X170440400Y-90750000D01*
X170440401Y-90749999D01*
X170719412Y-90718562D01*
X170719424Y-90718560D01*
X170993178Y-90656078D01*
X170993180Y-90656077D01*
X171258217Y-90563337D01*
X171511200Y-90441507D01*
X171748956Y-90292116D01*
X171882257Y-90185810D01*
X171169105Y-89472659D01*
X171277184Y-89394136D01*
X171444136Y-89227184D01*
X171522659Y-89119105D01*
X172235810Y-89832257D01*
X172342116Y-89698956D01*
X172491507Y-89461200D01*
X172613337Y-89208217D01*
X172706077Y-88943180D01*
X172706078Y-88943178D01*
X172768560Y-88669424D01*
X172768562Y-88669412D01*
X172799999Y-88390401D01*
X172800000Y-88390399D01*
X172800000Y-88109600D01*
X172799999Y-88109598D01*
X172768562Y-87830587D01*
X172768560Y-87830575D01*
X172706078Y-87556821D01*
X172706077Y-87556819D01*
X172613337Y-87291782D01*
X172491507Y-87038799D01*
X172342115Y-86801043D01*
X172235810Y-86667741D01*
X171522658Y-87380893D01*
X171444136Y-87272816D01*
X171277184Y-87105864D01*
X171169105Y-87027340D01*
X171882257Y-86314187D01*
X171748956Y-86207884D01*
X171511200Y-86058492D01*
X171258217Y-85936662D01*
X170993180Y-85843922D01*
X170993178Y-85843921D01*
X170719424Y-85781439D01*
X170719412Y-85781437D01*
X170440401Y-85750000D01*
X170159598Y-85750000D01*
X169880587Y-85781437D01*
X169880575Y-85781439D01*
X169606821Y-85843921D01*
X169606819Y-85843922D01*
X169341782Y-85936662D01*
X169088799Y-86058492D01*
X168851043Y-86207884D01*
X168717741Y-86314187D01*
X169430894Y-87027340D01*
X169322816Y-87105864D01*
X169155864Y-87272816D01*
X169077340Y-87380894D01*
X168364187Y-86667741D01*
X168257884Y-86801043D01*
X168108492Y-87038799D01*
X167986662Y-87291782D01*
X167893922Y-87556819D01*
X167893921Y-87556821D01*
X167831439Y-87830575D01*
X167831437Y-87830587D01*
X167800000Y-88109598D01*
X165848783Y-88109598D01*
X165747213Y-88008028D01*
X165581613Y-87887715D01*
X165581612Y-87887714D01*
X165581610Y-87887713D01*
X165517001Y-87854793D01*
X165399223Y-87794781D01*
X165204534Y-87731522D01*
X165029995Y-87703878D01*
X165002352Y-87699500D01*
X164797648Y-87699500D01*
X164773329Y-87703351D01*
X164595465Y-87731522D01*
X164400776Y-87794781D01*
X164218388Y-87887714D01*
X164188032Y-87909768D01*
X164122225Y-87933246D01*
X164054172Y-87917419D01*
X164005478Y-87867312D01*
X163991604Y-87798834D01*
X164016955Y-87733725D01*
X164027465Y-87721770D01*
X164030520Y-87718716D01*
X164109577Y-87581784D01*
X164150500Y-87429057D01*
X164150500Y-87270943D01*
X164109577Y-87118216D01*
X164075722Y-87059577D01*
X164030524Y-86981290D01*
X164030518Y-86981282D01*
X163918717Y-86869481D01*
X163918709Y-86869475D01*
X163781790Y-86790426D01*
X163781786Y-86790424D01*
X163781784Y-86790423D01*
X163629057Y-86749500D01*
X163470943Y-86749500D01*
X163318216Y-86790423D01*
X163318209Y-86790426D01*
X163181290Y-86869475D01*
X163181282Y-86869481D01*
X163069481Y-86981282D01*
X163069475Y-86981290D01*
X162990426Y-87118209D01*
X162990423Y-87118216D01*
X162949500Y-87270943D01*
X162178293Y-87270943D01*
X162280520Y-87168716D01*
X162359577Y-87031784D01*
X162400500Y-86879057D01*
X162400500Y-86720943D01*
X162359577Y-86568216D01*
X162338390Y-86531518D01*
X162280524Y-86431290D01*
X162280518Y-86431282D01*
X162168717Y-86319481D01*
X162168709Y-86319475D01*
X162031790Y-86240426D01*
X162031786Y-86240424D01*
X162031784Y-86240423D01*
X161879057Y-86199500D01*
X161720943Y-86199500D01*
X161568216Y-86240423D01*
X161568209Y-86240426D01*
X161431290Y-86319475D01*
X161431282Y-86319481D01*
X161319481Y-86431282D01*
X161319475Y-86431290D01*
X161240426Y-86568209D01*
X161240423Y-86568216D01*
X161199500Y-86720943D01*
X158100500Y-86720943D01*
X158100500Y-86547648D01*
X158082070Y-86431290D01*
X158068477Y-86345465D01*
X158005218Y-86150776D01*
X157954124Y-86050500D01*
X157912287Y-85968390D01*
X157891968Y-85940423D01*
X157791971Y-85802786D01*
X157647213Y-85658028D01*
X157481613Y-85537715D01*
X157481612Y-85537714D01*
X157481610Y-85537713D01*
X157390761Y-85491423D01*
X157299223Y-85444781D01*
X157104534Y-85381522D01*
X156929995Y-85353878D01*
X156902352Y-85349500D01*
X156697648Y-85349500D01*
X156673329Y-85353351D01*
X156495465Y-85381522D01*
X156300776Y-85444781D01*
X156118386Y-85537715D01*
X155952786Y-85658028D01*
X155808028Y-85802786D01*
X155687715Y-85968386D01*
X155594781Y-86150776D01*
X155531522Y-86345465D01*
X155499500Y-86547648D01*
X154000500Y-86547648D01*
X154000500Y-86420943D01*
X153959577Y-86268216D01*
X153919904Y-86199500D01*
X153880524Y-86131290D01*
X153880518Y-86131282D01*
X153768717Y-86019481D01*
X153768709Y-86019475D01*
X153631790Y-85940426D01*
X153631786Y-85940424D01*
X153631784Y-85940423D01*
X153479057Y-85899500D01*
X153320943Y-85899500D01*
X153168216Y-85940423D01*
X153168209Y-85940426D01*
X153031290Y-86019475D01*
X153031282Y-86019481D01*
X152919481Y-86131282D01*
X152919475Y-86131290D01*
X152840426Y-86268209D01*
X152840423Y-86268216D01*
X152799500Y-86420943D01*
X141779293Y-86420943D01*
X141780520Y-86419716D01*
X141859577Y-86282784D01*
X141900500Y-86130057D01*
X141900500Y-85971943D01*
X141859577Y-85819216D01*
X141837767Y-85781439D01*
X141780524Y-85682290D01*
X141780518Y-85682282D01*
X141668717Y-85570481D01*
X141668709Y-85570475D01*
X141531790Y-85491426D01*
X141531786Y-85491424D01*
X141531784Y-85491423D01*
X141379057Y-85450500D01*
X141220943Y-85450500D01*
X141220941Y-85450500D01*
X141154703Y-85468248D01*
X141145497Y-85468028D01*
X141137022Y-85471633D01*
X141111120Y-85467210D01*
X141084853Y-85466585D01*
X141077226Y-85461422D01*
X141068149Y-85459873D01*
X141048751Y-85442149D01*
X141026991Y-85427421D01*
X141021997Y-85417704D01*
X141016568Y-85412744D01*
X141010349Y-85395040D01*
X141002756Y-85380265D01*
X141000500Y-85371759D01*
X141000500Y-85370943D01*
X140978919Y-85290400D01*
X140979833Y-85255634D01*
X140980662Y-85220851D01*
X140980752Y-85220716D01*
X140980757Y-85220555D01*
X141000351Y-85191760D01*
X141019825Y-85162989D01*
X141019976Y-85162920D01*
X141020065Y-85162791D01*
X141023561Y-85161303D01*
X141079376Y-85136135D01*
X141104409Y-85132171D01*
X141276639Y-85076211D01*
X141437994Y-84993996D01*
X141584501Y-84887553D01*
X141712553Y-84759501D01*
X141818996Y-84612994D01*
X141901211Y-84451639D01*
X141957171Y-84279409D01*
X141978027Y-84147729D01*
X142007956Y-84084595D01*
X142067267Y-84047663D01*
X142137130Y-84048661D01*
X142195363Y-84087271D01*
X142223477Y-84151234D01*
X142224500Y-84167127D01*
X142224500Y-84904856D01*
X142224502Y-84904882D01*
X142227413Y-84929987D01*
X142227415Y-84929991D01*
X142272793Y-85032764D01*
X142272794Y-85032765D01*
X142352235Y-85112206D01*
X142455009Y-85157585D01*
X142480135Y-85160500D01*
X144269864Y-85160499D01*
X144269879Y-85160497D01*
X144269882Y-85160497D01*
X144294987Y-85157586D01*
X144294988Y-85157585D01*
X144294991Y-85157585D01*
X144397765Y-85112206D01*
X144477206Y-85032765D01*
X144522585Y-84929991D01*
X144525500Y-84904865D01*
X144525500Y-84882065D01*
X161675852Y-84882065D01*
X161675852Y-85040179D01*
X161710294Y-85168716D01*
X161716775Y-85192905D01*
X161716778Y-85192912D01*
X161795827Y-85329831D01*
X161795831Y-85329836D01*
X161795832Y-85329838D01*
X161907636Y-85441642D01*
X161907638Y-85441643D01*
X161907642Y-85441646D01*
X161951921Y-85467210D01*
X162044568Y-85520699D01*
X162197295Y-85561622D01*
X162197297Y-85561622D01*
X162355407Y-85561622D01*
X162355409Y-85561622D01*
X162508136Y-85520699D01*
X162645068Y-85441642D01*
X162756872Y-85329838D01*
X162835929Y-85192906D01*
X162876852Y-85040179D01*
X162876852Y-84882065D01*
X162835929Y-84729338D01*
X162831082Y-84720943D01*
X162756876Y-84592412D01*
X162756870Y-84592404D01*
X162645069Y-84480603D01*
X162645061Y-84480597D01*
X162508142Y-84401548D01*
X162508138Y-84401546D01*
X162508136Y-84401545D01*
X162355409Y-84360622D01*
X162197295Y-84360622D01*
X162044568Y-84401545D01*
X162044561Y-84401548D01*
X161907642Y-84480597D01*
X161907634Y-84480603D01*
X161795833Y-84592404D01*
X161795827Y-84592412D01*
X161716778Y-84729331D01*
X161716775Y-84729338D01*
X161675852Y-84882065D01*
X144525500Y-84882065D01*
X144525499Y-83720943D01*
X148299500Y-83720943D01*
X148299500Y-83879057D01*
X148331277Y-83997648D01*
X148340423Y-84031783D01*
X148340426Y-84031790D01*
X148419475Y-84168709D01*
X148419479Y-84168714D01*
X148419480Y-84168716D01*
X148531284Y-84280520D01*
X148531286Y-84280521D01*
X148531290Y-84280524D01*
X148628903Y-84336880D01*
X148668216Y-84359577D01*
X148820943Y-84400500D01*
X148820945Y-84400500D01*
X148979055Y-84400500D01*
X148979057Y-84400500D01*
X149131784Y-84359577D01*
X149268716Y-84280520D01*
X149380520Y-84168716D01*
X149459577Y-84031784D01*
X149489277Y-83920943D01*
X157249500Y-83920943D01*
X157249500Y-84079057D01*
X157282537Y-84202351D01*
X157290423Y-84231783D01*
X157290426Y-84231790D01*
X157369475Y-84368709D01*
X157369479Y-84368714D01*
X157369480Y-84368716D01*
X157481284Y-84480520D01*
X157481286Y-84480521D01*
X157481290Y-84480524D01*
X157563065Y-84527736D01*
X157618216Y-84559577D01*
X157770943Y-84600500D01*
X157770945Y-84600500D01*
X157929055Y-84600500D01*
X157929057Y-84600500D01*
X158081784Y-84559577D01*
X158218716Y-84480520D01*
X158330520Y-84368716D01*
X158409577Y-84231784D01*
X158450500Y-84079057D01*
X158450500Y-83920943D01*
X158441969Y-83889106D01*
X166635317Y-83889106D01*
X166635317Y-84047220D01*
X166663188Y-84151234D01*
X166676240Y-84199946D01*
X166676243Y-84199953D01*
X166755292Y-84336872D01*
X166755296Y-84336877D01*
X166755297Y-84336879D01*
X166867101Y-84448683D01*
X166867103Y-84448684D01*
X166867107Y-84448687D01*
X167004026Y-84527736D01*
X167004033Y-84527740D01*
X167156760Y-84568663D01*
X167156762Y-84568663D01*
X167314872Y-84568663D01*
X167314874Y-84568663D01*
X167467601Y-84527740D01*
X167604533Y-84448683D01*
X167716337Y-84336879D01*
X167795394Y-84199947D01*
X167836317Y-84047220D01*
X167836317Y-83997648D01*
X168499500Y-83997648D01*
X168499500Y-84202351D01*
X168531522Y-84404534D01*
X168594781Y-84599223D01*
X168656802Y-84720943D01*
X168676444Y-84759494D01*
X168687715Y-84781613D01*
X168808028Y-84947213D01*
X168952786Y-85091971D01*
X169090137Y-85191760D01*
X169118390Y-85212287D01*
X169234607Y-85271503D01*
X169300776Y-85305218D01*
X169300778Y-85305218D01*
X169300781Y-85305220D01*
X169405137Y-85339127D01*
X169495465Y-85368477D01*
X169577834Y-85381523D01*
X169697648Y-85400500D01*
X169697649Y-85400500D01*
X169902351Y-85400500D01*
X169902352Y-85400500D01*
X170104534Y-85368477D01*
X170299219Y-85305220D01*
X170481610Y-85212287D01*
X170574590Y-85144732D01*
X170647213Y-85091971D01*
X170647215Y-85091968D01*
X170647219Y-85091966D01*
X170791966Y-84947219D01*
X170791968Y-84947215D01*
X170791971Y-84947213D01*
X170888952Y-84813728D01*
X170912287Y-84781610D01*
X171005220Y-84599219D01*
X171068477Y-84404534D01*
X171100500Y-84202352D01*
X171100500Y-83997648D01*
X172199500Y-83997648D01*
X172199500Y-84202351D01*
X172231522Y-84404534D01*
X172294781Y-84599223D01*
X172356802Y-84720943D01*
X172376444Y-84759494D01*
X172387715Y-84781613D01*
X172508028Y-84947213D01*
X172652786Y-85091971D01*
X172790137Y-85191760D01*
X172818390Y-85212287D01*
X172934607Y-85271503D01*
X173000776Y-85305218D01*
X173000778Y-85305218D01*
X173000781Y-85305220D01*
X173105137Y-85339127D01*
X173195465Y-85368477D01*
X173277834Y-85381523D01*
X173397648Y-85400500D01*
X173397649Y-85400500D01*
X173602351Y-85400500D01*
X173602352Y-85400500D01*
X173804534Y-85368477D01*
X173999219Y-85305220D01*
X174181610Y-85212287D01*
X174274590Y-85144732D01*
X174347213Y-85091971D01*
X174347215Y-85091968D01*
X174347219Y-85091966D01*
X174491966Y-84947219D01*
X174491968Y-84947215D01*
X174491971Y-84947213D01*
X174588952Y-84813728D01*
X174612287Y-84781610D01*
X174705220Y-84599219D01*
X174768477Y-84404534D01*
X174800500Y-84202352D01*
X174800500Y-83997648D01*
X174783308Y-83889106D01*
X174768477Y-83795465D01*
X174714882Y-83630518D01*
X174705220Y-83600781D01*
X174705218Y-83600778D01*
X174705218Y-83600776D01*
X174671503Y-83534607D01*
X174612287Y-83418390D01*
X174585696Y-83381790D01*
X174491971Y-83252786D01*
X174347213Y-83108028D01*
X174181613Y-82987715D01*
X174181612Y-82987714D01*
X174181610Y-82987713D01*
X174124653Y-82958691D01*
X173999223Y-82894781D01*
X173804534Y-82831522D01*
X173629995Y-82803878D01*
X173602352Y-82799500D01*
X173397648Y-82799500D01*
X173373329Y-82803351D01*
X173195465Y-82831522D01*
X173000776Y-82894781D01*
X172818386Y-82987715D01*
X172652786Y-83108028D01*
X172508028Y-83252786D01*
X172387715Y-83418386D01*
X172294781Y-83600776D01*
X172231522Y-83795465D01*
X172199500Y-83997648D01*
X171100500Y-83997648D01*
X171083308Y-83889106D01*
X171068477Y-83795465D01*
X171014882Y-83630518D01*
X171005220Y-83600781D01*
X171005218Y-83600778D01*
X171005218Y-83600776D01*
X170971503Y-83534607D01*
X170912287Y-83418390D01*
X170885696Y-83381790D01*
X170791971Y-83252786D01*
X170647213Y-83108028D01*
X170481613Y-82987715D01*
X170481612Y-82987714D01*
X170481610Y-82987713D01*
X170424653Y-82958691D01*
X170299223Y-82894781D01*
X170104534Y-82831522D01*
X169929995Y-82803878D01*
X169902352Y-82799500D01*
X169697648Y-82799500D01*
X169673329Y-82803351D01*
X169495465Y-82831522D01*
X169300776Y-82894781D01*
X169118386Y-82987715D01*
X168952786Y-83108028D01*
X168808028Y-83252786D01*
X168687715Y-83418386D01*
X168594781Y-83600776D01*
X168531522Y-83795465D01*
X168499500Y-83997648D01*
X167836317Y-83997648D01*
X167836317Y-83889106D01*
X167795394Y-83736379D01*
X167779920Y-83709577D01*
X167716341Y-83599453D01*
X167716335Y-83599445D01*
X167604534Y-83487644D01*
X167604526Y-83487638D01*
X167467607Y-83408589D01*
X167467603Y-83408587D01*
X167467601Y-83408586D01*
X167314874Y-83367663D01*
X167156760Y-83367663D01*
X167004033Y-83408586D01*
X167004026Y-83408589D01*
X166867107Y-83487638D01*
X166867099Y-83487644D01*
X166755298Y-83599445D01*
X166755292Y-83599453D01*
X166676243Y-83736372D01*
X166676240Y-83736379D01*
X166635317Y-83889106D01*
X158441969Y-83889106D01*
X158409577Y-83768216D01*
X158387816Y-83730524D01*
X158330524Y-83631290D01*
X158330518Y-83631282D01*
X158218717Y-83519481D01*
X158218709Y-83519475D01*
X158081790Y-83440426D01*
X158081786Y-83440424D01*
X158081784Y-83440423D01*
X157929057Y-83399500D01*
X157770943Y-83399500D01*
X157618216Y-83440423D01*
X157618209Y-83440426D01*
X157481290Y-83519475D01*
X157481282Y-83519481D01*
X157369481Y-83631282D01*
X157369475Y-83631290D01*
X157290426Y-83768209D01*
X157290424Y-83768214D01*
X157290423Y-83768216D01*
X157249500Y-83920943D01*
X149489277Y-83920943D01*
X149500500Y-83879057D01*
X149500500Y-83720943D01*
X149459577Y-83568216D01*
X149430999Y-83518717D01*
X149380524Y-83431290D01*
X149380518Y-83431282D01*
X149268717Y-83319481D01*
X149268709Y-83319475D01*
X149131790Y-83240426D01*
X149131786Y-83240424D01*
X149131784Y-83240423D01*
X148979057Y-83199500D01*
X148820943Y-83199500D01*
X148668216Y-83240423D01*
X148668209Y-83240426D01*
X148531290Y-83319475D01*
X148531282Y-83319481D01*
X148419481Y-83431282D01*
X148419475Y-83431290D01*
X148340426Y-83568209D01*
X148340423Y-83568216D01*
X148299500Y-83720943D01*
X144525499Y-83720943D01*
X144525499Y-83115136D01*
X144525497Y-83115117D01*
X144522586Y-83090012D01*
X144522585Y-83090010D01*
X144522585Y-83090009D01*
X144477206Y-82987235D01*
X144397765Y-82907794D01*
X144397763Y-82907793D01*
X144294992Y-82862415D01*
X144269868Y-82859500D01*
X144138079Y-82859500D01*
X144071040Y-82839815D01*
X144025285Y-82787011D01*
X144015341Y-82717853D01*
X144044366Y-82654297D01*
X144078606Y-82627502D01*
X144078402Y-82627168D01*
X144081317Y-82625381D01*
X144081787Y-82625014D01*
X144082552Y-82624623D01*
X144136716Y-82585270D01*
X144136717Y-82585270D01*
X143504408Y-81952962D01*
X143567993Y-81935925D01*
X143682007Y-81870099D01*
X143775099Y-81777007D01*
X143840925Y-81662993D01*
X143857962Y-81599408D01*
X144490270Y-82231717D01*
X144490270Y-82231716D01*
X144529622Y-82177554D01*
X144626095Y-81988217D01*
X144666027Y-81865320D01*
X144691757Y-81786130D01*
X144691757Y-81786127D01*
X144725000Y-81576246D01*
X144725000Y-81363753D01*
X144691757Y-81153872D01*
X144691756Y-81153866D01*
X144685240Y-81133812D01*
X144685239Y-81133810D01*
X144674767Y-81101579D01*
X145430000Y-81101579D01*
X145430000Y-81455000D01*
X146180000Y-81455000D01*
X146180000Y-81955000D01*
X145430000Y-81955000D01*
X145430000Y-82308420D01*
X145470348Y-82511266D01*
X145470350Y-82511274D01*
X145549500Y-82702358D01*
X145549505Y-82702368D01*
X145664410Y-82874335D01*
X145664413Y-82874339D01*
X145810660Y-83020586D01*
X145810664Y-83020589D01*
X145982631Y-83135494D01*
X145982641Y-83135499D01*
X146173723Y-83214648D01*
X146173725Y-83214649D01*
X146230000Y-83225842D01*
X146230000Y-82371988D01*
X146239940Y-82389205D01*
X146295795Y-82445060D01*
X146364204Y-82484556D01*
X146440504Y-82505000D01*
X146519496Y-82505000D01*
X146595796Y-82484556D01*
X146664205Y-82445060D01*
X146720060Y-82389205D01*
X146730000Y-82371988D01*
X146730000Y-83225842D01*
X146786274Y-83214649D01*
X146786276Y-83214648D01*
X146977358Y-83135499D01*
X146977368Y-83135494D01*
X147073975Y-83070943D01*
X149749497Y-83070943D01*
X149749497Y-83229057D01*
X149786637Y-83367663D01*
X149790420Y-83381783D01*
X149790423Y-83381790D01*
X149869472Y-83518709D01*
X149869476Y-83518714D01*
X149869477Y-83518716D01*
X149981281Y-83630520D01*
X149981283Y-83630521D01*
X149981287Y-83630524D01*
X150118206Y-83709573D01*
X150118213Y-83709577D01*
X150270940Y-83750500D01*
X150270942Y-83750500D01*
X150429052Y-83750500D01*
X150429054Y-83750500D01*
X150581781Y-83709577D01*
X150688001Y-83648251D01*
X150755898Y-83631779D01*
X150811995Y-83648251D01*
X150918216Y-83709577D01*
X151070943Y-83750500D01*
X151070945Y-83750500D01*
X151229055Y-83750500D01*
X151229057Y-83750500D01*
X151381784Y-83709577D01*
X151518716Y-83630520D01*
X151630520Y-83518716D01*
X151709577Y-83381784D01*
X151750500Y-83229057D01*
X151750500Y-83170943D01*
X151999500Y-83170943D01*
X151999500Y-83329057D01*
X152029341Y-83440423D01*
X152040423Y-83481783D01*
X152040426Y-83481790D01*
X152119475Y-83618709D01*
X152119479Y-83618714D01*
X152119480Y-83618716D01*
X152231284Y-83730520D01*
X152231286Y-83730521D01*
X152231290Y-83730524D01*
X152343773Y-83795465D01*
X152368216Y-83809577D01*
X152520943Y-83850500D01*
X152520945Y-83850500D01*
X152679055Y-83850500D01*
X152679057Y-83850500D01*
X152831784Y-83809577D01*
X152838970Y-83805427D01*
X152838973Y-83805427D01*
X152968709Y-83730524D01*
X152968708Y-83730524D01*
X152968716Y-83730520D01*
X153080520Y-83618716D01*
X153159577Y-83481784D01*
X153200500Y-83329057D01*
X153200500Y-83170943D01*
X153159577Y-83018216D01*
X153159573Y-83018209D01*
X153080524Y-82881290D01*
X153080518Y-82881282D01*
X152968717Y-82769481D01*
X152968709Y-82769475D01*
X152831790Y-82690426D01*
X152831786Y-82690424D01*
X152831784Y-82690423D01*
X152679057Y-82649500D01*
X152520943Y-82649500D01*
X152368216Y-82690423D01*
X152368209Y-82690426D01*
X152231290Y-82769475D01*
X152231282Y-82769481D01*
X152119481Y-82881282D01*
X152119475Y-82881290D01*
X152040426Y-83018209D01*
X152040423Y-83018216D01*
X151999500Y-83170943D01*
X151750500Y-83170943D01*
X151750500Y-83070943D01*
X151709577Y-82918216D01*
X151688258Y-82881290D01*
X151630524Y-82781290D01*
X151630518Y-82781282D01*
X151518717Y-82669481D01*
X151518709Y-82669475D01*
X151381790Y-82590426D01*
X151381786Y-82590424D01*
X151381784Y-82590423D01*
X151229057Y-82549500D01*
X151070943Y-82549500D01*
X150918216Y-82590423D01*
X150918215Y-82590423D01*
X150811997Y-82651747D01*
X150744096Y-82668218D01*
X150687999Y-82651747D01*
X150581781Y-82590423D01*
X150562546Y-82585269D01*
X150429054Y-82549500D01*
X150270940Y-82549500D01*
X150118213Y-82590423D01*
X150118206Y-82590426D01*
X149981287Y-82669475D01*
X149981279Y-82669481D01*
X149869478Y-82781282D01*
X149869472Y-82781290D01*
X149790423Y-82918209D01*
X149790420Y-82918216D01*
X149749497Y-83070943D01*
X147073975Y-83070943D01*
X147149335Y-83020589D01*
X147149339Y-83020586D01*
X147194791Y-82975135D01*
X147295586Y-82874339D01*
X147295589Y-82874335D01*
X147410494Y-82702368D01*
X147410499Y-82702358D01*
X147489649Y-82511274D01*
X147489651Y-82511266D01*
X147529999Y-82308420D01*
X147530000Y-82308417D01*
X147530000Y-81955000D01*
X146780000Y-81955000D01*
X146780000Y-81455000D01*
X147530000Y-81455000D01*
X147530000Y-81101583D01*
X147529999Y-81101579D01*
X154070000Y-81101579D01*
X154070000Y-81455000D01*
X154820000Y-81455000D01*
X154820000Y-81955000D01*
X154070000Y-81955000D01*
X154070000Y-82308420D01*
X154110348Y-82511266D01*
X154110350Y-82511274D01*
X154189500Y-82702358D01*
X154189505Y-82702368D01*
X154304410Y-82874335D01*
X154304413Y-82874339D01*
X154450660Y-83020586D01*
X154450664Y-83020589D01*
X154622631Y-83135494D01*
X154622641Y-83135499D01*
X154813723Y-83214648D01*
X154813725Y-83214649D01*
X154870000Y-83225842D01*
X154870000Y-82371988D01*
X154879940Y-82389205D01*
X154935795Y-82445060D01*
X155004204Y-82484556D01*
X155080504Y-82505000D01*
X155159496Y-82505000D01*
X155235796Y-82484556D01*
X155304205Y-82445060D01*
X155360060Y-82389205D01*
X155370000Y-82371988D01*
X155370000Y-83225842D01*
X155426274Y-83214649D01*
X155426276Y-83214648D01*
X155617358Y-83135499D01*
X155617368Y-83135494D01*
X155789335Y-83020589D01*
X155789339Y-83020586D01*
X155935586Y-82874339D01*
X155935589Y-82874335D01*
X156050494Y-82702368D01*
X156050499Y-82702359D01*
X156084223Y-82620943D01*
X161399500Y-82620943D01*
X161399500Y-82779057D01*
X161436788Y-82918216D01*
X161440423Y-82931783D01*
X161440426Y-82931790D01*
X161519475Y-83068709D01*
X161519479Y-83068714D01*
X161519480Y-83068716D01*
X161631284Y-83180520D01*
X161631286Y-83180521D01*
X161631290Y-83180524D01*
X161768209Y-83259573D01*
X161768216Y-83259577D01*
X161920943Y-83300500D01*
X161920945Y-83300500D01*
X162079055Y-83300500D01*
X162079057Y-83300500D01*
X162231784Y-83259577D01*
X162368716Y-83180520D01*
X162480520Y-83068716D01*
X162559577Y-82931784D01*
X162600500Y-82779057D01*
X162600500Y-82620943D01*
X162559577Y-82468216D01*
X162551367Y-82453996D01*
X162480524Y-82331290D01*
X162480518Y-82331282D01*
X162368717Y-82219481D01*
X162368709Y-82219475D01*
X162231790Y-82140426D01*
X162231786Y-82140424D01*
X162231784Y-82140423D01*
X162079057Y-82099500D01*
X161920943Y-82099500D01*
X161768216Y-82140423D01*
X161768209Y-82140426D01*
X161631290Y-82219475D01*
X161631282Y-82219481D01*
X161519481Y-82331282D01*
X161519475Y-82331290D01*
X161440426Y-82468209D01*
X161440423Y-82468216D01*
X161399500Y-82620943D01*
X156084223Y-82620943D01*
X156107245Y-82565363D01*
X156129649Y-82511274D01*
X156129651Y-82511266D01*
X156169999Y-82308420D01*
X156170000Y-82308417D01*
X156170000Y-81955000D01*
X155420000Y-81955000D01*
X155420000Y-81455000D01*
X156170000Y-81455000D01*
X156170000Y-81300943D01*
X158024500Y-81300943D01*
X158024500Y-81459056D01*
X158065423Y-81611783D01*
X158065426Y-81611790D01*
X158144475Y-81748709D01*
X158144479Y-81748714D01*
X158144480Y-81748716D01*
X158256284Y-81860520D01*
X158256286Y-81860521D01*
X158256290Y-81860524D01*
X158386890Y-81935925D01*
X158393216Y-81939577D01*
X158545943Y-81980500D01*
X158545945Y-81980500D01*
X158704055Y-81980500D01*
X158704057Y-81980500D01*
X158856784Y-81939577D01*
X158993716Y-81860520D01*
X159105520Y-81748716D01*
X159184577Y-81611784D01*
X159225500Y-81459057D01*
X159225500Y-81300943D01*
X159184577Y-81148216D01*
X159157654Y-81101583D01*
X159105524Y-81011290D01*
X159105518Y-81011282D01*
X158993717Y-80899481D01*
X158993709Y-80899475D01*
X158856790Y-80820426D01*
X158856786Y-80820424D01*
X158856784Y-80820423D01*
X158704057Y-80779500D01*
X158545943Y-80779500D01*
X158393216Y-80820423D01*
X158393209Y-80820426D01*
X158256290Y-80899475D01*
X158256282Y-80899481D01*
X158144481Y-81011282D01*
X158144475Y-81011290D01*
X158065426Y-81148209D01*
X158065423Y-81148216D01*
X158024500Y-81300943D01*
X156170000Y-81300943D01*
X156170000Y-81101583D01*
X156169999Y-81101579D01*
X156129651Y-80898733D01*
X156129649Y-80898725D01*
X156050499Y-80707641D01*
X156050494Y-80707631D01*
X155935589Y-80535664D01*
X155935586Y-80535660D01*
X155789339Y-80389413D01*
X155789335Y-80389410D01*
X155617368Y-80274505D01*
X155617358Y-80274500D01*
X155426272Y-80195349D01*
X155426267Y-80195347D01*
X155370000Y-80184155D01*
X155370000Y-81038011D01*
X155360060Y-81020795D01*
X155304205Y-80964940D01*
X155235796Y-80925444D01*
X155159496Y-80905000D01*
X155080504Y-80905000D01*
X155004204Y-80925444D01*
X154935795Y-80964940D01*
X154879940Y-81020795D01*
X154870000Y-81038011D01*
X154870000Y-80184156D01*
X154869999Y-80184155D01*
X154813732Y-80195347D01*
X154813727Y-80195349D01*
X154622641Y-80274500D01*
X154622631Y-80274505D01*
X154450664Y-80389410D01*
X154450660Y-80389413D01*
X154304413Y-80535660D01*
X154304410Y-80535664D01*
X154189505Y-80707631D01*
X154189500Y-80707641D01*
X154110350Y-80898725D01*
X154110348Y-80898733D01*
X154070000Y-81101579D01*
X147529999Y-81101579D01*
X147489651Y-80898733D01*
X147489649Y-80898725D01*
X147410499Y-80707641D01*
X147410494Y-80707631D01*
X147295589Y-80535664D01*
X147295586Y-80535660D01*
X147149339Y-80389413D01*
X147149335Y-80389410D01*
X146977368Y-80274505D01*
X146977358Y-80274500D01*
X146786272Y-80195349D01*
X146786267Y-80195347D01*
X146730000Y-80184155D01*
X146730000Y-81038011D01*
X146720060Y-81020795D01*
X146664205Y-80964940D01*
X146595796Y-80925444D01*
X146519496Y-80905000D01*
X146440504Y-80905000D01*
X146364204Y-80925444D01*
X146295795Y-80964940D01*
X146239940Y-81020795D01*
X146230000Y-81038011D01*
X146230000Y-80184156D01*
X146229999Y-80184155D01*
X146173732Y-80195347D01*
X146173727Y-80195349D01*
X145982641Y-80274500D01*
X145982631Y-80274505D01*
X145810664Y-80389410D01*
X145810660Y-80389413D01*
X145664413Y-80535660D01*
X145664410Y-80535664D01*
X145549505Y-80707631D01*
X145549500Y-80707641D01*
X145470350Y-80898725D01*
X145470348Y-80898733D01*
X145430000Y-81101579D01*
X144674767Y-81101579D01*
X144626095Y-80951782D01*
X144529624Y-80762449D01*
X144490270Y-80708282D01*
X144490269Y-80708282D01*
X143857962Y-81340590D01*
X143840925Y-81277007D01*
X143775099Y-81162993D01*
X143682007Y-81069901D01*
X143567993Y-81004075D01*
X143504409Y-80987037D01*
X144136716Y-80354728D01*
X144082550Y-80315375D01*
X144072954Y-80310486D01*
X144022157Y-80262512D01*
X144005361Y-80194692D01*
X144027897Y-80128556D01*
X144072954Y-80089514D01*
X144082554Y-80084622D01*
X144136716Y-80045270D01*
X144136717Y-80045270D01*
X144091944Y-80000497D01*
X144012390Y-79920943D01*
X150599500Y-79920943D01*
X150599500Y-80079057D01*
X150640086Y-80230524D01*
X150640423Y-80231783D01*
X150640426Y-80231790D01*
X150719475Y-80368709D01*
X150719479Y-80368714D01*
X150719480Y-80368716D01*
X150831284Y-80480520D01*
X150831286Y-80480521D01*
X150831290Y-80480524D01*
X150926790Y-80535660D01*
X150968216Y-80559577D01*
X151120943Y-80600500D01*
X151120945Y-80600500D01*
X151279055Y-80600500D01*
X151279057Y-80600500D01*
X151431784Y-80559577D01*
X151568716Y-80480520D01*
X151680520Y-80368716D01*
X151759577Y-80231784D01*
X151800500Y-80079057D01*
X151800500Y-79920943D01*
X151759577Y-79768216D01*
X151703417Y-79670943D01*
X159749500Y-79670943D01*
X159749500Y-79829057D01*
X159776687Y-79930518D01*
X159790423Y-79981783D01*
X159790426Y-79981790D01*
X159869475Y-80118709D01*
X159869479Y-80118714D01*
X159869480Y-80118716D01*
X159981284Y-80230520D01*
X159981286Y-80230521D01*
X159981290Y-80230524D01*
X160092730Y-80294863D01*
X160118216Y-80309577D01*
X160270943Y-80350500D01*
X160270945Y-80350500D01*
X160429055Y-80350500D01*
X160429057Y-80350500D01*
X160581784Y-80309577D01*
X160718716Y-80230520D01*
X160830520Y-80118716D01*
X160909577Y-79981784D01*
X160950500Y-79829057D01*
X160950500Y-79670943D01*
X160909577Y-79518216D01*
X160894809Y-79492636D01*
X160830524Y-79381290D01*
X160830518Y-79381282D01*
X160718717Y-79269481D01*
X160718709Y-79269475D01*
X160581790Y-79190426D01*
X160581786Y-79190424D01*
X160581784Y-79190423D01*
X160429057Y-79149500D01*
X160270943Y-79149500D01*
X160118216Y-79190423D01*
X160118209Y-79190426D01*
X159981290Y-79269475D01*
X159981282Y-79269481D01*
X159869481Y-79381282D01*
X159869475Y-79381290D01*
X159790426Y-79518209D01*
X159790423Y-79518216D01*
X159749500Y-79670943D01*
X151703417Y-79670943D01*
X151686889Y-79642316D01*
X151670418Y-79574418D01*
X151693271Y-79508391D01*
X151706587Y-79492648D01*
X151730520Y-79468716D01*
X151809577Y-79331784D01*
X151850500Y-79179057D01*
X151850500Y-79020943D01*
X151809577Y-78868216D01*
X151730520Y-78731284D01*
X151720179Y-78720943D01*
X161499500Y-78720943D01*
X161499500Y-78879057D01*
X161523728Y-78969475D01*
X161540423Y-79031783D01*
X161540426Y-79031790D01*
X161619475Y-79168709D01*
X161619479Y-79168714D01*
X161619480Y-79168716D01*
X161731284Y-79280520D01*
X161731286Y-79280521D01*
X161731290Y-79280524D01*
X161820087Y-79331790D01*
X161868216Y-79359577D01*
X162020943Y-79400500D01*
X162020945Y-79400500D01*
X162179055Y-79400500D01*
X162179057Y-79400500D01*
X162289365Y-79370943D01*
X163299500Y-79370943D01*
X163299500Y-79529057D01*
X163339812Y-79679501D01*
X163340423Y-79681783D01*
X163340426Y-79681790D01*
X163419475Y-79818709D01*
X163419479Y-79818714D01*
X163419480Y-79818716D01*
X163531284Y-79930520D01*
X163531286Y-79930521D01*
X163531290Y-79930524D01*
X163620087Y-79981790D01*
X163668216Y-80009577D01*
X163820943Y-80050500D01*
X163820945Y-80050500D01*
X163979055Y-80050500D01*
X163979057Y-80050500D01*
X164131784Y-80009577D01*
X164268716Y-79930520D01*
X164380520Y-79818716D01*
X164459577Y-79681784D01*
X164500500Y-79529057D01*
X164500500Y-79370943D01*
X164459577Y-79218216D01*
X164459573Y-79218209D01*
X164380524Y-79081290D01*
X164380518Y-79081282D01*
X164268717Y-78969481D01*
X164268709Y-78969475D01*
X164131790Y-78890426D01*
X164131786Y-78890424D01*
X164131784Y-78890423D01*
X163979057Y-78849500D01*
X163820943Y-78849500D01*
X163668216Y-78890423D01*
X163668209Y-78890426D01*
X163531290Y-78969475D01*
X163531282Y-78969481D01*
X163419481Y-79081282D01*
X163419475Y-79081290D01*
X163340426Y-79218209D01*
X163340423Y-79218216D01*
X163299500Y-79370943D01*
X162289365Y-79370943D01*
X162331784Y-79359577D01*
X162468716Y-79280520D01*
X162580520Y-79168716D01*
X162659577Y-79031784D01*
X162700500Y-78879057D01*
X162700500Y-78720943D01*
X162659577Y-78568216D01*
X162659573Y-78568209D01*
X162580524Y-78431290D01*
X162580518Y-78431282D01*
X162468717Y-78319481D01*
X162468709Y-78319475D01*
X162331790Y-78240426D01*
X162331786Y-78240424D01*
X162331784Y-78240423D01*
X162179057Y-78199500D01*
X162020943Y-78199500D01*
X161868216Y-78240423D01*
X161868209Y-78240426D01*
X161731290Y-78319475D01*
X161731282Y-78319481D01*
X161619481Y-78431282D01*
X161619475Y-78431290D01*
X161540426Y-78568209D01*
X161540423Y-78568216D01*
X161499500Y-78720943D01*
X151720179Y-78720943D01*
X151618716Y-78619480D01*
X151618714Y-78619479D01*
X151618709Y-78619475D01*
X151481790Y-78540426D01*
X151481786Y-78540424D01*
X151481784Y-78540423D01*
X151329057Y-78499500D01*
X151170943Y-78499500D01*
X151018216Y-78540423D01*
X151018209Y-78540426D01*
X150881290Y-78619475D01*
X150881282Y-78619481D01*
X150769481Y-78731282D01*
X150769475Y-78731290D01*
X150690426Y-78868209D01*
X150690423Y-78868216D01*
X150649500Y-79020943D01*
X150649500Y-79179057D01*
X150676687Y-79280518D01*
X150690423Y-79331783D01*
X150690423Y-79331784D01*
X150763109Y-79457681D01*
X150779581Y-79525581D01*
X150756728Y-79591608D01*
X150743404Y-79607360D01*
X150719478Y-79631286D01*
X150719475Y-79631290D01*
X150640426Y-79768209D01*
X150640423Y-79768216D01*
X150599500Y-79920943D01*
X144012390Y-79920943D01*
X143504408Y-79412962D01*
X143567993Y-79395925D01*
X143682007Y-79330099D01*
X143775099Y-79237007D01*
X143840925Y-79122993D01*
X143857962Y-79059408D01*
X144490270Y-79691717D01*
X144490270Y-79691716D01*
X144529622Y-79637554D01*
X144626095Y-79448217D01*
X144691757Y-79246130D01*
X144691757Y-79246127D01*
X144725000Y-79036246D01*
X144725000Y-78972415D01*
X149149500Y-78972415D01*
X149149500Y-79130529D01*
X149189690Y-79280518D01*
X149190423Y-79283255D01*
X149190426Y-79283262D01*
X149269475Y-79420181D01*
X149269479Y-79420186D01*
X149269480Y-79420188D01*
X149381284Y-79531992D01*
X149381286Y-79531993D01*
X149381290Y-79531996D01*
X149484543Y-79591608D01*
X149518216Y-79611049D01*
X149670943Y-79651972D01*
X149670945Y-79651972D01*
X149829055Y-79651972D01*
X149829057Y-79651972D01*
X149981784Y-79611049D01*
X150118716Y-79531992D01*
X150230520Y-79420188D01*
X150309577Y-79283256D01*
X150350500Y-79130529D01*
X150350500Y-78972415D01*
X150309577Y-78819688D01*
X150309207Y-78819047D01*
X150230524Y-78682762D01*
X150230518Y-78682754D01*
X150118717Y-78570953D01*
X150118709Y-78570947D01*
X149981790Y-78491898D01*
X149981786Y-78491896D01*
X149981784Y-78491895D01*
X149829057Y-78450972D01*
X149670943Y-78450972D01*
X149518216Y-78491895D01*
X149518209Y-78491898D01*
X149381290Y-78570947D01*
X149381282Y-78570953D01*
X149269481Y-78682754D01*
X149269475Y-78682762D01*
X149190426Y-78819681D01*
X149190423Y-78819688D01*
X149149500Y-78972415D01*
X144725000Y-78972415D01*
X144725000Y-78823753D01*
X144691757Y-78613872D01*
X144691757Y-78613869D01*
X144626095Y-78411782D01*
X144529624Y-78222449D01*
X144490270Y-78168282D01*
X144490269Y-78168282D01*
X143857962Y-78800590D01*
X143840925Y-78737007D01*
X143775099Y-78622993D01*
X143682007Y-78529901D01*
X143567993Y-78464075D01*
X143504409Y-78447037D01*
X144136716Y-77814728D01*
X144082550Y-77775375D01*
X144072954Y-77770486D01*
X144022157Y-77722512D01*
X144005361Y-77654692D01*
X144027897Y-77588556D01*
X144072954Y-77549514D01*
X144082554Y-77544622D01*
X144136716Y-77505270D01*
X144136717Y-77505270D01*
X143504408Y-76872962D01*
X143567993Y-76855925D01*
X143682007Y-76790099D01*
X143775099Y-76697007D01*
X143840925Y-76582993D01*
X143857962Y-76519408D01*
X144490270Y-77151717D01*
X144490270Y-77151716D01*
X144529622Y-77097554D01*
X144626095Y-76908217D01*
X144691757Y-76706130D01*
X144691757Y-76706127D01*
X144719290Y-76532294D01*
X144725000Y-76311202D01*
X144725000Y-76283753D01*
X144691757Y-76073872D01*
X144691757Y-76073869D01*
X144626095Y-75871782D01*
X144529624Y-75682449D01*
X144490270Y-75628282D01*
X144490269Y-75628282D01*
X143857962Y-76260590D01*
X143840925Y-76197007D01*
X143775099Y-76082993D01*
X143682007Y-75989901D01*
X143567993Y-75924075D01*
X143504409Y-75907037D01*
X144136716Y-75274728D01*
X144082548Y-75235373D01*
X144081787Y-75234986D01*
X144081549Y-75234761D01*
X144078396Y-75232829D01*
X144078801Y-75232166D01*
X144030990Y-75187014D01*
X144014193Y-75119193D01*
X144036728Y-75053057D01*
X144091442Y-75009604D01*
X144138079Y-75000500D01*
X145404158Y-75000500D01*
X145471197Y-75020185D01*
X145516952Y-75072989D01*
X145526896Y-75142147D01*
X145518719Y-75171953D01*
X145470350Y-75288725D01*
X145470348Y-75288733D01*
X145430000Y-75491579D01*
X145430000Y-76095000D01*
X146180000Y-76095000D01*
X146180000Y-76595000D01*
X145430000Y-76595000D01*
X145430000Y-77198420D01*
X145470348Y-77401266D01*
X145470350Y-77401274D01*
X145549500Y-77592358D01*
X145549505Y-77592368D01*
X145664410Y-77764335D01*
X145664413Y-77764339D01*
X145810660Y-77910586D01*
X145810664Y-77910589D01*
X145982631Y-78025494D01*
X145982641Y-78025499D01*
X146173723Y-78104648D01*
X146173725Y-78104649D01*
X146230000Y-78115842D01*
X146230000Y-77261988D01*
X146239940Y-77279205D01*
X146295795Y-77335060D01*
X146364204Y-77374556D01*
X146440504Y-77395000D01*
X146519496Y-77395000D01*
X146595796Y-77374556D01*
X146664205Y-77335060D01*
X146720060Y-77279205D01*
X146730000Y-77261988D01*
X146730000Y-78115842D01*
X146786274Y-78104649D01*
X146786276Y-78104648D01*
X146977358Y-78025499D01*
X146977368Y-78025494D01*
X147149335Y-77910589D01*
X147149339Y-77910586D01*
X147295586Y-77764339D01*
X147295589Y-77764335D01*
X147410494Y-77592368D01*
X147410499Y-77592358D01*
X147489649Y-77401274D01*
X147489651Y-77401266D01*
X147529999Y-77198420D01*
X147530000Y-77198417D01*
X147530000Y-76595000D01*
X146780000Y-76595000D01*
X146780000Y-76095000D01*
X147530000Y-76095000D01*
X147530000Y-75491583D01*
X147529999Y-75491579D01*
X147489651Y-75288733D01*
X147489649Y-75288725D01*
X147441281Y-75171953D01*
X147433812Y-75102483D01*
X147465087Y-75040004D01*
X147525176Y-75004352D01*
X147555842Y-75000500D01*
X154044158Y-75000500D01*
X154111197Y-75020185D01*
X154156952Y-75072989D01*
X154166896Y-75142147D01*
X154158719Y-75171953D01*
X154110350Y-75288725D01*
X154110348Y-75288733D01*
X154070000Y-75491579D01*
X154070000Y-76095000D01*
X154820000Y-76095000D01*
X154820000Y-76595000D01*
X154070000Y-76595000D01*
X154070000Y-77198420D01*
X154110348Y-77401266D01*
X154110350Y-77401274D01*
X154189500Y-77592358D01*
X154189505Y-77592368D01*
X154304410Y-77764335D01*
X154304413Y-77764339D01*
X154450660Y-77910586D01*
X154450664Y-77910589D01*
X154622631Y-78025494D01*
X154622641Y-78025499D01*
X154813723Y-78104648D01*
X154813725Y-78104649D01*
X154870000Y-78115842D01*
X154870000Y-77261988D01*
X154879940Y-77279205D01*
X154935795Y-77335060D01*
X155004204Y-77374556D01*
X155080504Y-77395000D01*
X155159496Y-77395000D01*
X155235796Y-77374556D01*
X155304205Y-77335060D01*
X155360060Y-77279205D01*
X155370000Y-77261988D01*
X155370000Y-78115842D01*
X155426274Y-78104649D01*
X155426276Y-78104648D01*
X155617358Y-78025499D01*
X155617368Y-78025494D01*
X155789335Y-77910589D01*
X155789339Y-77910586D01*
X155837047Y-77862878D01*
X159464101Y-77862878D01*
X159464101Y-78020992D01*
X159472530Y-78052447D01*
X159505024Y-78173718D01*
X159505027Y-78173725D01*
X159584076Y-78310644D01*
X159584080Y-78310649D01*
X159584081Y-78310651D01*
X159695885Y-78422455D01*
X159695887Y-78422456D01*
X159695891Y-78422459D01*
X159810042Y-78488363D01*
X159832817Y-78501512D01*
X159985544Y-78542435D01*
X159985546Y-78542435D01*
X160143656Y-78542435D01*
X160143658Y-78542435D01*
X160296385Y-78501512D01*
X160433317Y-78422455D01*
X160545121Y-78310651D01*
X160624178Y-78173719D01*
X160665101Y-78020992D01*
X160665101Y-77862878D01*
X160624178Y-77710151D01*
X160614410Y-77693232D01*
X160545125Y-77573225D01*
X160545119Y-77573217D01*
X160433318Y-77461416D01*
X160433310Y-77461410D01*
X160296391Y-77382361D01*
X160296387Y-77382359D01*
X160296385Y-77382358D01*
X160143658Y-77341435D01*
X159985544Y-77341435D01*
X159832817Y-77382358D01*
X159832810Y-77382361D01*
X159695891Y-77461410D01*
X159695883Y-77461416D01*
X159584082Y-77573217D01*
X159584076Y-77573225D01*
X159505027Y-77710144D01*
X159505024Y-77710151D01*
X159464101Y-77862878D01*
X155837047Y-77862878D01*
X155932856Y-77767070D01*
X155935586Y-77764339D01*
X155935589Y-77764335D01*
X156050494Y-77592368D01*
X156050499Y-77592358D01*
X156129649Y-77401274D01*
X156129651Y-77401266D01*
X156169999Y-77198420D01*
X156170000Y-77198417D01*
X156170000Y-76595000D01*
X155420000Y-76595000D01*
X155420000Y-76320943D01*
X157499500Y-76320943D01*
X157499500Y-76479057D01*
X157535141Y-76612069D01*
X157540423Y-76631783D01*
X157540426Y-76631790D01*
X157619475Y-76768709D01*
X157619479Y-76768714D01*
X157619480Y-76768716D01*
X157731284Y-76880520D01*
X157731286Y-76880521D01*
X157731290Y-76880524D01*
X157868209Y-76959573D01*
X157868216Y-76959577D01*
X158020943Y-77000500D01*
X158020945Y-77000500D01*
X158179055Y-77000500D01*
X158179057Y-77000500D01*
X158331784Y-76959577D01*
X158468716Y-76880520D01*
X158579810Y-76769426D01*
X163463048Y-76769426D01*
X163463048Y-76927540D01*
X163482598Y-77000499D01*
X163503971Y-77080266D01*
X163503974Y-77080273D01*
X163583023Y-77217192D01*
X163583027Y-77217197D01*
X163583028Y-77217199D01*
X163694832Y-77329003D01*
X163694834Y-77329004D01*
X163694838Y-77329007D01*
X163809143Y-77395000D01*
X163831764Y-77408060D01*
X163984491Y-77448983D01*
X163984493Y-77448983D01*
X164142603Y-77448983D01*
X164142605Y-77448983D01*
X164295332Y-77408060D01*
X164432264Y-77329003D01*
X164544068Y-77217199D01*
X164623125Y-77080267D01*
X164664048Y-76927540D01*
X164664048Y-76769426D01*
X164623125Y-76616699D01*
X164617974Y-76607777D01*
X164544072Y-76479773D01*
X164544066Y-76479765D01*
X164432265Y-76367964D01*
X164432257Y-76367958D01*
X164295338Y-76288909D01*
X164295334Y-76288907D01*
X164295332Y-76288906D01*
X164142605Y-76247983D01*
X163984491Y-76247983D01*
X163831764Y-76288906D01*
X163831757Y-76288909D01*
X163694838Y-76367958D01*
X163694830Y-76367964D01*
X163583029Y-76479765D01*
X163583023Y-76479773D01*
X163503974Y-76616692D01*
X163503971Y-76616699D01*
X163463048Y-76769426D01*
X158579810Y-76769426D01*
X158580520Y-76768716D01*
X158616654Y-76706130D01*
X158620598Y-76699299D01*
X158643627Y-76659410D01*
X158659577Y-76631784D01*
X158700500Y-76479057D01*
X158700500Y-76320943D01*
X158659577Y-76168216D01*
X158608101Y-76079056D01*
X158580524Y-76031290D01*
X158580518Y-76031282D01*
X158470179Y-75920943D01*
X162149500Y-75920943D01*
X162149500Y-76079057D01*
X162160629Y-76120589D01*
X162190423Y-76231783D01*
X162190426Y-76231790D01*
X162269475Y-76368709D01*
X162269479Y-76368714D01*
X162269480Y-76368716D01*
X162381284Y-76480520D01*
X162381286Y-76480521D01*
X162381290Y-76480524D01*
X162470960Y-76532294D01*
X162518216Y-76559577D01*
X162670943Y-76600500D01*
X162670945Y-76600500D01*
X162829055Y-76600500D01*
X162829057Y-76600500D01*
X162981784Y-76559577D01*
X163118716Y-76480520D01*
X163230520Y-76368716D01*
X163309577Y-76231784D01*
X163350500Y-76079057D01*
X163350500Y-75920943D01*
X163309577Y-75768216D01*
X163235841Y-75640500D01*
X163230524Y-75631290D01*
X163230518Y-75631282D01*
X163118717Y-75519481D01*
X163118709Y-75519475D01*
X162981790Y-75440426D01*
X162981786Y-75440424D01*
X162981784Y-75440423D01*
X162829057Y-75399500D01*
X162670943Y-75399500D01*
X162518216Y-75440423D01*
X162518209Y-75440426D01*
X162381290Y-75519475D01*
X162381282Y-75519481D01*
X162269481Y-75631282D01*
X162269475Y-75631290D01*
X162190426Y-75768209D01*
X162190423Y-75768216D01*
X162149500Y-75920943D01*
X158470179Y-75920943D01*
X158468717Y-75919481D01*
X158468709Y-75919475D01*
X158331790Y-75840426D01*
X158331786Y-75840424D01*
X158331784Y-75840423D01*
X158179057Y-75799500D01*
X158020943Y-75799500D01*
X157868216Y-75840423D01*
X157868209Y-75840426D01*
X157731290Y-75919475D01*
X157731282Y-75919481D01*
X157619481Y-76031282D01*
X157619475Y-76031290D01*
X157540426Y-76168209D01*
X157540423Y-76168216D01*
X157499500Y-76320943D01*
X155420000Y-76320943D01*
X155420000Y-76095000D01*
X156170000Y-76095000D01*
X156170000Y-75491583D01*
X156169999Y-75491579D01*
X156129651Y-75288733D01*
X156129649Y-75288725D01*
X156081281Y-75171953D01*
X156073812Y-75102483D01*
X156105087Y-75040004D01*
X156165176Y-75004352D01*
X156195842Y-75000500D01*
X173834108Y-75000500D01*
X173897294Y-75000500D01*
X173902702Y-75000617D01*
X174286771Y-75017386D01*
X174297506Y-75018326D01*
X174675971Y-75068152D01*
X174686597Y-75070025D01*
X175059284Y-75152648D01*
X175069710Y-75155442D01*
X175433765Y-75270227D01*
X175443911Y-75273920D01*
X175796578Y-75420000D01*
X175806369Y-75424566D01*
X176144942Y-75600816D01*
X176154309Y-75606223D01*
X176208120Y-75640505D01*
X176476244Y-75811318D01*
X176485105Y-75817523D01*
X176787930Y-76049889D01*
X176796217Y-76056843D01*
X177077635Y-76314715D01*
X177085284Y-76322364D01*
X177343156Y-76603782D01*
X177350110Y-76612069D01*
X177582476Y-76914894D01*
X177588681Y-76923755D01*
X177793775Y-77245689D01*
X177799183Y-77255057D01*
X177975430Y-77593623D01*
X177980002Y-77603427D01*
X178126075Y-77956078D01*
X178129775Y-77966244D01*
X178244554Y-78330278D01*
X178247354Y-78340727D01*
X178329971Y-78713389D01*
X178331849Y-78724042D01*
X178381671Y-79102473D01*
X178382614Y-79113249D01*
X178399382Y-79497297D01*
X178399500Y-79502706D01*
X178399500Y-83225613D01*
X178379815Y-83292652D01*
X178327011Y-83338407D01*
X178257853Y-83348351D01*
X178194297Y-83319326D01*
X178175182Y-83298498D01*
X178141971Y-83252786D01*
X177997213Y-83108028D01*
X177831613Y-82987715D01*
X177831612Y-82987714D01*
X177831610Y-82987713D01*
X177774653Y-82958691D01*
X177649223Y-82894781D01*
X177454534Y-82831522D01*
X177279995Y-82803878D01*
X177252352Y-82799500D01*
X177047648Y-82799500D01*
X177023329Y-82803351D01*
X176845465Y-82831522D01*
X176650776Y-82894781D01*
X176468386Y-82987715D01*
X176302786Y-83108028D01*
X176158028Y-83252786D01*
X176037715Y-83418386D01*
X175944781Y-83600776D01*
X175881522Y-83795465D01*
X175849500Y-83997648D01*
X175849500Y-84202351D01*
X175881522Y-84404534D01*
X175944781Y-84599223D01*
X176006802Y-84720943D01*
X176026444Y-84759494D01*
X176037715Y-84781613D01*
X176158028Y-84947213D01*
X176302786Y-85091971D01*
X176440137Y-85191760D01*
X176468390Y-85212287D01*
X176584607Y-85271503D01*
X176650776Y-85305218D01*
X176650778Y-85305218D01*
X176650781Y-85305220D01*
X176755137Y-85339127D01*
X176845465Y-85368477D01*
X176927834Y-85381523D01*
X177047648Y-85400500D01*
X177047649Y-85400500D01*
X177252351Y-85400500D01*
X177252352Y-85400500D01*
X177454534Y-85368477D01*
X177649219Y-85305220D01*
X177831610Y-85212287D01*
X177924590Y-85144732D01*
X177997213Y-85091971D01*
X177997215Y-85091968D01*
X177997219Y-85091966D01*
X178141966Y-84947219D01*
X178142635Y-84946299D01*
X178172725Y-84904882D01*
X178175181Y-84901501D01*
X178230510Y-84858836D01*
X178300123Y-84852855D01*
X178361919Y-84885460D01*
X178396277Y-84946299D01*
X178399500Y-84974386D01*
X178399500Y-109497293D01*
X178399382Y-109502702D01*
X178382614Y-109886750D01*
X178381671Y-109897526D01*
X178331849Y-110275957D01*
X178329971Y-110286610D01*
X178247354Y-110659272D01*
X178244554Y-110669721D01*
X178129775Y-111033755D01*
X178126075Y-111043921D01*
X177980002Y-111396572D01*
X177975430Y-111406376D01*
X177799183Y-111744942D01*
X177793775Y-111754310D01*
X177588681Y-112076244D01*
X177582476Y-112085105D01*
X177350110Y-112387930D01*
X177343156Y-112396217D01*
X177085284Y-112677635D01*
X177077635Y-112685284D01*
X176796217Y-112943156D01*
X176787930Y-112950110D01*
X176485105Y-113182476D01*
X176476244Y-113188681D01*
X176154310Y-113393775D01*
X176144942Y-113399183D01*
X175806376Y-113575430D01*
X175796572Y-113580002D01*
X175443921Y-113726075D01*
X175433755Y-113729775D01*
X175069721Y-113844554D01*
X175059272Y-113847354D01*
X174686610Y-113929971D01*
X174675957Y-113931849D01*
X174297526Y-113981671D01*
X174286750Y-113982614D01*
X173902703Y-113999382D01*
X173897294Y-113999500D01*
X161048628Y-113999500D01*
X160981589Y-113979815D01*
X160935834Y-113927011D01*
X160925890Y-113857853D01*
X160954915Y-113794297D01*
X160963195Y-113786493D01*
X160962969Y-113786267D01*
X161021089Y-113728147D01*
X161080520Y-113668716D01*
X161159577Y-113531784D01*
X161200500Y-113379057D01*
X161200500Y-113220943D01*
X161159577Y-113068216D01*
X161112565Y-112986788D01*
X161080524Y-112931290D01*
X161080518Y-112931282D01*
X160968717Y-112819481D01*
X160968709Y-112819475D01*
X160831790Y-112740426D01*
X160831786Y-112740424D01*
X160831784Y-112740423D01*
X160679057Y-112699500D01*
X160520943Y-112699500D01*
X160368216Y-112740423D01*
X160368209Y-112740426D01*
X160231290Y-112819475D01*
X160231282Y-112819481D01*
X160119481Y-112931282D01*
X160119475Y-112931290D01*
X160040426Y-113068209D01*
X160040423Y-113068216D01*
X159999500Y-113220943D01*
X159999500Y-113379057D01*
X160004223Y-113396681D01*
X160040423Y-113531783D01*
X160040426Y-113531790D01*
X160119475Y-113668709D01*
X160119481Y-113668717D01*
X160237031Y-113786267D01*
X160235012Y-113788285D01*
X160268067Y-113833569D01*
X160272212Y-113903316D01*
X160237991Y-113964231D01*
X160176269Y-113996975D01*
X160151372Y-113999500D01*
X133902706Y-113999500D01*
X133897297Y-113999382D01*
X133513249Y-113982614D01*
X133502473Y-113981671D01*
X133124042Y-113931849D01*
X133113389Y-113929971D01*
X132740727Y-113847354D01*
X132730278Y-113844554D01*
X132366244Y-113729775D01*
X132356078Y-113726075D01*
X132003427Y-113580002D01*
X131993623Y-113575430D01*
X131655057Y-113399183D01*
X131645689Y-113393775D01*
X131323755Y-113188681D01*
X131314894Y-113182476D01*
X131012069Y-112950110D01*
X131003782Y-112943156D01*
X130722364Y-112685284D01*
X130714715Y-112677635D01*
X130665563Y-112623995D01*
X141099499Y-112623995D01*
X141126418Y-112759322D01*
X141126421Y-112759332D01*
X141179221Y-112886804D01*
X141179228Y-112886817D01*
X141255885Y-113001541D01*
X141255888Y-113001545D01*
X141353454Y-113099111D01*
X141353458Y-113099114D01*
X141468182Y-113175771D01*
X141468195Y-113175778D01*
X141577239Y-113220945D01*
X141595672Y-113228580D01*
X141595676Y-113228580D01*
X141595677Y-113228581D01*
X141731004Y-113255500D01*
X141731007Y-113255500D01*
X141868995Y-113255500D01*
X141969428Y-113235522D01*
X142004328Y-113228580D01*
X142131811Y-113175775D01*
X142246542Y-113099114D01*
X142344114Y-113001542D01*
X142420775Y-112886811D01*
X142473580Y-112759328D01*
X142485591Y-112698946D01*
X142500500Y-112623995D01*
X144099499Y-112623995D01*
X144126418Y-112759322D01*
X144126421Y-112759332D01*
X144179221Y-112886804D01*
X144179228Y-112886817D01*
X144255885Y-113001541D01*
X144255888Y-113001545D01*
X144353454Y-113099111D01*
X144353458Y-113099114D01*
X144468182Y-113175771D01*
X144468195Y-113175778D01*
X144577239Y-113220945D01*
X144595672Y-113228580D01*
X144595676Y-113228580D01*
X144595677Y-113228581D01*
X144731004Y-113255500D01*
X144731007Y-113255500D01*
X144868995Y-113255500D01*
X144969428Y-113235522D01*
X145004328Y-113228580D01*
X145131811Y-113175775D01*
X145246542Y-113099114D01*
X145344114Y-113001542D01*
X145420775Y-112886811D01*
X145473580Y-112759328D01*
X145485591Y-112698946D01*
X145490167Y-112675941D01*
X149449500Y-112675941D01*
X149449500Y-112834055D01*
X149480702Y-112950500D01*
X149490423Y-112986781D01*
X149490426Y-112986788D01*
X149569475Y-113123707D01*
X149569479Y-113123712D01*
X149569480Y-113123714D01*
X149681284Y-113235518D01*
X149681286Y-113235519D01*
X149681290Y-113235522D01*
X149818209Y-113314571D01*
X149818216Y-113314575D01*
X149970943Y-113355498D01*
X149970945Y-113355498D01*
X150129055Y-113355498D01*
X150129057Y-113355498D01*
X150281784Y-113314575D01*
X150418716Y-113235518D01*
X150530520Y-113123714D01*
X150609577Y-112986782D01*
X150650500Y-112834055D01*
X150650500Y-112675941D01*
X150636581Y-112623995D01*
X151899499Y-112623995D01*
X151926418Y-112759322D01*
X151926421Y-112759332D01*
X151979221Y-112886804D01*
X151979228Y-112886817D01*
X152055885Y-113001541D01*
X152055888Y-113001545D01*
X152153454Y-113099111D01*
X152153458Y-113099114D01*
X152268182Y-113175771D01*
X152268195Y-113175778D01*
X152377239Y-113220945D01*
X152395672Y-113228580D01*
X152395676Y-113228580D01*
X152395677Y-113228581D01*
X152531004Y-113255500D01*
X152531007Y-113255500D01*
X152668995Y-113255500D01*
X152769428Y-113235522D01*
X152804328Y-113228580D01*
X152931811Y-113175775D01*
X153046542Y-113099114D01*
X153144114Y-113001542D01*
X153220775Y-112886811D01*
X153273580Y-112759328D01*
X153285591Y-112698946D01*
X153300500Y-112623995D01*
X154899499Y-112623995D01*
X154926418Y-112759322D01*
X154926421Y-112759332D01*
X154979221Y-112886804D01*
X154979228Y-112886817D01*
X155055885Y-113001541D01*
X155055888Y-113001545D01*
X155153454Y-113099111D01*
X155153458Y-113099114D01*
X155268182Y-113175771D01*
X155268195Y-113175778D01*
X155377239Y-113220945D01*
X155395672Y-113228580D01*
X155395676Y-113228580D01*
X155395677Y-113228581D01*
X155531004Y-113255500D01*
X155531007Y-113255500D01*
X155668995Y-113255500D01*
X155769428Y-113235522D01*
X155804328Y-113228580D01*
X155931811Y-113175775D01*
X156046542Y-113099114D01*
X156144114Y-113001542D01*
X156220775Y-112886811D01*
X156273580Y-112759328D01*
X156285591Y-112698946D01*
X156300500Y-112623995D01*
X156300500Y-112486004D01*
X156273581Y-112350677D01*
X156273580Y-112350676D01*
X156273580Y-112350672D01*
X156240555Y-112270943D01*
X161999500Y-112270943D01*
X161999500Y-112429057D01*
X162024730Y-112523214D01*
X162040423Y-112581783D01*
X162040426Y-112581790D01*
X162119475Y-112718709D01*
X162119479Y-112718714D01*
X162119480Y-112718716D01*
X162231284Y-112830520D01*
X162231286Y-112830521D01*
X162231290Y-112830524D01*
X162328794Y-112886817D01*
X162368216Y-112909577D01*
X162520943Y-112950500D01*
X162520945Y-112950500D01*
X162679055Y-112950500D01*
X162679057Y-112950500D01*
X162831784Y-112909577D01*
X162968716Y-112830520D01*
X163080520Y-112718716D01*
X163159577Y-112581784D01*
X163200500Y-112429057D01*
X163200500Y-112270943D01*
X163159577Y-112118216D01*
X163097610Y-112010885D01*
X163080524Y-111981290D01*
X163080518Y-111981282D01*
X162968717Y-111869481D01*
X162968709Y-111869475D01*
X162831790Y-111790426D01*
X162831786Y-111790424D01*
X162831784Y-111790423D01*
X162679057Y-111749500D01*
X162520943Y-111749500D01*
X162368216Y-111790423D01*
X162368209Y-111790426D01*
X162231290Y-111869475D01*
X162231282Y-111869481D01*
X162119481Y-111981282D01*
X162119475Y-111981290D01*
X162040426Y-112118209D01*
X162040423Y-112118216D01*
X161999500Y-112270943D01*
X156240555Y-112270943D01*
X156220775Y-112223189D01*
X156220773Y-112223186D01*
X156220771Y-112223182D01*
X156144114Y-112108458D01*
X156144111Y-112108454D01*
X156046545Y-112010888D01*
X156046541Y-112010885D01*
X155931817Y-111934228D01*
X155931804Y-111934221D01*
X155804332Y-111881421D01*
X155804322Y-111881418D01*
X155668995Y-111854500D01*
X155668993Y-111854500D01*
X155531007Y-111854500D01*
X155531005Y-111854500D01*
X155395677Y-111881418D01*
X155395667Y-111881421D01*
X155268195Y-111934221D01*
X155268182Y-111934228D01*
X155153458Y-112010885D01*
X155153454Y-112010888D01*
X155055888Y-112108454D01*
X155055885Y-112108458D01*
X154979228Y-112223182D01*
X154979221Y-112223195D01*
X154926421Y-112350667D01*
X154926418Y-112350677D01*
X154899500Y-112486004D01*
X154899500Y-112486007D01*
X154899500Y-112623993D01*
X154899500Y-112623995D01*
X154899499Y-112623995D01*
X153300500Y-112623995D01*
X153300500Y-112486004D01*
X153273581Y-112350677D01*
X153273580Y-112350676D01*
X153273580Y-112350672D01*
X153256844Y-112310267D01*
X153220778Y-112223195D01*
X153220771Y-112223182D01*
X153144114Y-112108458D01*
X153144111Y-112108454D01*
X153046545Y-112010888D01*
X153046541Y-112010885D01*
X152931817Y-111934228D01*
X152931804Y-111934221D01*
X152804332Y-111881421D01*
X152804322Y-111881418D01*
X152668995Y-111854500D01*
X152668993Y-111854500D01*
X152531007Y-111854500D01*
X152531005Y-111854500D01*
X152395677Y-111881418D01*
X152395667Y-111881421D01*
X152268195Y-111934221D01*
X152268182Y-111934228D01*
X152153458Y-112010885D01*
X152153454Y-112010888D01*
X152055888Y-112108454D01*
X152055885Y-112108458D01*
X151979228Y-112223182D01*
X151979221Y-112223195D01*
X151926421Y-112350667D01*
X151926418Y-112350677D01*
X151899500Y-112486004D01*
X151899500Y-112486007D01*
X151899500Y-112623993D01*
X151899500Y-112623995D01*
X151899499Y-112623995D01*
X150636581Y-112623995D01*
X150609577Y-112523214D01*
X150609575Y-112523210D01*
X150609574Y-112523207D01*
X150530524Y-112386288D01*
X150530518Y-112386280D01*
X150418717Y-112274479D01*
X150418709Y-112274473D01*
X150281790Y-112195424D01*
X150281786Y-112195422D01*
X150281784Y-112195421D01*
X150129057Y-112154498D01*
X149970943Y-112154498D01*
X149818216Y-112195421D01*
X149818209Y-112195424D01*
X149681290Y-112274473D01*
X149681282Y-112274479D01*
X149569481Y-112386280D01*
X149569475Y-112386288D01*
X149490426Y-112523207D01*
X149490423Y-112523214D01*
X149449500Y-112675941D01*
X145490167Y-112675941D01*
X145496596Y-112643622D01*
X145496596Y-112643621D01*
X145500499Y-112623997D01*
X145500500Y-112623995D01*
X145500500Y-112486004D01*
X145473581Y-112350677D01*
X145473580Y-112350676D01*
X145473580Y-112350672D01*
X145456844Y-112310267D01*
X145420778Y-112223195D01*
X145420771Y-112223182D01*
X145344114Y-112108458D01*
X145344111Y-112108454D01*
X145246545Y-112010888D01*
X145246541Y-112010885D01*
X145131817Y-111934228D01*
X145131804Y-111934221D01*
X145004332Y-111881421D01*
X145004322Y-111881418D01*
X144868995Y-111854500D01*
X144868993Y-111854500D01*
X144731007Y-111854500D01*
X144731005Y-111854500D01*
X144595677Y-111881418D01*
X144595667Y-111881421D01*
X144468195Y-111934221D01*
X144468182Y-111934228D01*
X144353458Y-112010885D01*
X144353454Y-112010888D01*
X144255888Y-112108454D01*
X144255885Y-112108458D01*
X144179228Y-112223182D01*
X144179221Y-112223195D01*
X144126421Y-112350667D01*
X144126418Y-112350677D01*
X144099500Y-112486004D01*
X144099500Y-112486007D01*
X144099500Y-112623993D01*
X144099500Y-112623995D01*
X144099499Y-112623995D01*
X142500500Y-112623995D01*
X142500500Y-112486004D01*
X142473581Y-112350677D01*
X142473580Y-112350676D01*
X142473580Y-112350672D01*
X142456844Y-112310267D01*
X142420778Y-112223195D01*
X142420771Y-112223182D01*
X142344114Y-112108458D01*
X142344111Y-112108454D01*
X142246545Y-112010888D01*
X142246541Y-112010885D01*
X142131817Y-111934228D01*
X142131807Y-111934223D01*
X142115279Y-111927377D01*
X142115277Y-111927376D01*
X142004332Y-111881421D01*
X142004322Y-111881418D01*
X141868995Y-111854500D01*
X141868993Y-111854500D01*
X141731007Y-111854500D01*
X141731005Y-111854500D01*
X141595677Y-111881418D01*
X141595667Y-111881421D01*
X141468195Y-111934221D01*
X141468182Y-111934228D01*
X141353458Y-112010885D01*
X141353454Y-112010888D01*
X141255888Y-112108454D01*
X141255885Y-112108458D01*
X141179228Y-112223182D01*
X141179221Y-112223195D01*
X141126421Y-112350667D01*
X141126418Y-112350677D01*
X141099500Y-112486004D01*
X141099500Y-112486007D01*
X141099500Y-112623993D01*
X141099500Y-112623995D01*
X141099499Y-112623995D01*
X130665563Y-112623995D01*
X130610302Y-112563688D01*
X130456843Y-112396217D01*
X130449889Y-112387930D01*
X130217523Y-112085105D01*
X130211318Y-112076244D01*
X130169680Y-112010886D01*
X130048673Y-111820943D01*
X142649500Y-111820943D01*
X142649500Y-111979057D01*
X142686788Y-112118216D01*
X142690423Y-112131783D01*
X142690426Y-112131790D01*
X142769475Y-112268709D01*
X142769479Y-112268714D01*
X142769480Y-112268716D01*
X142881284Y-112380520D01*
X142881286Y-112380521D01*
X142881290Y-112380524D01*
X142965353Y-112429057D01*
X143018216Y-112459577D01*
X143170943Y-112500500D01*
X143170945Y-112500500D01*
X143329055Y-112500500D01*
X143329057Y-112500500D01*
X143481784Y-112459577D01*
X143618716Y-112380520D01*
X143730520Y-112268716D01*
X143809577Y-112131784D01*
X143850500Y-111979057D01*
X143850500Y-111820943D01*
X143809577Y-111668216D01*
X143809573Y-111668209D01*
X143730524Y-111531290D01*
X143730518Y-111531282D01*
X143618717Y-111419481D01*
X143618709Y-111419475D01*
X143481790Y-111340426D01*
X143481786Y-111340424D01*
X143481784Y-111340423D01*
X143329057Y-111299500D01*
X143170943Y-111299500D01*
X143018216Y-111340423D01*
X143018209Y-111340426D01*
X142881290Y-111419475D01*
X142881282Y-111419481D01*
X142769481Y-111531282D01*
X142769475Y-111531290D01*
X142690426Y-111668209D01*
X142690423Y-111668216D01*
X142649500Y-111820943D01*
X130048673Y-111820943D01*
X130006223Y-111754309D01*
X130000816Y-111744942D01*
X129960871Y-111668209D01*
X129824566Y-111406369D01*
X129819997Y-111396572D01*
X129796741Y-111340426D01*
X129673920Y-111043911D01*
X129670224Y-111033755D01*
X129555442Y-110669710D01*
X129552649Y-110659290D01*
X129488724Y-110370943D01*
X145799500Y-110370943D01*
X145799500Y-110529057D01*
X145839693Y-110679057D01*
X145840423Y-110681783D01*
X145840426Y-110681790D01*
X145919475Y-110818709D01*
X145919479Y-110818714D01*
X145919480Y-110818716D01*
X146031284Y-110930520D01*
X146031286Y-110930521D01*
X146031290Y-110930524D01*
X146168209Y-111009573D01*
X146168216Y-111009577D01*
X146320943Y-111050500D01*
X146320945Y-111050500D01*
X146479055Y-111050500D01*
X146479057Y-111050500D01*
X146631784Y-111009577D01*
X146768716Y-110930520D01*
X146880520Y-110818716D01*
X146959577Y-110681784D01*
X147000500Y-110529057D01*
X147000500Y-110520943D01*
X152099500Y-110520943D01*
X152099500Y-110679057D01*
X152136922Y-110818716D01*
X152140423Y-110831783D01*
X152140426Y-110831790D01*
X152219475Y-110968709D01*
X152219479Y-110968714D01*
X152219480Y-110968716D01*
X152331284Y-111080520D01*
X152331286Y-111080521D01*
X152331290Y-111080524D01*
X152468209Y-111159573D01*
X152468216Y-111159577D01*
X152620943Y-111200500D01*
X152620945Y-111200500D01*
X152779055Y-111200500D01*
X152779057Y-111200500D01*
X152931784Y-111159577D01*
X153068716Y-111080520D01*
X153180520Y-110968716D01*
X153259577Y-110831784D01*
X153300500Y-110679057D01*
X153300500Y-110520943D01*
X153259577Y-110368216D01*
X153259573Y-110368209D01*
X153180524Y-110231290D01*
X153180518Y-110231282D01*
X153068717Y-110119481D01*
X153068709Y-110119475D01*
X152931790Y-110040426D01*
X152931787Y-110040424D01*
X152931784Y-110040423D01*
X152819054Y-110010217D01*
X152805080Y-110006473D01*
X152779057Y-109999500D01*
X152620943Y-109999500D01*
X152468216Y-110040423D01*
X152468209Y-110040426D01*
X152331290Y-110119475D01*
X152331282Y-110119481D01*
X152219481Y-110231282D01*
X152219475Y-110231290D01*
X152140426Y-110368209D01*
X152140423Y-110368216D01*
X152099500Y-110520943D01*
X147000500Y-110520943D01*
X147000500Y-110370943D01*
X146959577Y-110218216D01*
X146959573Y-110218209D01*
X146880524Y-110081290D01*
X146880518Y-110081282D01*
X146768717Y-109969481D01*
X146768709Y-109969475D01*
X146642363Y-109896530D01*
X162849500Y-109896530D01*
X162849500Y-110103469D01*
X162889868Y-110306412D01*
X162889870Y-110306420D01*
X162969059Y-110497598D01*
X162990079Y-110529057D01*
X163084024Y-110669657D01*
X163230342Y-110815975D01*
X163230345Y-110815977D01*
X163402402Y-110930941D01*
X163593580Y-111010130D01*
X163763460Y-111043921D01*
X163796530Y-111050499D01*
X163796534Y-111050500D01*
X163796535Y-111050500D01*
X164003466Y-111050500D01*
X164003467Y-111050499D01*
X164206420Y-111010130D01*
X164397598Y-110930941D01*
X164569655Y-110815977D01*
X164715977Y-110669655D01*
X164830941Y-110497598D01*
X164910130Y-110306420D01*
X164950500Y-110103465D01*
X164950500Y-109896535D01*
X164910130Y-109693580D01*
X164830941Y-109502402D01*
X164715977Y-109330345D01*
X164715975Y-109330342D01*
X164569657Y-109184024D01*
X164483626Y-109126541D01*
X164397598Y-109069059D01*
X164206420Y-108989870D01*
X164206412Y-108989868D01*
X164003469Y-108949500D01*
X164003465Y-108949500D01*
X163796535Y-108949500D01*
X163796530Y-108949500D01*
X163593587Y-108989868D01*
X163593579Y-108989870D01*
X163402403Y-109069058D01*
X163230342Y-109184024D01*
X163084024Y-109330342D01*
X162969058Y-109502403D01*
X162889870Y-109693579D01*
X162889868Y-109693587D01*
X162849500Y-109896530D01*
X146642363Y-109896530D01*
X146631790Y-109890426D01*
X146631786Y-109890424D01*
X146631784Y-109890423D01*
X146479057Y-109849500D01*
X146320943Y-109849500D01*
X146168216Y-109890423D01*
X146168209Y-109890426D01*
X146031290Y-109969475D01*
X146031282Y-109969481D01*
X145919481Y-110081282D01*
X145919475Y-110081290D01*
X145840426Y-110218209D01*
X145840423Y-110218216D01*
X145799500Y-110370943D01*
X129488724Y-110370943D01*
X129470025Y-110286597D01*
X129468152Y-110275971D01*
X129418326Y-109897506D01*
X129417386Y-109886771D01*
X129400618Y-109502702D01*
X129400500Y-109497293D01*
X129400500Y-106220943D01*
X140149500Y-106220943D01*
X140149500Y-106379057D01*
X140173525Y-106468717D01*
X140190423Y-106531783D01*
X140190426Y-106531790D01*
X140269475Y-106668709D01*
X140269479Y-106668714D01*
X140269480Y-106668716D01*
X140381284Y-106780520D01*
X140381286Y-106780521D01*
X140381290Y-106780524D01*
X140518209Y-106859573D01*
X140518216Y-106859577D01*
X140670943Y-106900500D01*
X140670945Y-106900500D01*
X140829055Y-106900500D01*
X140829057Y-106900500D01*
X140981784Y-106859577D01*
X141118716Y-106780520D01*
X141230520Y-106668716D01*
X141309577Y-106531784D01*
X141350500Y-106379057D01*
X141350500Y-106220943D01*
X142699500Y-106220943D01*
X142699500Y-106379057D01*
X142723525Y-106468717D01*
X142740423Y-106531783D01*
X142740426Y-106531790D01*
X142819475Y-106668709D01*
X142819479Y-106668714D01*
X142819480Y-106668716D01*
X142931284Y-106780520D01*
X142931286Y-106780521D01*
X142931290Y-106780524D01*
X143068209Y-106859573D01*
X143068216Y-106859577D01*
X143220943Y-106900500D01*
X143220945Y-106900500D01*
X143379055Y-106900500D01*
X143379057Y-106900500D01*
X143531784Y-106859577D01*
X143668716Y-106780520D01*
X143780520Y-106668716D01*
X143859577Y-106531784D01*
X143900500Y-106379057D01*
X143900500Y-106220943D01*
X145249500Y-106220943D01*
X145249500Y-106379057D01*
X145273525Y-106468717D01*
X145290423Y-106531783D01*
X145290426Y-106531790D01*
X145369475Y-106668709D01*
X145369479Y-106668714D01*
X145369480Y-106668716D01*
X145481284Y-106780520D01*
X145481286Y-106780521D01*
X145481290Y-106780524D01*
X145618209Y-106859573D01*
X145618216Y-106859577D01*
X145770943Y-106900500D01*
X145770945Y-106900500D01*
X145929055Y-106900500D01*
X145929057Y-106900500D01*
X146081784Y-106859577D01*
X146218716Y-106780520D01*
X146330520Y-106668716D01*
X146409577Y-106531784D01*
X146450500Y-106379057D01*
X146450500Y-106220943D01*
X147749500Y-106220943D01*
X147749500Y-106379057D01*
X147773525Y-106468717D01*
X147790423Y-106531783D01*
X147790426Y-106531790D01*
X147869475Y-106668709D01*
X147869479Y-106668714D01*
X147869480Y-106668716D01*
X147981284Y-106780520D01*
X147981286Y-106780521D01*
X147981290Y-106780524D01*
X148118209Y-106859573D01*
X148118216Y-106859577D01*
X148270943Y-106900500D01*
X148270945Y-106900500D01*
X148429055Y-106900500D01*
X148429057Y-106900500D01*
X148581784Y-106859577D01*
X148718716Y-106780520D01*
X148830520Y-106668716D01*
X148909577Y-106531784D01*
X148950500Y-106379057D01*
X148950500Y-106220943D01*
X150199500Y-106220943D01*
X150199500Y-106379057D01*
X150223525Y-106468717D01*
X150240423Y-106531783D01*
X150240426Y-106531790D01*
X150319475Y-106668709D01*
X150319479Y-106668714D01*
X150319480Y-106668716D01*
X150431284Y-106780520D01*
X150431286Y-106780521D01*
X150431290Y-106780524D01*
X150568209Y-106859573D01*
X150568216Y-106859577D01*
X150720943Y-106900500D01*
X150720945Y-106900500D01*
X150879055Y-106900500D01*
X150879057Y-106900500D01*
X151031784Y-106859577D01*
X151168716Y-106780520D01*
X151280520Y-106668716D01*
X151359577Y-106531784D01*
X151400500Y-106379057D01*
X151400500Y-106220943D01*
X151359577Y-106068216D01*
X151332285Y-106020945D01*
X151332284Y-106020943D01*
X158199500Y-106020943D01*
X158199500Y-106179057D01*
X158210724Y-106220943D01*
X158240423Y-106331783D01*
X158240426Y-106331790D01*
X158319475Y-106468709D01*
X158319479Y-106468714D01*
X158319480Y-106468716D01*
X158431284Y-106580520D01*
X158431286Y-106580521D01*
X158431290Y-106580524D01*
X158568209Y-106659573D01*
X158568216Y-106659577D01*
X158720943Y-106700500D01*
X158720945Y-106700500D01*
X158879055Y-106700500D01*
X158879057Y-106700500D01*
X159031784Y-106659577D01*
X159168716Y-106580520D01*
X159280520Y-106468716D01*
X159359577Y-106331784D01*
X159400500Y-106179057D01*
X159400500Y-106020943D01*
X159359577Y-105868216D01*
X159330484Y-105817825D01*
X159280524Y-105731290D01*
X159280518Y-105731282D01*
X159168717Y-105619481D01*
X159168709Y-105619475D01*
X159031790Y-105540426D01*
X159031786Y-105540424D01*
X159031784Y-105540423D01*
X158879057Y-105499500D01*
X158720943Y-105499500D01*
X158568216Y-105540423D01*
X158568209Y-105540426D01*
X158431290Y-105619475D01*
X158431282Y-105619481D01*
X158319481Y-105731282D01*
X158319475Y-105731290D01*
X158240426Y-105868209D01*
X158240423Y-105868216D01*
X158199500Y-106020943D01*
X151332284Y-106020943D01*
X151280522Y-105931287D01*
X151280518Y-105931282D01*
X151168717Y-105819481D01*
X151168709Y-105819475D01*
X151031790Y-105740426D01*
X151031786Y-105740424D01*
X151031784Y-105740423D01*
X150879057Y-105699500D01*
X150720943Y-105699500D01*
X150568216Y-105740423D01*
X150568209Y-105740426D01*
X150431290Y-105819475D01*
X150431282Y-105819481D01*
X150319481Y-105931282D01*
X150319475Y-105931290D01*
X150240426Y-106068209D01*
X150240426Y-106068210D01*
X150240423Y-106068216D01*
X150199500Y-106220943D01*
X148950500Y-106220943D01*
X148909577Y-106068216D01*
X148897735Y-106047704D01*
X148830524Y-105931290D01*
X148830518Y-105931282D01*
X148718717Y-105819481D01*
X148718709Y-105819475D01*
X148581790Y-105740426D01*
X148581786Y-105740424D01*
X148581784Y-105740423D01*
X148429057Y-105699500D01*
X148270943Y-105699500D01*
X148118216Y-105740423D01*
X148118209Y-105740426D01*
X147981290Y-105819475D01*
X147981282Y-105819481D01*
X147869481Y-105931282D01*
X147869475Y-105931290D01*
X147790426Y-106068209D01*
X147790426Y-106068210D01*
X147790423Y-106068216D01*
X147749500Y-106220943D01*
X146450500Y-106220943D01*
X146409577Y-106068216D01*
X146397735Y-106047704D01*
X146330524Y-105931290D01*
X146330518Y-105931282D01*
X146218717Y-105819481D01*
X146218709Y-105819475D01*
X146081790Y-105740426D01*
X146081786Y-105740424D01*
X146081784Y-105740423D01*
X145929057Y-105699500D01*
X145770943Y-105699500D01*
X145618216Y-105740423D01*
X145618209Y-105740426D01*
X145481290Y-105819475D01*
X145481282Y-105819481D01*
X145369481Y-105931282D01*
X145369475Y-105931290D01*
X145290426Y-106068209D01*
X145290426Y-106068210D01*
X145290423Y-106068216D01*
X145249500Y-106220943D01*
X143900500Y-106220943D01*
X143859577Y-106068216D01*
X143847735Y-106047704D01*
X143780524Y-105931290D01*
X143780518Y-105931282D01*
X143668717Y-105819481D01*
X143668709Y-105819475D01*
X143531790Y-105740426D01*
X143531786Y-105740424D01*
X143531784Y-105740423D01*
X143379057Y-105699500D01*
X143220943Y-105699500D01*
X143068216Y-105740423D01*
X143068209Y-105740426D01*
X142931290Y-105819475D01*
X142931282Y-105819481D01*
X142819481Y-105931282D01*
X142819475Y-105931290D01*
X142740426Y-106068209D01*
X142740426Y-106068210D01*
X142740423Y-106068216D01*
X142699500Y-106220943D01*
X141350500Y-106220943D01*
X141309577Y-106068216D01*
X141297735Y-106047704D01*
X141230524Y-105931290D01*
X141230518Y-105931282D01*
X141118717Y-105819481D01*
X141118709Y-105819475D01*
X140981790Y-105740426D01*
X140981786Y-105740424D01*
X140981784Y-105740423D01*
X140829057Y-105699500D01*
X140670943Y-105699500D01*
X140518216Y-105740423D01*
X140518209Y-105740426D01*
X140381290Y-105819475D01*
X140381282Y-105819481D01*
X140269481Y-105931282D01*
X140269475Y-105931290D01*
X140190426Y-106068209D01*
X140190426Y-106068210D01*
X140190423Y-106068216D01*
X140149500Y-106220943D01*
X129400500Y-106220943D01*
X129400500Y-104337479D01*
X162849500Y-104337479D01*
X162849500Y-105662520D01*
X162852293Y-105692307D01*
X162852295Y-105692319D01*
X162896213Y-105817825D01*
X162896214Y-105817827D01*
X162975179Y-105924821D01*
X163082173Y-106003786D01*
X163120386Y-106017157D01*
X163207680Y-106047704D01*
X163207684Y-106047704D01*
X163207688Y-106047706D01*
X163222586Y-106049103D01*
X163237480Y-106050500D01*
X163237484Y-106050500D01*
X164562520Y-106050500D01*
X164575758Y-106049258D01*
X164592312Y-106047706D01*
X164592316Y-106047704D01*
X164592319Y-106047704D01*
X164641399Y-106030529D01*
X164717827Y-106003786D01*
X164824821Y-105924821D01*
X164903786Y-105817827D01*
X164947706Y-105692312D01*
X164950500Y-105662516D01*
X164950500Y-104337484D01*
X164947706Y-104307688D01*
X164947704Y-104307684D01*
X164947704Y-104307680D01*
X164903786Y-104182174D01*
X164903786Y-104182173D01*
X164824821Y-104075179D01*
X164717827Y-103996214D01*
X164717825Y-103996213D01*
X164592319Y-103952295D01*
X164592307Y-103952293D01*
X164562520Y-103949500D01*
X164562516Y-103949500D01*
X163237484Y-103949500D01*
X163237480Y-103949500D01*
X163207692Y-103952293D01*
X163207680Y-103952295D01*
X163082174Y-103996213D01*
X162975179Y-104075179D01*
X162896213Y-104182174D01*
X162852295Y-104307680D01*
X162852293Y-104307692D01*
X162849500Y-104337479D01*
X129400500Y-104337479D01*
X129400500Y-102670943D01*
X133949500Y-102670943D01*
X133949500Y-102829057D01*
X133988543Y-102974765D01*
X133990423Y-102981783D01*
X133990426Y-102981790D01*
X134069475Y-103118709D01*
X134069479Y-103118714D01*
X134069480Y-103118716D01*
X134181284Y-103230520D01*
X134181286Y-103230521D01*
X134181290Y-103230524D01*
X134318209Y-103309573D01*
X134318216Y-103309577D01*
X134470943Y-103350500D01*
X134470945Y-103350500D01*
X134629055Y-103350500D01*
X134629057Y-103350500D01*
X134781784Y-103309577D01*
X134918716Y-103230520D01*
X135030520Y-103118716D01*
X135109577Y-102981784D01*
X135150500Y-102829057D01*
X135150500Y-102670943D01*
X135109577Y-102518216D01*
X135072109Y-102453319D01*
X135030524Y-102381290D01*
X135030518Y-102381282D01*
X134944444Y-102295208D01*
X136125235Y-102295208D01*
X136125235Y-102453322D01*
X136166158Y-102606047D01*
X136166158Y-102606048D01*
X136166161Y-102606055D01*
X136245210Y-102742974D01*
X136245214Y-102742979D01*
X136245215Y-102742981D01*
X136357019Y-102854785D01*
X136357021Y-102854786D01*
X136357025Y-102854789D01*
X136493944Y-102933838D01*
X136493951Y-102933842D01*
X136646678Y-102974765D01*
X136646680Y-102974765D01*
X136804790Y-102974765D01*
X136804792Y-102974765D01*
X136957519Y-102933842D01*
X137094451Y-102854785D01*
X137206255Y-102742981D01*
X137285312Y-102606049D01*
X137326235Y-102453322D01*
X137326235Y-102295208D01*
X137285312Y-102142481D01*
X137222055Y-102032915D01*
X137206259Y-102005555D01*
X137206253Y-102005547D01*
X137094452Y-101893746D01*
X137094444Y-101893740D01*
X136957525Y-101814691D01*
X136957521Y-101814689D01*
X136957519Y-101814688D01*
X136804792Y-101773765D01*
X136646678Y-101773765D01*
X136493951Y-101814688D01*
X136493944Y-101814691D01*
X136357025Y-101893740D01*
X136357017Y-101893746D01*
X136245216Y-102005547D01*
X136245210Y-102005555D01*
X136166161Y-102142474D01*
X136166158Y-102142481D01*
X136125235Y-102295208D01*
X134944444Y-102295208D01*
X134918717Y-102269481D01*
X134918709Y-102269475D01*
X134781790Y-102190426D01*
X134781786Y-102190424D01*
X134781784Y-102190423D01*
X134629057Y-102149500D01*
X134470943Y-102149500D01*
X134318216Y-102190423D01*
X134318209Y-102190426D01*
X134181290Y-102269475D01*
X134181282Y-102269481D01*
X134069481Y-102381282D01*
X134069475Y-102381290D01*
X133990426Y-102518209D01*
X133990423Y-102518216D01*
X133949500Y-102670943D01*
X129400500Y-102670943D01*
X129400500Y-100609598D01*
X167800000Y-100609598D01*
X167800000Y-100890401D01*
X167831437Y-101169412D01*
X167831439Y-101169424D01*
X167893921Y-101443178D01*
X167893922Y-101443180D01*
X167986662Y-101708217D01*
X168108492Y-101961200D01*
X168257884Y-102198956D01*
X168364187Y-102332257D01*
X169077339Y-101619104D01*
X169155864Y-101727184D01*
X169322816Y-101894136D01*
X169430893Y-101972658D01*
X168717741Y-102685810D01*
X168717741Y-102685811D01*
X168851043Y-102792115D01*
X169088799Y-102941507D01*
X169341782Y-103063337D01*
X169606819Y-103156077D01*
X169606821Y-103156078D01*
X169880575Y-103218560D01*
X169880587Y-103218562D01*
X170159598Y-103249999D01*
X170159600Y-103250000D01*
X170440400Y-103250000D01*
X170440401Y-103249999D01*
X170719412Y-103218562D01*
X170719424Y-103218560D01*
X170993178Y-103156078D01*
X170993180Y-103156077D01*
X171258217Y-103063337D01*
X171511200Y-102941507D01*
X171748956Y-102792116D01*
X171882257Y-102685810D01*
X171169105Y-101972659D01*
X171277184Y-101894136D01*
X171444136Y-101727184D01*
X171522659Y-101619105D01*
X172235810Y-102332257D01*
X172342116Y-102198956D01*
X172491507Y-101961200D01*
X172613337Y-101708217D01*
X172706077Y-101443180D01*
X172706078Y-101443178D01*
X172768560Y-101169424D01*
X172768562Y-101169412D01*
X172799999Y-100890401D01*
X172800000Y-100890399D01*
X172800000Y-100609600D01*
X172799999Y-100609598D01*
X172768562Y-100330587D01*
X172768560Y-100330575D01*
X172706078Y-100056821D01*
X172706077Y-100056819D01*
X172613337Y-99791782D01*
X172491507Y-99538799D01*
X172342115Y-99301043D01*
X172235810Y-99167741D01*
X171522658Y-99880893D01*
X171444136Y-99772816D01*
X171277184Y-99605864D01*
X171169105Y-99527340D01*
X171882257Y-98814187D01*
X171748956Y-98707884D01*
X171511200Y-98558492D01*
X171258217Y-98436662D01*
X170993180Y-98343922D01*
X170993178Y-98343921D01*
X170719424Y-98281439D01*
X170719412Y-98281437D01*
X170440401Y-98250000D01*
X170159598Y-98250000D01*
X169880587Y-98281437D01*
X169880575Y-98281439D01*
X169606821Y-98343921D01*
X169606819Y-98343922D01*
X169341782Y-98436662D01*
X169088799Y-98558492D01*
X168851043Y-98707884D01*
X168717741Y-98814187D01*
X169430894Y-99527340D01*
X169322816Y-99605864D01*
X169155864Y-99772816D01*
X169077340Y-99880894D01*
X168364187Y-99167741D01*
X168257884Y-99301043D01*
X168108492Y-99538799D01*
X167986662Y-99791782D01*
X167893922Y-100056819D01*
X167893921Y-100056821D01*
X167831439Y-100330575D01*
X167831437Y-100330587D01*
X167800000Y-100609598D01*
X129400500Y-100609598D01*
X129400500Y-99770943D01*
X146199500Y-99770943D01*
X146199500Y-99929057D01*
X146223525Y-100018717D01*
X146240423Y-100081783D01*
X146240426Y-100081790D01*
X146319475Y-100218709D01*
X146319479Y-100218714D01*
X146319480Y-100218716D01*
X146431284Y-100330520D01*
X146431286Y-100330521D01*
X146431290Y-100330524D01*
X146545472Y-100396446D01*
X146568216Y-100409577D01*
X146720943Y-100450500D01*
X146720945Y-100450500D01*
X146879055Y-100450500D01*
X146879057Y-100450500D01*
X147031784Y-100409577D01*
X147168716Y-100330520D01*
X147280520Y-100218716D01*
X147359577Y-100081784D01*
X147400500Y-99929057D01*
X147400500Y-99770943D01*
X147359577Y-99618216D01*
X147332285Y-99570945D01*
X147332284Y-99570943D01*
X157999500Y-99570943D01*
X157999500Y-99729057D01*
X158010724Y-99770943D01*
X158040423Y-99881783D01*
X158040426Y-99881790D01*
X158119475Y-100018709D01*
X158119479Y-100018714D01*
X158119480Y-100018716D01*
X158231284Y-100130520D01*
X158231286Y-100130521D01*
X158231290Y-100130524D01*
X158368209Y-100209573D01*
X158368216Y-100209577D01*
X158520943Y-100250500D01*
X158520945Y-100250500D01*
X158679055Y-100250500D01*
X158679057Y-100250500D01*
X158831784Y-100209577D01*
X158968716Y-100130520D01*
X159080520Y-100018716D01*
X159159577Y-99881784D01*
X159200500Y-99729057D01*
X159200500Y-99570943D01*
X159159577Y-99418216D01*
X159091928Y-99301043D01*
X159080524Y-99281290D01*
X159080518Y-99281282D01*
X158968717Y-99169481D01*
X158968709Y-99169475D01*
X158831790Y-99090426D01*
X158831786Y-99090424D01*
X158831784Y-99090423D01*
X158679057Y-99049500D01*
X158520943Y-99049500D01*
X158368216Y-99090423D01*
X158368209Y-99090426D01*
X158231290Y-99169475D01*
X158231282Y-99169481D01*
X158119481Y-99281282D01*
X158119475Y-99281290D01*
X158040426Y-99418209D01*
X158040423Y-99418216D01*
X157999500Y-99570943D01*
X147332284Y-99570943D01*
X147280522Y-99481287D01*
X147280518Y-99481282D01*
X147168717Y-99369481D01*
X147168709Y-99369475D01*
X147031790Y-99290426D01*
X147031786Y-99290424D01*
X147031784Y-99290423D01*
X146879057Y-99249500D01*
X146720943Y-99249500D01*
X146568216Y-99290423D01*
X146568209Y-99290426D01*
X146431290Y-99369475D01*
X146431282Y-99369481D01*
X146319481Y-99481282D01*
X146319475Y-99481290D01*
X146240426Y-99618209D01*
X146240426Y-99618210D01*
X146240423Y-99618216D01*
X146199500Y-99770943D01*
X129400500Y-99770943D01*
X129400500Y-98396678D01*
X133923765Y-98396678D01*
X133923765Y-98554792D01*
X133957062Y-98679056D01*
X133964688Y-98707518D01*
X133964691Y-98707525D01*
X134043740Y-98844444D01*
X134043744Y-98844449D01*
X134043745Y-98844451D01*
X134155549Y-98956255D01*
X134155551Y-98956256D01*
X134155555Y-98956259D01*
X134292474Y-99035308D01*
X134292481Y-99035312D01*
X134445208Y-99076235D01*
X134445210Y-99076235D01*
X134603320Y-99076235D01*
X134603322Y-99076235D01*
X134756049Y-99035312D01*
X134892981Y-98956255D01*
X135004785Y-98844451D01*
X135083842Y-98707519D01*
X135124765Y-98554792D01*
X135124765Y-98520943D01*
X140999500Y-98520943D01*
X140999500Y-98679057D01*
X141040423Y-98831782D01*
X141040423Y-98831783D01*
X141040426Y-98831790D01*
X141119475Y-98968709D01*
X141119479Y-98968714D01*
X141119480Y-98968716D01*
X141231284Y-99080520D01*
X141231286Y-99080521D01*
X141231290Y-99080524D01*
X141368209Y-99159573D01*
X141368216Y-99159577D01*
X141520943Y-99200500D01*
X141520945Y-99200500D01*
X141679055Y-99200500D01*
X141679057Y-99200500D01*
X141831784Y-99159577D01*
X141968716Y-99080520D01*
X142080520Y-98968716D01*
X142159577Y-98831784D01*
X142200500Y-98679057D01*
X142200500Y-98520943D01*
X142159577Y-98368216D01*
X142145551Y-98343922D01*
X142080524Y-98231290D01*
X142080518Y-98231282D01*
X141968717Y-98119481D01*
X141968709Y-98119475D01*
X141831790Y-98040426D01*
X141831786Y-98040424D01*
X141831784Y-98040423D01*
X141679057Y-97999500D01*
X141520943Y-97999500D01*
X141368216Y-98040423D01*
X141368209Y-98040426D01*
X141231290Y-98119475D01*
X141231282Y-98119481D01*
X141119481Y-98231282D01*
X141119475Y-98231290D01*
X141040426Y-98368209D01*
X141040423Y-98368216D01*
X140999500Y-98520943D01*
X135124765Y-98520943D01*
X135124765Y-98396678D01*
X135083842Y-98243951D01*
X135047223Y-98180524D01*
X135004789Y-98107025D01*
X135004783Y-98107017D01*
X134892982Y-97995216D01*
X134892974Y-97995210D01*
X134756055Y-97916161D01*
X134756051Y-97916159D01*
X134756049Y-97916158D01*
X134603322Y-97875235D01*
X134445208Y-97875235D01*
X134292481Y-97916158D01*
X134292474Y-97916161D01*
X134155555Y-97995210D01*
X134155547Y-97995216D01*
X134043746Y-98107017D01*
X134043740Y-98107025D01*
X133964691Y-98243944D01*
X133964688Y-98243951D01*
X133923765Y-98396678D01*
X129400500Y-98396678D01*
X129400500Y-96816374D01*
X132494931Y-96816374D01*
X132494931Y-96974488D01*
X132535412Y-97125563D01*
X132535854Y-97127214D01*
X132535857Y-97127221D01*
X132614906Y-97264140D01*
X132614910Y-97264145D01*
X132614911Y-97264147D01*
X132726715Y-97375951D01*
X132726717Y-97375952D01*
X132726721Y-97375955D01*
X132833062Y-97437350D01*
X132863647Y-97455008D01*
X133016374Y-97495931D01*
X133016376Y-97495931D01*
X133174486Y-97495931D01*
X133174488Y-97495931D01*
X133327215Y-97455008D01*
X133464147Y-97375951D01*
X133555825Y-97284273D01*
X133617148Y-97250788D01*
X133675596Y-97252178D01*
X133787271Y-97282102D01*
X133787274Y-97282102D01*
X133945383Y-97282102D01*
X133945385Y-97282102D01*
X134098112Y-97241179D01*
X134189148Y-97188620D01*
X134242083Y-97158059D01*
X134243332Y-97160222D01*
X134296779Y-97139553D01*
X134365225Y-97153584D01*
X134383505Y-97167097D01*
X134384132Y-97166281D01*
X134390574Y-97171224D01*
X134390577Y-97171227D01*
X134390580Y-97171228D01*
X134390583Y-97171231D01*
X134521189Y-97246635D01*
X134527509Y-97250284D01*
X134680236Y-97291207D01*
X134680238Y-97291207D01*
X134838348Y-97291207D01*
X134838350Y-97291207D01*
X134991077Y-97250284D01*
X135128009Y-97171227D01*
X135162319Y-97136917D01*
X135223642Y-97103432D01*
X135293334Y-97108416D01*
X135337681Y-97136917D01*
X135381284Y-97180520D01*
X135381286Y-97180521D01*
X135381290Y-97180524D01*
X135502113Y-97250280D01*
X135518216Y-97259577D01*
X135670943Y-97300500D01*
X135670945Y-97300500D01*
X135829055Y-97300500D01*
X135829057Y-97300500D01*
X135981784Y-97259577D01*
X136118716Y-97180520D01*
X136150257Y-97148979D01*
X136211580Y-97115494D01*
X136281272Y-97120478D01*
X136325619Y-97148979D01*
X136344222Y-97167582D01*
X136344224Y-97167583D01*
X136344228Y-97167586D01*
X136446722Y-97226760D01*
X136481154Y-97246639D01*
X136633881Y-97287562D01*
X136633883Y-97287562D01*
X136791993Y-97287562D01*
X136791995Y-97287562D01*
X136944722Y-97246639D01*
X137081654Y-97167582D01*
X137081655Y-97167580D01*
X137085912Y-97165123D01*
X137153812Y-97148650D01*
X137219839Y-97171503D01*
X137224765Y-97175670D01*
X137224839Y-97175574D01*
X137231281Y-97180517D01*
X137231284Y-97180520D01*
X137231287Y-97180521D01*
X137231290Y-97180524D01*
X137352113Y-97250280D01*
X137368216Y-97259577D01*
X137520943Y-97300500D01*
X137520945Y-97300500D01*
X137524314Y-97300500D01*
X137527052Y-97301304D01*
X137529003Y-97301561D01*
X137528962Y-97301865D01*
X137591353Y-97320185D01*
X137637108Y-97372989D01*
X137647052Y-97442147D01*
X137642087Y-97460247D01*
X137642527Y-97460365D01*
X137640423Y-97468214D01*
X137640423Y-97468216D01*
X137616545Y-97557329D01*
X137599500Y-97620943D01*
X137599500Y-97779056D01*
X137640423Y-97931783D01*
X137640426Y-97931790D01*
X137719475Y-98068709D01*
X137719479Y-98068714D01*
X137719480Y-98068716D01*
X137831284Y-98180520D01*
X137831286Y-98180521D01*
X137831290Y-98180524D01*
X137951628Y-98250000D01*
X137968216Y-98259577D01*
X138120943Y-98300500D01*
X138120945Y-98300500D01*
X138279055Y-98300500D01*
X138279057Y-98300500D01*
X138431784Y-98259577D01*
X138568716Y-98180520D01*
X138680520Y-98068716D01*
X138759577Y-97931784D01*
X138800500Y-97779057D01*
X138800500Y-97620943D01*
X138759577Y-97468216D01*
X138754976Y-97460247D01*
X138680524Y-97331290D01*
X138680518Y-97331282D01*
X138568717Y-97219481D01*
X138568709Y-97219475D01*
X138431790Y-97140426D01*
X138431786Y-97140424D01*
X138431784Y-97140423D01*
X138279057Y-97099500D01*
X138275686Y-97099500D01*
X138272947Y-97098695D01*
X138270997Y-97098439D01*
X138271037Y-97098134D01*
X138251420Y-97092374D01*
X138226321Y-97089250D01*
X138218462Y-97082697D01*
X138208647Y-97079815D01*
X138192087Y-97060704D01*
X138172659Y-97044504D01*
X138169590Y-97034741D01*
X138162892Y-97027011D01*
X138159292Y-97001980D01*
X138151708Y-96977849D01*
X138154045Y-96965484D01*
X138152948Y-96957853D01*
X138156068Y-96942825D01*
X138158641Y-96933405D01*
X138159577Y-96931784D01*
X138174049Y-96877773D01*
X144243912Y-96877773D01*
X144243912Y-97035887D01*
X144282668Y-97180524D01*
X144284835Y-97188613D01*
X144284838Y-97188620D01*
X144363887Y-97325539D01*
X144363891Y-97325544D01*
X144363892Y-97325546D01*
X144475696Y-97437350D01*
X144475698Y-97437351D01*
X144475702Y-97437354D01*
X144577160Y-97495930D01*
X144612628Y-97516407D01*
X144765355Y-97557330D01*
X144765357Y-97557330D01*
X144923467Y-97557330D01*
X144923469Y-97557330D01*
X145076196Y-97516407D01*
X145213128Y-97437350D01*
X145324932Y-97325546D01*
X145403989Y-97188614D01*
X145444912Y-97035887D01*
X145444912Y-96877773D01*
X145403989Y-96725046D01*
X145348861Y-96629560D01*
X145348553Y-96629015D01*
X145340769Y-96595520D01*
X145332676Y-96562158D01*
X145332880Y-96561567D01*
X145332739Y-96560959D01*
X145344279Y-96528633D01*
X145355529Y-96496131D01*
X145356141Y-96495407D01*
X145356231Y-96495156D01*
X145356583Y-96494884D01*
X145368846Y-96480387D01*
X145380518Y-96468716D01*
X145459575Y-96331784D01*
X145500498Y-96179057D01*
X145500498Y-96020943D01*
X145459575Y-95868216D01*
X145425720Y-95809577D01*
X145380522Y-95731290D01*
X145380516Y-95731282D01*
X145268715Y-95619481D01*
X145268707Y-95619475D01*
X145131788Y-95540426D01*
X145131784Y-95540424D01*
X145131782Y-95540423D01*
X144979055Y-95499500D01*
X144820941Y-95499500D01*
X144668214Y-95540423D01*
X144668207Y-95540426D01*
X144531288Y-95619475D01*
X144531280Y-95619481D01*
X144419479Y-95731282D01*
X144419473Y-95731290D01*
X144340424Y-95868209D01*
X144340421Y-95868216D01*
X144299498Y-96020943D01*
X144299498Y-96179057D01*
X144340287Y-96331282D01*
X144340421Y-96331783D01*
X144340421Y-96331784D01*
X144395261Y-96426771D01*
X144411732Y-96494671D01*
X144388880Y-96560698D01*
X144375557Y-96576449D01*
X144363891Y-96588115D01*
X144363887Y-96588120D01*
X144284838Y-96725039D01*
X144284835Y-96725046D01*
X144243912Y-96877773D01*
X138174049Y-96877773D01*
X138200500Y-96779057D01*
X138200500Y-96620943D01*
X138159577Y-96468216D01*
X138128799Y-96414906D01*
X138080524Y-96331290D01*
X138080518Y-96331282D01*
X137968717Y-96219481D01*
X137968709Y-96219475D01*
X137831790Y-96140426D01*
X137831786Y-96140424D01*
X137831784Y-96140423D01*
X137679057Y-96099500D01*
X137520943Y-96099500D01*
X137368216Y-96140423D01*
X137368215Y-96140423D01*
X137227024Y-96221939D01*
X137159124Y-96238411D01*
X137093097Y-96215558D01*
X137088172Y-96211392D01*
X137088099Y-96211488D01*
X137081647Y-96206537D01*
X136944728Y-96127488D01*
X136944724Y-96127486D01*
X136944722Y-96127485D01*
X136791995Y-96086562D01*
X136633881Y-96086562D01*
X136481154Y-96127485D01*
X136481147Y-96127488D01*
X136344228Y-96206537D01*
X136344220Y-96206543D01*
X136312681Y-96238083D01*
X136251358Y-96271568D01*
X136181666Y-96266584D01*
X136137319Y-96238083D01*
X136118717Y-96219481D01*
X136118709Y-96219475D01*
X135981790Y-96140426D01*
X135981786Y-96140424D01*
X135981784Y-96140423D01*
X135829057Y-96099500D01*
X135670943Y-96099500D01*
X135518216Y-96140423D01*
X135518209Y-96140426D01*
X135381290Y-96219475D01*
X135381282Y-96219481D01*
X135346974Y-96253790D01*
X135285651Y-96287275D01*
X135215959Y-96282291D01*
X135171612Y-96253790D01*
X135128010Y-96210188D01*
X135128002Y-96210182D01*
X134991083Y-96131133D01*
X134991079Y-96131131D01*
X134991077Y-96131130D01*
X134838350Y-96090207D01*
X134680236Y-96090207D01*
X134527509Y-96131130D01*
X134527502Y-96131133D01*
X134383538Y-96214250D01*
X134382292Y-96212092D01*
X134328796Y-96232759D01*
X134260354Y-96218703D01*
X134242114Y-96205213D01*
X134241489Y-96206028D01*
X134235037Y-96201077D01*
X134098118Y-96122028D01*
X134098114Y-96122026D01*
X134098112Y-96122025D01*
X133945385Y-96081102D01*
X133787271Y-96081102D01*
X133634544Y-96122025D01*
X133634537Y-96122028D01*
X133497618Y-96201077D01*
X133497610Y-96201083D01*
X133405932Y-96292760D01*
X133344609Y-96326244D01*
X133286159Y-96324853D01*
X133241497Y-96312886D01*
X133174488Y-96294931D01*
X133016374Y-96294931D01*
X132863647Y-96335854D01*
X132863640Y-96335857D01*
X132726721Y-96414906D01*
X132726713Y-96414912D01*
X132614912Y-96526713D01*
X132614906Y-96526721D01*
X132535857Y-96663640D01*
X132535854Y-96663647D01*
X132494931Y-96816374D01*
X129400500Y-96816374D01*
X129400500Y-95170943D01*
X137599500Y-95170943D01*
X137599500Y-95329057D01*
X137640086Y-95480524D01*
X137640423Y-95481783D01*
X137640426Y-95481790D01*
X137719475Y-95618709D01*
X137719479Y-95618714D01*
X137719480Y-95618716D01*
X137831284Y-95730520D01*
X137831286Y-95730521D01*
X137831290Y-95730524D01*
X137968209Y-95809573D01*
X137968216Y-95809577D01*
X138120943Y-95850500D01*
X138120945Y-95850500D01*
X138279055Y-95850500D01*
X138279057Y-95850500D01*
X138431784Y-95809577D01*
X138568716Y-95730520D01*
X138680520Y-95618716D01*
X138759577Y-95481784D01*
X138800500Y-95329057D01*
X138800500Y-95170943D01*
X138759577Y-95018216D01*
X138759573Y-95018209D01*
X138680524Y-94881290D01*
X138680518Y-94881282D01*
X138568717Y-94769481D01*
X138568709Y-94769475D01*
X138431790Y-94690426D01*
X138431786Y-94690424D01*
X138431784Y-94690423D01*
X138279057Y-94649500D01*
X138120943Y-94649500D01*
X137968216Y-94690423D01*
X137968209Y-94690426D01*
X137831290Y-94769475D01*
X137831282Y-94769481D01*
X137719481Y-94881282D01*
X137719475Y-94881290D01*
X137640426Y-95018209D01*
X137640423Y-95018216D01*
X137599500Y-95170943D01*
X129400500Y-95170943D01*
X129400500Y-94111994D01*
X140596517Y-94111994D01*
X140596517Y-94270108D01*
X140631547Y-94400840D01*
X140637440Y-94422834D01*
X140637443Y-94422841D01*
X140716492Y-94559760D01*
X140716498Y-94559768D01*
X140834048Y-94677318D01*
X140832176Y-94679189D01*
X140865666Y-94725054D01*
X140869820Y-94794800D01*
X140868751Y-94799093D01*
X140849500Y-94870941D01*
X140849500Y-94870943D01*
X140849500Y-95029057D01*
X140873525Y-95118717D01*
X140890423Y-95181783D01*
X140890426Y-95181790D01*
X140969475Y-95318709D01*
X140974426Y-95325161D01*
X140973110Y-95326170D01*
X141001995Y-95379069D01*
X140997011Y-95448761D01*
X140955139Y-95504694D01*
X140942829Y-95512814D01*
X140931287Y-95519477D01*
X140931282Y-95519481D01*
X140819481Y-95631282D01*
X140819475Y-95631290D01*
X140740426Y-95768209D01*
X140740423Y-95768216D01*
X140699500Y-95920943D01*
X140699500Y-96079057D01*
X140738606Y-96225000D01*
X140740423Y-96231783D01*
X140740426Y-96231790D01*
X140819475Y-96368709D01*
X140819479Y-96368714D01*
X140819480Y-96368716D01*
X140931284Y-96480520D01*
X140931286Y-96480521D01*
X140931290Y-96480524D01*
X141011307Y-96526721D01*
X141068216Y-96559577D01*
X141220943Y-96600500D01*
X141220945Y-96600500D01*
X141379055Y-96600500D01*
X141379057Y-96600500D01*
X141531784Y-96559577D01*
X141668716Y-96480520D01*
X141780520Y-96368716D01*
X141859577Y-96231784D01*
X141900500Y-96079057D01*
X141900500Y-95920943D01*
X141859577Y-95768216D01*
X141842806Y-95739168D01*
X141780524Y-95631290D01*
X141780521Y-95631287D01*
X141780520Y-95631284D01*
X141780517Y-95631281D01*
X141775574Y-95624839D01*
X141776889Y-95623829D01*
X141748004Y-95570930D01*
X141752988Y-95501238D01*
X141794860Y-95445305D01*
X141807157Y-95437193D01*
X141818716Y-95430520D01*
X141930520Y-95318716D01*
X142009577Y-95181784D01*
X142050500Y-95029057D01*
X142050500Y-94870943D01*
X142009577Y-94718216D01*
X141982647Y-94671571D01*
X141930524Y-94581290D01*
X141930518Y-94581282D01*
X141895987Y-94546751D01*
X141818716Y-94469480D01*
X141817392Y-94468716D01*
X141815547Y-94466884D01*
X146408461Y-94466884D01*
X146408461Y-94624998D01*
X146447174Y-94769475D01*
X146449384Y-94777724D01*
X146449387Y-94777731D01*
X146528436Y-94914650D01*
X146528440Y-94914655D01*
X146528441Y-94914657D01*
X146640245Y-95026461D01*
X146640247Y-95026462D01*
X146640251Y-95026465D01*
X146777170Y-95105514D01*
X146777177Y-95105518D01*
X146929904Y-95146441D01*
X146929906Y-95146441D01*
X147088015Y-95146441D01*
X147088018Y-95146441D01*
X147223271Y-95110200D01*
X147293116Y-95111863D01*
X147343041Y-95142294D01*
X147431267Y-95230520D01*
X147431269Y-95230521D01*
X147431273Y-95230524D01*
X147494643Y-95267110D01*
X147568199Y-95309577D01*
X147720926Y-95350500D01*
X147720928Y-95350500D01*
X147879038Y-95350500D01*
X147879040Y-95350500D01*
X148031767Y-95309577D01*
X148137987Y-95248251D01*
X148205884Y-95231779D01*
X148261981Y-95248251D01*
X148368202Y-95309577D01*
X148520929Y-95350500D01*
X148520931Y-95350500D01*
X148679041Y-95350500D01*
X148679043Y-95350500D01*
X148831770Y-95309577D01*
X148968702Y-95230520D01*
X149080506Y-95118716D01*
X149159563Y-94981784D01*
X149175865Y-94920943D01*
X161799500Y-94920943D01*
X161799500Y-95079057D01*
X161840086Y-95230524D01*
X161840423Y-95231783D01*
X161840426Y-95231790D01*
X161919475Y-95368709D01*
X161919479Y-95368714D01*
X161919480Y-95368716D01*
X162031284Y-95480520D01*
X162031286Y-95480521D01*
X162031290Y-95480524D01*
X162098760Y-95519477D01*
X162168216Y-95559577D01*
X162320943Y-95600500D01*
X162320945Y-95600500D01*
X162479055Y-95600500D01*
X162479057Y-95600500D01*
X162631784Y-95559577D01*
X162768716Y-95480520D01*
X162784418Y-95464818D01*
X167450000Y-95464818D01*
X167450000Y-95685181D01*
X167484473Y-95902835D01*
X167552567Y-96112410D01*
X167652611Y-96308756D01*
X167698932Y-96372513D01*
X168248958Y-95822487D01*
X168273978Y-95882890D01*
X168345112Y-95989351D01*
X168435649Y-96079888D01*
X168542110Y-96151022D01*
X168602510Y-96176041D01*
X168052485Y-96726065D01*
X168052485Y-96726066D01*
X168116243Y-96772388D01*
X168312589Y-96872432D01*
X168522164Y-96940526D01*
X168739819Y-96975000D01*
X168960181Y-96975000D01*
X169177835Y-96940526D01*
X169387410Y-96872432D01*
X169583768Y-96772382D01*
X169587916Y-96769841D01*
X169588509Y-96770809D01*
X169649236Y-96749124D01*
X169717294Y-96764931D01*
X169766002Y-96815024D01*
X169766832Y-96816623D01*
X169773240Y-96829199D01*
X169884310Y-96982073D01*
X170017927Y-97115690D01*
X170170801Y-97226760D01*
X170235206Y-97259576D01*
X170339163Y-97312545D01*
X170339165Y-97312545D01*
X170339168Y-97312547D01*
X170396853Y-97331290D01*
X170518881Y-97370940D01*
X170705514Y-97400500D01*
X170705519Y-97400500D01*
X170894486Y-97400500D01*
X171081118Y-97370940D01*
X171260832Y-97312547D01*
X171429199Y-97226760D01*
X171582073Y-97115690D01*
X171715690Y-96982073D01*
X171826760Y-96829199D01*
X171912547Y-96660832D01*
X171970940Y-96481118D01*
X171972905Y-96468709D01*
X172000500Y-96294486D01*
X172000500Y-96105513D01*
X171970940Y-95918881D01*
X171921983Y-95768209D01*
X171912547Y-95739168D01*
X171912545Y-95739165D01*
X171912545Y-95739163D01*
X171861519Y-95639019D01*
X171826760Y-95570801D01*
X171715690Y-95417927D01*
X171582073Y-95284310D01*
X171429199Y-95173240D01*
X171376603Y-95146441D01*
X171260836Y-95087454D01*
X171081118Y-95029059D01*
X170894486Y-94999500D01*
X170894481Y-94999500D01*
X170705519Y-94999500D01*
X170705514Y-94999500D01*
X170518881Y-95029059D01*
X170378840Y-95074562D01*
X170339168Y-95087453D01*
X170339165Y-95087454D01*
X170339163Y-95087455D01*
X170317421Y-95098533D01*
X170248752Y-95111428D01*
X170184012Y-95085150D01*
X170150922Y-95041276D01*
X170149643Y-95041928D01*
X170047388Y-94841243D01*
X170001066Y-94777485D01*
X170001065Y-94777485D01*
X169451041Y-95327510D01*
X169426022Y-95267110D01*
X169354888Y-95160649D01*
X169264351Y-95070112D01*
X169157890Y-94998978D01*
X169097487Y-94973957D01*
X169647513Y-94423932D01*
X169644798Y-94389438D01*
X169659162Y-94321061D01*
X169680729Y-94292033D01*
X169765690Y-94207073D01*
X169876760Y-94054199D01*
X169876762Y-94054195D01*
X169878638Y-94051613D01*
X169933968Y-94008948D01*
X169978956Y-94000499D01*
X171744856Y-94000499D01*
X171744864Y-94000499D01*
X171744879Y-94000497D01*
X171744882Y-94000497D01*
X171769987Y-93997586D01*
X171769988Y-93997585D01*
X171769991Y-93997585D01*
X171872765Y-93952206D01*
X171952206Y-93872765D01*
X171997585Y-93769991D01*
X172000500Y-93744865D01*
X172000499Y-91855136D01*
X172000497Y-91855117D01*
X171997586Y-91830012D01*
X171997585Y-91830010D01*
X171997585Y-91830009D01*
X171952206Y-91727235D01*
X171872765Y-91647794D01*
X171872763Y-91647793D01*
X171769992Y-91602415D01*
X171744865Y-91599500D01*
X169855143Y-91599500D01*
X169855117Y-91599502D01*
X169830012Y-91602413D01*
X169830008Y-91602415D01*
X169727235Y-91647793D01*
X169647794Y-91727234D01*
X169602415Y-91830006D01*
X169602415Y-91830008D01*
X169599500Y-91855131D01*
X169599500Y-92257186D01*
X169579815Y-92324225D01*
X169527011Y-92369980D01*
X169457853Y-92379924D01*
X169419206Y-92367671D01*
X169310839Y-92312455D01*
X169131118Y-92254059D01*
X168944486Y-92224500D01*
X168944481Y-92224500D01*
X168755519Y-92224500D01*
X168755514Y-92224500D01*
X168568881Y-92254059D01*
X168389163Y-92312454D01*
X168220800Y-92398240D01*
X168176366Y-92430524D01*
X168067927Y-92509310D01*
X168067925Y-92509312D01*
X168067924Y-92509312D01*
X167934312Y-92642924D01*
X167934312Y-92642925D01*
X167934310Y-92642927D01*
X167906442Y-92681284D01*
X167823240Y-92795800D01*
X167737454Y-92964163D01*
X167679059Y-93143881D01*
X167649500Y-93330513D01*
X167649500Y-93519486D01*
X167679059Y-93706118D01*
X167737454Y-93885836D01*
X167821922Y-94051613D01*
X167823240Y-94054199D01*
X167934310Y-94207073D01*
X167934312Y-94207075D01*
X168019263Y-94292026D01*
X168052748Y-94353349D01*
X168055200Y-94389436D01*
X168052485Y-94423932D01*
X168602511Y-94973958D01*
X168542110Y-94998978D01*
X168435649Y-95070112D01*
X168345112Y-95160649D01*
X168273978Y-95267110D01*
X168248958Y-95327511D01*
X167698932Y-94777485D01*
X167698931Y-94777485D01*
X167652616Y-94841233D01*
X167552567Y-95037589D01*
X167484473Y-95247164D01*
X167450000Y-95464818D01*
X162784418Y-95464818D01*
X162880520Y-95368716D01*
X162959577Y-95231784D01*
X163000500Y-95079057D01*
X163000500Y-94920943D01*
X162959577Y-94768216D01*
X162926042Y-94710131D01*
X162880524Y-94631290D01*
X162880518Y-94631282D01*
X162768717Y-94519481D01*
X162768709Y-94519475D01*
X162631790Y-94440426D01*
X162631786Y-94440424D01*
X162631784Y-94440423D01*
X162479057Y-94399500D01*
X162320943Y-94399500D01*
X162168216Y-94440423D01*
X162168209Y-94440426D01*
X162031290Y-94519475D01*
X162031282Y-94519481D01*
X161919481Y-94631282D01*
X161919475Y-94631290D01*
X161840426Y-94768209D01*
X161840423Y-94768216D01*
X161799500Y-94920943D01*
X149175865Y-94920943D01*
X149200486Y-94829057D01*
X149200486Y-94670943D01*
X149159563Y-94518216D01*
X149121195Y-94451760D01*
X149080510Y-94381290D01*
X149080504Y-94381282D01*
X148968703Y-94269481D01*
X148968695Y-94269475D01*
X148831776Y-94190426D01*
X148831772Y-94190424D01*
X148831770Y-94190423D01*
X148679043Y-94149500D01*
X148520929Y-94149500D01*
X148368202Y-94190423D01*
X148368201Y-94190423D01*
X148261983Y-94251747D01*
X148194082Y-94268218D01*
X148137985Y-94251747D01*
X148031767Y-94190423D01*
X148008083Y-94184077D01*
X147879040Y-94149500D01*
X147720926Y-94149500D01*
X147585676Y-94185740D01*
X147515826Y-94184077D01*
X147465902Y-94153646D01*
X147377678Y-94065422D01*
X147377670Y-94065416D01*
X147240751Y-93986367D01*
X147240746Y-93986364D01*
X147211423Y-93978507D01*
X147191775Y-93973242D01*
X147132115Y-93936877D01*
X147101587Y-93874030D01*
X147109882Y-93804655D01*
X147154368Y-93750777D01*
X147191772Y-93733695D01*
X147281784Y-93709577D01*
X147418716Y-93630520D01*
X147530520Y-93518716D01*
X147609577Y-93381784D01*
X147650500Y-93229057D01*
X147650500Y-93070943D01*
X147623705Y-92970943D01*
X152899500Y-92970943D01*
X152899500Y-93129057D01*
X152926295Y-93229055D01*
X152940423Y-93281783D01*
X152940426Y-93281790D01*
X153019475Y-93418709D01*
X153019479Y-93418714D01*
X153019480Y-93418716D01*
X153131284Y-93530520D01*
X153131286Y-93530521D01*
X153131290Y-93530524D01*
X153268209Y-93609573D01*
X153268216Y-93609577D01*
X153420943Y-93650500D01*
X153420945Y-93650500D01*
X153579055Y-93650500D01*
X153579057Y-93650500D01*
X153731784Y-93609577D01*
X153868716Y-93530520D01*
X153980520Y-93418716D01*
X154059577Y-93281784D01*
X154100500Y-93129057D01*
X154100500Y-92970943D01*
X154059577Y-92818216D01*
X154038258Y-92781290D01*
X153980524Y-92681290D01*
X153980518Y-92681282D01*
X153868717Y-92569481D01*
X153868716Y-92569480D01*
X153731784Y-92490423D01*
X153579057Y-92449500D01*
X153420943Y-92449500D01*
X153268216Y-92490423D01*
X153268209Y-92490426D01*
X153131290Y-92569475D01*
X153131282Y-92569481D01*
X153019481Y-92681282D01*
X153019475Y-92681290D01*
X152940426Y-92818209D01*
X152940423Y-92818216D01*
X152899500Y-92970943D01*
X147623705Y-92970943D01*
X147609577Y-92918216D01*
X147580999Y-92868717D01*
X147530524Y-92781290D01*
X147530518Y-92781282D01*
X147418717Y-92669481D01*
X147418709Y-92669475D01*
X147281790Y-92590426D01*
X147281786Y-92590424D01*
X147281784Y-92590423D01*
X147129057Y-92549500D01*
X146970943Y-92549500D01*
X146818216Y-92590423D01*
X146818209Y-92590426D01*
X146681290Y-92669475D01*
X146681282Y-92669481D01*
X146569481Y-92781282D01*
X146569475Y-92781290D01*
X146490426Y-92918209D01*
X146490423Y-92918216D01*
X146449500Y-93070943D01*
X146449500Y-93229057D01*
X146463629Y-93281785D01*
X146490423Y-93381783D01*
X146490426Y-93381790D01*
X146569475Y-93518709D01*
X146569479Y-93518714D01*
X146569480Y-93518716D01*
X146681284Y-93630520D01*
X146681286Y-93630521D01*
X146681290Y-93630524D01*
X146812225Y-93706118D01*
X146818216Y-93709577D01*
X146867184Y-93722698D01*
X146926844Y-93759062D01*
X146957373Y-93821908D01*
X146949079Y-93891284D01*
X146904594Y-93945162D01*
X146867185Y-93962246D01*
X146837933Y-93970084D01*
X146777175Y-93986364D01*
X146777170Y-93986367D01*
X146640251Y-94065416D01*
X146640243Y-94065422D01*
X146528442Y-94177223D01*
X146528436Y-94177231D01*
X146449387Y-94314150D01*
X146449384Y-94314157D01*
X146408461Y-94466884D01*
X141815547Y-94466884D01*
X141810672Y-94462043D01*
X141797476Y-94438080D01*
X141781348Y-94415989D01*
X141780867Y-94407920D01*
X141776969Y-94400840D01*
X141778822Y-94373548D01*
X141777198Y-94346243D01*
X141778256Y-94341991D01*
X141797517Y-94270108D01*
X141797517Y-94111994D01*
X141756594Y-93959267D01*
X141743667Y-93936877D01*
X141677541Y-93822341D01*
X141677535Y-93822333D01*
X141565734Y-93710532D01*
X141565726Y-93710526D01*
X141428807Y-93631477D01*
X141428803Y-93631475D01*
X141428801Y-93631474D01*
X141276074Y-93590551D01*
X141117960Y-93590551D01*
X140965233Y-93631474D01*
X140965226Y-93631477D01*
X140828307Y-93710526D01*
X140828299Y-93710532D01*
X140716498Y-93822333D01*
X140716492Y-93822341D01*
X140637443Y-93959260D01*
X140637440Y-93959267D01*
X140596517Y-94111994D01*
X129400500Y-94111994D01*
X129400500Y-92470943D01*
X139799500Y-92470943D01*
X139799500Y-92629057D01*
X139840289Y-92781282D01*
X139840423Y-92781783D01*
X139840426Y-92781790D01*
X139919475Y-92918709D01*
X139919479Y-92918714D01*
X139919480Y-92918716D01*
X140031284Y-93030520D01*
X140031286Y-93030521D01*
X140031290Y-93030524D01*
X140152492Y-93100499D01*
X140168216Y-93109577D01*
X140320943Y-93150500D01*
X140320945Y-93150500D01*
X140479055Y-93150500D01*
X140479057Y-93150500D01*
X140631784Y-93109577D01*
X140768716Y-93030520D01*
X140880520Y-92918716D01*
X140959577Y-92781784D01*
X140996923Y-92642404D01*
X141033287Y-92582746D01*
X141096134Y-92552217D01*
X141116697Y-92550500D01*
X141129055Y-92550500D01*
X141129057Y-92550500D01*
X141281784Y-92509577D01*
X141418716Y-92430520D01*
X141428293Y-92420943D01*
X158199500Y-92420943D01*
X158199500Y-92579057D01*
X158223728Y-92669475D01*
X158240423Y-92731783D01*
X158240426Y-92731790D01*
X158319475Y-92868709D01*
X158319479Y-92868714D01*
X158319480Y-92868716D01*
X158431284Y-92980520D01*
X158431286Y-92980521D01*
X158431290Y-92980524D01*
X158517887Y-93030520D01*
X158568216Y-93059577D01*
X158720943Y-93100500D01*
X158720945Y-93100500D01*
X158879055Y-93100500D01*
X158879057Y-93100500D01*
X159031784Y-93059577D01*
X159168716Y-92980520D01*
X159280520Y-92868716D01*
X159359577Y-92731784D01*
X159400500Y-92579057D01*
X159400500Y-92420943D01*
X159359577Y-92268216D01*
X159334338Y-92224500D01*
X159280524Y-92131290D01*
X159280518Y-92131282D01*
X159168717Y-92019481D01*
X159168709Y-92019475D01*
X159031790Y-91940426D01*
X159031786Y-91940424D01*
X159031784Y-91940423D01*
X158879057Y-91899500D01*
X158720943Y-91899500D01*
X158568216Y-91940423D01*
X158568209Y-91940426D01*
X158431290Y-92019475D01*
X158431282Y-92019481D01*
X158319481Y-92131282D01*
X158319475Y-92131290D01*
X158240426Y-92268209D01*
X158240423Y-92268216D01*
X158199500Y-92420943D01*
X141428293Y-92420943D01*
X141530520Y-92318716D01*
X141609577Y-92181784D01*
X141650500Y-92029057D01*
X141650500Y-91870943D01*
X141609577Y-91718216D01*
X141609573Y-91718209D01*
X141530524Y-91581290D01*
X141530518Y-91581282D01*
X141418717Y-91469481D01*
X141418709Y-91469475D01*
X141281790Y-91390426D01*
X141281786Y-91390424D01*
X141281784Y-91390423D01*
X141129057Y-91349500D01*
X140970943Y-91349500D01*
X140818216Y-91390423D01*
X140818209Y-91390426D01*
X140681290Y-91469475D01*
X140681282Y-91469481D01*
X140569481Y-91581282D01*
X140569475Y-91581290D01*
X140490426Y-91718209D01*
X140490423Y-91718216D01*
X140453076Y-91857595D01*
X140416713Y-91917254D01*
X140353866Y-91947783D01*
X140333303Y-91949500D01*
X140320943Y-91949500D01*
X140168216Y-91990423D01*
X140168209Y-91990426D01*
X140031290Y-92069475D01*
X140031282Y-92069481D01*
X139919481Y-92181282D01*
X139919475Y-92181290D01*
X139840426Y-92318209D01*
X139840423Y-92318216D01*
X139799500Y-92470943D01*
X129400500Y-92470943D01*
X129400500Y-90320943D01*
X132499500Y-90320943D01*
X132499500Y-90479057D01*
X132536788Y-90618216D01*
X132540423Y-90631783D01*
X132540426Y-90631790D01*
X132619475Y-90768709D01*
X132619479Y-90768714D01*
X132619480Y-90768716D01*
X132731284Y-90880520D01*
X132731286Y-90880521D01*
X132731290Y-90880524D01*
X132815353Y-90929057D01*
X132868216Y-90959577D01*
X133020943Y-91000500D01*
X133020945Y-91000500D01*
X133179055Y-91000500D01*
X133179057Y-91000500D01*
X133331784Y-90959577D01*
X133468716Y-90880520D01*
X133580520Y-90768716D01*
X133659577Y-90631784D01*
X133700500Y-90479057D01*
X133700500Y-90320943D01*
X133673437Y-90219943D01*
X139300500Y-90219943D01*
X139300500Y-90378057D01*
X139327563Y-90479055D01*
X139341423Y-90530783D01*
X139341426Y-90530790D01*
X139420475Y-90667709D01*
X139420479Y-90667714D01*
X139420480Y-90667716D01*
X139532284Y-90779520D01*
X139532286Y-90779521D01*
X139532290Y-90779524D01*
X139669209Y-90858573D01*
X139669216Y-90858577D01*
X139821943Y-90899500D01*
X139821945Y-90899500D01*
X139980055Y-90899500D01*
X139980057Y-90899500D01*
X140132784Y-90858577D01*
X140269716Y-90779520D01*
X140278293Y-90770943D01*
X143999500Y-90770943D01*
X143999500Y-90929057D01*
X144036858Y-91068477D01*
X144040423Y-91081783D01*
X144040426Y-91081790D01*
X144119475Y-91218709D01*
X144119479Y-91218714D01*
X144119480Y-91218716D01*
X144231284Y-91330520D01*
X144231286Y-91330521D01*
X144231290Y-91330524D01*
X144335040Y-91390423D01*
X144368216Y-91409577D01*
X144520943Y-91450500D01*
X144520945Y-91450500D01*
X144679055Y-91450500D01*
X144679057Y-91450500D01*
X144831784Y-91409577D01*
X144968716Y-91330520D01*
X145080520Y-91218716D01*
X145159577Y-91081784D01*
X145200500Y-90929057D01*
X145200500Y-90770943D01*
X145159577Y-90618216D01*
X145159573Y-90618209D01*
X145080524Y-90481290D01*
X145080518Y-90481282D01*
X144968717Y-90369481D01*
X144968709Y-90369475D01*
X144831790Y-90290426D01*
X144831786Y-90290424D01*
X144831784Y-90290423D01*
X144679057Y-90249500D01*
X144520943Y-90249500D01*
X144368216Y-90290423D01*
X144368209Y-90290426D01*
X144231290Y-90369475D01*
X144231282Y-90369481D01*
X144119481Y-90481282D01*
X144119475Y-90481290D01*
X144040426Y-90618209D01*
X144040423Y-90618216D01*
X143999500Y-90770943D01*
X140278293Y-90770943D01*
X140381520Y-90667716D01*
X140460577Y-90530784D01*
X140501500Y-90378057D01*
X140501500Y-90219943D01*
X140474973Y-90120943D01*
X146699500Y-90120943D01*
X146699500Y-90279057D01*
X146736788Y-90418216D01*
X146740423Y-90431783D01*
X146740426Y-90431790D01*
X146819475Y-90568709D01*
X146819479Y-90568714D01*
X146819480Y-90568716D01*
X146931284Y-90680520D01*
X146931286Y-90680521D01*
X146931290Y-90680524D01*
X147015353Y-90729057D01*
X147068216Y-90759577D01*
X147220943Y-90800500D01*
X147220945Y-90800500D01*
X147379055Y-90800500D01*
X147379057Y-90800500D01*
X147531784Y-90759577D01*
X147668716Y-90680520D01*
X147780520Y-90568716D01*
X147859577Y-90431784D01*
X147900500Y-90279057D01*
X147900500Y-90120943D01*
X147859577Y-89968216D01*
X147850978Y-89953322D01*
X147780524Y-89831290D01*
X147780518Y-89831282D01*
X147668717Y-89719481D01*
X147668709Y-89719475D01*
X147531790Y-89640426D01*
X147531786Y-89640424D01*
X147531784Y-89640423D01*
X147379057Y-89599500D01*
X147220943Y-89599500D01*
X147068216Y-89640423D01*
X147068209Y-89640426D01*
X146931290Y-89719475D01*
X146931282Y-89719481D01*
X146819481Y-89831282D01*
X146819475Y-89831290D01*
X146740426Y-89968209D01*
X146740423Y-89968216D01*
X146699500Y-90120943D01*
X140474973Y-90120943D01*
X140460577Y-90067216D01*
X140417132Y-89991966D01*
X140381524Y-89930290D01*
X140381518Y-89930282D01*
X140269717Y-89818481D01*
X140269709Y-89818475D01*
X140132790Y-89739426D01*
X140132786Y-89739424D01*
X140132784Y-89739423D01*
X139980057Y-89698500D01*
X139821943Y-89698500D01*
X139669216Y-89739423D01*
X139669209Y-89739426D01*
X139532290Y-89818475D01*
X139532282Y-89818481D01*
X139420481Y-89930282D01*
X139420475Y-89930290D01*
X139341426Y-90067209D01*
X139341423Y-90067216D01*
X139300500Y-90219943D01*
X133673437Y-90219943D01*
X133659577Y-90168216D01*
X133659573Y-90168209D01*
X133580524Y-90031290D01*
X133580518Y-90031282D01*
X133468717Y-89919481D01*
X133468709Y-89919475D01*
X133331790Y-89840426D01*
X133331786Y-89840424D01*
X133331784Y-89840423D01*
X133179057Y-89799500D01*
X133020943Y-89799500D01*
X132868216Y-89840423D01*
X132868209Y-89840426D01*
X132731290Y-89919475D01*
X132731282Y-89919481D01*
X132619481Y-90031282D01*
X132619475Y-90031290D01*
X132540426Y-90168209D01*
X132540423Y-90168216D01*
X132499500Y-90320943D01*
X129400500Y-90320943D01*
X129400500Y-89263128D01*
X141091685Y-89263128D01*
X141091685Y-89421242D01*
X141114275Y-89505547D01*
X141132608Y-89573968D01*
X141132611Y-89573975D01*
X141211660Y-89710894D01*
X141211664Y-89710899D01*
X141211665Y-89710901D01*
X141323469Y-89822705D01*
X141323471Y-89822706D01*
X141323475Y-89822709D01*
X141441669Y-89890947D01*
X141460401Y-89901762D01*
X141613128Y-89942685D01*
X141613130Y-89942685D01*
X141771240Y-89942685D01*
X141771242Y-89942685D01*
X141923969Y-89901762D01*
X142060901Y-89822705D01*
X142172705Y-89710901D01*
X142251762Y-89573969D01*
X142292685Y-89421242D01*
X142292685Y-89263128D01*
X142267984Y-89170943D01*
X147799500Y-89170943D01*
X147799500Y-89329057D01*
X147824201Y-89421240D01*
X147840423Y-89481783D01*
X147840426Y-89481790D01*
X147919475Y-89618709D01*
X147919479Y-89618714D01*
X147919480Y-89618716D01*
X148031284Y-89730520D01*
X148031286Y-89730521D01*
X148031290Y-89730524D01*
X148143328Y-89795208D01*
X148168216Y-89809577D01*
X148320943Y-89850500D01*
X148320945Y-89850500D01*
X148479055Y-89850500D01*
X148479057Y-89850500D01*
X148631784Y-89809577D01*
X148656672Y-89795208D01*
X152423765Y-89795208D01*
X152423765Y-89953322D01*
X152446199Y-90037045D01*
X152464688Y-90106048D01*
X152464691Y-90106055D01*
X152543740Y-90242974D01*
X152543744Y-90242979D01*
X152543745Y-90242981D01*
X152655549Y-90354785D01*
X152655551Y-90354786D01*
X152655555Y-90354789D01*
X152788915Y-90431783D01*
X152792481Y-90433842D01*
X152945208Y-90474765D01*
X152945210Y-90474765D01*
X153103320Y-90474765D01*
X153103322Y-90474765D01*
X153256049Y-90433842D01*
X153392981Y-90354785D01*
X153504785Y-90242981D01*
X153583842Y-90106049D01*
X153624765Y-89953322D01*
X153624765Y-89795208D01*
X153598624Y-89697648D01*
X155499500Y-89697648D01*
X155499500Y-89902351D01*
X155531522Y-90104534D01*
X155594781Y-90299223D01*
X155655412Y-90418216D01*
X155686412Y-90479057D01*
X155687715Y-90481613D01*
X155808028Y-90647213D01*
X155952786Y-90791971D01*
X156076414Y-90881790D01*
X156118390Y-90912287D01*
X156211194Y-90959573D01*
X156300776Y-91005218D01*
X156300778Y-91005218D01*
X156300781Y-91005220D01*
X156405137Y-91039127D01*
X156495465Y-91068477D01*
X156596557Y-91084488D01*
X156697648Y-91100500D01*
X156697649Y-91100500D01*
X156902351Y-91100500D01*
X156902352Y-91100500D01*
X157104534Y-91068477D01*
X157299219Y-91005220D01*
X157481610Y-90912287D01*
X157574590Y-90844732D01*
X157647213Y-90791971D01*
X157647215Y-90791968D01*
X157647219Y-90791966D01*
X157791966Y-90647219D01*
X157791968Y-90647215D01*
X157791971Y-90647213D01*
X157876561Y-90530783D01*
X157912287Y-90481610D01*
X158005220Y-90299219D01*
X158068477Y-90104534D01*
X158100500Y-89902352D01*
X158100500Y-89697648D01*
X158080911Y-89573968D01*
X158068477Y-89495465D01*
X158044360Y-89421241D01*
X158027833Y-89370379D01*
X158025839Y-89300541D01*
X158061919Y-89240708D01*
X158124619Y-89209879D01*
X158194034Y-89217843D01*
X158207766Y-89224676D01*
X158268216Y-89259577D01*
X158420943Y-89300500D01*
X158420945Y-89300500D01*
X158579055Y-89300500D01*
X158579057Y-89300500D01*
X158731784Y-89259577D01*
X158868716Y-89180520D01*
X158980520Y-89068716D01*
X159059577Y-88931784D01*
X159068724Y-88897648D01*
X159849500Y-88897648D01*
X159849500Y-89102351D01*
X159881522Y-89304534D01*
X159944781Y-89499223D01*
X160037715Y-89681613D01*
X160158028Y-89847213D01*
X160302786Y-89991971D01*
X160457719Y-90104534D01*
X160468390Y-90112287D01*
X160578143Y-90168209D01*
X160650776Y-90205218D01*
X160650778Y-90205218D01*
X160650781Y-90205220D01*
X160755137Y-90239127D01*
X160845465Y-90268477D01*
X160912258Y-90279056D01*
X161047648Y-90300500D01*
X161047649Y-90300500D01*
X161210365Y-90300500D01*
X161277404Y-90320185D01*
X161323159Y-90372989D01*
X161333103Y-90442147D01*
X161330140Y-90456591D01*
X161299500Y-90570943D01*
X161299500Y-90729057D01*
X161340086Y-90880524D01*
X161340423Y-90881783D01*
X161340426Y-90881790D01*
X161419475Y-91018709D01*
X161419479Y-91018714D01*
X161419480Y-91018716D01*
X161531284Y-91130520D01*
X161531286Y-91130521D01*
X161531290Y-91130524D01*
X161668209Y-91209573D01*
X161668216Y-91209577D01*
X161820943Y-91250500D01*
X161820945Y-91250500D01*
X161979055Y-91250500D01*
X161979057Y-91250500D01*
X162131784Y-91209577D01*
X162268716Y-91130520D01*
X162380520Y-91018716D01*
X162459577Y-90881784D01*
X162500500Y-90729057D01*
X162500500Y-90570943D01*
X162459577Y-90418216D01*
X162459573Y-90418209D01*
X162380524Y-90281290D01*
X162380518Y-90281282D01*
X162268717Y-90169481D01*
X162268709Y-90169475D01*
X162124746Y-90086359D01*
X162126409Y-90083476D01*
X162084059Y-90049346D01*
X162061996Y-89983051D01*
X162079277Y-89915352D01*
X162098233Y-89890951D01*
X162141966Y-89847219D01*
X162141968Y-89847215D01*
X162141971Y-89847213D01*
X162212599Y-89750000D01*
X162262287Y-89681610D01*
X162355220Y-89499219D01*
X162418477Y-89304534D01*
X162450500Y-89102352D01*
X162450500Y-88897648D01*
X162428849Y-88760953D01*
X162418477Y-88695465D01*
X162385762Y-88594780D01*
X162355220Y-88500781D01*
X162355218Y-88500778D01*
X162355218Y-88500776D01*
X162304124Y-88400500D01*
X162262287Y-88318390D01*
X162233754Y-88279117D01*
X162141971Y-88152786D01*
X161997213Y-88008028D01*
X161831613Y-87887715D01*
X161831612Y-87887714D01*
X161831610Y-87887713D01*
X161767001Y-87854793D01*
X161649223Y-87794781D01*
X161454534Y-87731522D01*
X161279995Y-87703878D01*
X161252352Y-87699500D01*
X161047648Y-87699500D01*
X161023329Y-87703351D01*
X160845465Y-87731522D01*
X160650776Y-87794781D01*
X160468386Y-87887715D01*
X160302786Y-88008028D01*
X160158028Y-88152786D01*
X160037715Y-88318386D01*
X159944781Y-88500776D01*
X159881522Y-88695465D01*
X159849500Y-88897648D01*
X159068724Y-88897648D01*
X159100500Y-88779057D01*
X159100500Y-88620943D01*
X159059577Y-88468216D01*
X159014650Y-88390399D01*
X158980524Y-88331290D01*
X158980518Y-88331282D01*
X158868717Y-88219481D01*
X158868709Y-88219475D01*
X158731790Y-88140426D01*
X158731786Y-88140424D01*
X158731784Y-88140423D01*
X158579057Y-88099500D01*
X158420943Y-88099500D01*
X158268216Y-88140423D01*
X158268209Y-88140426D01*
X158131290Y-88219475D01*
X158131282Y-88219481D01*
X158019481Y-88331282D01*
X158019475Y-88331290D01*
X157940426Y-88468209D01*
X157940423Y-88468216D01*
X157899500Y-88620943D01*
X157899500Y-88760953D01*
X157879815Y-88827992D01*
X157827011Y-88873747D01*
X157757853Y-88883691D01*
X157694297Y-88854666D01*
X157687819Y-88848634D01*
X157647213Y-88808028D01*
X157481613Y-88687715D01*
X157481612Y-88687714D01*
X157481610Y-88687713D01*
X157406613Y-88649500D01*
X157299223Y-88594781D01*
X157104534Y-88531522D01*
X156929995Y-88503878D01*
X156902352Y-88499500D01*
X156697648Y-88499500D01*
X156673329Y-88503351D01*
X156495465Y-88531522D01*
X156300776Y-88594781D01*
X156118386Y-88687715D01*
X155952786Y-88808028D01*
X155808028Y-88952786D01*
X155687715Y-89118386D01*
X155594781Y-89300776D01*
X155531522Y-89495465D01*
X155499500Y-89697648D01*
X153598624Y-89697648D01*
X153583842Y-89642481D01*
X153570122Y-89618717D01*
X153504789Y-89505555D01*
X153504783Y-89505547D01*
X153392982Y-89393746D01*
X153392974Y-89393740D01*
X153256055Y-89314691D01*
X153256051Y-89314689D01*
X153256049Y-89314688D01*
X153103322Y-89273765D01*
X152945208Y-89273765D01*
X152792481Y-89314688D01*
X152792474Y-89314691D01*
X152655555Y-89393740D01*
X152655547Y-89393746D01*
X152543746Y-89505547D01*
X152543740Y-89505555D01*
X152464691Y-89642474D01*
X152464688Y-89642481D01*
X152423765Y-89795208D01*
X148656672Y-89795208D01*
X148768716Y-89730520D01*
X148880520Y-89618716D01*
X148959577Y-89481784D01*
X149000500Y-89329057D01*
X149000500Y-89170943D01*
X148959577Y-89018216D01*
X148933743Y-88973469D01*
X148880524Y-88881290D01*
X148880518Y-88881282D01*
X148768717Y-88769481D01*
X148768709Y-88769475D01*
X148631790Y-88690426D01*
X148631786Y-88690424D01*
X148631784Y-88690423D01*
X148479057Y-88649500D01*
X148320943Y-88649500D01*
X148168216Y-88690423D01*
X148168209Y-88690426D01*
X148031290Y-88769475D01*
X148031282Y-88769481D01*
X147919481Y-88881282D01*
X147919475Y-88881290D01*
X147840426Y-89018209D01*
X147840423Y-89018216D01*
X147799500Y-89170943D01*
X142267984Y-89170943D01*
X142251762Y-89110401D01*
X142227696Y-89068717D01*
X142172709Y-88973475D01*
X142172703Y-88973467D01*
X142060902Y-88861666D01*
X142060894Y-88861660D01*
X141923975Y-88782611D01*
X141923971Y-88782609D01*
X141923969Y-88782608D01*
X141771242Y-88741685D01*
X141613128Y-88741685D01*
X141460401Y-88782608D01*
X141460394Y-88782611D01*
X141323475Y-88861660D01*
X141323467Y-88861666D01*
X141211666Y-88973467D01*
X141211660Y-88973475D01*
X141132611Y-89110394D01*
X141132608Y-89110401D01*
X141091685Y-89263128D01*
X129400500Y-89263128D01*
X129400500Y-87696680D01*
X143625234Y-87696680D01*
X143625234Y-87854794D01*
X143650879Y-87950500D01*
X143666157Y-88007520D01*
X143666160Y-88007527D01*
X143745209Y-88144446D01*
X143745213Y-88144451D01*
X143745214Y-88144453D01*
X143857018Y-88256257D01*
X143857020Y-88256258D01*
X143857024Y-88256261D01*
X143986966Y-88331282D01*
X143993950Y-88335314D01*
X144146677Y-88376237D01*
X144146679Y-88376237D01*
X144304789Y-88376237D01*
X144304791Y-88376237D01*
X144457518Y-88335314D01*
X144554855Y-88279116D01*
X144622754Y-88262644D01*
X144678854Y-88279117D01*
X144681283Y-88280519D01*
X144681284Y-88280520D01*
X144818216Y-88359577D01*
X144970943Y-88400500D01*
X144970945Y-88400500D01*
X145129055Y-88400500D01*
X145129057Y-88400500D01*
X145281784Y-88359577D01*
X145418716Y-88280520D01*
X145530520Y-88168716D01*
X145609577Y-88031784D01*
X145650500Y-87879057D01*
X145650500Y-87720943D01*
X145609577Y-87568216D01*
X145595565Y-87543946D01*
X145530524Y-87431290D01*
X145530518Y-87431282D01*
X145418717Y-87319481D01*
X145418709Y-87319475D01*
X145281790Y-87240426D01*
X145281786Y-87240424D01*
X145281784Y-87240423D01*
X145129057Y-87199500D01*
X144970943Y-87199500D01*
X144818216Y-87240423D01*
X144818215Y-87240423D01*
X144720878Y-87296620D01*
X144652977Y-87313091D01*
X144596880Y-87296619D01*
X144457524Y-87216163D01*
X144457520Y-87216161D01*
X144457518Y-87216160D01*
X144304791Y-87175237D01*
X144146677Y-87175237D01*
X143993950Y-87216160D01*
X143993943Y-87216163D01*
X143857024Y-87295212D01*
X143857016Y-87295218D01*
X143745215Y-87407019D01*
X143745209Y-87407027D01*
X143666160Y-87543946D01*
X143666157Y-87543953D01*
X143625234Y-87696680D01*
X129400500Y-87696680D01*
X129400500Y-84720943D01*
X133249500Y-84720943D01*
X133249500Y-84879057D01*
X133275044Y-84974386D01*
X133290423Y-85031783D01*
X133290426Y-85031790D01*
X133369475Y-85168709D01*
X133369479Y-85168714D01*
X133369480Y-85168716D01*
X133481284Y-85280520D01*
X133481286Y-85280521D01*
X133481290Y-85280524D01*
X133600762Y-85349500D01*
X133618216Y-85359577D01*
X133770943Y-85400500D01*
X133770945Y-85400500D01*
X133929055Y-85400500D01*
X133929057Y-85400500D01*
X134081784Y-85359577D01*
X134218716Y-85280520D01*
X134330520Y-85168716D01*
X134409577Y-85031784D01*
X134450500Y-84879057D01*
X134450500Y-84720943D01*
X134409577Y-84568216D01*
X134404587Y-84559573D01*
X134330524Y-84431290D01*
X134330518Y-84431282D01*
X134218717Y-84319481D01*
X134218709Y-84319475D01*
X134081790Y-84240426D01*
X134081786Y-84240424D01*
X134081784Y-84240423D01*
X133929057Y-84199500D01*
X133770943Y-84199500D01*
X133618216Y-84240423D01*
X133618209Y-84240426D01*
X133481290Y-84319475D01*
X133481282Y-84319481D01*
X133369481Y-84431282D01*
X133369475Y-84431290D01*
X133290426Y-84568209D01*
X133290423Y-84568216D01*
X133249500Y-84720943D01*
X129400500Y-84720943D01*
X129400500Y-79502706D01*
X129400618Y-79497297D01*
X129417386Y-79113226D01*
X129418326Y-79102495D01*
X129468152Y-78724025D01*
X129470025Y-78713405D01*
X129552649Y-78340709D01*
X129555440Y-78330295D01*
X129670230Y-77966227D01*
X129673917Y-77956095D01*
X129820003Y-77603412D01*
X129824561Y-77593638D01*
X130000822Y-77255045D01*
X130006217Y-77245700D01*
X130211325Y-76923744D01*
X130217515Y-76914905D01*
X130449896Y-76612060D01*
X130456834Y-76603791D01*
X130714726Y-76322352D01*
X130722352Y-76314726D01*
X131003791Y-76056834D01*
X131012060Y-76049896D01*
X131314905Y-75817515D01*
X131323744Y-75811325D01*
X131645700Y-75606217D01*
X131655045Y-75600822D01*
X131993638Y-75424561D01*
X132003412Y-75420003D01*
X132356095Y-75273917D01*
X132366227Y-75270230D01*
X132730295Y-75155440D01*
X132740709Y-75152649D01*
X133113405Y-75070025D01*
X133124025Y-75068152D01*
X133502495Y-75018326D01*
X133513226Y-75017386D01*
X133897297Y-75000617D01*
X133902706Y-75000500D01*
X133965892Y-75000500D01*
X140677869Y-75000500D01*
X140744908Y-75020185D01*
G37*
%TD.AperFunction*%
%TA.AperFunction,Conductor*%
G36*
X142909075Y-81662993D02*
G01*
X142974901Y-81777007D01*
X143067993Y-81870099D01*
X143182007Y-81935925D01*
X143245590Y-81952962D01*
X142613282Y-82585269D01*
X142613282Y-82585270D01*
X142667447Y-82624623D01*
X142668205Y-82625009D01*
X142668443Y-82625233D01*
X142671604Y-82627171D01*
X142671197Y-82627834D01*
X142719006Y-82672978D01*
X142735809Y-82740797D01*
X142713278Y-82806935D01*
X142658568Y-82850392D01*
X142611923Y-82859500D01*
X142480144Y-82859500D01*
X142480117Y-82859502D01*
X142455012Y-82862413D01*
X142455008Y-82862415D01*
X142352235Y-82907793D01*
X142272794Y-82987234D01*
X142227415Y-83090006D01*
X142227415Y-83090008D01*
X142224500Y-83115131D01*
X142224500Y-83852871D01*
X142204815Y-83919910D01*
X142152011Y-83965665D01*
X142082853Y-83975609D01*
X142019297Y-83946584D01*
X141981523Y-83887806D01*
X141978027Y-83872269D01*
X141968097Y-83809576D01*
X141957171Y-83740591D01*
X141927169Y-83648252D01*
X141901212Y-83568363D01*
X141901211Y-83568360D01*
X141860080Y-83487638D01*
X141818996Y-83407006D01*
X141762363Y-83329057D01*
X141712558Y-83260505D01*
X141712554Y-83260500D01*
X141584499Y-83132445D01*
X141584494Y-83132441D01*
X141437997Y-83026006D01*
X141437996Y-83026005D01*
X141437994Y-83026004D01*
X141386300Y-82999664D01*
X141276639Y-82943788D01*
X141276636Y-82943787D01*
X141104410Y-82887829D01*
X140944321Y-82862473D01*
X140881186Y-82832544D01*
X140844255Y-82773232D01*
X140845253Y-82703370D01*
X140883863Y-82645137D01*
X140944321Y-82617527D01*
X141014425Y-82606422D01*
X141104409Y-82592171D01*
X141276639Y-82536211D01*
X141437994Y-82453996D01*
X141584501Y-82347553D01*
X141712553Y-82219501D01*
X141818996Y-82072994D01*
X141886090Y-81941314D01*
X141934065Y-81890519D01*
X142001886Y-81873724D01*
X142068021Y-81896262D01*
X142111472Y-81950977D01*
X142114506Y-81959292D01*
X142123904Y-81988217D01*
X142220375Y-82177550D01*
X142259728Y-82231716D01*
X142892037Y-81599408D01*
X142909075Y-81662993D01*
G37*
%TD.AperFunction*%
%TA.AperFunction,Conductor*%
G36*
X142909075Y-79122993D02*
G01*
X142974901Y-79237007D01*
X143067993Y-79330099D01*
X143182007Y-79395925D01*
X143245591Y-79412962D01*
X142644971Y-80013581D01*
X142723711Y-80130895D01*
X142724920Y-80134729D01*
X142727844Y-80137491D01*
X142735343Y-80167778D01*
X142744727Y-80197529D01*
X142743671Y-80201408D01*
X142744638Y-80205312D01*
X142734573Y-80234844D01*
X142726383Y-80264947D01*
X142723397Y-80267640D01*
X142722100Y-80271447D01*
X142677051Y-80310483D01*
X142667440Y-80315380D01*
X142613282Y-80354727D01*
X142613282Y-80354728D01*
X143245591Y-80987037D01*
X143182007Y-81004075D01*
X143067993Y-81069901D01*
X142974901Y-81162993D01*
X142909075Y-81277007D01*
X142892037Y-81340591D01*
X142259728Y-80708282D01*
X142259727Y-80708282D01*
X142220380Y-80762439D01*
X142123905Y-80951781D01*
X142114506Y-80980708D01*
X142075068Y-81038383D01*
X142010709Y-81065581D01*
X141941862Y-81053666D01*
X141890387Y-81006421D01*
X141886090Y-80998684D01*
X141862191Y-80951781D01*
X141818996Y-80867006D01*
X141755420Y-80779500D01*
X141712558Y-80720505D01*
X141712554Y-80720500D01*
X141584499Y-80592445D01*
X141584494Y-80592441D01*
X141437997Y-80486006D01*
X141437996Y-80486005D01*
X141437994Y-80486004D01*
X141386300Y-80459664D01*
X141276639Y-80403788D01*
X141276636Y-80403787D01*
X141104410Y-80347829D01*
X140944321Y-80322473D01*
X140881186Y-80292544D01*
X140844255Y-80233232D01*
X140845253Y-80163370D01*
X140883863Y-80105137D01*
X140944321Y-80077527D01*
X141014425Y-80066422D01*
X141104409Y-80052171D01*
X141276639Y-79996211D01*
X141437994Y-79913996D01*
X141513081Y-79859442D01*
X141584495Y-79807558D01*
X141584497Y-79807555D01*
X141584501Y-79807553D01*
X141712553Y-79679501D01*
X141818996Y-79532994D01*
X141886090Y-79401314D01*
X141934065Y-79350519D01*
X142001886Y-79333724D01*
X142068021Y-79356262D01*
X142111472Y-79410977D01*
X142114506Y-79419292D01*
X142123904Y-79448217D01*
X142220375Y-79637550D01*
X142259728Y-79691716D01*
X142892037Y-79059408D01*
X142909075Y-79122993D01*
G37*
%TD.AperFunction*%
%TA.AperFunction,Conductor*%
G36*
X142909075Y-76582993D02*
G01*
X142974901Y-76697007D01*
X143067993Y-76790099D01*
X143182007Y-76855925D01*
X143245591Y-76872962D01*
X142644971Y-77473581D01*
X142723711Y-77590895D01*
X142724920Y-77594729D01*
X142727844Y-77597491D01*
X142735343Y-77627778D01*
X142744727Y-77657529D01*
X142743671Y-77661408D01*
X142744638Y-77665312D01*
X142734573Y-77694844D01*
X142726383Y-77724947D01*
X142723397Y-77727640D01*
X142722100Y-77731447D01*
X142677051Y-77770483D01*
X142667440Y-77775380D01*
X142613282Y-77814727D01*
X142613282Y-77814728D01*
X143245591Y-78447037D01*
X143182007Y-78464075D01*
X143067993Y-78529901D01*
X142974901Y-78622993D01*
X142909075Y-78737007D01*
X142892037Y-78800591D01*
X142259728Y-78168282D01*
X142259727Y-78168282D01*
X142220380Y-78222439D01*
X142123905Y-78411781D01*
X142114506Y-78440708D01*
X142075068Y-78498383D01*
X142010709Y-78525581D01*
X141941862Y-78513666D01*
X141890387Y-78466421D01*
X141886090Y-78458684D01*
X141862191Y-78411781D01*
X141818996Y-78327006D01*
X141805396Y-78308287D01*
X141712558Y-78180505D01*
X141712554Y-78180500D01*
X141584499Y-78052445D01*
X141584494Y-78052441D01*
X141437997Y-77946006D01*
X141437996Y-77946005D01*
X141437994Y-77946004D01*
X141368483Y-77910586D01*
X141276639Y-77863788D01*
X141276636Y-77863787D01*
X141104410Y-77807829D01*
X140944321Y-77782473D01*
X140881186Y-77752544D01*
X140844255Y-77693232D01*
X140845253Y-77623370D01*
X140883863Y-77565137D01*
X140944321Y-77537527D01*
X141014425Y-77526422D01*
X141104409Y-77512171D01*
X141276639Y-77456211D01*
X141437994Y-77373996D01*
X141513081Y-77319442D01*
X141584495Y-77267558D01*
X141584497Y-77267555D01*
X141584501Y-77267553D01*
X141712553Y-77139501D01*
X141818996Y-76992994D01*
X141886090Y-76861314D01*
X141934065Y-76810519D01*
X142001886Y-76793724D01*
X142068021Y-76816262D01*
X142111472Y-76870977D01*
X142114506Y-76879292D01*
X142123904Y-76908217D01*
X142220375Y-77097550D01*
X142259728Y-77151716D01*
X142892037Y-76519408D01*
X142909075Y-76582993D01*
G37*
%TD.AperFunction*%
%TA.AperFunction,Conductor*%
G36*
X142678961Y-75020185D02*
G01*
X142724716Y-75072989D01*
X142734660Y-75142147D01*
X142705635Y-75205703D01*
X142671385Y-75232504D01*
X142671590Y-75232838D01*
X142668682Y-75234619D01*
X142668214Y-75234986D01*
X142667441Y-75235379D01*
X142667440Y-75235380D01*
X142613282Y-75274727D01*
X142613282Y-75274728D01*
X143245591Y-75907037D01*
X143182007Y-75924075D01*
X143067993Y-75989901D01*
X142974901Y-76082993D01*
X142909075Y-76197007D01*
X142892037Y-76260591D01*
X142259728Y-75628282D01*
X142259727Y-75628282D01*
X142220380Y-75682439D01*
X142123905Y-75871781D01*
X142114506Y-75900708D01*
X142075068Y-75958383D01*
X142010709Y-75985581D01*
X141941862Y-75973666D01*
X141890387Y-75926421D01*
X141886090Y-75918684D01*
X141834545Y-75817523D01*
X141818996Y-75787006D01*
X141805339Y-75768209D01*
X141712558Y-75640505D01*
X141712554Y-75640500D01*
X141584499Y-75512445D01*
X141584494Y-75512441D01*
X141437997Y-75406006D01*
X141437996Y-75406005D01*
X141437994Y-75406004D01*
X141386300Y-75379664D01*
X141276639Y-75323788D01*
X141276636Y-75323787D01*
X141104410Y-75267829D01*
X140972733Y-75246973D01*
X140909598Y-75217044D01*
X140872667Y-75157732D01*
X140873665Y-75087869D01*
X140912275Y-75029637D01*
X140976239Y-75001523D01*
X140992131Y-75000500D01*
X142611922Y-75000500D01*
X142678961Y-75020185D01*
G37*
%TD.AperFunction*%
%TD*%
M02*
