%TF.GenerationSoftware,KiCad,Pcbnew,9.0.6*%
%TF.CreationDate,2026-02-12T01:14:46+01:00*%
%TF.ProjectId,2026_C_AV_FDR,32303236-5f43-45f4-9156-5f4644522e6b,rev?*%
%TF.SameCoordinates,Original*%
%TF.FileFunction,Paste,Bot*%
%TF.FilePolarity,Positive*%
%FSLAX46Y46*%
G04 Gerber Fmt 4.6, Leading zero omitted, Abs format (unit mm)*
G04 Created by KiCad (PCBNEW 9.0.6) date 2026-02-12 01:14:46*
%MOMM*%
%LPD*%
G01*
G04 APERTURE LIST*
G04 Aperture macros list*
%AMRoundRect*
0 Rectangle with rounded corners*
0 $1 Rounding radius*
0 $2 $3 $4 $5 $6 $7 $8 $9 X,Y pos of 4 corners*
0 Add a 4 corners polygon primitive as box body*
4,1,4,$2,$3,$4,$5,$6,$7,$8,$9,$2,$3,0*
0 Add four circle primitives for the rounded corners*
1,1,$1+$1,$2,$3*
1,1,$1+$1,$4,$5*
1,1,$1+$1,$6,$7*
1,1,$1+$1,$8,$9*
0 Add four rect primitives between the rounded corners*
20,1,$1+$1,$2,$3,$4,$5,0*
20,1,$1+$1,$4,$5,$6,$7,0*
20,1,$1+$1,$6,$7,$8,$9,0*
20,1,$1+$1,$8,$9,$2,$3,0*%
G04 Aperture macros list end*
%ADD10RoundRect,0.250000X-0.250000X-0.250000X0.250000X-0.250000X0.250000X0.250000X-0.250000X0.250000X0*%
%ADD11RoundRect,0.225000X0.225000X0.250000X-0.225000X0.250000X-0.225000X-0.250000X0.225000X-0.250000X0*%
%ADD12RoundRect,0.200000X0.275000X-0.200000X0.275000X0.200000X-0.275000X0.200000X-0.275000X-0.200000X0*%
%ADD13RoundRect,0.140000X-0.170000X0.140000X-0.170000X-0.140000X0.170000X-0.140000X0.170000X0.140000X0*%
%ADD14RoundRect,0.140000X-0.140000X-0.170000X0.140000X-0.170000X0.140000X0.170000X-0.140000X0.170000X0*%
%ADD15RoundRect,0.200000X-0.200000X-0.275000X0.200000X-0.275000X0.200000X0.275000X-0.200000X0.275000X0*%
%ADD16RoundRect,0.150000X0.587500X0.150000X-0.587500X0.150000X-0.587500X-0.150000X0.587500X-0.150000X0*%
%ADD17RoundRect,0.150000X0.825000X0.150000X-0.825000X0.150000X-0.825000X-0.150000X0.825000X-0.150000X0*%
%ADD18R,0.250000X0.600000*%
%ADD19RoundRect,0.075000X-0.650000X-0.075000X0.650000X-0.075000X0.650000X0.075000X-0.650000X0.075000X0*%
%ADD20RoundRect,0.140000X0.140000X0.170000X-0.140000X0.170000X-0.140000X-0.170000X0.140000X-0.170000X0*%
%ADD21RoundRect,0.225000X0.375000X-0.225000X0.375000X0.225000X-0.375000X0.225000X-0.375000X-0.225000X0*%
%ADD22RoundRect,0.200000X0.200000X0.275000X-0.200000X0.275000X-0.200000X-0.275000X0.200000X-0.275000X0*%
%ADD23RoundRect,0.225000X-0.225000X-0.250000X0.225000X-0.250000X0.225000X0.250000X-0.225000X0.250000X0*%
%ADD24R,0.600000X0.250000*%
%ADD25RoundRect,0.075000X0.075000X-0.700000X0.075000X0.700000X-0.075000X0.700000X-0.075000X-0.700000X0*%
%ADD26RoundRect,0.075000X0.700000X-0.075000X0.700000X0.075000X-0.700000X0.075000X-0.700000X-0.075000X0*%
%ADD27RoundRect,0.200000X-0.275000X0.200000X-0.275000X-0.200000X0.275000X-0.200000X0.275000X0.200000X0*%
%ADD28RoundRect,0.093750X-0.093750X0.156250X-0.093750X-0.156250X0.093750X-0.156250X0.093750X0.156250X0*%
%ADD29RoundRect,0.075000X-0.075000X0.250000X-0.075000X-0.250000X0.075000X-0.250000X0.075000X0.250000X0*%
G04 APERTURE END LIST*
D10*
%TO.C,D16*%
X172850000Y-97050000D03*
X175350000Y-97050000D03*
%TD*%
D11*
%TO.C,C2*%
X136975000Y-103950000D03*
X135425000Y-103950000D03*
%TD*%
D12*
%TO.C,R10*%
X142250000Y-106112500D03*
X142250000Y-104462500D03*
%TD*%
%TO.C,R13*%
X147250000Y-106125000D03*
X147250000Y-104475000D03*
%TD*%
%TO.C,R17*%
X159500000Y-113325000D03*
X159500000Y-111675000D03*
%TD*%
%TO.C,R12*%
X144750000Y-106112500D03*
X144750000Y-104462500D03*
%TD*%
D13*
%TO.C,C6*%
X130080000Y-90720000D03*
X130080000Y-91680000D03*
%TD*%
D14*
%TO.C,C8*%
X135000000Y-101800000D03*
X135960000Y-101800000D03*
%TD*%
D12*
%TO.C,R21*%
X158900000Y-84625000D03*
X158900000Y-82975000D03*
%TD*%
D13*
%TO.C,C9*%
X130080000Y-97220000D03*
X130080000Y-98180000D03*
%TD*%
D15*
%TO.C,R6*%
X165675000Y-110200000D03*
X167325000Y-110200000D03*
%TD*%
D16*
%TO.C,Q2*%
X166637500Y-106550000D03*
X166637500Y-108450000D03*
X164762500Y-107500000D03*
%TD*%
D17*
%TO.C,U3*%
X163575000Y-77570000D03*
X163575000Y-78840000D03*
X163575000Y-80110000D03*
X163575000Y-81380000D03*
X158625000Y-81380000D03*
X158625000Y-80110000D03*
X158625000Y-78840000D03*
X158625000Y-77570000D03*
%TD*%
D12*
%TO.C,R11*%
X139750000Y-106100000D03*
X139750000Y-104450000D03*
%TD*%
D14*
%TO.C,C24*%
X142320000Y-88500000D03*
X143280000Y-88500000D03*
%TD*%
D11*
%TO.C,C16*%
X160775000Y-93300000D03*
X159225000Y-93300000D03*
%TD*%
D12*
%TO.C,R8*%
X149800000Y-106112500D03*
X149800000Y-104462500D03*
%TD*%
D18*
%TO.C,D11*%
X136400000Y-86200000D03*
X136900000Y-86200000D03*
X137400000Y-86200000D03*
X137900000Y-86200000D03*
X138400000Y-86200000D03*
X138400000Y-87050000D03*
X137900000Y-87050000D03*
X137400000Y-87050000D03*
X136900000Y-87050000D03*
X136400000Y-87050000D03*
%TD*%
D19*
%TO.C,U5*%
X161000000Y-86000000D03*
X161000000Y-85500000D03*
X161000000Y-85000000D03*
X161000000Y-84500000D03*
X161000000Y-84000000D03*
X165400000Y-84000000D03*
X165400000Y-84500000D03*
X165400000Y-85000000D03*
X165400000Y-85500000D03*
X165400000Y-86000000D03*
%TD*%
D10*
%TO.C,D14*%
X172850000Y-92650000D03*
X175350000Y-92650000D03*
%TD*%
D20*
%TO.C,C7*%
X141160000Y-101800000D03*
X140200000Y-101800000D03*
%TD*%
D21*
%TO.C,D1*%
X161550000Y-109150000D03*
X161550000Y-105850000D03*
%TD*%
D22*
%TO.C,R4*%
X133575000Y-103950000D03*
X131925000Y-103950000D03*
%TD*%
D11*
%TO.C,C12*%
X157700000Y-106100000D03*
X156150000Y-106100000D03*
%TD*%
D23*
%TO.C,C5*%
X143205000Y-100900000D03*
X144755000Y-100900000D03*
%TD*%
D24*
%TO.C,D12*%
X144875000Y-93500000D03*
X144875000Y-93000000D03*
X144875000Y-92500000D03*
X144875000Y-92000000D03*
X144875000Y-91500000D03*
X145725000Y-91500000D03*
X145725000Y-92000000D03*
X145725000Y-92500000D03*
X145725000Y-93000000D03*
X145725000Y-93500000D03*
%TD*%
D14*
%TO.C,C10*%
X143500000Y-99400000D03*
X144460000Y-99400000D03*
%TD*%
D25*
%TO.C,U4*%
X141205000Y-100125000D03*
X140705000Y-100125000D03*
X140205000Y-100125000D03*
X139705000Y-100125000D03*
X139205000Y-100125000D03*
X138705000Y-100125000D03*
X138205000Y-100125000D03*
X137705000Y-100125000D03*
X137205000Y-100125000D03*
X136705000Y-100125000D03*
X136205000Y-100125000D03*
X135705000Y-100125000D03*
X135205000Y-100125000D03*
X134705000Y-100125000D03*
X134205000Y-100125000D03*
X133705000Y-100125000D03*
D26*
X131780000Y-98200000D03*
X131780000Y-97700000D03*
X131780000Y-97200000D03*
X131780000Y-96700000D03*
X131780000Y-96200000D03*
X131780000Y-95700000D03*
X131780000Y-95200000D03*
X131780000Y-94700000D03*
X131780000Y-94200000D03*
X131780000Y-93700000D03*
X131780000Y-93200000D03*
X131780000Y-92700000D03*
X131780000Y-92200000D03*
X131780000Y-91700000D03*
X131780000Y-91200000D03*
X131780000Y-90700000D03*
D25*
X133705000Y-88775000D03*
X134205000Y-88775000D03*
X134705000Y-88775000D03*
X135205000Y-88775000D03*
X135705000Y-88775000D03*
X136205000Y-88775000D03*
X136705000Y-88775000D03*
X137205000Y-88775000D03*
X137705000Y-88775000D03*
X138205000Y-88775000D03*
X138705000Y-88775000D03*
X139205000Y-88775000D03*
X139705000Y-88775000D03*
X140205000Y-88775000D03*
X140705000Y-88775000D03*
X141205000Y-88775000D03*
D26*
X143130000Y-90700000D03*
X143130000Y-91200000D03*
X143130000Y-91700000D03*
X143130000Y-92200000D03*
X143130000Y-92700000D03*
X143130000Y-93200000D03*
X143130000Y-93700000D03*
X143130000Y-94200000D03*
X143130000Y-94700000D03*
X143130000Y-95200000D03*
X143130000Y-95700000D03*
X143130000Y-96200000D03*
X143130000Y-96700000D03*
X143130000Y-97200000D03*
X143130000Y-97700000D03*
X143130000Y-98200000D03*
%TD*%
D12*
%TO.C,R14*%
X142600000Y-110950000D03*
X142600000Y-109300000D03*
%TD*%
D27*
%TO.C,R22*%
X158900000Y-86175000D03*
X158900000Y-87825000D03*
%TD*%
D15*
%TO.C,R7*%
X165675000Y-104800000D03*
X167325000Y-104800000D03*
%TD*%
D10*
%TO.C,D18*%
X172850000Y-94850000D03*
X175350000Y-94850000D03*
%TD*%
D28*
%TO.C,U8*%
X150262500Y-84350000D03*
D29*
X150800000Y-84275000D03*
D28*
X151337500Y-84350000D03*
X151337500Y-86050000D03*
D29*
X150800000Y-86125000D03*
D28*
X150262500Y-86050000D03*
%TD*%
D15*
%TO.C,R23*%
X156075000Y-107900000D03*
X157725000Y-107900000D03*
%TD*%
D22*
%TO.C,R1*%
X133575000Y-102150000D03*
X131925000Y-102150000D03*
%TD*%
D12*
%TO.C,R16*%
X148700000Y-113325000D03*
X148700000Y-111675000D03*
%TD*%
M02*
