%TF.GenerationSoftware,KiCad,Pcbnew,9.0.6*%
%TF.CreationDate,2026-02-12T01:14:46+01:00*%
%TF.ProjectId,2026_C_AV_FDR,32303236-5f43-45f4-9156-5f4644522e6b,rev?*%
%TF.SameCoordinates,Original*%
%TF.FileFunction,Paste,Top*%
%TF.FilePolarity,Positive*%
%FSLAX46Y46*%
G04 Gerber Fmt 4.6, Leading zero omitted, Abs format (unit mm)*
G04 Created by KiCad (PCBNEW 9.0.6) date 2026-02-12 01:14:46*
%MOMM*%
%LPD*%
G01*
G04 APERTURE LIST*
G04 Aperture macros list*
%AMRoundRect*
0 Rectangle with rounded corners*
0 $1 Rounding radius*
0 $2 $3 $4 $5 $6 $7 $8 $9 X,Y pos of 4 corners*
0 Add a 4 corners polygon primitive as box body*
4,1,4,$2,$3,$4,$5,$6,$7,$8,$9,$2,$3,0*
0 Add four circle primitives for the rounded corners*
1,1,$1+$1,$2,$3*
1,1,$1+$1,$4,$5*
1,1,$1+$1,$6,$7*
1,1,$1+$1,$8,$9*
0 Add four rect primitives between the rounded corners*
20,1,$1+$1,$2,$3,$4,$5,0*
20,1,$1+$1,$4,$5,$6,$7,0*
20,1,$1+$1,$6,$7,$8,$9,0*
20,1,$1+$1,$8,$9,$2,$3,0*%
G04 Aperture macros list end*
%ADD10RoundRect,0.218750X0.256250X-0.218750X0.256250X0.218750X-0.256250X0.218750X-0.256250X-0.218750X0*%
%ADD11RoundRect,0.250000X0.262500X0.450000X-0.262500X0.450000X-0.262500X-0.450000X0.262500X-0.450000X0*%
%ADD12RoundRect,0.225000X0.250000X-0.225000X0.250000X0.225000X-0.250000X0.225000X-0.250000X-0.225000X0*%
%ADD13RoundRect,0.225000X-0.225000X-0.250000X0.225000X-0.250000X0.225000X0.250000X-0.225000X0.250000X0*%
%ADD14R,1.700000X0.900000*%
%ADD15R,0.750000X0.650000*%
%ADD16RoundRect,0.062500X0.187500X0.062500X-0.187500X0.062500X-0.187500X-0.062500X0.187500X-0.062500X0*%
%ADD17RoundRect,0.225000X-0.250000X0.225000X-0.250000X-0.225000X0.250000X-0.225000X0.250000X0.225000X0*%
%ADD18RoundRect,0.200000X-0.275000X0.200000X-0.275000X-0.200000X0.275000X-0.200000X0.275000X0.200000X0*%
%ADD19RoundRect,0.200000X0.200000X0.275000X-0.200000X0.275000X-0.200000X-0.275000X0.200000X-0.275000X0*%
%ADD20R,0.300000X0.750000*%
%ADD21R,0.910000X0.550000*%
%ADD22R,1.200000X0.700000*%
%ADD23R,1.200000X1.000000*%
%ADD24R,0.800000X1.000000*%
%ADD25R,2.800000X1.000000*%
%ADD26R,1.900000X1.300000*%
%ADD27R,0.350000X0.550000*%
%ADD28RoundRect,0.067500X-0.157500X-0.157500X0.157500X-0.157500X0.157500X0.157500X-0.157500X0.157500X0*%
%ADD29R,0.300000X0.700000*%
%ADD30R,1.000000X0.700000*%
%ADD31RoundRect,0.250000X-0.550000X1.412500X-0.550000X-1.412500X0.550000X-1.412500X0.550000X1.412500X0*%
%ADD32RoundRect,0.125000X0.125000X-0.762500X0.125000X0.762500X-0.125000X0.762500X-0.125000X-0.762500X0*%
%ADD33R,1.000000X0.800000*%
%ADD34R,0.700000X1.500000*%
%ADD35RoundRect,0.050000X0.100000X-0.285000X0.100000X0.285000X-0.100000X0.285000X-0.100000X-0.285000X0*%
%ADD36RoundRect,0.200000X-0.200000X-0.275000X0.200000X-0.275000X0.200000X0.275000X-0.200000X0.275000X0*%
G04 APERTURE END LIST*
D10*
%TO.C,D3*%
X142250000Y-106075000D03*
X142250000Y-104500000D03*
%TD*%
D11*
%TO.C,R20*%
X161112500Y-84000000D03*
X159287500Y-84000000D03*
%TD*%
D10*
%TO.C,D8*%
X148700000Y-113287500D03*
X148700000Y-111712500D03*
%TD*%
%TO.C,D9*%
X159500000Y-113287500D03*
X159500000Y-111712500D03*
%TD*%
D12*
%TO.C,C21*%
X162900000Y-84025000D03*
X162900000Y-82475000D03*
%TD*%
D13*
%TO.C,C17*%
X159225000Y-101250000D03*
X160775000Y-101250000D03*
%TD*%
D10*
%TO.C,D4*%
X139750000Y-106062500D03*
X139750000Y-104487500D03*
%TD*%
D14*
%TO.C,SW1*%
X156250000Y-107850000D03*
X156250000Y-104450000D03*
%TD*%
D15*
%TO.C,U9*%
X151182504Y-88092494D03*
X151182504Y-87292494D03*
D16*
X152132504Y-88442494D03*
X152132504Y-87942494D03*
X152132504Y-87442494D03*
X152132504Y-86942494D03*
X150232504Y-86942494D03*
X150232504Y-87442494D03*
X150232504Y-87942494D03*
X150232504Y-88442494D03*
%TD*%
D17*
%TO.C,C13*%
X154425000Y-92250000D03*
X154425000Y-93800000D03*
%TD*%
D12*
%TO.C,C26*%
X148682504Y-88467494D03*
X148682504Y-86917494D03*
%TD*%
D10*
%TO.C,D5*%
X144750000Y-106075000D03*
X144750000Y-104500000D03*
%TD*%
D18*
%TO.C,R9*%
X159300000Y-80350000D03*
X159300000Y-82000000D03*
%TD*%
%TO.C,R15*%
X157300000Y-80800000D03*
X157300000Y-82450000D03*
%TD*%
D19*
%TO.C,R18*%
X147825000Y-84300000D03*
X146175000Y-84300000D03*
%TD*%
D17*
%TO.C,C23*%
X164600000Y-82475000D03*
X164600000Y-84025000D03*
%TD*%
D13*
%TO.C,C1*%
X135450000Y-103950000D03*
X137000000Y-103950000D03*
%TD*%
D20*
%TO.C,IC1*%
X152175000Y-93875000D03*
X152675000Y-93875000D03*
X152675000Y-92175000D03*
X152175000Y-92175000D03*
D21*
X152425000Y-93025000D03*
%TD*%
D12*
%TO.C,C18*%
X157500000Y-101250000D03*
X157500000Y-99700000D03*
%TD*%
D22*
%TO.C,J1*%
X146000000Y-97200000D03*
X146000000Y-96100000D03*
X146000000Y-95000000D03*
X146000000Y-93900000D03*
X146000000Y-92800000D03*
X146000000Y-91700000D03*
X146000000Y-90600000D03*
X146000000Y-89500000D03*
D23*
X146000000Y-98750000D03*
X141700000Y-87700000D03*
D24*
X135500000Y-87700000D03*
D25*
X131350000Y-87700000D03*
D26*
X130900000Y-101100000D03*
D27*
X130125000Y-100175000D03*
D22*
X146000000Y-88550000D03*
%TD*%
D12*
%TO.C,C4*%
X161100000Y-78750000D03*
X161100000Y-77200000D03*
%TD*%
D10*
%TO.C,D2*%
X149800000Y-106075000D03*
X149800000Y-104500000D03*
%TD*%
%TO.C,D6*%
X147250000Y-106087500D03*
X147250000Y-104512500D03*
%TD*%
D28*
%TO.C,U1*%
X133025000Y-104400000D03*
X133025000Y-103550000D03*
X133875000Y-103550000D03*
X133875000Y-104400000D03*
%TD*%
D12*
%TO.C,C20*%
X165700000Y-101250000D03*
X165700000Y-99700000D03*
%TD*%
D29*
%TO.C,J2*%
X153800000Y-82115000D03*
X153300000Y-82115000D03*
X152800000Y-82115000D03*
X152300000Y-82115000D03*
X151800000Y-82115000D03*
X151300000Y-82115000D03*
X150300000Y-82115000D03*
X149800000Y-82115000D03*
X149300000Y-82115000D03*
X148800000Y-82115000D03*
X148300000Y-82115000D03*
X147800000Y-82115000D03*
D30*
X147700000Y-80815000D03*
D29*
X148550000Y-80815000D03*
X149050000Y-80815000D03*
X149550000Y-80815000D03*
X150050000Y-80815000D03*
X150550000Y-80815000D03*
X151050000Y-80815000D03*
X151550000Y-80815000D03*
X152050000Y-80815000D03*
X152550000Y-80815000D03*
X153050000Y-80815000D03*
D30*
X153900000Y-80815000D03*
%TD*%
D13*
%TO.C,C22*%
X166425000Y-77250000D03*
X167975000Y-77250000D03*
%TD*%
D19*
%TO.C,R2*%
X167925000Y-82450000D03*
X166275000Y-82450000D03*
%TD*%
D18*
%TO.C,R5*%
X167900000Y-79025000D03*
X167900000Y-80675000D03*
%TD*%
D13*
%TO.C,C19*%
X162425000Y-101250000D03*
X163975000Y-101250000D03*
%TD*%
D31*
%TO.C,C29*%
X151825000Y-96687500D03*
X151825000Y-101762500D03*
%TD*%
D32*
%TO.C,U6*%
X159325000Y-98962500D03*
X159975000Y-98962500D03*
X160625000Y-98962500D03*
X161275000Y-98962500D03*
X161925000Y-98962500D03*
X162575000Y-98962500D03*
X163225000Y-98962500D03*
X163875000Y-98962500D03*
X163875000Y-92137500D03*
X163225000Y-92137500D03*
X162575000Y-92137500D03*
X161925000Y-92137500D03*
X161275000Y-92137500D03*
X160625000Y-92137500D03*
X159975000Y-92137500D03*
X159325000Y-92137500D03*
%TD*%
D13*
%TO.C,C25*%
X162925000Y-85800000D03*
X164475000Y-85800000D03*
%TD*%
D17*
%TO.C,C11*%
X161100000Y-80400000D03*
X161100000Y-81950000D03*
%TD*%
D33*
%TO.C,SW4*%
X150450000Y-111445000D03*
X150450000Y-113655000D03*
X157750000Y-111445000D03*
X157750000Y-113655000D03*
D34*
X151850000Y-110795000D03*
X154850000Y-110795000D03*
X156350000Y-110795000D03*
%TD*%
D35*
%TO.C,U2*%
X164750000Y-80590000D03*
X165250000Y-80590000D03*
X165750000Y-80590000D03*
X166250000Y-80590000D03*
X166250000Y-79110000D03*
X165750000Y-79110000D03*
X165250000Y-79110000D03*
X164750000Y-79110000D03*
%TD*%
D12*
%TO.C,C14*%
X148625000Y-93800000D03*
X148625000Y-92250000D03*
%TD*%
D33*
%TO.C,SW3*%
X139650000Y-111445000D03*
X139650000Y-113655000D03*
X146950000Y-111445000D03*
X146950000Y-113655000D03*
D34*
X141050000Y-110795000D03*
X144050000Y-110795000D03*
X145550000Y-110795000D03*
%TD*%
D12*
%TO.C,C3*%
X159300000Y-78750000D03*
X159300000Y-77200000D03*
%TD*%
D36*
%TO.C,R19*%
X153775000Y-84300000D03*
X155425000Y-84300000D03*
%TD*%
D12*
%TO.C,C15*%
X150425000Y-93800000D03*
X150425000Y-92250000D03*
%TD*%
D36*
%TO.C,R3*%
X163175000Y-77250000D03*
X164825000Y-77250000D03*
%TD*%
D10*
%TO.C,D7*%
X157300000Y-78387500D03*
X157300000Y-76812500D03*
%TD*%
M02*
