%TF.GenerationSoftware,KiCad,Pcbnew,9.0.6*%
%TF.CreationDate,2026-02-12T01:14:46+01:00*%
%TF.ProjectId,2026_C_AV_FDR,32303236-5f43-45f4-9156-5f4644522e6b,rev?*%
%TF.SameCoordinates,Original*%
%TF.FileFunction,Copper,L4,Bot*%
%TF.FilePolarity,Positive*%
%FSLAX46Y46*%
G04 Gerber Fmt 4.6, Leading zero omitted, Abs format (unit mm)*
G04 Created by KiCad (PCBNEW 9.0.6) date 2026-02-12 01:14:46*
%MOMM*%
%LPD*%
G01*
G04 APERTURE LIST*
G04 Aperture macros list*
%AMRoundRect*
0 Rectangle with rounded corners*
0 $1 Rounding radius*
0 $2 $3 $4 $5 $6 $7 $8 $9 X,Y pos of 4 corners*
0 Add a 4 corners polygon primitive as box body*
4,1,4,$2,$3,$4,$5,$6,$7,$8,$9,$2,$3,0*
0 Add four circle primitives for the rounded corners*
1,1,$1+$1,$2,$3*
1,1,$1+$1,$4,$5*
1,1,$1+$1,$6,$7*
1,1,$1+$1,$8,$9*
0 Add four rect primitives between the rounded corners*
20,1,$1+$1,$2,$3,$4,$5,0*
20,1,$1+$1,$4,$5,$6,$7,0*
20,1,$1+$1,$6,$7,$8,$9,0*
20,1,$1+$1,$8,$9,$2,$3,0*%
%AMFreePoly0*
4,1,23,0.550000,-0.750000,0.000000,-0.750000,0.000000,-0.745722,-0.065263,-0.745722,-0.191342,-0.711940,-0.304381,-0.646677,-0.396677,-0.554381,-0.461940,-0.441342,-0.495722,-0.315263,-0.495722,-0.250000,-0.500000,-0.250000,-0.500000,0.250000,-0.495722,0.250000,-0.495722,0.315263,-0.461940,0.441342,-0.396677,0.554381,-0.304381,0.646677,-0.191342,0.711940,-0.065263,0.745722,0.000000,0.745722,
0.000000,0.750000,0.550000,0.750000,0.550000,-0.750000,0.550000,-0.750000,$1*%
%AMFreePoly1*
4,1,23,0.000000,0.745722,0.065263,0.745722,0.191342,0.711940,0.304381,0.646677,0.396677,0.554381,0.461940,0.441342,0.495722,0.315263,0.495722,0.250000,0.500000,0.250000,0.500000,-0.250000,0.495722,-0.250000,0.495722,-0.315263,0.461940,-0.441342,0.396677,-0.554381,0.304381,-0.646677,0.191342,-0.711940,0.065263,-0.745722,0.000000,-0.745722,0.000000,-0.750000,-0.550000,-0.750000,
-0.550000,0.750000,0.000000,0.750000,0.000000,0.745722,0.000000,0.745722,$1*%
G04 Aperture macros list end*
%TA.AperFunction,ComponentPad*%
%ADD10C,2.000000*%
%TD*%
%TA.AperFunction,ComponentPad*%
%ADD11R,1.700000X1.700000*%
%TD*%
%TA.AperFunction,ComponentPad*%
%ADD12C,1.700000*%
%TD*%
%TA.AperFunction,ComponentPad*%
%ADD13C,4.400000*%
%TD*%
%TA.AperFunction,ComponentPad*%
%ADD14R,1.800000X1.800000*%
%TD*%
%TA.AperFunction,ComponentPad*%
%ADD15C,1.800000*%
%TD*%
%TA.AperFunction,ComponentPad*%
%ADD16C,4.000000*%
%TD*%
%TA.AperFunction,ComponentPad*%
%ADD17C,1.500000*%
%TD*%
%TA.AperFunction,ComponentPad*%
%ADD18RoundRect,0.140625X0.609375X-0.609375X0.609375X0.609375X-0.609375X0.609375X-0.609375X-0.609375X0*%
%TD*%
%TA.AperFunction,HeatsinkPad*%
%ADD19O,1.100000X2.100000*%
%TD*%
%TA.AperFunction,HeatsinkPad*%
%ADD20O,1.100000X2.600000*%
%TD*%
%TA.AperFunction,SMDPad,CuDef*%
%ADD21RoundRect,0.250000X-0.250000X-0.250000X0.250000X-0.250000X0.250000X0.250000X-0.250000X0.250000X0*%
%TD*%
%TA.AperFunction,SMDPad,CuDef*%
%ADD22RoundRect,0.225000X0.225000X0.250000X-0.225000X0.250000X-0.225000X-0.250000X0.225000X-0.250000X0*%
%TD*%
%TA.AperFunction,SMDPad,CuDef*%
%ADD23RoundRect,0.200000X0.275000X-0.200000X0.275000X0.200000X-0.275000X0.200000X-0.275000X-0.200000X0*%
%TD*%
%TA.AperFunction,SMDPad,CuDef*%
%ADD24RoundRect,0.140000X-0.170000X0.140000X-0.170000X-0.140000X0.170000X-0.140000X0.170000X0.140000X0*%
%TD*%
%TA.AperFunction,SMDPad,CuDef*%
%ADD25RoundRect,0.140000X-0.140000X-0.170000X0.140000X-0.170000X0.140000X0.170000X-0.140000X0.170000X0*%
%TD*%
%TA.AperFunction,SMDPad,CuDef*%
%ADD26RoundRect,0.200000X-0.200000X-0.275000X0.200000X-0.275000X0.200000X0.275000X-0.200000X0.275000X0*%
%TD*%
%TA.AperFunction,SMDPad,CuDef*%
%ADD27RoundRect,0.150000X0.587500X0.150000X-0.587500X0.150000X-0.587500X-0.150000X0.587500X-0.150000X0*%
%TD*%
%TA.AperFunction,SMDPad,CuDef*%
%ADD28RoundRect,0.150000X0.825000X0.150000X-0.825000X0.150000X-0.825000X-0.150000X0.825000X-0.150000X0*%
%TD*%
%TA.AperFunction,SMDPad,CuDef*%
%ADD29R,0.250000X0.600000*%
%TD*%
%TA.AperFunction,SMDPad,CuDef*%
%ADD30RoundRect,0.075000X-0.650000X-0.075000X0.650000X-0.075000X0.650000X0.075000X-0.650000X0.075000X0*%
%TD*%
%TA.AperFunction,SMDPad,CuDef*%
%ADD31FreePoly0,0.000000*%
%TD*%
%TA.AperFunction,SMDPad,CuDef*%
%ADD32R,1.000000X1.500000*%
%TD*%
%TA.AperFunction,SMDPad,CuDef*%
%ADD33FreePoly1,0.000000*%
%TD*%
%TA.AperFunction,SMDPad,CuDef*%
%ADD34RoundRect,0.140000X0.140000X0.170000X-0.140000X0.170000X-0.140000X-0.170000X0.140000X-0.170000X0*%
%TD*%
%TA.AperFunction,SMDPad,CuDef*%
%ADD35RoundRect,0.225000X0.375000X-0.225000X0.375000X0.225000X-0.375000X0.225000X-0.375000X-0.225000X0*%
%TD*%
%TA.AperFunction,SMDPad,CuDef*%
%ADD36RoundRect,0.200000X0.200000X0.275000X-0.200000X0.275000X-0.200000X-0.275000X0.200000X-0.275000X0*%
%TD*%
%TA.AperFunction,SMDPad,CuDef*%
%ADD37RoundRect,0.225000X-0.225000X-0.250000X0.225000X-0.250000X0.225000X0.250000X-0.225000X0.250000X0*%
%TD*%
%TA.AperFunction,SMDPad,CuDef*%
%ADD38R,0.600000X0.250000*%
%TD*%
%TA.AperFunction,SMDPad,CuDef*%
%ADD39RoundRect,0.075000X0.075000X-0.700000X0.075000X0.700000X-0.075000X0.700000X-0.075000X-0.700000X0*%
%TD*%
%TA.AperFunction,SMDPad,CuDef*%
%ADD40RoundRect,0.075000X0.700000X-0.075000X0.700000X0.075000X-0.700000X0.075000X-0.700000X-0.075000X0*%
%TD*%
%TA.AperFunction,SMDPad,CuDef*%
%ADD41RoundRect,0.200000X-0.275000X0.200000X-0.275000X-0.200000X0.275000X-0.200000X0.275000X0.200000X0*%
%TD*%
%TA.AperFunction,SMDPad,CuDef*%
%ADD42RoundRect,0.093750X-0.093750X0.156250X-0.093750X-0.156250X0.093750X-0.156250X0.093750X0.156250X0*%
%TD*%
%TA.AperFunction,SMDPad,CuDef*%
%ADD43RoundRect,0.075000X-0.075000X0.250000X-0.075000X-0.250000X0.075000X-0.250000X0.075000X0.250000X0*%
%TD*%
%TA.AperFunction,ViaPad*%
%ADD44C,0.600000*%
%TD*%
%TA.AperFunction,Conductor*%
%ADD45C,0.300000*%
%TD*%
%TA.AperFunction,Conductor*%
%ADD46C,0.200000*%
%TD*%
G04 APERTURE END LIST*
D10*
%TO.P,TP4,1,1*%
%TO.N,+3V3*%
X177150000Y-84100000D03*
%TD*%
%TO.P,TP3,1,1*%
%TO.N,+5V*%
X173500000Y-84100000D03*
%TD*%
%TO.P,TP8,1,1*%
%TO.N,/Project Architecture/RX*%
X156800000Y-86650000D03*
%TD*%
D11*
%TO.P,J4,1,Pin_1*%
%TO.N,+3V3*%
X143375000Y-84010000D03*
D12*
%TO.P,J4,2,Pin_2*%
%TO.N,/Project Architecture/SYS_JTMS-SWDIO*%
X140835000Y-84010000D03*
%TO.P,J4,3,Pin_3*%
%TO.N,GND*%
X143375000Y-81470000D03*
%TO.P,J4,4,Pin_4*%
%TO.N,/Project Architecture/SYS_JTCK-SWCLK*%
X140835000Y-81470000D03*
%TO.P,J4,5,Pin_5*%
%TO.N,GND*%
X143375000Y-78930000D03*
%TO.P,J4,6,Pin_6*%
%TO.N,/Project Architecture/SYS_JTD0-SWO*%
X140835000Y-78930000D03*
%TO.P,J4,7,Pin_7*%
%TO.N,GND*%
X143375000Y-76390000D03*
%TO.P,J4,8,Pin_8*%
%TO.N,/Project Architecture/NRST*%
X140835000Y-76390000D03*
%TD*%
D10*
%TO.P,TP6,1,1*%
%TO.N,/Project Architecture/RS232_TX*%
X161150000Y-89000000D03*
%TD*%
D13*
%TO.P,H3,1,1*%
%TO.N,GND*%
X173900000Y-109500000D03*
%TD*%
D14*
%TO.P,J3,1,1*%
%TO.N,+5V_SPINE*%
X170800000Y-92800000D03*
D15*
%TO.P,J3,2,2*%
%TO.N,/Project Architecture/RS232_TX*%
X168850000Y-93425000D03*
%TO.P,J3,3,3*%
%TO.N,/Project Architecture/RS232_RX*%
X170800000Y-96200000D03*
%TO.P,J3,4,4*%
%TO.N,GND*%
X168850000Y-95575000D03*
D16*
%TO.P,J3,SH1,SHIELD*%
X170300000Y-100750000D03*
%TO.P,J3,SH2,SHIELD*%
X170300000Y-88250000D03*
%TD*%
D17*
%TO.P,BZ1,1,+*%
%TO.N,/Project Architecture/VDD_BUZ*%
X163900000Y-110000000D03*
D18*
%TO.P,BZ1,2,-*%
%TO.N,/Project Architecture/BUZZ-*%
X163900000Y-105000000D03*
%TD*%
D19*
%TO.P,J2,S1,SHIELD*%
%TO.N,GND*%
X155120000Y-81705000D03*
D20*
X155120000Y-76345000D03*
D19*
X146480000Y-81705000D03*
D20*
X146480000Y-76345000D03*
%TD*%
D13*
%TO.P,H1,1,1*%
%TO.N,GND*%
X133900000Y-109500000D03*
%TD*%
%TO.P,H4,1,1*%
%TO.N,GND*%
X173900000Y-79500000D03*
%TD*%
%TO.P,H2,1,1*%
%TO.N,GND*%
X133900000Y-79500000D03*
%TD*%
D10*
%TO.P,TP5,1,1*%
%TO.N,/Project Architecture/RS232_RX*%
X164900000Y-89000000D03*
%TD*%
%TO.P,TP7,1,1*%
%TO.N,/Project Architecture/TX*%
X156800000Y-89800000D03*
%TD*%
%TO.P,TP2,1,1*%
%TO.N,+5V_SPINE*%
X169800000Y-84100000D03*
%TD*%
D21*
%TO.P,D16,1,K*%
%TO.N,/Project Architecture/RS232_RX*%
X172850000Y-97050000D03*
%TO.P,D16,2,A*%
%TO.N,GND*%
X175350000Y-97050000D03*
%TD*%
D22*
%TO.P,C2,1*%
%TO.N,GND*%
X136975000Y-103950000D03*
%TO.P,C2,2*%
%TO.N,/Project Architecture/LEDDATA1*%
X135425000Y-103950000D03*
%TD*%
D23*
%TO.P,R10,1*%
%TO.N,/Project Architecture/Buff_K*%
X142250000Y-106112500D03*
%TO.P,R10,2*%
%TO.N,GND*%
X142250000Y-104462500D03*
%TD*%
%TO.P,R13,1*%
%TO.N,/Project Architecture/TX_K*%
X147250000Y-106125000D03*
%TO.P,R13,2*%
%TO.N,GND*%
X147250000Y-104475000D03*
%TD*%
%TO.P,R17,1*%
%TO.N,/Project Architecture/Debug_sw_K*%
X159500000Y-113325000D03*
%TO.P,R17,2*%
%TO.N,GND*%
X159500000Y-111675000D03*
%TD*%
%TO.P,R12,1*%
%TO.N,/Project Architecture/RX_K*%
X144750000Y-106112500D03*
%TO.P,R12,2*%
%TO.N,GND*%
X144750000Y-104462500D03*
%TD*%
D24*
%TO.P,C6,1*%
%TO.N,+3V3*%
X130080000Y-90720000D03*
%TO.P,C6,2*%
%TO.N,GND*%
X130080000Y-91680000D03*
%TD*%
D25*
%TO.P,C8,1*%
%TO.N,+3V3*%
X135000000Y-101800000D03*
%TO.P,C8,2*%
%TO.N,GND*%
X135960000Y-101800000D03*
%TD*%
D23*
%TO.P,R21,1*%
%TO.N,/Project Architecture/SCL*%
X158900000Y-84625000D03*
%TO.P,R21,2*%
%TO.N,+3V3*%
X158900000Y-82975000D03*
%TD*%
D24*
%TO.P,C9,1*%
%TO.N,+3V3*%
X130080000Y-97220000D03*
%TO.P,C9,2*%
%TO.N,GND*%
X130080000Y-98180000D03*
%TD*%
D26*
%TO.P,R6,1*%
%TO.N,/Project Architecture/BUZZER*%
X165675000Y-110200000D03*
%TO.P,R6,2*%
%TO.N,/Project Architecture/BUZZ_CTRL*%
X167325000Y-110200000D03*
%TD*%
D27*
%TO.P,Q2,1,G*%
%TO.N,/Project Architecture/BUZZ_CTRL*%
X166637500Y-106550000D03*
%TO.P,Q2,2,S*%
%TO.N,GND*%
X166637500Y-108450000D03*
%TO.P,Q2,3,D*%
%TO.N,/Project Architecture/BUZZ-*%
X164762500Y-107500000D03*
%TD*%
D28*
%TO.P,U3,1,Vin*%
%TO.N,+5V*%
X163575000Y-77570000D03*
%TO.P,U3,2,Vin*%
X163575000Y-78840000D03*
%TO.P,U3,3,~{SHDN}*%
X163575000Y-80110000D03*
%TO.P,U3,4,GND*%
%TO.N,GND*%
X163575000Y-81380000D03*
%TO.P,U3,5,PWRGD*%
%TO.N,/Project Architecture/PWRGD*%
X158625000Y-81380000D03*
%TO.P,U3,6,Cdelay*%
%TO.N,/Project Architecture/Delay*%
X158625000Y-80110000D03*
%TO.P,U3,7,Sense*%
%TO.N,/Project Architecture/3V3_INA*%
X158625000Y-78840000D03*
%TO.P,U3,8,Vout*%
X158625000Y-77570000D03*
%TD*%
D23*
%TO.P,R11,1*%
%TO.N,/Project Architecture/EN_SD_K*%
X139750000Y-106100000D03*
%TO.P,R11,2*%
%TO.N,GND*%
X139750000Y-104450000D03*
%TD*%
D25*
%TO.P,C24,1*%
%TO.N,+3V3*%
X142320000Y-88500000D03*
%TO.P,C24,2*%
%TO.N,GND*%
X143280000Y-88500000D03*
%TD*%
D22*
%TO.P,C16,1*%
%TO.N,GND*%
X160775000Y-93300000D03*
%TO.P,C16,2*%
%TO.N,+3V3*%
X159225000Y-93300000D03*
%TD*%
D23*
%TO.P,R8,1*%
%TO.N,/Project Architecture/ON_K*%
X149800000Y-106112500D03*
%TO.P,R8,2*%
%TO.N,GND*%
X149800000Y-104462500D03*
%TD*%
D29*
%TO.P,D11,1*%
%TO.N,/Project Architecture/DAT0*%
X136400000Y-86200000D03*
%TO.P,D11,2*%
%TO.N,/Project Architecture/DAT1*%
X136900000Y-86200000D03*
%TO.P,D11,3*%
%TO.N,GND*%
X137400000Y-86200000D03*
%TO.P,D11,4*%
%TO.N,unconnected-(D11-Pad4)*%
X137900000Y-86200000D03*
%TO.P,D11,5*%
%TO.N,unconnected-(D11-Pad5)_1*%
X138400000Y-86200000D03*
%TO.P,D11,6*%
%TO.N,unconnected-(D11-Pad5)*%
X138400000Y-87050000D03*
%TO.P,D11,7*%
%TO.N,unconnected-(D11-Pad4)_1*%
X137900000Y-87050000D03*
%TO.P,D11,8*%
%TO.N,GND*%
X137400000Y-87050000D03*
%TO.P,D11,9*%
%TO.N,/Project Architecture/DAT1*%
X136900000Y-87050000D03*
%TO.P,D11,10*%
%TO.N,/Project Architecture/DAT0*%
X136400000Y-87050000D03*
%TD*%
D30*
%TO.P,U5,1,A1*%
%TO.N,GND*%
X161000000Y-86000000D03*
%TO.P,U5,2,A0*%
X161000000Y-85500000D03*
%TO.P,U5,3,~{Alert}*%
%TO.N,unconnected-(U5-~{Alert}-Pad3)*%
X161000000Y-85000000D03*
%TO.P,U5,4,SDA*%
%TO.N,/Project Architecture/SDA*%
X161000000Y-84500000D03*
%TO.P,U5,5,SCL*%
%TO.N,/Project Architecture/SCL*%
X161000000Y-84000000D03*
%TO.P,U5,6,VS*%
%TO.N,+3V3*%
X165400000Y-84000000D03*
%TO.P,U5,7,GND*%
%TO.N,GND*%
X165400000Y-84500000D03*
%TO.P,U5,8,Vbus*%
%TO.N,/Project Architecture/3V3_INA*%
X165400000Y-85000000D03*
%TO.P,U5,9,Vin-*%
%TO.N,+3V3*%
X165400000Y-85500000D03*
%TO.P,U5,10,Vin+*%
%TO.N,/Project Architecture/3V3_INA*%
X165400000Y-86000000D03*
%TD*%
D21*
%TO.P,D14,1,K*%
%TO.N,+5V_SPINE*%
X172850000Y-92650000D03*
%TO.P,D14,2,A*%
%TO.N,GND*%
X175350000Y-92650000D03*
%TD*%
D31*
%TO.P,JP1,1,A*%
%TO.N,+3V3*%
X162600000Y-112350000D03*
D32*
%TO.P,JP1,2,C*%
%TO.N,/Project Architecture/VDD_BUZ*%
X163900000Y-112350000D03*
D33*
%TO.P,JP1,3,B*%
%TO.N,+5V*%
X165200000Y-112350000D03*
%TD*%
D34*
%TO.P,C7,1*%
%TO.N,+3V3*%
X141160000Y-101800000D03*
%TO.P,C7,2*%
%TO.N,GND*%
X140200000Y-101800000D03*
%TD*%
D35*
%TO.P,D1,1,K*%
%TO.N,/Project Architecture/VDD_BUZ*%
X161550000Y-109150000D03*
%TO.P,D1,2,A*%
%TO.N,/Project Architecture/BUZZ-*%
X161550000Y-105850000D03*
%TD*%
D36*
%TO.P,R4,1*%
%TO.N,/Project Architecture/LEDDATA1*%
X133575000Y-103950000D03*
%TO.P,R4,2*%
%TO.N,GND*%
X131925000Y-103950000D03*
%TD*%
D22*
%TO.P,C12,1*%
%TO.N,/Project Architecture/NRST*%
X157700000Y-106100000D03*
%TO.P,C12,2*%
%TO.N,GND*%
X156150000Y-106100000D03*
%TD*%
D37*
%TO.P,C5,1*%
%TO.N,+3V3*%
X143205000Y-100900000D03*
%TO.P,C5,2*%
%TO.N,GND*%
X144755000Y-100900000D03*
%TD*%
D38*
%TO.P,D12,1*%
%TO.N,/Project Architecture/CMD*%
X144875000Y-93500000D03*
%TO.P,D12,2*%
%TO.N,/Project Architecture/CLK*%
X144875000Y-93000000D03*
%TO.P,D12,3*%
%TO.N,GND*%
X144875000Y-92500000D03*
%TO.P,D12,4*%
%TO.N,/Project Architecture/DAT3*%
X144875000Y-92000000D03*
%TO.P,D12,5*%
%TO.N,/Project Architecture/DAT2*%
X144875000Y-91500000D03*
%TO.P,D12,6*%
X145725000Y-91500000D03*
%TO.P,D12,7*%
%TO.N,/Project Architecture/DAT3*%
X145725000Y-92000000D03*
%TO.P,D12,8*%
%TO.N,GND*%
X145725000Y-92500000D03*
%TO.P,D12,9*%
%TO.N,/Project Architecture/CLK*%
X145725000Y-93000000D03*
%TO.P,D12,10*%
%TO.N,/Project Architecture/CMD*%
X145725000Y-93500000D03*
%TD*%
D25*
%TO.P,C10,1*%
%TO.N,+3V3*%
X143500000Y-99400000D03*
%TO.P,C10,2*%
%TO.N,GND*%
X144460000Y-99400000D03*
%TD*%
D39*
%TO.P,U4,1,VBAT*%
%TO.N,+3V3*%
X141205000Y-100125000D03*
%TO.P,U4,2,PC13*%
%TO.N,unconnected-(U4-PC13-Pad2)*%
X140705000Y-100125000D03*
%TO.P,U4,3,PC14*%
%TO.N,unconnected-(U4-PC14-Pad3)*%
X140205000Y-100125000D03*
%TO.P,U4,4,PC15*%
%TO.N,unconnected-(U4-PC15-Pad4)*%
X139705000Y-100125000D03*
%TO.P,U4,5,PH0*%
%TO.N,unconnected-(U4-PH0-Pad5)*%
X139205000Y-100125000D03*
%TO.P,U4,6,PH1*%
%TO.N,unconnected-(U4-PH1-Pad6)*%
X138705000Y-100125000D03*
%TO.P,U4,7,NRST*%
%TO.N,/Project Architecture/NRST*%
X138205000Y-100125000D03*
%TO.P,U4,8,PC0*%
%TO.N,unconnected-(U4-PC0-Pad8)*%
X137705000Y-100125000D03*
%TO.P,U4,9,PC1*%
%TO.N,unconnected-(U4-PC1-Pad9)*%
X137205000Y-100125000D03*
%TO.P,U4,10,PC2*%
%TO.N,/Project Architecture/Debug_sw*%
X136705000Y-100125000D03*
%TO.P,U4,11,PC3*%
%TO.N,unconnected-(U4-PC3-Pad11)*%
X136205000Y-100125000D03*
%TO.P,U4,12,VSSA*%
%TO.N,GND*%
X135705000Y-100125000D03*
%TO.P,U4,13,VDDA*%
%TO.N,+3V3*%
X135205000Y-100125000D03*
%TO.P,U4,14,PA0*%
%TO.N,unconnected-(U4-PA0-Pad14)*%
X134705000Y-100125000D03*
%TO.P,U4,15,PA1*%
%TO.N,unconnected-(U4-PA1-Pad15)*%
X134205000Y-100125000D03*
%TO.P,U4,16,PA2*%
%TO.N,/Project Architecture/LEDCTRL*%
X133705000Y-100125000D03*
D40*
%TO.P,U4,17,PA3*%
%TO.N,unconnected-(U4-PA3-Pad17)*%
X131780000Y-98200000D03*
%TO.P,U4,18,VSS*%
%TO.N,GND*%
X131780000Y-97700000D03*
%TO.P,U4,19,VDD*%
%TO.N,+3V3*%
X131780000Y-97200000D03*
%TO.P,U4,20,PA4*%
%TO.N,unconnected-(U4-PA4-Pad20)*%
X131780000Y-96700000D03*
%TO.P,U4,21,PA5*%
%TO.N,unconnected-(U4-PA5-Pad21)*%
X131780000Y-96200000D03*
%TO.P,U4,22,PA6*%
%TO.N,/Project Architecture/EN_SD*%
X131780000Y-95700000D03*
%TO.P,U4,23,PA7*%
%TO.N,/Project Architecture/Buff_full*%
X131780000Y-95200000D03*
%TO.P,U4,24,PC4*%
%TO.N,/Project Architecture/RX_LED*%
X131780000Y-94700000D03*
%TO.P,U4,25,PC5*%
%TO.N,/Project Architecture/TX_LED*%
X131780000Y-94200000D03*
%TO.P,U4,26,PB0*%
%TO.N,/Project Architecture/ON_LED*%
X131780000Y-93700000D03*
%TO.P,U4,27,PB1*%
%TO.N,unconnected-(U4-PB1-Pad27)*%
X131780000Y-93200000D03*
%TO.P,U4,28,PB2*%
%TO.N,unconnected-(U4-PB2-Pad28)*%
X131780000Y-92700000D03*
%TO.P,U4,29,PB10*%
%TO.N,unconnected-(U4-PB10-Pad29)*%
X131780000Y-92200000D03*
%TO.P,U4,30,PB11*%
%TO.N,unconnected-(U4-PB11-Pad30)*%
X131780000Y-91700000D03*
%TO.P,U4,31,VSS*%
%TO.N,GND*%
X131780000Y-91200000D03*
%TO.P,U4,32,VDD*%
%TO.N,+3V3*%
X131780000Y-90700000D03*
D39*
%TO.P,U4,33,PB12*%
%TO.N,/Project Architecture/BUZZER*%
X133705000Y-88775000D03*
%TO.P,U4,34,PB13*%
%TO.N,unconnected-(U4-PB13-Pad34)*%
X134205000Y-88775000D03*
%TO.P,U4,35,PB14*%
%TO.N,unconnected-(U4-PB14-Pad35)*%
X134705000Y-88775000D03*
%TO.P,U4,36,PB15*%
%TO.N,unconnected-(U4-PB15-Pad36)*%
X135205000Y-88775000D03*
%TO.P,U4,37,PC6*%
%TO.N,/Project Architecture/RS232_ready*%
X135705000Y-88775000D03*
%TO.P,U4,38,PC7*%
%TO.N,/Project Architecture/RS232_invalid*%
X136205000Y-88775000D03*
%TO.P,U4,39,PC8*%
%TO.N,/Project Architecture/DAT0*%
X136705000Y-88775000D03*
%TO.P,U4,40,PC9*%
%TO.N,/Project Architecture/DAT1*%
X137205000Y-88775000D03*
%TO.P,U4,41,PA8*%
%TO.N,unconnected-(U4-PA8-Pad41)*%
X137705000Y-88775000D03*
%TO.P,U4,42,PA9*%
%TO.N,/Project Architecture/TX*%
X138205000Y-88775000D03*
%TO.P,U4,43,PA10*%
%TO.N,/Project Architecture/RX*%
X138705000Y-88775000D03*
%TO.P,U4,44,PA11*%
%TO.N,/Project Architecture/USB_D-*%
X139205000Y-88775000D03*
%TO.P,U4,45,PA12*%
%TO.N,/Project Architecture/USB_D+*%
X139705000Y-88775000D03*
%TO.P,U4,46,PA13*%
%TO.N,/Project Architecture/SYS_JTMS-SWDIO*%
X140205000Y-88775000D03*
%TO.P,U4,47,VSS*%
%TO.N,GND*%
X140705000Y-88775000D03*
%TO.P,U4,48,VDDUSB*%
%TO.N,+3V3*%
X141205000Y-88775000D03*
D40*
%TO.P,U4,49,PA14*%
%TO.N,/Project Architecture/SYS_JTCK-SWCLK*%
X143130000Y-90700000D03*
%TO.P,U4,50,PA15*%
%TO.N,unconnected-(U4-PA15-Pad50)*%
X143130000Y-91200000D03*
%TO.P,U4,51,PC10*%
%TO.N,/Project Architecture/DAT2*%
X143130000Y-91700000D03*
%TO.P,U4,52,PC11*%
%TO.N,/Project Architecture/DAT3*%
X143130000Y-92200000D03*
%TO.P,U4,53,PC12*%
%TO.N,/Project Architecture/CLK*%
X143130000Y-92700000D03*
%TO.P,U4,54,PD2*%
%TO.N,/Project Architecture/CMD*%
X143130000Y-93200000D03*
%TO.P,U4,55,PB3*%
%TO.N,/Project Architecture/SYS_JTD0-SWO*%
X143130000Y-93700000D03*
%TO.P,U4,56,PB4*%
%TO.N,unconnected-(U4-PB4-Pad56)*%
X143130000Y-94200000D03*
%TO.P,U4,57,PB5*%
%TO.N,unconnected-(U4-PB5-Pad57)*%
X143130000Y-94700000D03*
%TO.P,U4,58,PB6*%
%TO.N,/Project Architecture/SCL*%
X143130000Y-95200000D03*
%TO.P,U4,59,PB7*%
%TO.N,/Project Architecture/SDA*%
X143130000Y-95700000D03*
%TO.P,U4,60,BOOT0*%
%TO.N,/Project Architecture/BOOT0*%
X143130000Y-96200000D03*
%TO.P,U4,61,PB8*%
%TO.N,unconnected-(U4-PB8-Pad61)*%
X143130000Y-96700000D03*
%TO.P,U4,62,PB9*%
%TO.N,unconnected-(U4-PB9-Pad62)*%
X143130000Y-97200000D03*
%TO.P,U4,63,VSS*%
%TO.N,GND*%
X143130000Y-97700000D03*
%TO.P,U4,64,VDD*%
%TO.N,+3V3*%
X143130000Y-98200000D03*
%TD*%
D23*
%TO.P,R14,1*%
%TO.N,/Project Architecture/SW_BOOT0*%
X142600000Y-110950000D03*
%TO.P,R14,2*%
%TO.N,/Project Architecture/BOOT0*%
X142600000Y-109300000D03*
%TD*%
D41*
%TO.P,R22,1*%
%TO.N,/Project Architecture/SDA*%
X158900000Y-86175000D03*
%TO.P,R22,2*%
%TO.N,+3V3*%
X158900000Y-87825000D03*
%TD*%
D26*
%TO.P,R7,1*%
%TO.N,/Project Architecture/BUZZ_CTRL*%
X165675000Y-104800000D03*
%TO.P,R7,2*%
%TO.N,GND*%
X167325000Y-104800000D03*
%TD*%
D21*
%TO.P,D18,1,K*%
%TO.N,/Project Architecture/RS232_TX*%
X172850000Y-94850000D03*
%TO.P,D18,2,A*%
%TO.N,GND*%
X175350000Y-94850000D03*
%TD*%
D42*
%TO.P,U8,1,I/O1*%
%TO.N,/Project Architecture/USBC_D-*%
X150262500Y-84350000D03*
D43*
%TO.P,U8,2,GND*%
%TO.N,GND*%
X150800000Y-84275000D03*
D42*
%TO.P,U8,3,I/O2*%
%TO.N,/Project Architecture/USBC_D+*%
X151337500Y-84350000D03*
%TO.P,U8,4,I/O2*%
%TO.N,/Project Architecture/USB_D+*%
X151337500Y-86050000D03*
D43*
%TO.P,U8,5,VBUS*%
%TO.N,+5V_USB*%
X150800000Y-86125000D03*
D42*
%TO.P,U8,6,I/O1*%
%TO.N,/Project Architecture/USB_D-*%
X150262500Y-86050000D03*
%TD*%
D26*
%TO.P,R23,1*%
%TO.N,+3V3*%
X156075000Y-107900000D03*
%TO.P,R23,2*%
%TO.N,/Project Architecture/NRST*%
X157725000Y-107900000D03*
%TD*%
D36*
%TO.P,R1,1*%
%TO.N,/Project Architecture/LEDCTRL*%
X133575000Y-102150000D03*
%TO.P,R1,2*%
%TO.N,/Project Architecture/LEDDATA1*%
X131925000Y-102150000D03*
%TD*%
D23*
%TO.P,R16,1*%
%TO.N,/Project Architecture/SW_BOOT0_K*%
X148700000Y-113325000D03*
%TO.P,R16,2*%
%TO.N,GND*%
X148700000Y-111675000D03*
%TD*%
D44*
%TO.N,+3V3*%
X167235817Y-83968163D03*
X141600000Y-98600000D03*
X158500000Y-88700000D03*
X148400000Y-89250000D03*
X158800000Y-92500000D03*
X153500000Y-93050000D03*
X152700000Y-110600000D03*
X141692185Y-89342185D03*
X134524265Y-98475735D03*
X133100000Y-90400000D03*
X133095431Y-96895431D03*
X146400000Y-110450000D03*
X162600000Y-112350000D03*
X157850000Y-84000000D03*
X161800000Y-86800000D03*
X163550000Y-87350000D03*
%TO.N,GND*%
X140725000Y-104302438D03*
X147100000Y-98750000D03*
X174750000Y-93850000D03*
X155900000Y-83500000D03*
X166650000Y-107700000D03*
X161900000Y-81350000D03*
X149550000Y-91400000D03*
X147083560Y-92322832D03*
X133100000Y-91500000D03*
X148300000Y-104300000D03*
X160503686Y-90895422D03*
X160450000Y-86650000D03*
X130900000Y-101100000D03*
X151182504Y-87692494D03*
X137450000Y-105100000D03*
X150775000Y-104314143D03*
X149607631Y-84705474D03*
X150050000Y-110500000D03*
X145350000Y-84300000D03*
X141872758Y-97419272D03*
X164984644Y-81400355D03*
X140700000Y-90150000D03*
X160200000Y-76650000D03*
X135409620Y-98490380D03*
X155200000Y-106100000D03*
X135500000Y-102900000D03*
X146650000Y-87750000D03*
X140200000Y-102600000D03*
X153500000Y-94500000D03*
X156500000Y-101250000D03*
X140350000Y-110550000D03*
X143250000Y-104300000D03*
X166650000Y-84850000D03*
X168200000Y-104800000D03*
X151825000Y-101762500D03*
X157200000Y-110450000D03*
X166650000Y-101400000D03*
X131150000Y-103100000D03*
X168800000Y-78250000D03*
X145800000Y-104300000D03*
X133100000Y-98000000D03*
X137529868Y-85464210D03*
X160600000Y-111650000D03*
X131350000Y-87700000D03*
X134850000Y-86950000D03*
%TO.N,+5V*%
X162000000Y-82700000D03*
X164063548Y-76848483D03*
X133850000Y-84800000D03*
X162100000Y-78800000D03*
X163900000Y-79450000D03*
%TO.N,/Project Architecture/Delay*%
X160350000Y-79750000D03*
%TO.N,/Project Architecture/ON_K*%
X150800000Y-106300000D03*
%TO.N,/Project Architecture/ON_LED*%
X137600000Y-96700000D03*
%TO.N,/Project Architecture/Buff_full*%
X134759293Y-96690707D03*
%TO.N,/Project Architecture/Buff_K*%
X143300000Y-106300000D03*
%TO.N,/Project Architecture/EN_SD*%
X133866328Y-96681602D03*
X144600000Y-90850000D03*
X147300000Y-90200000D03*
%TO.N,/Project Architecture/EN_SD_K*%
X140750000Y-106300000D03*
%TO.N,/Project Architecture/RX_LED*%
X135750000Y-96700000D03*
%TO.N,/Project Architecture/RX_K*%
X145850000Y-106300000D03*
%TO.N,/Project Architecture/TX_LED*%
X136712938Y-96687062D03*
%TO.N,/Project Architecture/SW_BOOT0*%
X143250000Y-111900000D03*
%TO.N,/Project Architecture/SW_BOOT0_K*%
X150050000Y-112754998D03*
%TO.N,/Project Architecture/Debug_sw*%
X136725735Y-102374265D03*
%TO.N,/Project Architecture/Debug_sw_K*%
X160600000Y-113300000D03*
%TO.N,/Project Architecture/CLK*%
X147050000Y-93150000D03*
%TO.N,/Project Architecture/CMD*%
X147008961Y-94545941D03*
%TO.N,/Project Architecture/DAT1*%
X141300000Y-86051000D03*
%TO.N,/Project Architecture/DAT0*%
X140400000Y-85450000D03*
%TO.N,/Project Architecture/DAT2*%
X148599986Y-94750000D03*
%TO.N,/Project Architecture/DAT3*%
X147799983Y-94750000D03*
%TO.N,/Project Architecture/RS232_TX*%
X161900000Y-90650000D03*
%TO.N,/Project Architecture/RX*%
X144225734Y-87775737D03*
%TO.N,/Project Architecture/Power_mux_st*%
X158100000Y-76400000D03*
X162750000Y-76000000D03*
%TO.N,/Project Architecture/BUZZER*%
X141300000Y-96000000D03*
X146800000Y-99850000D03*
%TO.N,/Project Architecture/PWRGD*%
X158625000Y-81380000D03*
%TO.N,/Project Architecture/NRST*%
X138200000Y-95250000D03*
X138200000Y-97700000D03*
X158800000Y-106100000D03*
%TO.N,/Project Architecture/SYS_JTD0-SWO*%
X140400000Y-92550000D03*
%TO.N,/Project Architecture/SYS_JTCK-SWCLK*%
X141050000Y-91950000D03*
%TO.N,/Project Architecture/RS232_invalid*%
X144899998Y-96100000D03*
X162400000Y-95000000D03*
X141197017Y-94191051D03*
%TO.N,/Project Architecture/RS232_ready*%
X158600000Y-99650000D03*
X141450000Y-94950000D03*
X144844412Y-96956830D03*
%TO.N,/Project Architecture/CC2*%
X149750000Y-79051472D03*
X148900000Y-83800000D03*
%TO.N,/Project Architecture/SCL*%
X153400000Y-86500000D03*
%TO.N,/Project Architecture/SDA*%
X153024265Y-89874265D03*
%TO.N,/Project Architecture/USBC_D+*%
X151250000Y-79100000D03*
X151150000Y-83150000D03*
%TO.N,/Project Architecture/USBC_D-*%
X150349997Y-83150000D03*
X151200000Y-80000000D03*
%TO.N,/Project Architecture/TX_K*%
X148350000Y-106300000D03*
%TO.N,/Project Architecture/3V3_INA*%
X160064601Y-77941935D03*
X162276352Y-84961122D03*
%TO.N,/Project Architecture/SYS_JTMS-SWDIO*%
X139901000Y-90299000D03*
%TO.N,/Project Architecture/TX*%
X145050000Y-87800000D03*
%TO.N,+5V_USB*%
X152600000Y-83250000D03*
%TO.N,/Project Architecture/LEDDATA1*%
X134550000Y-102750000D03*
%TD*%
D45*
%TO.N,/Project Architecture/BUZZ-*%
X164762500Y-107500000D02*
X164762500Y-105862500D01*
X164762500Y-105862500D02*
X163900000Y-105000000D01*
X163900000Y-105000000D02*
X163900000Y-105150000D01*
X162400000Y-105000000D02*
X161649958Y-105750042D01*
X163900000Y-105000000D02*
X162400000Y-105000000D01*
%TO.N,+3V3*%
X156075000Y-107900000D02*
X155400000Y-107900000D01*
X143500000Y-100605000D02*
X143205000Y-100900000D01*
X130100000Y-90700000D02*
X130080000Y-90720000D01*
X134524265Y-98475735D02*
X134524265Y-98524265D01*
X158900000Y-87825000D02*
X158900000Y-88300000D01*
X167235817Y-83968163D02*
X167203980Y-84000000D01*
X141600000Y-98600000D02*
X141205000Y-98995000D01*
D46*
X166158824Y-85500000D02*
X165400000Y-85500000D01*
X166500000Y-86200000D02*
X166500000Y-85841176D01*
D45*
X141600000Y-98600000D02*
X142000000Y-98200000D01*
D46*
X166500000Y-85841176D02*
X166158824Y-85500000D01*
D45*
X135205000Y-100125000D02*
X135205000Y-101595000D01*
X135205000Y-101595000D02*
X135000000Y-101800000D01*
X142045000Y-88775000D02*
X142320000Y-88500000D01*
X141205000Y-101755000D02*
X141160000Y-101800000D01*
X130100000Y-97200000D02*
X130080000Y-97220000D01*
X133095431Y-96895431D02*
X132790862Y-97200000D01*
X155400000Y-107900000D02*
X152700000Y-110600000D01*
X141205000Y-88855000D02*
X141205000Y-88775000D01*
X141205000Y-88775000D02*
X142045000Y-88775000D01*
X143130000Y-98200000D02*
X143130000Y-99030000D01*
X132800000Y-90700000D02*
X131780000Y-90700000D01*
X158900000Y-88300000D02*
X158500000Y-88700000D01*
X134524265Y-98524265D02*
X135205000Y-99205000D01*
X131780000Y-90700000D02*
X130100000Y-90700000D01*
X158900000Y-82975000D02*
X158875000Y-82975000D01*
X143130000Y-99030000D02*
X143500000Y-99400000D01*
X135205000Y-99205000D02*
X135205000Y-100125000D01*
X158800000Y-92875000D02*
X159225000Y-93300000D01*
X141160000Y-101800000D02*
X142305000Y-101800000D01*
D46*
X165900000Y-86800000D02*
X166500000Y-86200000D01*
D45*
X167203980Y-84000000D02*
X165400000Y-84000000D01*
X143500000Y-99400000D02*
X143500000Y-100605000D01*
X141205000Y-100125000D02*
X141205000Y-101755000D01*
X158875000Y-82975000D02*
X157850000Y-84000000D01*
X132790862Y-97200000D02*
X131780000Y-97200000D01*
X158800000Y-92500000D02*
X158800000Y-92875000D01*
X131780000Y-97200000D02*
X130100000Y-97200000D01*
X141205000Y-98995000D02*
X141205000Y-100125000D01*
X141692185Y-89342185D02*
X141205000Y-88855000D01*
D46*
X161800000Y-86800000D02*
X165900000Y-86800000D01*
D45*
X142000000Y-98200000D02*
X143130000Y-98200000D01*
X142305000Y-101800000D02*
X143205000Y-100900000D01*
X133100000Y-90400000D02*
X132800000Y-90700000D01*
%TO.N,GND*%
X150800000Y-84746464D02*
X150800000Y-84275000D01*
X166300000Y-84500000D02*
X165400000Y-84500000D01*
X140705000Y-87895466D02*
X140705000Y-88775000D01*
X133100000Y-98000000D02*
X133100000Y-97953855D01*
X131925000Y-103950000D02*
X131925000Y-103875000D01*
X130608260Y-97700000D02*
X130128260Y-98180000D01*
D46*
X142250000Y-104462500D02*
X143087500Y-104462500D01*
D45*
X143130000Y-97700000D02*
X144100000Y-97700000D01*
D46*
X149800000Y-104462500D02*
X150626643Y-104462500D01*
D45*
X150396464Y-85150000D02*
X150800000Y-84746464D01*
X159500000Y-111675000D02*
X160575000Y-111675000D01*
D46*
X140577438Y-104450000D02*
X140725000Y-104302438D01*
X144750000Y-104462500D02*
X145637500Y-104462500D01*
X148125000Y-104475000D02*
X148300000Y-104300000D01*
D45*
X167325000Y-104800000D02*
X168200000Y-104800000D01*
X166650000Y-84850000D02*
X166300000Y-84500000D01*
X160775000Y-91166736D02*
X160503686Y-90895422D01*
X143130000Y-97700000D02*
X142153486Y-97700000D01*
X150044998Y-110500000D02*
X148869998Y-111675000D01*
X175350000Y-94850000D02*
X175350000Y-94450000D01*
D46*
X150626643Y-104462500D02*
X150775000Y-104314143D01*
D45*
X130608260Y-91200000D02*
X130128260Y-91680000D01*
X135705000Y-101545000D02*
X135960000Y-101800000D01*
X135705000Y-100125000D02*
X135705000Y-101545000D01*
X142153486Y-97700000D02*
X141872758Y-97419272D01*
X135705000Y-98785760D02*
X135409620Y-98490380D01*
X149607631Y-84705474D02*
X150052157Y-85150000D01*
X160950000Y-86000000D02*
X161000000Y-86000000D01*
D46*
X144875000Y-92500000D02*
X145725000Y-92500000D01*
X139750000Y-104450000D02*
X140577438Y-104450000D01*
X143087500Y-104462500D02*
X143250000Y-104300000D01*
D45*
X131780000Y-91200000D02*
X132800000Y-91200000D01*
X131780000Y-91200000D02*
X130608260Y-91200000D01*
X131780000Y-97700000D02*
X130608260Y-97700000D01*
X161000000Y-85500000D02*
X161000000Y-86000000D01*
X163575000Y-81380000D02*
X164964289Y-81380000D01*
D46*
X146906392Y-92500000D02*
X147083560Y-92322832D01*
D45*
X140705000Y-88775000D02*
X140705000Y-90145000D01*
X136975000Y-104625000D02*
X137450000Y-105100000D01*
X135705000Y-100125000D02*
X135705000Y-99011326D01*
X148869998Y-111675000D02*
X148700000Y-111675000D01*
D46*
X145725000Y-92500000D02*
X146906392Y-92500000D01*
D45*
X166637500Y-108450000D02*
X166637500Y-107712500D01*
X143280000Y-88190001D02*
X142738999Y-87649000D01*
D46*
X137400000Y-87050000D02*
X137400000Y-86200000D01*
D45*
X140705000Y-90145000D02*
X140700000Y-90150000D01*
D46*
X147250000Y-104475000D02*
X148125000Y-104475000D01*
D45*
X160575000Y-111675000D02*
X160600000Y-111650000D01*
X142738999Y-87649000D02*
X140951466Y-87649000D01*
X132800000Y-91200000D02*
X133100000Y-91500000D01*
X144460000Y-98060000D02*
X144100000Y-97700000D01*
D46*
X137400000Y-85594078D02*
X137529868Y-85464210D01*
D45*
X164964289Y-81380000D02*
X164984644Y-81400355D01*
X166637500Y-107712500D02*
X166650000Y-107700000D01*
X140200000Y-101800000D02*
X140200000Y-102600000D01*
X156150000Y-106100000D02*
X155200000Y-106100000D01*
D46*
X137400000Y-86200000D02*
X137400000Y-85594078D01*
D45*
X130128260Y-98180000D02*
X130080000Y-98180000D01*
X133100000Y-97953855D02*
X132846145Y-97700000D01*
X136975000Y-103950000D02*
X136975000Y-104625000D01*
X140951466Y-87649000D02*
X140705000Y-87895466D01*
X130128260Y-91680000D02*
X130080000Y-91680000D01*
X135705000Y-99011326D02*
X135705000Y-98785760D01*
X160775000Y-93300000D02*
X160775000Y-91166736D01*
X160450000Y-86650000D02*
X160450000Y-86500000D01*
X144460000Y-99400000D02*
X144460000Y-100605000D01*
D46*
X145637500Y-104462500D02*
X145800000Y-104300000D01*
D45*
X143280000Y-88500000D02*
X143280000Y-88190001D01*
X144460000Y-99400000D02*
X144460000Y-98060000D01*
X132846145Y-97700000D02*
X131780000Y-97700000D01*
X150050000Y-110500000D02*
X150044998Y-110500000D01*
X144460000Y-100605000D02*
X144755000Y-100900000D01*
X175350000Y-94450000D02*
X174750000Y-93850000D01*
X175350000Y-92650000D02*
X175350000Y-94850000D01*
X175350000Y-97050000D02*
X175350000Y-94850000D01*
X131925000Y-103875000D02*
X131150000Y-103100000D01*
X160450000Y-86500000D02*
X160950000Y-86000000D01*
X150052157Y-85150000D02*
X150396464Y-85150000D01*
%TO.N,+5V*%
X146549528Y-78400472D02*
X144819000Y-80131000D01*
X153600472Y-78400472D02*
X146549528Y-78400472D01*
X163550000Y-79800000D02*
X163550000Y-80085000D01*
X163575000Y-77570000D02*
X163575000Y-77337031D01*
X163575000Y-77337031D02*
X164063548Y-76848483D01*
X166434774Y-112350000D02*
X176350000Y-102434774D01*
X163550000Y-78865000D02*
X163575000Y-78840000D01*
X162000000Y-82700000D02*
X161400000Y-82100000D01*
X165200000Y-112350000D02*
X166434774Y-112350000D01*
X163900000Y-79450000D02*
X163550000Y-79100000D01*
X176350000Y-86950000D02*
X173500000Y-84100000D01*
X133850000Y-84800000D02*
X138519000Y-80131000D01*
X162140000Y-78840000D02*
X162100000Y-78800000D01*
X157300000Y-82100000D02*
X153600472Y-78400472D01*
X163575000Y-78840000D02*
X162140000Y-78840000D01*
X176350000Y-102434774D02*
X176350000Y-86950000D01*
X161400000Y-82100000D02*
X157300000Y-82100000D01*
X163900000Y-79450000D02*
X163550000Y-79800000D01*
X144819000Y-80131000D02*
X138519000Y-80131000D01*
X163550000Y-79100000D02*
X163550000Y-78865000D01*
X163575000Y-78840000D02*
X163575000Y-77570000D01*
X163550000Y-80085000D02*
X163575000Y-80110000D01*
%TO.N,+5V_SPINE*%
X170950000Y-92650000D02*
X170800000Y-92800000D01*
X172850000Y-92650000D02*
X170950000Y-92650000D01*
%TO.N,/Project Architecture/Delay*%
X160350000Y-79750000D02*
X158985000Y-79750000D01*
X158985000Y-79750000D02*
X158625000Y-80110000D01*
D46*
%TO.N,/Project Architecture/ON_K*%
X150612500Y-106112500D02*
X150800000Y-106300000D01*
X149800000Y-106112500D02*
X150612500Y-106112500D01*
%TO.N,/Project Architecture/ON_LED*%
X137600000Y-96700000D02*
X134600000Y-93700000D01*
X134600000Y-93700000D02*
X131780000Y-93700000D01*
%TO.N,/Project Architecture/Buff_full*%
X133268588Y-95200000D02*
X131780000Y-95200000D01*
X134759293Y-96690707D02*
X134759293Y-96690705D01*
X134759293Y-96690705D02*
X133268588Y-95200000D01*
%TO.N,/Project Architecture/Buff_K*%
X142250000Y-106112500D02*
X143112500Y-106112500D01*
X143112500Y-106112500D02*
X143300000Y-106300000D01*
%TO.N,/Project Architecture/EN_SD*%
X132918644Y-95700000D02*
X131780000Y-95700000D01*
X144600000Y-90850000D02*
X145250000Y-90200000D01*
X133866328Y-96681602D02*
X133866328Y-96647684D01*
X133866328Y-96647684D02*
X132918644Y-95700000D01*
X145250000Y-90200000D02*
X147300000Y-90200000D01*
%TO.N,/Project Architecture/EN_SD_K*%
X140550000Y-106100000D02*
X140750000Y-106300000D01*
X139750000Y-106100000D02*
X140550000Y-106100000D01*
%TO.N,/Project Architecture/RX_LED*%
X135617116Y-96700000D02*
X133617116Y-94700000D01*
X133617116Y-94700000D02*
X131780000Y-94700000D01*
X135750000Y-96700000D02*
X135617116Y-96700000D01*
%TO.N,/Project Architecture/RX_K*%
X144750000Y-106112500D02*
X145662500Y-106112500D01*
X145662500Y-106112500D02*
X145850000Y-106300000D01*
%TO.N,/Project Architecture/TX_LED*%
X134300000Y-94200000D02*
X131780000Y-94200000D01*
X136571035Y-96545159D02*
X136571035Y-96471035D01*
X136571035Y-96471035D02*
X134300000Y-94200000D01*
X136712938Y-96687062D02*
X136571035Y-96545159D01*
%TO.N,/Project Architecture/SW_BOOT0*%
X142600000Y-110950000D02*
X142600000Y-111250000D01*
X142600000Y-111250000D02*
X143250000Y-111900000D01*
%TO.N,/Project Architecture/SW_BOOT0_K*%
X149195469Y-112829531D02*
X148700000Y-113325000D01*
X150050000Y-112754998D02*
X149975467Y-112829531D01*
X149975467Y-112829531D02*
X149195469Y-112829531D01*
%TO.N,/Project Architecture/Debug_sw*%
X136705000Y-102345000D02*
X136705000Y-100125000D01*
X136725735Y-102365735D02*
X136705000Y-102345000D01*
X136725735Y-102374265D02*
X136725735Y-102365735D01*
%TO.N,/Project Architecture/Debug_sw_K*%
X160600000Y-113300000D02*
X159525000Y-113300000D01*
X159525000Y-113300000D02*
X159500000Y-113325000D01*
%TO.N,/Project Architecture/USB_D+*%
X150636500Y-86751000D02*
X151032824Y-86751000D01*
X151251000Y-86532824D02*
X151251000Y-86136500D01*
X140393198Y-87175000D02*
X150212500Y-87175000D01*
X139705000Y-88775000D02*
X139705000Y-88150000D01*
X139680000Y-88125000D02*
X139680000Y-87888198D01*
X151251000Y-86136500D02*
X151337500Y-86050000D01*
X139680000Y-87888198D02*
X140393198Y-87175000D01*
X151032824Y-86751000D02*
X151251000Y-86532824D01*
X139705000Y-88150000D02*
X139680000Y-88125000D01*
X150212500Y-87175000D02*
X150636500Y-86751000D01*
%TO.N,/Project Architecture/USB_D-*%
X150262500Y-86488603D02*
X150262500Y-86050000D01*
X140206802Y-86725000D02*
X150026103Y-86725000D01*
X139230000Y-87701802D02*
X140206802Y-86725000D01*
X139230000Y-88125000D02*
X139230000Y-87701802D01*
X150026103Y-86725000D02*
X150262500Y-86488603D01*
X139205000Y-88150000D02*
X139230000Y-88125000D01*
X139205000Y-88775000D02*
X139205000Y-88150000D01*
%TO.N,/Project Architecture/CLK*%
X144875000Y-93000000D02*
X144305924Y-93000000D01*
X144305924Y-93000000D02*
X144005924Y-92700000D01*
X144005924Y-92700000D02*
X143130000Y-92700000D01*
X147050000Y-93150000D02*
X146900000Y-93000000D01*
X144875000Y-93000000D02*
X145725000Y-93000000D01*
X146900000Y-93000000D02*
X145725000Y-93000000D01*
%TO.N,/Project Architecture/CMD*%
X147008961Y-94545941D02*
X147008961Y-94217234D01*
X143938824Y-93200000D02*
X143130000Y-93200000D01*
X147008961Y-94217234D02*
X146291727Y-93500000D01*
X144875000Y-93500000D02*
X145725000Y-93500000D01*
X146291727Y-93500000D02*
X145725000Y-93500000D01*
X144238824Y-93500000D02*
X143938824Y-93200000D01*
X144875000Y-93500000D02*
X144238824Y-93500000D01*
%TO.N,/Project Architecture/DAT1*%
X137267100Y-84800000D02*
X136900000Y-85167100D01*
X137205000Y-88775000D02*
X137205000Y-87882000D01*
X136900000Y-85167100D02*
X136900000Y-86200000D01*
X136900000Y-86200000D02*
X136900000Y-87050000D01*
X139850000Y-86050000D02*
X138600000Y-84800000D01*
X138600000Y-84800000D02*
X137267100Y-84800000D01*
X136900000Y-87577000D02*
X136900000Y-87050000D01*
X141151057Y-86051000D02*
X141150057Y-86050000D01*
X141300000Y-86051000D02*
X141151057Y-86051000D01*
X137205000Y-87882000D02*
X136900000Y-87577000D01*
X141150057Y-86050000D02*
X139850000Y-86050000D01*
%TO.N,/Project Architecture/DAT0*%
X136705000Y-87949100D02*
X136400000Y-87644100D01*
X136400000Y-87644100D02*
X136400000Y-87050000D01*
X139817100Y-85450000D02*
X138717100Y-84350000D01*
X136400000Y-85100000D02*
X136400000Y-86200000D01*
X138717100Y-84350000D02*
X137150000Y-84350000D01*
X137150000Y-84350000D02*
X136400000Y-85100000D01*
X140400000Y-85450000D02*
X139817100Y-85450000D01*
X136705000Y-88775000D02*
X136705000Y-87949100D01*
X136400000Y-86200000D02*
X136400000Y-87050000D01*
%TO.N,/Project Architecture/DAT2*%
X144875000Y-91500000D02*
X144138824Y-91500000D01*
X144875000Y-91500000D02*
X145725000Y-91500000D01*
X147498603Y-91320832D02*
X148599986Y-92422215D01*
X145725000Y-91500000D02*
X145904168Y-91320832D01*
X145904168Y-91320832D02*
X147498603Y-91320832D01*
X148599986Y-92422215D02*
X148599986Y-94750000D01*
X143938824Y-91700000D02*
X143130000Y-91700000D01*
X144138824Y-91500000D02*
X143938824Y-91700000D01*
%TO.N,/Project Architecture/DAT3*%
X144205924Y-92000000D02*
X144005924Y-92200000D01*
X146350000Y-92000000D02*
X146628168Y-91721832D01*
X147860950Y-94546185D02*
X147799983Y-94607152D01*
X144875000Y-92000000D02*
X144205924Y-92000000D01*
X144005924Y-92200000D02*
X143130000Y-92200000D01*
X147799983Y-94607152D02*
X147799983Y-94750000D01*
X147332503Y-91721832D02*
X147860950Y-92250279D01*
X147860950Y-92250279D02*
X147860950Y-94546185D01*
X144875000Y-92000000D02*
X145725000Y-92000000D01*
X146628168Y-91721832D02*
X147332503Y-91721832D01*
X145725000Y-92000000D02*
X146350000Y-92000000D01*
%TO.N,/Project Architecture/RS232_RX*%
X172850000Y-97050000D02*
X171650000Y-97050000D01*
X171650000Y-97050000D02*
X170800000Y-96200000D01*
%TO.N,/Project Architecture/RS232_TX*%
X172850000Y-94850000D02*
X170275000Y-94850000D01*
X162800000Y-90650000D02*
X165575000Y-93425000D01*
X165575000Y-93425000D02*
X168850000Y-93425000D01*
X170275000Y-94850000D02*
X168850000Y-93425000D01*
X162800000Y-90650000D02*
X161900000Y-90650000D01*
%TO.N,/Project Architecture/RX*%
X142451473Y-89650000D02*
X142232900Y-89650000D01*
X139166100Y-90899000D02*
X138705000Y-90437900D01*
X140983900Y-90899000D02*
X139166100Y-90899000D01*
X138705000Y-90437900D02*
X138705000Y-88775000D01*
X144225734Y-87775737D02*
X144225734Y-89274266D01*
X142232900Y-89650000D02*
X140983900Y-90899000D01*
X142452473Y-89649000D02*
X142451473Y-89650000D01*
X144225734Y-89274266D02*
X143851000Y-89649000D01*
X143851000Y-89649000D02*
X142452473Y-89649000D01*
%TO.N,/Project Architecture/BUZZ_CTRL*%
X166637500Y-106550000D02*
X165675000Y-105587500D01*
X165675000Y-105587500D02*
X165675000Y-104800000D01*
X166637500Y-106550000D02*
X167676000Y-107588500D01*
X167676000Y-109849000D02*
X167325000Y-110200000D01*
X167676000Y-107588500D02*
X167676000Y-109849000D01*
%TO.N,/Project Architecture/Power_mux_st*%
X158100000Y-76400000D02*
X158500000Y-76000000D01*
X158500000Y-76000000D02*
X162750000Y-76000000D01*
%TO.N,/Project Architecture/BUZZER*%
X165675000Y-110200000D02*
X165675000Y-109725000D01*
X163262106Y-108000000D02*
X161750000Y-108000000D01*
X154300000Y-100550000D02*
X147500000Y-100550000D01*
X133705000Y-89583824D02*
X133705000Y-88775000D01*
X164450000Y-108500000D02*
X163762106Y-108500000D01*
X163762106Y-108500000D02*
X163262106Y-108000000D01*
X141300000Y-96000000D02*
X140121176Y-96000000D01*
X165675000Y-109725000D02*
X164450000Y-108500000D01*
X161750000Y-108000000D02*
X154300000Y-100550000D01*
X147500000Y-100550000D02*
X146800000Y-99850000D01*
X140121176Y-96000000D02*
X133705000Y-89583824D01*
%TO.N,/Project Architecture/BOOT0*%
X144244412Y-96505588D02*
X143938824Y-96200000D01*
X143900000Y-103400000D02*
X145700000Y-101600000D01*
X145700000Y-98662190D02*
X144244412Y-97206602D01*
X143900000Y-108000000D02*
X143900000Y-103400000D01*
X143938824Y-96200000D02*
X143130000Y-96200000D01*
X145700000Y-101600000D02*
X145700000Y-98662190D01*
X144244412Y-97206602D02*
X144244412Y-96505588D01*
X142600000Y-109300000D02*
X143900000Y-108000000D01*
%TO.N,/Project Architecture/NRST*%
X158800000Y-106100000D02*
X157700000Y-106100000D01*
X157725000Y-107900000D02*
X157725000Y-106125000D01*
X138205000Y-98805000D02*
X138205000Y-100125000D01*
X138200000Y-98800000D02*
X138205000Y-98805000D01*
X138200000Y-95250000D02*
X138200000Y-98800000D01*
X157725000Y-106125000D02*
X157700000Y-106100000D01*
%TO.N,/Project Architecture/SYS_JTD0-SWO*%
X140400000Y-92550000D02*
X141550000Y-93700000D01*
X141550000Y-93700000D02*
X143130000Y-93700000D01*
%TO.N,/Project Architecture/SYS_JTCK-SWCLK*%
X142551000Y-90749000D02*
X142600000Y-90700000D01*
X141200000Y-91821176D02*
X142272176Y-90749000D01*
X141178824Y-91821176D02*
X141200000Y-91821176D01*
X141050000Y-91950000D02*
X141178824Y-91821176D01*
X142272176Y-90749000D02*
X142551000Y-90749000D01*
X142600000Y-90700000D02*
X143130000Y-90700000D01*
%TO.N,/Project Architecture/RS232_invalid*%
X136205000Y-90005000D02*
X136205000Y-88775000D01*
X159400000Y-96400000D02*
X145700000Y-96400000D01*
X161000000Y-96400000D02*
X159400000Y-96400000D01*
X162400000Y-95000000D02*
X161000000Y-96400000D01*
X140391051Y-94191051D02*
X136205000Y-90005000D01*
X145700000Y-96400000D02*
X145199998Y-96400000D01*
X141197017Y-94191051D02*
X140391051Y-94191051D01*
X145199998Y-96400000D02*
X144899998Y-96100000D01*
%TO.N,/Project Architecture/RS232_ready*%
X140150000Y-94950000D02*
X135705000Y-90505000D01*
X144844412Y-96956830D02*
X144851242Y-96950000D01*
X158600000Y-99650000D02*
X155900000Y-96950000D01*
X144851242Y-96950000D02*
X155900000Y-96950000D01*
X141450000Y-94950000D02*
X140150000Y-94950000D01*
X135705000Y-90505000D02*
X135705000Y-88775000D01*
%TO.N,/Project Architecture/CC2*%
X149750000Y-79051472D02*
X149750000Y-79140291D01*
X148900000Y-79990291D02*
X148900000Y-83800000D01*
X149750000Y-79140291D02*
X148900000Y-79990291D01*
%TO.N,/Project Architecture/SCL*%
X143179000Y-95151000D02*
X143987824Y-95151000D01*
X159525000Y-84000000D02*
X158900000Y-84625000D01*
X148850000Y-95450000D02*
X152400000Y-91900000D01*
X161000000Y-84000000D02*
X159525000Y-84000000D01*
X146000000Y-95000000D02*
X146450000Y-95450000D01*
X153400000Y-86500000D02*
X155275000Y-84625000D01*
X153400000Y-88650000D02*
X153400000Y-86500000D01*
X152400000Y-89650000D02*
X153400000Y-88650000D01*
X144138824Y-95000000D02*
X146000000Y-95000000D01*
X146450000Y-95450000D02*
X148850000Y-95450000D01*
X152400000Y-91900000D02*
X152400000Y-89650000D01*
X155275000Y-84625000D02*
X158900000Y-84625000D01*
X143987824Y-95151000D02*
X144138824Y-95000000D01*
X143130000Y-95200000D02*
X143179000Y-95151000D01*
%TO.N,/Project Architecture/SDA*%
X155624000Y-85026000D02*
X153987500Y-86662500D01*
X161000000Y-84500000D02*
X160214064Y-84500000D01*
X158900000Y-86175000D02*
X158825000Y-86175000D01*
X152900000Y-92175000D02*
X149075000Y-96000000D01*
X160214064Y-84500000D02*
X158900000Y-85814064D01*
X144550000Y-95400000D02*
X144250000Y-95700000D01*
X152900000Y-89998530D02*
X152900000Y-92175000D01*
X157676000Y-85026000D02*
X155624000Y-85026000D01*
X144250000Y-95700000D02*
X143130000Y-95700000D01*
X153987500Y-88911030D02*
X153024265Y-89874265D01*
X146400000Y-96000000D02*
X145800000Y-95400000D01*
X145800000Y-95400000D02*
X144550000Y-95400000D01*
X153024265Y-89874265D02*
X152900000Y-89998530D01*
X158900000Y-85814064D02*
X158900000Y-86175000D01*
X153987500Y-86662500D02*
X153987500Y-88911030D01*
X149075000Y-96000000D02*
X146400000Y-96000000D01*
X158825000Y-86175000D02*
X157676000Y-85026000D01*
%TO.N,/Project Architecture/USBC_D+*%
X151850000Y-79700000D02*
X151250000Y-79100000D01*
X151337500Y-84350000D02*
X151337500Y-83337500D01*
X151150000Y-83150000D02*
X151300000Y-83150000D01*
X151337500Y-83337500D02*
X151150000Y-83150000D01*
X151850000Y-82600000D02*
X151850000Y-79700000D01*
X151350000Y-84337500D02*
X151337500Y-84350000D01*
X151300000Y-83150000D02*
X151850000Y-82600000D01*
%TO.N,/Project Architecture/USBC_D-*%
X150300000Y-83150000D02*
X149800000Y-82650000D01*
X150250000Y-79400000D02*
X150600000Y-79400000D01*
X150600000Y-79400000D02*
X151200000Y-80000000D01*
X150300000Y-83150000D02*
X150262500Y-83187500D01*
X149800000Y-79850000D02*
X150250000Y-79400000D01*
X150262500Y-83187500D02*
X150262500Y-84350000D01*
X150349997Y-83150000D02*
X150300000Y-83150000D01*
X149800000Y-82650000D02*
X149800000Y-79850000D01*
%TO.N,/Project Architecture/TX_K*%
X147250000Y-106112500D02*
X148162500Y-106112500D01*
X148162500Y-106112500D02*
X148350000Y-106300000D01*
%TO.N,/Project Architecture/3V3_INA*%
X164500000Y-86000000D02*
X163500000Y-85000000D01*
X165400000Y-85000000D02*
X163500000Y-85000000D01*
D45*
X159692666Y-77570000D02*
X160064601Y-77941935D01*
D46*
X165400000Y-86000000D02*
X164500000Y-86000000D01*
X163500000Y-85000000D02*
X162315230Y-85000000D01*
D45*
X158625000Y-77570000D02*
X159692666Y-77570000D01*
X158625000Y-78840000D02*
X158625000Y-77570000D01*
D46*
X162315230Y-85000000D02*
X162276352Y-84961122D01*
%TO.N,/Project Architecture/SYS_JTMS-SWDIO*%
X140250000Y-88820000D02*
X140205000Y-88775000D01*
X140250000Y-89650000D02*
X139901000Y-89999000D01*
X140250000Y-89650000D02*
X140250000Y-88820000D01*
X139901000Y-89999000D02*
X139901000Y-90299000D01*
%TO.N,/Project Architecture/TX*%
X145050000Y-89200000D02*
X144200000Y-90050000D01*
X142618573Y-90050000D02*
X142617573Y-90051000D01*
X142399000Y-90051000D02*
X141150000Y-91300000D01*
X139000000Y-91300000D02*
X138205000Y-90505000D01*
X144200000Y-90050000D02*
X142618573Y-90050000D01*
X145050000Y-87800000D02*
X145050000Y-89200000D01*
X141150000Y-91300000D02*
X139000000Y-91300000D01*
X138205000Y-90505000D02*
X138205000Y-88775000D01*
X142617573Y-90051000D02*
X142399000Y-90051000D01*
D45*
%TO.N,+5V_USB*%
X152600000Y-84600000D02*
X152050000Y-85150000D01*
X151250000Y-85150000D02*
X150800000Y-85600000D01*
X152050000Y-85150000D02*
X151250000Y-85150000D01*
X152600000Y-83250000D02*
X152600000Y-84600000D01*
X150800000Y-85600000D02*
X150800000Y-86125000D01*
D46*
%TO.N,/Project Architecture/LEDDATA1*%
X134583981Y-103150000D02*
X135383981Y-103950000D01*
X135425000Y-103950000D02*
X133575000Y-103950000D01*
X131925000Y-102300000D02*
X133575000Y-103950000D01*
X135383981Y-103950000D02*
X135425000Y-103950000D01*
X131925000Y-102150000D02*
X131925000Y-102300000D01*
X134550000Y-102750000D02*
X134530955Y-102769045D01*
X134583981Y-102783981D02*
X134583981Y-103150000D01*
X134550000Y-102750000D02*
X134583981Y-102783981D01*
%TO.N,/Project Architecture/LEDCTRL*%
X133705000Y-100125000D02*
X133705000Y-102020000D01*
X133705000Y-102020000D02*
X133575000Y-102150000D01*
D45*
%TO.N,/Project Architecture/VDD_BUZ*%
X163900000Y-110000000D02*
X163900000Y-109850000D01*
X163900000Y-110000000D02*
X162400000Y-110000000D01*
X163900000Y-112350000D02*
X163900000Y-110000000D01*
X162400000Y-110000000D02*
X161550000Y-109150000D01*
%TD*%
M02*
