M48
; DRILL file {KiCad 9.0.6} date 2026-02-12T01:14:43+0100
; FORMAT={-:-/ absolute / metric / decimal}
; #@! TF.CreationDate,2026-02-12T01:14:43+01:00
; #@! TF.GenerationSoftware,Kicad,Pcbnew,9.0.6
; #@! TF.FileFunction,MixedPlating,1,4
FMAT,2
METRIC
; #@! TA.AperFunction,Plated,PTH,ViaDrill
T1C0.300
; #@! TA.AperFunction,Plated,PTH,ComponentDrill
T2C0.600
; #@! TA.AperFunction,Plated,PTH,ComponentDrill
T3C1.000
; #@! TA.AperFunction,Plated,PTH,ComponentDrill
T4C1.300
; #@! TA.AperFunction,Plated,PTH,ComponentDrill
T5C2.200
; #@! TA.AperFunction,Plated,PTH,ComponentDrill
T6C3.000
; #@! TA.AperFunction,NonPlated,NPTH,ComponentDrill
T7C0.900
%
G90
G05
T1
X130.9Y-101.1
X131.15Y-103.1
X131.35Y-87.7
X133.095Y-96.895
X133.1Y-90.4
X133.1Y-91.5
X133.1Y-98.0
X133.85Y-84.8
X133.866Y-96.682
X134.524Y-98.476
X134.55Y-102.75
X134.759Y-96.691
X134.85Y-86.95
X135.41Y-98.49
X135.5Y-102.9
X135.75Y-96.7
X136.713Y-96.687
X136.726Y-102.374
X137.45Y-105.1
X137.53Y-85.464
X137.6Y-96.7
X138.2Y-95.25
X138.2Y-97.7
X139.901Y-90.299
X140.2Y-102.6
X140.35Y-110.55
X140.4Y-85.45
X140.4Y-92.55
X140.7Y-90.15
X140.725Y-104.302
X140.75Y-106.3
X141.05Y-91.95
X141.197Y-94.191
X141.3Y-86.051
X141.3Y-96.0
X141.45Y-94.95
X141.6Y-98.6
X141.692Y-89.342
X141.873Y-97.419
X143.25Y-104.3
X143.25Y-111.9
X143.3Y-106.3
X144.226Y-87.776
X144.6Y-90.85
X144.844Y-96.957
X144.9Y-96.1
X145.05Y-87.8
X145.35Y-84.3
X145.8Y-104.3
X145.85Y-106.3
X146.4Y-110.45
X146.65Y-87.75
X146.8Y-99.85
X147.009Y-94.546
X147.05Y-93.15
X147.084Y-92.323
X147.1Y-98.75
X147.3Y-90.2
X147.8Y-94.75
X148.3Y-104.3
X148.35Y-106.3
X148.4Y-89.25
X148.6Y-94.75
X148.9Y-83.8
X149.55Y-91.4
X149.608Y-84.705
X149.75Y-79.051
X150.05Y-110.5
X150.05Y-112.755
X150.35Y-83.15
X150.775Y-104.314
X150.8Y-106.3
X151.15Y-83.15
X151.183Y-87.692
X151.2Y-80.0
X151.25Y-79.1
X151.825Y-101.762
X152.6Y-83.25
X152.7Y-110.6
X153.024Y-89.874
X153.4Y-86.5
X153.5Y-93.05
X153.5Y-94.5
X155.2Y-106.1
X155.9Y-83.5
X156.5Y-101.25
X157.2Y-110.45
X157.85Y-84.0
X158.1Y-76.4
X158.5Y-88.7
X158.6Y-99.65
X158.625Y-81.38
X158.8Y-92.5
X158.8Y-106.1
X160.065Y-77.942
X160.2Y-76.65
X160.35Y-79.75
X160.45Y-86.65
X160.504Y-90.895
X160.6Y-111.65
X160.6Y-113.3
X161.8Y-86.8
X161.9Y-81.35
X161.9Y-90.65
X162.0Y-82.7
X162.1Y-78.8
X162.276Y-84.961
X162.4Y-95.0
X162.6Y-112.35
X162.75Y-76.0
X163.55Y-87.35
X163.9Y-79.45
X164.064Y-76.848
X164.985Y-81.4
X166.65Y-84.85
X166.65Y-101.4
X166.65Y-107.7
X167.236Y-83.968
X168.2Y-104.8
X168.8Y-78.25
X174.75Y-93.85
T3
X140.835Y-76.39
X140.835Y-78.93
X140.835Y-81.47
X140.835Y-84.01
X143.375Y-76.39
X143.375Y-78.93
X143.375Y-81.47
X143.375Y-84.01
X156.8Y-86.65
X156.8Y-89.8
X161.15Y-89.0
X163.9Y-105.0
X163.9Y-110.0
X164.9Y-89.0
X169.8Y-84.1
X173.5Y-84.1
X177.15Y-84.1
T4
X168.85Y-93.425
X168.85Y-95.575
X170.8Y-92.8
X170.8Y-96.2
T5
X133.9Y-79.5
X133.9Y-109.5
X173.9Y-79.5
X173.9Y-109.5
T6
X170.3Y-88.25
X170.3Y-100.75
T7
X141.8Y-112.555
X144.8Y-112.555
X152.6Y-112.555
X155.6Y-112.555
T2
G00X146.48Y-77.095
M15
G01X146.48Y-75.595
M16
G05
G00X146.48Y-82.205
M15
G01X146.48Y-81.205
M16
G05
G00X155.12Y-77.095
M15
G01X155.12Y-75.595
M16
G05
G00X155.12Y-82.205
M15
G01X155.12Y-81.205
M16
G05
M30
