ISO-10303-21;
HEADER;
FILE_DESCRIPTION (( 'STEP AP214' ),
    '1' );
FILE_NAME ('2016L260_24MR.STEP',
    '2023-09-01T17:10:25',
    ( '' ),
    ( '' ),
    'SwSTEP 2.0',
    'SolidWorks 2022',
    '' );
FILE_SCHEMA (( 'AUTOMOTIVE_DESIGN' ));
ENDSEC;

DATA;
#1 = VECTOR ( 'NONE', #205, 1000.000000000000000 ) ;
#2 = CARTESIAN_POINT ( 'NONE',  ( 2.667000000000000259, -2.158999999999999808, 1.524000000000000021 ) ) ;
#3 = LINE ( 'NONE', #336, #443 ) ;
#4 = ORIENTED_EDGE ( 'NONE', *, *, #40, .T. ) ;
#5 = DIRECTION ( 'NONE',  ( 0.000000000000000000, 0.000000000000000000, 1.000000000000000000 ) ) ;
#6 = VERTEX_POINT ( 'NONE', #11 ) ;
#7 = CARTESIAN_POINT ( 'NONE',  ( 2.667000000000000259, -2.158999999999999808, 0.000000000000000000 ) ) ;
#8 = VECTOR ( 'NONE', #71, 1000.000000000000000 ) ;
#9 = DIRECTION ( 'NONE',  ( 1.000000000000000000, 0.000000000000000000, 0.000000000000000000 ) ) ;
#10 = ORIENTED_EDGE ( 'NONE', *, *, #128, .T. ) ;
#11 = CARTESIAN_POINT ( 'NONE',  ( -1.143000000000000016, -2.096999999999999975, 0.06199999999999999956 ) ) ;
#12 = DIRECTION ( 'NONE',  ( 0.000000000000000000, -1.000000000000000000, 0.000000000000000000 ) ) ;
#13 = ORIENTED_EDGE ( 'NONE', *, *, #158, .T. ) ;
#14 = VERTEX_POINT ( 'NONE', #335 ) ;
#15 = CARTESIAN_POINT ( 'NONE',  ( -1.143000000000000016, -2.096999999999999975, 0.06199999999999999956 ) ) ;
#16 = LINE ( 'NONE', #344, #120 ) ;
#17 = ORIENTED_EDGE ( 'NONE', *, *, #77, .F. ) ;
#18 = CARTESIAN_POINT ( 'NONE',  ( 1.143000000000000016, -2.096999999999999975, 1.461999999999999966 ) ) ;
#19 = CARTESIAN_POINT ( 'NONE',  ( 1.143000000000000016, 2.158999999999999808, 1.524000000000000021 ) ) ;
#20 = AXIS2_PLACEMENT_3D ( 'NONE', #226, #437, #348 ) ;
#21 = CARTESIAN_POINT ( 'NONE',  ( -2.667000000000000259, 2.158999999999999808, 1.524000000000000021 ) ) ;
#22 = DIRECTION ( 'NONE',  ( -1.000000000000000000, 0.000000000000000000, 0.000000000000000000 ) ) ;
#23 = CARTESIAN_POINT ( 'NONE',  ( -2.667000000000000259, 2.158999999999999808, 0.000000000000000000 ) ) ;
#24 = SURFACE_SIDE_STYLE ('',( #451 ) ) ;
#25 = DIRECTION ( 'NONE',  ( 0.000000000000000000, 1.000000000000000000, 0.000000000000000000 ) ) ;
#26 = CARTESIAN_POINT ( 'NONE',  ( -1.143000000000000016, -2.096999999999999975, 1.461999999999999966 ) ) ;
#27 = VECTOR ( 'NONE', #42, 1000.000000000000000 ) ;
#28 = CARTESIAN_POINT ( 'NONE',  ( 1.143000000000000016, -2.096999999999999975, 0.06199999999999999956 ) ) ;
#29 = SURFACE_STYLE_FILL_AREA ( #529 ) ;
#30 = MECHANICAL_DESIGN_GEOMETRIC_PRESENTATION_REPRESENTATION (  '', ( #268 ), #212 ) ;
#31 = PRODUCT_DEFINITION_FORMATION_WITH_SPECIFIED_SOURCE ( 'ANY', '', #209, .NOT_KNOWN. ) ;
#32 = EDGE_LOOP ( 'NONE', ( #379, #225, #302, #154 ) ) ;
#33 = CARTESIAN_POINT ( 'NONE',  ( -1.143000000000000016, 2.096999999999999975, 0.06199999999999999956 ) ) ;
#34 = FILL_AREA_STYLE_COLOUR ( '', #448 ) ;
#35 = EDGE_CURVE ( 'NONE', #289, #419, #264, .T. ) ;
#36 = PLANE ( 'NONE',  #401 ) ;
#37 = CARTESIAN_POINT ( 'NONE',  ( -1.143000000000000016, -2.158999999999999808, 0.000000000000000000 ) ) ;
#38 = CARTESIAN_POINT ( 'NONE',  ( -1.143000000000000016, 2.096999999999999975, 0.06199999999999999956 ) ) ;
#39 = VECTOR ( 'NONE', #265, 1000.000000000000000 ) ;
#40 = EDGE_CURVE ( 'NONE', #53, #94, #430, .T. ) ;
#41 = CARTESIAN_POINT ( 'NONE',  ( -2.667000000000000259, -2.158999999999999808, 1.524000000000000021 ) ) ;
#42 = DIRECTION ( 'NONE',  ( 0.000000000000000000, 0.000000000000000000, 1.000000000000000000 ) ) ;
#43 = VERTEX_POINT ( 'NONE', #7 ) ;
#44 = CARTESIAN_POINT ( 'NONE',  ( 1.143000000000000016, 2.096999999999999975, 1.461999999999999966 ) ) ;
#45 = VERTEX_POINT ( 'NONE', #38 ) ;
#46 = LINE ( 'NONE', #138, #83 ) ;
#47 = COLOUR_RGB ( '',0.7215686274509803821, 0.7215686274509803821, 0.7215686274509803821 ) ;
#48 = ADVANCED_FACE ( 'NONE', ( #490 ), #36, .T. ) ;
#49 = ORIENTED_EDGE ( 'NONE', *, *, #366, .F. ) ;
#50 = ORIENTED_EDGE ( 'NONE', *, *, #144, .F. ) ;
#51 = VECTOR ( 'NONE', #350, 1000.000000000000000 ) ;
#52 = DIRECTION ( 'NONE',  ( -0.000000000000000000, 1.000000000000000000, 0.000000000000000000 ) ) ;
#53 = VERTEX_POINT ( 'NONE', #204 ) ;
#54 = ORIENTED_EDGE ( 'NONE', *, *, #313, .T. ) ;
#55 = DIRECTION ( 'NONE',  ( 1.000000000000000000, 0.000000000000000000, 0.000000000000000000 ) ) ;
#56 = DIRECTION ( 'NONE',  ( 0.000000000000000000, -1.000000000000000000, 0.000000000000000000 ) ) ;
#57 = ORIENTED_EDGE ( 'NONE', *, *, #519, .F. ) ;
#58 = VERTEX_POINT ( 'NONE', #121 ) ;
#59 = PLANE ( 'NONE',  #142 ) ;
#60 = FILL_AREA_STYLE ('',( #232 ) ) ;
#61 = MECHANICAL_DESIGN_GEOMETRIC_PRESENTATION_REPRESENTATION (  '', ( #227 ), #527 ) ;
#62 = ORIENTED_EDGE ( 'NONE', *, *, #252, .F. ) ;
#63 = LINE ( 'NONE', #391, #377 ) ;
#64 = CARTESIAN_POINT ( 'NONE',  ( 1.143000000000000016, -2.158999999999999808, 0.000000000000000000 ) ) ;
#65 = ADVANCED_FACE ( 'NONE', ( #251 ), #242, .T. ) ;
#66 = PRESENTATION_STYLE_ASSIGNMENT (( #271 ) ) ;
#67 = CARTESIAN_POINT ( 'NONE',  ( 2.667000000000000259, -2.158999999999999808, 0.000000000000000000 ) ) ;
#68 = LINE ( 'NONE', #19, #249 ) ;
#69 = AXIS2_PLACEMENT_3D ( 'NONE', #306, #272, #186 ) ;
#70 = ADVANCED_FACE ( 'NONE', ( #530 ), #76, .T. ) ;
#71 = DIRECTION ( 'NONE',  ( 0.000000000000000000, 0.000000000000000000, -1.000000000000000000 ) ) ;
#72 = EDGE_CURVE ( 'NONE', #6, #45, #163, .T. ) ;
#73 = VECTOR ( 'NONE', #495, 1000.000000000000000 ) ;
#74 = AXIS2_PLACEMENT_3D ( 'NONE', #178, #146, #303 ) ;
#75 = CARTESIAN_POINT ( 'NONE',  ( 1.143000000000000016, -2.158999999999999808, 1.524000000000000021 ) ) ;
#76 = PLANE ( 'NONE',  #118 ) ;
#77 = EDGE_CURVE ( 'NONE', #286, #374, #199, .T. ) ;
#78 = PRESENTATION_LAYER_ASSIGNMENT (  '', '', ( #227 ) ) ;
#79 = CARTESIAN_POINT ( 'NONE',  ( 2.667000000000000259, 2.158999999999999808, 1.524000000000000021 ) ) ;
#80 = EDGE_CURVE ( 'NONE', #462, #293, #449, .T. ) ;
#81 = PRODUCT_DEFINITION_CONTEXT ( 'detailed design', #405, 'design' ) ;
#82 = DIRECTION ( 'NONE',  ( 0.000000000000000000, 1.000000000000000000, 0.000000000000000000 ) ) ;
#83 = VECTOR ( 'NONE', #213, 1000.000000000000000 ) ;
#84 = ORIENTED_EDGE ( 'NONE', *, *, #128, .F. ) ;
#85 = FACE_OUTER_BOUND ( 'NONE', #508, .T. ) ;
#86 = ORIENTED_EDGE ( 'NONE', *, *, #158, .F. ) ;
#87 = PLANE ( 'NONE',  #297 ) ;
#88 = EDGE_CURVE ( 'NONE', #6, #418, #200, .T. ) ;
#89 = ORIENTED_EDGE ( 'NONE', *, *, #183, .T. ) ;
#90 = EDGE_LOOP ( 'NONE', ( #95, #498, #166, #54 ) ) ;
#91 = DIRECTION ( 'NONE',  ( 0.000000000000000000, 0.000000000000000000, -1.000000000000000000 ) ) ;
#92 = CARTESIAN_POINT ( 'NONE',  ( 2.667000000000000259, 2.158999999999999808, 1.524000000000000021 ) ) ;
#93 = DIRECTION ( 'NONE',  ( 1.000000000000000000, 0.000000000000000000, 0.000000000000000000 ) ) ;
#94 = VERTEX_POINT ( 'NONE', #2 ) ;
#95 = ORIENTED_EDGE ( 'NONE', *, *, #187, .F. ) ;
#96 = VECTOR ( 'NONE', #406, 1000.000000000000000 ) ;
#97 = PLANE ( 'NONE',  #74 ) ;
#98 = LINE ( 'NONE', #79, #513 ) ;
#99 = LINE ( 'NONE', #148, #360 ) ;
#100 = CARTESIAN_POINT ( 'NONE',  ( 2.667000000000000259, -2.158999999999999808, 0.000000000000000000 ) ) ;
#101 = FACE_OUTER_BOUND ( 'NONE', #131, .T. ) ;
#102 = LINE ( 'NONE', #433, #343 ) ;
#103 = EDGE_LOOP ( 'NONE', ( #458, #475, #326, #299 ) ) ;
#104 = CARTESIAN_POINT ( 'NONE',  ( 1.143000000000000016, 2.158999999999999808, 0.000000000000000000 ) ) ;
#105 = DIRECTION ( 'NONE',  ( 0.000000000000000000, 0.000000000000000000, -1.000000000000000000 ) ) ;
#106 = MECHANICAL_DESIGN_GEOMETRIC_PRESENTATION_REPRESENTATION (  '', ( #241 ), #305 ) ;
#107 = LINE ( 'NONE', #21, #257 ) ;
#108 = AXIS2_PLACEMENT_3D ( 'NONE', #393, #189, #467 ) ;
#109 = CARTESIAN_POINT ( 'NONE',  ( -1.143000000000000016, 2.158999999999999808, 0.000000000000000000 ) ) ;
#110 = DIRECTION ( 'NONE',  ( 1.000000000000000000, 0.000000000000000000, 0.000000000000000000 ) ) ;
#111 = EDGE_LOOP ( 'NONE', ( #367, #455, #426, #378 ) ) ;
#112 =( NAMED_UNIT ( * ) PLANE_ANGLE_UNIT ( ) SI_UNIT ( $, .RADIAN. ) );
#113 = MANIFOLD_SOLID_BREP ( 'Imported1', #387 ) ;
#114 = ORIENTED_EDGE ( 'NONE', *, *, #183, .F. ) ;
#115 = AXIS2_PLACEMENT_3D ( 'NONE', #457, #383, #126 ) ;
#116 = CARTESIAN_POINT ( 'NONE',  ( -1.143000000000000016, -2.158999999999999808, 1.524000000000000021 ) ) ;
#117 = MANIFOLD_SOLID_BREP ( 'Imported2', #362 ) ;
#118 = AXIS2_PLACEMENT_3D ( 'NONE', #408, #404, #532 ) ;
#119 = DIRECTION ( 'NONE',  ( 0.000000000000000000, -1.000000000000000000, 0.000000000000000000 ) ) ;
#120 = VECTOR ( 'NONE', #474, 1000.000000000000000 ) ;
#121 = CARTESIAN_POINT ( 'NONE',  ( 1.143000000000000016, -2.096999999999999975, 1.461999999999999966 ) ) ;
#122 = DIRECTION ( 'NONE',  ( 0.000000000000000000, -1.000000000000000000, 0.000000000000000000 ) ) ;
#123 = ORIENTED_EDGE ( 'NONE', *, *, #279, .T. ) ;
#124 = DIRECTION ( 'NONE',  ( 0.000000000000000000, 0.000000000000000000, 1.000000000000000000 ) ) ;
#125 = VECTOR ( 'NONE', #375, 1000.000000000000000 ) ;
#126 = DIRECTION ( 'NONE',  ( 0.000000000000000000, -1.000000000000000000, 0.000000000000000000 ) ) ;
#127 = ORIENTED_EDGE ( 'NONE', *, *, #35, .F. ) ;
#128 = EDGE_CURVE ( 'NONE', #419, #286, #99, .T. ) ;
#129 = CARTESIAN_POINT ( 'NONE',  ( -1.143000000000000016, 2.096999999999999975, 1.461999999999999966 ) ) ;
#130 = CARTESIAN_POINT ( 'NONE',  ( 1.143000000000000016, 2.158999999999999808, 1.524000000000000021 ) ) ;
#131 = EDGE_LOOP ( 'NONE', ( #228, #167, #57, #89 ) ) ;
#132 = ORIENTED_EDGE ( 'NONE', *, *, #80, .F. ) ;
#133 = FACE_OUTER_BOUND ( 'NONE', #259, .T. ) ;
#134 = FACE_OUTER_BOUND ( 'NONE', #90, .T. ) ;
#135 = VERTEX_POINT ( 'NONE', #384 ) ;
#136 = EDGE_LOOP ( 'NONE', ( #502, #422, #13, #506 ) ) ;
#137 = DIRECTION ( 'NONE',  ( 0.000000000000000000, -1.000000000000000000, 0.000000000000000000 ) ) ;
#138 = CARTESIAN_POINT ( 'NONE',  ( 1.143000000000000016, -2.096999999999999975, 1.461999999999999966 ) ) ;
#139 =( LENGTH_UNIT ( ) NAMED_UNIT ( * ) SI_UNIT ( .MILLI., .METRE. ) );
#140 = ORIENTED_EDGE ( 'NONE', *, *, #365, .T. ) ;
#141 = ORIENTED_EDGE ( 'NONE', *, *, #252, .T. ) ;
#142 = AXIS2_PLACEMENT_3D ( 'NONE', #23, #521, #147 ) ;
#143 = DIRECTION ( 'NONE',  ( 0.000000000000000000, -1.000000000000000000, 0.000000000000000000 ) ) ;
#144 = EDGE_CURVE ( 'NONE', #203, #14, #107, .T. ) ;
#145 = LINE ( 'NONE', #266, #51 ) ;
#146 = DIRECTION ( 'NONE',  ( -0.000000000000000000, 1.000000000000000000, 0.000000000000000000 ) ) ;
#147 = DIRECTION ( 'NONE',  ( 0.000000000000000000, -1.000000000000000000, 0.000000000000000000 ) ) ;
#148 = CARTESIAN_POINT ( 'NONE',  ( -2.667000000000000259, -2.158999999999999808, 0.000000000000000000 ) ) ;
#149 = FACE_OUTER_BOUND ( 'NONE', #32, .T. ) ;
#150 =( NAMED_UNIT ( * ) SI_UNIT ( $, .STERADIAN. ) SOLID_ANGLE_UNIT ( ) );
#151 = VECTOR ( 'NONE', #316, 1000.000000000000000 ) ;
#152 = DIRECTION ( 'NONE',  ( 0.000000000000000000, 0.000000000000000000, -1.000000000000000000 ) ) ;
#153 = EDGE_CURVE ( 'NONE', #263, #496, #16, .T. ) ;
#154 = ORIENTED_EDGE ( 'NONE', *, *, #388, .T. ) ;
#155 =( LENGTH_UNIT ( ) NAMED_UNIT ( * ) SI_UNIT ( .MILLI., .METRE. ) );
#156 = VECTOR ( 'NONE', #152, 1000.000000000000000 ) ;
#157 = SURFACE_SIDE_STYLE ('',( #29 ) ) ;
#158 = EDGE_CURVE ( 'NONE', #135, #203, #145, .T. ) ;
#159 = DIRECTION ( 'NONE',  ( -1.000000000000000000, 0.000000000000000000, 0.000000000000000000 ) ) ;
#160 = DIRECTION ( 'NONE',  ( 0.000000000000000000, 0.000000000000000000, 1.000000000000000000 ) ) ;
#161 = VECTOR ( 'NONE', #479, 1000.000000000000000 ) ;
#162 = EDGE_CURVE ( 'NONE', #425, #43, #518, .T. ) ;
#163 = LINE ( 'NONE', #363, #73 ) ;
#164 = DIRECTION ( 'NONE',  ( 0.000000000000000000, 0.000000000000000000, -1.000000000000000000 ) ) ;
#165 = ADVANCED_FACE ( 'NONE', ( #134 ), #452, .T. ) ;
#166 = ORIENTED_EDGE ( 'NONE', *, *, #417, .F. ) ;
#167 = ORIENTED_EDGE ( 'NONE', *, *, #388, .F. ) ;
#168 = VECTOR ( 'NONE', #119, 1000.000000000000000 ) ;
#169 = AXIS2_PLACEMENT_3D ( 'NONE', #291, #5, #55 ) ;
#170 = VERTEX_POINT ( 'NONE', #130 ) ;
#171 = EDGE_LOOP ( 'NONE', ( #84, #298, #50, #215 ) ) ;
#172 = DIRECTION ( 'NONE',  ( 0.000000000000000000, -1.000000000000000000, 0.000000000000000000 ) ) ;
#173 = EDGE_LOOP ( 'NONE', ( #62, #285, #219, #371 ) ) ;
#174 = ORIENTED_EDGE ( 'NONE', *, *, #356, .F. ) ;
#175 = DIRECTION ( 'NONE',  ( 0.000000000000000000, 0.000000000000000000, -1.000000000000000000 ) ) ;
#176 = ORIENTED_EDGE ( 'NONE', *, *, #77, .T. ) ;
#177 = CARTESIAN_POINT ( 'NONE',  ( -1.143000000000000016, -2.158999999999999808, 0.000000000000000000 ) ) ;
#178 = CARTESIAN_POINT ( 'NONE',  ( -1.143000000000000016, 2.158999999999999808, 0.000000000000000000 ) ) ;
#179 = FILL_AREA_STYLE ('',( #222 ) ) ;
#180 = EDGE_CURVE ( 'NONE', #509, #53, #218, .T. ) ;
#181 = EDGE_LOOP ( 'NONE', ( #210, #114, #49, #456 ) ) ;
#182 = VECTOR ( 'NONE', #304, 1000.000000000000000 ) ;
#183 = EDGE_CURVE ( 'NONE', #515, #425, #206, .T. ) ;
#184 = FACE_OUTER_BOUND ( 'NONE', #256, .T. ) ;
#185 = LINE ( 'NONE', #520, #8 ) ;
#186 = DIRECTION ( 'NONE',  ( 0.000000000000000000, 0.000000000000000000, 1.000000000000000000 ) ) ;
#187 = EDGE_CURVE ( 'NONE', #374, #289, #347, .T. ) ;
#188 = FACE_OUTER_BOUND ( 'NONE', #111, .T. ) ;
#189 = DIRECTION ( 'NONE',  ( 0.000000000000000000, 0.000000000000000000, 1.000000000000000000 ) ) ;
#190 = AXIS2_PLACEMENT_3D ( 'NONE', #382, #52, #331 ) ;
#191 = LINE ( 'NONE', #309, #182 ) ;
#192 = PRODUCT_RELATED_PRODUCT_CATEGORY ( 'part', '', ( #209 ) ) ;
#193 = EDGE_CURVE ( 'NONE', #58, #293, #432, .T. ) ;
#194 = COLOUR_RGB ( '',0.4588235294117646856, 0.3411764705882353033, 0.1725490196078431349 ) ;
#195 = PRESENTATION_STYLE_ASSIGNMENT (( #198 ) ) ;
#196 =( GEOMETRIC_REPRESENTATION_CONTEXT ( 3 ) GLOBAL_UNCERTAINTY_ASSIGNED_CONTEXT ( ( #323 ) ) GLOBAL_UNIT_ASSIGNED_CONTEXT ( ( #512, #253, #416 ) ) REPRESENTATION_CONTEXT ( 'NONE', 'WORKASPACE' ) );
#197 = LINE ( 'NONE', #64, #201 ) ;
#198 = SURFACE_STYLE_USAGE ( .BOTH. , #157 ) ;
#199 = LINE ( 'NONE', #491, #435 ) ;
#200 = LINE ( 'NONE', #415, #478 ) ;
#201 = VECTOR ( 'NONE', #301, 1000.000000000000000 ) ;
#202 = PRODUCT_DEFINITION_SHAPE ( 'NONE', 'NONE',  #345 ) ;
#203 = VERTEX_POINT ( 'NONE', #380 ) ;
#204 = CARTESIAN_POINT ( 'NONE',  ( 1.143000000000000016, -2.158999999999999808, 1.524000000000000021 ) ) ;
#205 = DIRECTION ( 'NONE',  ( 0.000000000000000000, 0.000000000000000000, -1.000000000000000000 ) ) ;
#206 = LINE ( 'NONE', #370, #481 ) ;
#207 = ORIENTED_EDGE ( 'NONE', *, *, #282, .T. ) ;
#208 = FILL_AREA_STYLE_COLOUR ( '', #194 ) ;
#209 = PRODUCT ( '2016L260_24MR', '2016L260_24MR', '', ( #230 ) ) ;
#210 = ORIENTED_EDGE ( 'NONE', *, *, #162, .F. ) ;
#211 = CARTESIAN_POINT ( 'NONE',  ( 1.143000000000000016, -2.158999999999999808, 1.524000000000000021 ) ) ;
#212 =( GEOMETRIC_REPRESENTATION_CONTEXT ( 3 ) GLOBAL_UNCERTAINTY_ASSIGNED_CONTEXT ( ( #240 ) ) GLOBAL_UNIT_ASSIGNED_CONTEXT ( ( #223, #390, #469 ) ) REPRESENTATION_CONTEXT ( 'NONE', 'WORKASPACE' ) );
#213 = DIRECTION ( 'NONE',  ( 0.000000000000000000, 1.000000000000000000, 0.000000000000000000 ) ) ;
#214 = VECTOR ( 'NONE', #122, 1000.000000000000000 ) ;
#215 = ORIENTED_EDGE ( 'NONE', *, *, #356, .T. ) ;
#216 = EDGE_LOOP ( 'NONE', ( #278, #267, #294, #329 ) ) ;
#217 = PLANE ( 'NONE',  #308 ) ;
#218 = LINE ( 'NONE', #413, #27 ) ;
#219 = ORIENTED_EDGE ( 'NONE', *, *, #282, .F. ) ;
#220 = ORIENTED_EDGE ( 'NONE', *, *, #510, .F. ) ;
#221 = CARTESIAN_POINT ( 'NONE',  ( -1.143000000000000016, 2.158999999999999808, 0.000000000000000000 ) ) ;
#222 = FILL_AREA_STYLE_COLOUR ( '', #310 ) ;
#223 =( LENGTH_UNIT ( ) NAMED_UNIT ( * ) SI_UNIT ( .MILLI., .METRE. ) );
#224 = ADVANCED_FACE ( 'NONE', ( #101 ), #460, .T. ) ;
#225 = ORIENTED_EDGE ( 'NONE', *, *, #180, .T. ) ;
#226 = CARTESIAN_POINT ( 'NONE',  ( 1.143000000000000016, 2.158999999999999808, 0.000000000000000000 ) ) ;
#227 = STYLED_ITEM ( 'NONE', ( #428 ), #409 ) ;
#228 = ORIENTED_EDGE ( 'NONE', *, *, #526, .F. ) ;
#229 = FACE_OUTER_BOUND ( 'NONE', #171, .T. ) ;
#230 = PRODUCT_CONTEXT ( 'NONE', #359, 'mechanical' ) ;
#231 = ADVANCED_FACE ( 'NONE', ( #516 ), #217, .T. ) ;
#232 = FILL_AREA_STYLE_COLOUR ( '', #47 ) ;
#233 = DIRECTION ( 'NONE',  ( 1.000000000000000000, 0.000000000000000000, 0.000000000000000000 ) ) ;
#234 = LINE ( 'NONE', #386, #161 ) ;
#235 = VECTOR ( 'NONE', #314, 1000.000000000000000 ) ;
#236 = ADVANCED_FACE ( 'NONE', ( #463 ), #97, .T. ) ;
#237 = CARTESIAN_POINT ( 'NONE',  ( -1.143000000000000016, -2.096999999999999975, 1.461999999999999966 ) ) ;
#238 = ADVANCED_FACE ( 'NONE', ( #260 ), #476, .T. ) ;
#239 = CARTESIAN_POINT ( 'NONE',  ( 1.143000000000000016, 2.158999999999999808, 1.524000000000000021 ) ) ;
#240 = UNCERTAINTY_MEASURE_WITH_UNIT (LENGTH_MEASURE( 1.000000000000000082E-05 ), #223, 'distance_accuracy_value', 'NONE');
#241 = STYLED_ITEM ( 'NONE', ( #281 ), #113 ) ;
#242 = PLANE ( 'NONE',  #324 ) ;
#243 = VECTOR ( 'NONE', #295, 1000.000000000000000 ) ;
#244 = UNCERTAINTY_MEASURE_WITH_UNIT (LENGTH_MEASURE( 1.000000000000000082E-05 ), #450, 'distance_accuracy_value', 'NONE');
#245 = ADVANCED_FACE ( 'NONE', ( #340 ), #503, .T. ) ;
#246 = CARTESIAN_POINT ( 'NONE',  ( 1.143000000000000016, 2.096999999999999975, 0.06199999999999999956 ) ) ;
#247 =( NAMED_UNIT ( * ) PLANE_ANGLE_UNIT ( ) SI_UNIT ( $, .RADIAN. ) );
#248 = PLANE ( 'NONE',  #169 ) ;
#249 = VECTOR ( 'NONE', #105, 1000.000000000000000 ) ;
#250 = EDGE_LOOP ( 'NONE', ( #132, #254, #220, #485 ) ) ;
#251 = FACE_OUTER_BOUND ( 'NONE', #338, .T. ) ;
#252 = EDGE_CURVE ( 'NONE', #293, #6, #63, .T. ) ;
#253 =( NAMED_UNIT ( * ) PLANE_ANGLE_UNIT ( ) SI_UNIT ( $, .RADIAN. ) );
#254 = ORIENTED_EDGE ( 'NONE', *, *, #468, .F. ) ;
#255 = CARTESIAN_POINT ( 'NONE',  ( -1.143000000000000016, -2.158999999999999808, 1.524000000000000021 ) ) ;
#256 = EDGE_LOOP ( 'NONE', ( #176, #471, #357, #10 ) ) ;
#257 = VECTOR ( 'NONE', #56, 1000.000000000000000 ) ;
#258 = ORIENTED_EDGE ( 'NONE', *, *, #480, .T. ) ;
#259 = EDGE_LOOP ( 'NONE', ( #429, #328, #141, #470 ) ) ;
#260 = FACE_OUTER_BOUND ( 'NONE', #216, .T. ) ;
#261 = CARTESIAN_POINT ( 'NONE',  ( -1.143000000000000016, 2.096999999999999975, 1.461999999999999966 ) ) ;
#262 = DIRECTION ( 'NONE',  ( 0.000000000000000000, 1.000000000000000000, 0.000000000000000000 ) ) ;
#263 = VERTEX_POINT ( 'NONE', #351 ) ;
#264 = LINE ( 'NONE', #177, #311 ) ;
#265 = DIRECTION ( 'NONE',  ( 0.000000000000000000, 1.000000000000000000, 0.000000000000000000 ) ) ;
#266 = CARTESIAN_POINT ( 'NONE',  ( -1.143000000000000016, 2.158999999999999808, 1.524000000000000021 ) ) ;
#267 = ORIENTED_EDGE ( 'NONE', *, *, #162, .T. ) ;
#268 = STYLED_ITEM ( 'NONE', ( #66 ), #117 ) ;
#269 = DIRECTION ( 'NONE',  ( 0.000000000000000000, -1.000000000000000000, 0.000000000000000000 ) ) ;
#270 = CARTESIAN_POINT ( 'NONE',  ( 1.143000000000000016, 2.158999999999999808, 0.000000000000000000 ) ) ;
#271 = SURFACE_STYLE_USAGE ( .BOTH. , #514 ) ;
#272 = DIRECTION ( 'NONE',  ( -1.000000000000000000, 0.000000000000000000, 0.000000000000000000 ) ) ;
#273 = APPLICATION_PROTOCOL_DEFINITION ( 'draft international standard', 'automotive_design', 1998, #405 ) ;
#274 = FACE_OUTER_BOUND ( 'NONE', #181, .T. ) ;
#275 = CARTESIAN_POINT ( 'NONE',  ( -2.667000000000000259, -2.158999999999999808, 0.000000000000000000 ) ) ;
#276 = EDGE_CURVE ( 'NONE', #496, #45, #185, .T. ) ;
#277 = VECTOR ( 'NONE', #445, 1000.000000000000000 ) ;
#278 = ORIENTED_EDGE ( 'NONE', *, *, #526, .T. ) ;
#279 = EDGE_CURVE ( 'NONE', #170, #53, #489, .T. ) ;
#280 = PRESENTATION_LAYER_ASSIGNMENT (  '', '', ( #241 ) ) ;
#281 = PRESENTATION_STYLE_ASSIGNMENT (( #284 ) ) ;
#282 = EDGE_CURVE ( 'NONE', #418, #58, #403, .T. ) ;
#283 = AXIS2_PLACEMENT_3D ( 'NONE', #327, #332, #504 ) ;
#284 = SURFACE_STYLE_USAGE ( .BOTH. , #494 ) ;
#285 = ORIENTED_EDGE ( 'NONE', *, *, #193, .F. ) ;
#286 = VERTEX_POINT ( 'NONE', #361 ) ;
#287 = DIRECTION ( 'NONE',  ( 0.000000000000000000, 0.000000000000000000, 1.000000000000000000 ) ) ;
#288 = ORIENTED_EDGE ( 'NONE', *, *, #410, .F. ) ;
#289 = VERTEX_POINT ( 'NONE', #37 ) ;
#290 = MANIFOLD_SOLID_BREP ( 'Imported3', #438 ) ;
#291 = CARTESIAN_POINT ( 'NONE',  ( -1.143000000000000016, -2.096999999999999975, 1.461999999999999966 ) ) ;
#292 = EDGE_CURVE ( 'NONE', #419, #14, #399, .T. ) ;
#293 = VERTEX_POINT ( 'NONE', #28 ) ;
#294 = ORIENTED_EDGE ( 'NONE', *, *, #330, .T. ) ;
#295 = DIRECTION ( 'NONE',  ( 0.000000000000000000, 0.000000000000000000, -1.000000000000000000 ) ) ;
#296 = LINE ( 'NONE', #507, #389 ) ;
#297 = AXIS2_PLACEMENT_3D ( 'NONE', #41, #287, #322 ) ;
#298 = ORIENTED_EDGE ( 'NONE', *, *, #292, .T. ) ;
#299 = ORIENTED_EDGE ( 'NONE', *, *, #276, .T. ) ;
#300 = DIRECTION ( 'NONE',  ( 0.000000000000000000, 0.000000000000000000, -1.000000000000000000 ) ) ;
#301 = DIRECTION ( 'NONE',  ( 0.000000000000000000, 1.000000000000000000, 0.000000000000000000 ) ) ;
#302 = ORIENTED_EDGE ( 'NONE', *, *, #279, .F. ) ;
#303 = DIRECTION ( 'NONE',  ( 1.000000000000000000, 0.000000000000000000, 0.000000000000000000 ) ) ;
#304 = DIRECTION ( 'NONE',  ( 0.000000000000000000, 1.000000000000000000, 0.000000000000000000 ) ) ;
#305 =( GEOMETRIC_REPRESENTATION_CONTEXT ( 3 ) GLOBAL_UNCERTAINTY_ASSIGNED_CONTEXT ( ( #244 ) ) GLOBAL_UNIT_ASSIGNED_CONTEXT ( ( #450, #247, #321 ) ) REPRESENTATION_CONTEXT ( 'NONE', 'WORKASPACE' ) );
#306 = CARTESIAN_POINT ( 'NONE',  ( -2.667000000000000259, 2.158999999999999808, 0.000000000000000000 ) ) ;
#307 = APPLICATION_PROTOCOL_DEFINITION ( 'draft international standard', 'automotive_design', 1998, #359 ) ;
#308 = AXIS2_PLACEMENT_3D ( 'NONE', #15, #143, #175 ) ;
#309 = CARTESIAN_POINT ( 'NONE',  ( -1.143000000000000016, -2.158999999999999808, 1.524000000000000021 ) ) ;
#310 = COLOUR_RGB ( '',0.7215686274509803821, 0.7215686274509803821, 0.7215686274509803821 ) ;
#311 = VECTOR ( 'NONE', #339, 1000.000000000000000 ) ;
#312 = AXIS2_PLACEMENT_3D ( 'NONE', #441, #522, #464 ) ;
#313 = EDGE_CURVE ( 'NONE', #499, #289, #358, .T. ) ;
#314 = DIRECTION ( 'NONE',  ( 1.000000000000000000, 0.000000000000000000, 0.000000000000000000 ) ) ;
#315 = DIRECTION ( 'NONE',  ( 1.000000000000000000, 0.000000000000000000, 0.000000000000000000 ) ) ;
#316 = DIRECTION ( 'NONE',  ( 1.000000000000000000, 0.000000000000000000, 0.000000000000000000 ) ) ;
#317 = FILL_AREA_STYLE ('',( #208 ) ) ;
#318 = AXIS2_PLACEMENT_3D ( 'NONE', #427, #269, #511 ) ;
#319 = SURFACE_STYLE_FILL_AREA ( #317 ) ;
#320 = EDGE_CURVE ( 'NONE', #45, #462, #400, .T. ) ;
#321 =( NAMED_UNIT ( * ) SI_UNIT ( $, .STERADIAN. ) SOLID_ANGLE_UNIT ( ) );
#322 = DIRECTION ( 'NONE',  ( 1.000000000000000000, 0.000000000000000000, 0.000000000000000000 ) ) ;
#323 = UNCERTAINTY_MEASURE_WITH_UNIT (LENGTH_MEASURE( 1.000000000000000082E-05 ), #512, 'distance_accuracy_value', 'NONE');
#324 = AXIS2_PLACEMENT_3D ( 'NONE', #75, #407, #315 ) ;
#325 = ORIENTED_EDGE ( 'NONE', *, *, #276, .F. ) ;
#326 = ORIENTED_EDGE ( 'NONE', *, *, #480, .F. ) ;
#327 = CARTESIAN_POINT ( 'NONE',  ( 1.143000000000000016, 2.096999999999999975, 0.06199999999999999956 ) ) ;
#328 = ORIENTED_EDGE ( 'NONE', *, *, #80, .T. ) ;
#329 = ORIENTED_EDGE ( 'NONE', *, *, #349, .T. ) ;
#330 = EDGE_CURVE ( 'NONE', #43, #509, #525, .T. ) ;
#331 = DIRECTION ( 'NONE',  ( 1.000000000000000000, 0.000000000000000000, 0.000000000000000000 ) ) ;
#332 = DIRECTION ( 'NONE',  ( -0.000000000000000000, 1.000000000000000000, 0.000000000000000000 ) ) ;
#333 = CARTESIAN_POINT ( 'NONE',  ( 2.667000000000000259, 2.158999999999999808, 0.000000000000000000 ) ) ;
#334 = ORIENTED_EDGE ( 'NONE', *, *, #313, .F. ) ;
#335 = CARTESIAN_POINT ( 'NONE',  ( -2.667000000000000259, -2.158999999999999808, 1.524000000000000021 ) ) ;
#336 = CARTESIAN_POINT ( 'NONE',  ( 2.667000000000000259, -2.158999999999999808, 1.524000000000000021 ) ) ;
#337 = SHAPE_DEFINITION_REPRESENTATION ( #202, #409 ) ;
#338 = EDGE_LOOP ( 'NONE', ( #4, #402, #505, #123 ) ) ;
#339 = DIRECTION ( 'NONE',  ( -1.000000000000000000, 0.000000000000000000, 0.000000000000000000 ) ) ;
#340 = FACE_OUTER_BOUND ( 'NONE', #381, .T. ) ;
#341 = PLANE ( 'NONE',  #283 ) ;
#342 = SURFACE_STYLE_USAGE ( .BOTH. , #24 ) ;
#343 = VECTOR ( 'NONE', #110, 1000.000000000000000 ) ;
#344 = CARTESIAN_POINT ( 'NONE',  ( 1.143000000000000016, 2.096999999999999975, 1.461999999999999966 ) ) ;
#345 = PRODUCT_DEFINITION ( 'UNKNOWN', '', #31, #81 ) ;
#346 = ORIENTED_EDGE ( 'NONE', *, *, #320, .F. ) ;
#347 = LINE ( 'NONE', #221, #424 ) ;
#348 = DIRECTION ( 'NONE',  ( 0.000000000000000000, 0.000000000000000000, 1.000000000000000000 ) ) ;
#349 = EDGE_CURVE ( 'NONE', #509, #421, #197, .T. ) ;
#350 = DIRECTION ( 'NONE',  ( -1.000000000000000000, 0.000000000000000000, 0.000000000000000000 ) ) ;
#351 = CARTESIAN_POINT ( 'NONE',  ( 1.143000000000000016, 2.096999999999999975, 1.461999999999999966 ) ) ;
#352 = PLANE ( 'NONE',  #453 ) ;
#353 = PRESENTATION_LAYER_ASSIGNMENT (  '', '', ( #268 ) ) ;
#354 = PLANE ( 'NONE',  #312 ) ;
#355 = AXIS2_PLACEMENT_3D ( 'NONE', #501, #93, #82 ) ;
#356 = EDGE_CURVE ( 'NONE', #203, #286, #234, .T. ) ;
#357 = ORIENTED_EDGE ( 'NONE', *, *, #35, .T. ) ;
#358 = LINE ( 'NONE', #116, #277 ) ;
#359 = APPLICATION_CONTEXT ( 'automotive_design' ) ;
#360 = VECTOR ( 'NONE', #262, 1000.000000000000000 ) ;
#361 = CARTESIAN_POINT ( 'NONE',  ( -2.667000000000000259, 2.158999999999999808, 0.000000000000000000 ) ) ;
#362 = CLOSED_SHELL ( 'NONE', ( #65, #238, #396, #224, #440, #446 ) ) ;
#363 = CARTESIAN_POINT ( 'NONE',  ( -1.143000000000000016, -2.096999999999999975, 0.06199999999999999956 ) ) ;
#364 = VECTOR ( 'NONE', #411, 1000.000000000000000 ) ;
#365 = EDGE_CURVE ( 'NONE', #135, #374, #517, .T. ) ;
#366 = EDGE_CURVE ( 'NONE', #94, #515, #397, .T. ) ;
#367 = ORIENTED_EDGE ( 'NONE', *, *, #330, .F. ) ;
#368 = DIRECTION ( 'NONE',  ( 1.000000000000000000, 0.000000000000000000, 0.000000000000000000 ) ) ;
#369 = FACE_OUTER_BOUND ( 'NONE', #136, .T. ) ;
#370 = CARTESIAN_POINT ( 'NONE',  ( 2.667000000000000259, 2.158999999999999808, 1.524000000000000021 ) ) ;
#371 = ORIENTED_EDGE ( 'NONE', *, *, #88, .F. ) ;
#372 = PLANE ( 'NONE',  #115 ) ;
#373 = ADVANCED_FACE ( 'NONE', ( #184 ), #59, .T. ) ;
#374 = VERTEX_POINT ( 'NONE', #109 ) ;
#375 = DIRECTION ( 'NONE',  ( 1.000000000000000000, 0.000000000000000000, 0.000000000000000000 ) ) ;
#376 = DIRECTION ( 'NONE',  ( -1.000000000000000000, 0.000000000000000000, 0.000000000000000000 ) ) ;
#377 = VECTOR ( 'NONE', #22, 1000.000000000000000 ) ;
#378 = ORIENTED_EDGE ( 'NONE', *, *, #180, .F. ) ;
#379 = ORIENTED_EDGE ( 'NONE', *, *, #349, .F. ) ;
#380 = CARTESIAN_POINT ( 'NONE',  ( -2.667000000000000259, 2.158999999999999808, 1.524000000000000021 ) ) ;
#381 = EDGE_LOOP ( 'NONE', ( #127, #334, #288, #444 ) ) ;
#382 = CARTESIAN_POINT ( 'NONE',  ( 2.667000000000000259, 2.158999999999999808, 0.000000000000000000 ) ) ;
#383 = DIRECTION ( 'NONE',  ( 0.000000000000000000, 0.000000000000000000, -1.000000000000000000 ) ) ;
#384 = CARTESIAN_POINT ( 'NONE',  ( -1.143000000000000016, 2.158999999999999808, 1.524000000000000021 ) ) ;
#385 = ORIENTED_EDGE ( 'NONE', *, *, #153, .T. ) ;
#386 = CARTESIAN_POINT ( 'NONE',  ( -2.667000000000000259, 2.158999999999999808, 1.524000000000000021 ) ) ;
#387 = CLOSED_SHELL ( 'NONE', ( #531, #473, #48, #528, #70, #231 ) ) ;
#388 = EDGE_CURVE ( 'NONE', #170, #421, #68, .T. ) ;
#389 = VECTOR ( 'NONE', #9, 1000.000000000000000 ) ;
#390 =( NAMED_UNIT ( * ) PLANE_ANGLE_UNIT ( ) SI_UNIT ( $, .RADIAN. ) );
#391 = CARTESIAN_POINT ( 'NONE',  ( 1.143000000000000016, -2.096999999999999975, 0.06199999999999999956 ) ) ;
#392 = PLANE ( 'NONE',  #69 ) ;
#393 = CARTESIAN_POINT ( 'NONE',  ( 0.000000000000000000, 0.000000000000000000, 0.000000000000000000 ) ) ;
#394 = PLANE ( 'NONE',  #20 ) ;
#395 = UNCERTAINTY_MEASURE_WITH_UNIT (LENGTH_MEASURE( 1.000000000000000082E-05 ), #155, 'distance_accuracy_value', 'NONE');
#396 = ADVANCED_FACE ( 'NONE', ( #149 ), #394, .T. ) ;
#397 = LINE ( 'NONE', #439, #39 ) ;
#398 = STYLED_ITEM ( 'NONE', ( #195 ), #290 ) ;
#399 = LINE ( 'NONE', #275, #487 ) ;
#400 = LINE ( 'NONE', #33, #235 ) ;
#401 = AXIS2_PLACEMENT_3D ( 'NONE', #447, #159, #124 ) ;
#402 = ORIENTED_EDGE ( 'NONE', *, *, #366, .T. ) ;
#403 = LINE ( 'NONE', #237, #151 ) ;
#404 = DIRECTION ( 'NONE',  ( 1.000000000000000000, 0.000000000000000000, 0.000000000000000000 ) ) ;
#405 = APPLICATION_CONTEXT ( 'automotive_design' ) ;
#406 = DIRECTION ( 'NONE',  ( 0.000000000000000000, -1.000000000000000000, 0.000000000000000000 ) ) ;
#407 = DIRECTION ( 'NONE',  ( 0.000000000000000000, 0.000000000000000000, 1.000000000000000000 ) ) ;
#408 = CARTESIAN_POINT ( 'NONE',  ( 1.143000000000000016, -2.096999999999999975, 0.06199999999999999956 ) ) ;
#409 = ADVANCED_BREP_SHAPE_REPRESENTATION ( '2016L260_24MR', ( #113, #117, #290, #108 ), #196 ) ;
#410 = EDGE_CURVE ( 'NONE', #14, #499, #102, .T. ) ;
#411 = DIRECTION ( 'NONE',  ( -1.000000000000000000, 0.000000000000000000, 0.000000000000000000 ) ) ;
#412 = VECTOR ( 'NONE', #172, 1000.000000000000000 ) ;
#413 = CARTESIAN_POINT ( 'NONE',  ( 1.143000000000000016, -2.158999999999999808, 0.000000000000000000 ) ) ;
#414 = EDGE_LOOP ( 'NONE', ( #17, #174, #86, #140 ) ) ;
#415 = CARTESIAN_POINT ( 'NONE',  ( -1.143000000000000016, -2.096999999999999975, 0.06199999999999999956 ) ) ;
#416 =( NAMED_UNIT ( * ) SI_UNIT ( $, .STERADIAN. ) SOLID_ANGLE_UNIT ( ) );
#417 = EDGE_CURVE ( 'NONE', #499, #135, #191, .T. ) ;
#418 = VERTEX_POINT ( 'NONE', #26 ) ;
#419 = VERTEX_POINT ( 'NONE', #472 ) ;
#420 = LINE ( 'NONE', #44, #1 ) ;
#421 = VERTEX_POINT ( 'NONE', #270 ) ;
#422 = ORIENTED_EDGE ( 'NONE', *, *, #417, .T. ) ;
#423 = FACE_OUTER_BOUND ( 'NONE', #459, .T. ) ;
#424 = VECTOR ( 'NONE', #137, 1000.000000000000000 ) ;
#425 = VERTEX_POINT ( 'NONE', #482 ) ;
#426 = ORIENTED_EDGE ( 'NONE', *, *, #40, .F. ) ;
#427 = CARTESIAN_POINT ( 'NONE',  ( -2.667000000000000259, -2.158999999999999808, 0.000000000000000000 ) ) ;
#428 = PRESENTATION_STYLE_ASSIGNMENT (( #342 ) ) ;
#429 = ORIENTED_EDGE ( 'NONE', *, *, #320, .T. ) ;
#430 = LINE ( 'NONE', #211, #125 ) ;
#431 = ADVANCED_FACE ( 'NONE', ( #229 ), #392, .T. ) ;
#432 = LINE ( 'NONE', #18, #243 ) ;
#433 = CARTESIAN_POINT ( 'NONE',  ( -2.667000000000000259, -2.158999999999999808, 1.524000000000000021 ) ) ;
#434 = SURFACE_STYLE_FILL_AREA ( #60 ) ;
#435 = VECTOR ( 'NONE', #368, 1000.000000000000000 ) ;
#436 = ORIENTED_EDGE ( 'NONE', *, *, #468, .T. ) ;
#437 = DIRECTION ( 'NONE',  ( -1.000000000000000000, 0.000000000000000000, 0.000000000000000000 ) ) ;
#438 = CLOSED_SHELL ( 'NONE', ( #488, #373, #431, #236, #165, #245 ) ) ;
#439 = CARTESIAN_POINT ( 'NONE',  ( 2.667000000000000259, -2.158999999999999808, 1.524000000000000021 ) ) ;
#440 = ADVANCED_FACE ( 'NONE', ( #274 ), #352, .T. ) ;
#441 = CARTESIAN_POINT ( 'NONE',  ( 1.143000000000000016, -2.158999999999999808, 0.000000000000000000 ) ) ;
#442 = DIRECTION ( 'NONE',  ( 0.000000000000000000, 0.000000000000000000, 1.000000000000000000 ) ) ;
#443 = VECTOR ( 'NONE', #164, 1000.000000000000000 ) ;
#444 = ORIENTED_EDGE ( 'NONE', *, *, #292, .F. ) ;
#445 = DIRECTION ( 'NONE',  ( 0.000000000000000000, 0.000000000000000000, -1.000000000000000000 ) ) ;
#446 = ADVANCED_FACE ( 'NONE', ( #188 ), #354, .T. ) ;
#447 = CARTESIAN_POINT ( 'NONE',  ( -1.143000000000000016, 2.096999999999999975, 0.06199999999999999956 ) ) ;
#448 = COLOUR_RGB ( '',0.7215686274509803821, 0.7215686274509803821, 0.7215686274509803821 ) ;
#449 = LINE ( 'NONE', #246, #168 ) ;
#450 =( LENGTH_UNIT ( ) NAMED_UNIT ( * ) SI_UNIT ( .MILLI., .METRE. ) );
#451 = SURFACE_STYLE_FILL_AREA ( #179 ) ;
#452 = PLANE ( 'NONE',  #355 ) ;
#453 = AXIS2_PLACEMENT_3D ( 'NONE', #67, #233, #25 ) ;
#454 = CARTESIAN_POINT ( 'NONE',  ( 1.143000000000000016, 2.096999999999999975, 0.06199999999999999956 ) ) ;
#455 = ORIENTED_EDGE ( 'NONE', *, *, #492, .F. ) ;
#456 = ORIENTED_EDGE ( 'NONE', *, *, #492, .T. ) ;
#457 = CARTESIAN_POINT ( 'NONE',  ( -1.143000000000000016, 2.096999999999999975, 0.06199999999999999956 ) ) ;
#458 = ORIENTED_EDGE ( 'NONE', *, *, #72, .F. ) ;
#459 = EDGE_LOOP ( 'NONE', ( #346, #325, #461, #436 ) ) ;
#460 = PLANE ( 'NONE',  #190 ) ;
#461 = ORIENTED_EDGE ( 'NONE', *, *, #153, .F. ) ;
#462 = VERTEX_POINT ( 'NONE', #454 ) ;
#463 = FACE_OUTER_BOUND ( 'NONE', #414, .T. ) ;
#464 = DIRECTION ( 'NONE',  ( 0.000000000000000000, 0.000000000000000000, -1.000000000000000000 ) ) ;
#465 =( GEOMETRIC_REPRESENTATION_CONTEXT ( 3 ) GLOBAL_UNCERTAINTY_ASSIGNED_CONTEXT ( ( #395 ) ) GLOBAL_UNIT_ASSIGNED_CONTEXT ( ( #155, #112, #486 ) ) REPRESENTATION_CONTEXT ( 'NONE', 'WORKASPACE' ) );
#466 = MECHANICAL_DESIGN_GEOMETRIC_PRESENTATION_REPRESENTATION (  '', ( #398 ), #465 ) ;
#467 = DIRECTION ( 'NONE',  ( 1.000000000000000000, 0.000000000000000000, 0.000000000000000000 ) ) ;
#468 = EDGE_CURVE ( 'NONE', #263, #462, #420, .T. ) ;
#469 =( NAMED_UNIT ( * ) SI_UNIT ( $, .STERADIAN. ) SOLID_ANGLE_UNIT ( ) );
#470 = ORIENTED_EDGE ( 'NONE', *, *, #72, .T. ) ;
#471 = ORIENTED_EDGE ( 'NONE', *, *, #187, .T. ) ;
#472 = CARTESIAN_POINT ( 'NONE',  ( -2.667000000000000259, -2.158999999999999808, 0.000000000000000000 ) ) ;
#473 = ADVANCED_FACE ( 'NONE', ( #133 ), #372, .T. ) ;
#474 = DIRECTION ( 'NONE',  ( -1.000000000000000000, 0.000000000000000000, 0.000000000000000000 ) ) ;
#475 = ORIENTED_EDGE ( 'NONE', *, *, #88, .T. ) ;
#476 = PLANE ( 'NONE',  #493 ) ;
#477 = CARTESIAN_POINT ( 'NONE',  ( -1.143000000000000016, 2.158999999999999808, 1.524000000000000021 ) ) ;
#478 = VECTOR ( 'NONE', #160, 1000.000000000000000 ) ;
#479 = DIRECTION ( 'NONE',  ( 0.000000000000000000, 0.000000000000000000, -1.000000000000000000 ) ) ;
#480 = EDGE_CURVE ( 'NONE', #496, #418, #500, .T. ) ;
#481 = VECTOR ( 'NONE', #300, 1000.000000000000000 ) ;
#482 = CARTESIAN_POINT ( 'NONE',  ( 2.667000000000000259, 2.158999999999999808, 0.000000000000000000 ) ) ;
#483 =( NAMED_UNIT ( * ) PLANE_ANGLE_UNIT ( ) SI_UNIT ( $, .RADIAN. ) );
#484 = ORIENTED_EDGE ( 'NONE', *, *, #510, .T. ) ;
#485 = ORIENTED_EDGE ( 'NONE', *, *, #193, .T. ) ;
#486 =( NAMED_UNIT ( * ) SI_UNIT ( $, .STERADIAN. ) SOLID_ANGLE_UNIT ( ) );
#487 = VECTOR ( 'NONE', #442, 1000.000000000000000 ) ;
#488 = ADVANCED_FACE ( 'NONE', ( #369 ), #87, .T. ) ;
#489 = LINE ( 'NONE', #239, #96 ) ;
#490 = FACE_OUTER_BOUND ( 'NONE', #103, .T. ) ;
#491 = CARTESIAN_POINT ( 'NONE',  ( -2.667000000000000259, 2.158999999999999808, 0.000000000000000000 ) ) ;
#492 = EDGE_CURVE ( 'NONE', #94, #43, #3, .T. ) ;
#493 = AXIS2_PLACEMENT_3D ( 'NONE', #104, #91, #12 ) ;
#494 = SURFACE_SIDE_STYLE ('',( #319 ) ) ;
#495 = DIRECTION ( 'NONE',  ( 0.000000000000000000, 1.000000000000000000, 0.000000000000000000 ) ) ;
#496 = VERTEX_POINT ( 'NONE', #129 ) ;
#497 = CARTESIAN_POINT ( 'NONE',  ( 1.143000000000000016, -2.158999999999999808, 0.000000000000000000 ) ) ;
#498 = ORIENTED_EDGE ( 'NONE', *, *, #365, .F. ) ;
#499 = VERTEX_POINT ( 'NONE', #255 ) ;
#500 = LINE ( 'NONE', #261, #412 ) ;
#501 = CARTESIAN_POINT ( 'NONE',  ( -1.143000000000000016, -2.158999999999999808, 0.000000000000000000 ) ) ;
#502 = ORIENTED_EDGE ( 'NONE', *, *, #410, .T. ) ;
#503 = PLANE ( 'NONE',  #318 ) ;
#504 = DIRECTION ( 'NONE',  ( 1.000000000000000000, 0.000000000000000000, 0.000000000000000000 ) ) ;
#505 = ORIENTED_EDGE ( 'NONE', *, *, #519, .T. ) ;
#506 = ORIENTED_EDGE ( 'NONE', *, *, #144, .T. ) ;
#507 = CARTESIAN_POINT ( 'NONE',  ( 1.143000000000000016, 2.158999999999999808, 0.000000000000000000 ) ) ;
#508 = EDGE_LOOP ( 'NONE', ( #207, #484, #385, #258 ) ) ;
#509 = VERTEX_POINT ( 'NONE', #497 ) ;
#510 = EDGE_CURVE ( 'NONE', #58, #263, #46, .T. ) ;
#511 = DIRECTION ( 'NONE',  ( 0.000000000000000000, 0.000000000000000000, -1.000000000000000000 ) ) ;
#512 =( LENGTH_UNIT ( ) NAMED_UNIT ( * ) SI_UNIT ( .MILLI., .METRE. ) );
#513 = VECTOR ( 'NONE', #376, 1000.000000000000000 ) ;
#514 = SURFACE_SIDE_STYLE ('',( #434 ) ) ;
#515 = VERTEX_POINT ( 'NONE', #92 ) ;
#516 = FACE_OUTER_BOUND ( 'NONE', #173, .T. ) ;
#517 = LINE ( 'NONE', #477, #156 ) ;
#518 = LINE ( 'NONE', #333, #214 ) ;
#519 = EDGE_CURVE ( 'NONE', #515, #170, #98, .T. ) ;
#520 = CARTESIAN_POINT ( 'NONE',  ( -1.143000000000000016, 2.096999999999999975, 1.461999999999999966 ) ) ;
#521 = DIRECTION ( 'NONE',  ( 0.000000000000000000, 0.000000000000000000, -1.000000000000000000 ) ) ;
#522 = DIRECTION ( 'NONE',  ( 0.000000000000000000, -1.000000000000000000, 0.000000000000000000 ) ) ;
#523 = PRESENTATION_LAYER_ASSIGNMENT (  '', '', ( #398 ) ) ;
#524 = UNCERTAINTY_MEASURE_WITH_UNIT (LENGTH_MEASURE( 1.000000000000000082E-05 ), #139, 'distance_accuracy_value', 'NONE');
#525 = LINE ( 'NONE', #100, #364 ) ;
#526 = EDGE_CURVE ( 'NONE', #421, #425, #296, .T. ) ;
#527 =( GEOMETRIC_REPRESENTATION_CONTEXT ( 3 ) GLOBAL_UNCERTAINTY_ASSIGNED_CONTEXT ( ( #524 ) ) GLOBAL_UNIT_ASSIGNED_CONTEXT ( ( #139, #483, #150 ) ) REPRESENTATION_CONTEXT ( 'NONE', 'WORKASPACE' ) );
#528 = ADVANCED_FACE ( 'NONE', ( #423 ), #341, .T. ) ;
#529 = FILL_AREA_STYLE ('',( #34 ) ) ;
#530 = FACE_OUTER_BOUND ( 'NONE', #250, .T. ) ;
#531 = ADVANCED_FACE ( 'NONE', ( #85 ), #248, .T. ) ;
#532 = DIRECTION ( 'NONE',  ( 0.000000000000000000, 1.000000000000000000, 0.000000000000000000 ) ) ;
ENDSEC;
END-ISO-10303-21;
