%TF.GenerationSoftware,KiCad,Pcbnew,9.0.6*%
%TF.CreationDate,2026-02-12T01:09:25+01:00*%
%TF.ProjectId,2026_C_AV_PC_V1,32303236-5f43-45f4-9156-5f50435f5631,rev?*%
%TF.SameCoordinates,Original*%
%TF.FileFunction,Paste,Bot*%
%TF.FilePolarity,Positive*%
%FSLAX46Y46*%
G04 Gerber Fmt 4.6, Leading zero omitted, Abs format (unit mm)*
G04 Created by KiCad (PCBNEW 9.0.6) date 2026-02-12 01:09:25*
%MOMM*%
%LPD*%
G01*
G04 APERTURE LIST*
G04 Aperture macros list*
%AMRoundRect*
0 Rectangle with rounded corners*
0 $1 Rounding radius*
0 $2 $3 $4 $5 $6 $7 $8 $9 X,Y pos of 4 corners*
0 Add a 4 corners polygon primitive as box body*
4,1,4,$2,$3,$4,$5,$6,$7,$8,$9,$2,$3,0*
0 Add four circle primitives for the rounded corners*
1,1,$1+$1,$2,$3*
1,1,$1+$1,$4,$5*
1,1,$1+$1,$6,$7*
1,1,$1+$1,$8,$9*
0 Add four rect primitives between the rounded corners*
20,1,$1+$1,$2,$3,$4,$5,0*
20,1,$1+$1,$4,$5,$6,$7,0*
20,1,$1+$1,$6,$7,$8,$9,0*
20,1,$1+$1,$8,$9,$2,$3,0*%
G04 Aperture macros list end*
%ADD10RoundRect,0.200000X0.275000X-0.200000X0.275000X0.200000X-0.275000X0.200000X-0.275000X-0.200000X0*%
%ADD11RoundRect,0.200000X-0.200000X-0.275000X0.200000X-0.275000X0.200000X0.275000X-0.200000X0.275000X0*%
%ADD12RoundRect,0.200000X-0.275000X0.200000X-0.275000X-0.200000X0.275000X-0.200000X0.275000X0.200000X0*%
%ADD13RoundRect,0.050000X0.100000X-0.285000X0.100000X0.285000X-0.100000X0.285000X-0.100000X-0.285000X0*%
%ADD14RoundRect,0.225000X0.225000X0.250000X-0.225000X0.250000X-0.225000X-0.250000X0.225000X-0.250000X0*%
%ADD15RoundRect,0.225000X-0.250000X0.225000X-0.250000X-0.225000X0.250000X-0.225000X0.250000X0.225000X0*%
%ADD16RoundRect,0.225000X0.250000X-0.225000X0.250000X0.225000X-0.250000X0.225000X-0.250000X-0.225000X0*%
%ADD17RoundRect,0.243750X-0.456250X0.243750X-0.456250X-0.243750X0.456250X-0.243750X0.456250X0.243750X0*%
%ADD18RoundRect,0.150000X0.825000X0.150000X-0.825000X0.150000X-0.825000X-0.150000X0.825000X-0.150000X0*%
%ADD19RoundRect,0.200000X0.200000X0.275000X-0.200000X0.275000X-0.200000X-0.275000X0.200000X-0.275000X0*%
%ADD20RoundRect,0.250000X0.300000X0.300000X-0.300000X0.300000X-0.300000X-0.300000X0.300000X-0.300000X0*%
%ADD21RoundRect,0.050000X0.247487X0.106066X0.106066X0.247487X-0.247487X-0.106066X-0.106066X-0.247487X0*%
%ADD22RoundRect,0.225000X-0.225000X-0.250000X0.225000X-0.250000X0.225000X0.250000X-0.225000X0.250000X0*%
%ADD23RoundRect,0.050000X-0.100000X-0.250000X0.100000X-0.250000X0.100000X0.250000X-0.100000X0.250000X0*%
%ADD24RoundRect,0.140000X0.140000X0.170000X-0.140000X0.170000X-0.140000X-0.170000X0.140000X-0.170000X0*%
%ADD25RoundRect,0.150000X-0.150000X0.825000X-0.150000X-0.825000X0.150000X-0.825000X0.150000X0.825000X0*%
%ADD26RoundRect,0.112500X-0.112500X-0.237500X0.112500X-0.237500X0.112500X0.237500X-0.112500X0.237500X0*%
%ADD27R,1.000000X3.200000*%
%ADD28RoundRect,0.250000X-2.475000X0.712500X-2.475000X-0.712500X2.475000X-0.712500X2.475000X0.712500X0*%
%ADD29R,0.815000X0.500000*%
%ADD30R,0.765000X0.500000*%
%ADD31R,3.655000X4.310000*%
%ADD32RoundRect,0.150000X0.150000X-0.587500X0.150000X0.587500X-0.150000X0.587500X-0.150000X-0.587500X0*%
%ADD33RoundRect,0.050000X0.100000X0.250000X-0.100000X0.250000X-0.100000X-0.250000X0.100000X-0.250000X0*%
%ADD34RoundRect,0.150000X0.150000X0.200000X-0.150000X0.200000X-0.150000X-0.200000X0.150000X-0.200000X0*%
%ADD35R,1.525000X0.700000*%
%ADD36RoundRect,0.140000X-0.140000X-0.170000X0.140000X-0.170000X0.140000X0.170000X-0.140000X0.170000X0*%
%ADD37R,1.400000X0.300000*%
%ADD38RoundRect,0.250000X-0.550000X1.412500X-0.550000X-1.412500X0.550000X-1.412500X0.550000X1.412500X0*%
%ADD39RoundRect,0.112500X0.112500X0.237500X-0.112500X0.237500X-0.112500X-0.237500X0.112500X-0.237500X0*%
%ADD40RoundRect,0.050000X-0.247487X-0.106066X-0.106066X-0.247487X0.247487X0.106066X0.106066X0.247487X0*%
%ADD41RoundRect,0.225000X-0.225000X-0.375000X0.225000X-0.375000X0.225000X0.375000X-0.225000X0.375000X0*%
%ADD42R,0.350000X0.600000*%
%ADD43R,1.700000X1.100000*%
%ADD44R,3.200000X1.000000*%
%ADD45R,1.450000X0.450000*%
%ADD46RoundRect,0.062500X0.675000X0.062500X-0.675000X0.062500X-0.675000X-0.062500X0.675000X-0.062500X0*%
%ADD47R,2.300000X7.200000*%
%ADD48RoundRect,0.100000X0.225000X0.100000X-0.225000X0.100000X-0.225000X-0.100000X0.225000X-0.100000X0*%
%ADD49R,0.600000X0.250000*%
%ADD50RoundRect,0.250000X0.550000X-1.412500X0.550000X1.412500X-0.550000X1.412500X-0.550000X-1.412500X0*%
G04 APERTURE END LIST*
D10*
%TO.C,R8*%
X165800000Y-66375000D03*
X165800000Y-64725000D03*
%TD*%
D11*
%TO.C,R44*%
X87125000Y-76900000D03*
X88775000Y-76900000D03*
%TD*%
D12*
%TO.C,R24*%
X151680000Y-105875000D03*
X151680000Y-107525000D03*
%TD*%
D13*
%TO.C,U10*%
X171124900Y-104240000D03*
X170624900Y-104240000D03*
X170124900Y-104240000D03*
X169624900Y-104240000D03*
X169624900Y-102760000D03*
X170124900Y-102760000D03*
X170624900Y-102760000D03*
X171124900Y-102760000D03*
%TD*%
D14*
%TO.C,C37*%
X136600000Y-108100000D03*
X135050000Y-108100000D03*
%TD*%
D15*
%TO.C,C50*%
X162600000Y-105925000D03*
X162600000Y-107475000D03*
%TD*%
D11*
%TO.C,R49*%
X114125000Y-70850000D03*
X115775000Y-70850000D03*
%TD*%
D16*
%TO.C,C55*%
X170500000Y-93750000D03*
X170500000Y-92200000D03*
%TD*%
D17*
%TO.C,F1*%
X166650000Y-109362500D03*
X166650000Y-111237500D03*
%TD*%
D14*
%TO.C,C28*%
X171649900Y-107900000D03*
X170099900Y-107900000D03*
%TD*%
D10*
%TO.C,R5*%
X160150000Y-83025000D03*
X160150000Y-81375000D03*
%TD*%
D18*
%TO.C,U11*%
X122725000Y-65295000D03*
X122725000Y-66565000D03*
X122725000Y-67835000D03*
X122725000Y-69105000D03*
X117775000Y-69105000D03*
X117775000Y-67835000D03*
X117775000Y-66565000D03*
X117775000Y-65295000D03*
%TD*%
D11*
%TO.C,R29*%
X87125000Y-84700000D03*
X88775000Y-84700000D03*
%TD*%
D19*
%TO.C,R33*%
X170099900Y-106100000D03*
X168449900Y-106100000D03*
%TD*%
D10*
%TO.C,R9*%
X168500000Y-66375000D03*
X168500000Y-64725000D03*
%TD*%
%TO.C,R38*%
X151000000Y-66375000D03*
X151000000Y-64725000D03*
%TD*%
D11*
%TO.C,R7*%
X128125000Y-70900000D03*
X129775000Y-70900000D03*
%TD*%
D10*
%TO.C,R3*%
X173150000Y-66375000D03*
X173150000Y-64725000D03*
%TD*%
D12*
%TO.C,R58*%
X164400000Y-109275000D03*
X164400000Y-110925000D03*
%TD*%
D20*
%TO.C,D26*%
X98050000Y-69200000D03*
X95250000Y-69200000D03*
%TD*%
D19*
%TO.C,R6*%
X166475000Y-74000000D03*
X164825000Y-74000000D03*
%TD*%
D21*
%TO.C,D29*%
X187250000Y-83200000D03*
X186755026Y-82705026D03*
%TD*%
D22*
%TO.C,C24*%
X166525000Y-85200000D03*
X168075000Y-85200000D03*
%TD*%
D10*
%TO.C,R2*%
X175850000Y-66375000D03*
X175850000Y-64725000D03*
%TD*%
D11*
%TO.C,R30*%
X87125000Y-92500000D03*
X88775000Y-92500000D03*
%TD*%
D23*
%TO.C,D47*%
X117250000Y-70900000D03*
X117950000Y-70900000D03*
%TD*%
D12*
%TO.C,R50*%
X129650000Y-102225000D03*
X129650000Y-103875000D03*
%TD*%
D22*
%TO.C,C1*%
X160150000Y-74050000D03*
X161700000Y-74050000D03*
%TD*%
D19*
%TO.C,R48*%
X126375000Y-70900000D03*
X124725000Y-70900000D03*
%TD*%
D24*
%TO.C,C52*%
X110960000Y-85300000D03*
X110000000Y-85300000D03*
%TD*%
D19*
%TO.C,R1*%
X140375000Y-70900000D03*
X138725000Y-70900000D03*
%TD*%
D12*
%TO.C,R17*%
X121925000Y-100125000D03*
X121925000Y-101775000D03*
%TD*%
D19*
%TO.C,R37*%
X144275000Y-94050000D03*
X142625000Y-94050000D03*
%TD*%
D12*
%TO.C,R59*%
X162600000Y-109275000D03*
X162600000Y-110925000D03*
%TD*%
D25*
%TO.C,U3*%
X130460000Y-91250000D03*
X131730000Y-91250000D03*
X133000000Y-91250000D03*
X134270000Y-91250000D03*
X134270000Y-96200000D03*
X133000000Y-96200000D03*
X131730000Y-96200000D03*
X130460000Y-96200000D03*
%TD*%
D26*
%TO.C,D1*%
X138897500Y-66950000D03*
X140197500Y-66950000D03*
X139547500Y-68950000D03*
%TD*%
D27*
%TO.C,L1*%
X179350000Y-95650000D03*
X177150000Y-95650000D03*
%TD*%
D28*
%TO.C,F2*%
X95850000Y-102912500D03*
X95850000Y-109687500D03*
%TD*%
D29*
%TO.C,Q3*%
X119662000Y-85400000D03*
X119662000Y-84130000D03*
X119662000Y-82860000D03*
X119662000Y-81590000D03*
D30*
X125450000Y-81590000D03*
X125450000Y-82860000D03*
X125450000Y-84130000D03*
X125450000Y-85400000D03*
D31*
X123240000Y-83495000D03*
%TD*%
D29*
%TO.C,Q5*%
X125450000Y-74090000D03*
X125450000Y-75360000D03*
X125450000Y-76630000D03*
X125450000Y-77900000D03*
D30*
X119662000Y-77900000D03*
X119662000Y-76630000D03*
X119662000Y-75360000D03*
X119662000Y-74090000D03*
D31*
X121872000Y-75995000D03*
%TD*%
D19*
%TO.C,R41*%
X181250000Y-75900000D03*
X179600000Y-75900000D03*
%TD*%
D24*
%TO.C,C45*%
X110940000Y-86700000D03*
X109980000Y-86700000D03*
%TD*%
D14*
%TO.C,C25*%
X163125000Y-88950000D03*
X161575000Y-88950000D03*
%TD*%
D32*
%TO.C,Q1*%
X147000000Y-82460000D03*
X145100000Y-82460000D03*
X146050000Y-80585000D03*
%TD*%
D12*
%TO.C,R51*%
X129650000Y-105725000D03*
X129650000Y-107375000D03*
%TD*%
D33*
%TO.C,D43*%
X151350000Y-67900000D03*
X150650000Y-67900000D03*
%TD*%
D23*
%TO.C,D44*%
X153350000Y-67900000D03*
X154050000Y-67900000D03*
%TD*%
D10*
%TO.C,R10*%
X158400000Y-66375000D03*
X158400000Y-64725000D03*
%TD*%
D34*
%TO.C,D50*%
X138650000Y-100300000D03*
X140050000Y-100300000D03*
%TD*%
D23*
%TO.C,D60*%
X129300000Y-76100000D03*
X130000000Y-76100000D03*
%TD*%
%TO.C,D46*%
X145950000Y-67900000D03*
X146650000Y-67900000D03*
%TD*%
%TO.C,D42*%
X160750000Y-67900000D03*
X161450000Y-67900000D03*
%TD*%
D11*
%TO.C,R61*%
X167075000Y-95375000D03*
X168725000Y-95375000D03*
%TD*%
D35*
%TO.C,IC2*%
X106212000Y-79895000D03*
X106212000Y-81165000D03*
X106212000Y-82435000D03*
X106212000Y-83705000D03*
X100788000Y-83705000D03*
X100788000Y-82435000D03*
X100788000Y-81165000D03*
X100788000Y-79895000D03*
%TD*%
D16*
%TO.C,C7*%
X178325000Y-89625000D03*
X178325000Y-88075000D03*
%TD*%
D12*
%TO.C,R26*%
X110750000Y-65075000D03*
X110750000Y-66725000D03*
%TD*%
D15*
%TO.C,C5*%
X180325000Y-88075000D03*
X180325000Y-89625000D03*
%TD*%
D10*
%TO.C,R21*%
X146300000Y-87650000D03*
X146300000Y-86000000D03*
%TD*%
D36*
%TO.C,C47*%
X112150000Y-85306750D03*
X113110000Y-85306750D03*
%TD*%
D26*
%TO.C,D38*%
X124900000Y-66950000D03*
X126200000Y-66950000D03*
X125550000Y-68950000D03*
%TD*%
D19*
%TO.C,R36*%
X144275000Y-92100000D03*
X142625000Y-92100000D03*
%TD*%
D10*
%TO.C,R11*%
X161100000Y-66375000D03*
X161100000Y-64725000D03*
%TD*%
D19*
%TO.C,R35*%
X182875000Y-103850000D03*
X181225000Y-103850000D03*
%TD*%
D20*
%TO.C,D23*%
X98050000Y-76900000D03*
X95250000Y-76900000D03*
%TD*%
D33*
%TO.C,D49*%
X137250000Y-70900000D03*
X136550000Y-70900000D03*
%TD*%
%TO.C,D5*%
X166150000Y-67900000D03*
X165450000Y-67900000D03*
%TD*%
D11*
%TO.C,R32*%
X171749900Y-100950000D03*
X173399900Y-100950000D03*
%TD*%
D37*
%TO.C,IC7*%
X130150000Y-81450000D03*
X130150000Y-80950000D03*
X130150000Y-80450000D03*
X130150000Y-79950000D03*
X130150000Y-79450000D03*
X134550000Y-79450000D03*
X134550000Y-79950000D03*
X134550000Y-80450000D03*
X134550000Y-80950000D03*
X134550000Y-81450000D03*
%TD*%
D35*
%TO.C,IC5*%
X106187000Y-85560000D03*
X106187000Y-86830000D03*
X106187000Y-88100000D03*
X106187000Y-89370000D03*
X100763000Y-89370000D03*
X100763000Y-88100000D03*
X100763000Y-86830000D03*
X100763000Y-85560000D03*
%TD*%
D15*
%TO.C,C8*%
X178350000Y-84675000D03*
X178350000Y-86225000D03*
%TD*%
D38*
%TO.C,C51*%
X113050000Y-89162500D03*
X113050000Y-94237500D03*
%TD*%
D39*
%TO.C,D7*%
X137400000Y-97800000D03*
X136100000Y-97800000D03*
X136750000Y-95800000D03*
%TD*%
D10*
%TO.C,R47*%
X146300000Y-66375000D03*
X146300000Y-64725000D03*
%TD*%
D40*
%TO.C,D53*%
X188705026Y-82755026D03*
X189200000Y-83250000D03*
%TD*%
D10*
%TO.C,R60*%
X181350000Y-95925000D03*
X181350000Y-94275000D03*
%TD*%
D14*
%TO.C,C30*%
X173349900Y-106100000D03*
X171799900Y-106100000D03*
%TD*%
D26*
%TO.C,D39*%
X114300000Y-66950000D03*
X115600000Y-66950000D03*
X114950000Y-68950000D03*
%TD*%
D41*
%TO.C,D14*%
X144200000Y-76950000D03*
X147500000Y-76950000D03*
%TD*%
D33*
%TO.C,D9*%
X190350000Y-100300000D03*
X189650000Y-100300000D03*
%TD*%
D22*
%TO.C,C3*%
X138625000Y-106800000D03*
X140175000Y-106800000D03*
%TD*%
D12*
%TO.C,R23*%
X149000000Y-81435000D03*
X149000000Y-83085000D03*
%TD*%
D20*
%TO.C,D34*%
X98050000Y-92500000D03*
X95250000Y-92500000D03*
%TD*%
D19*
%TO.C,R62*%
X144275000Y-90100000D03*
X142625000Y-90100000D03*
%TD*%
D10*
%TO.C,R4*%
X161900000Y-83025000D03*
X161900000Y-81375000D03*
%TD*%
D42*
%TO.C,IC9*%
X165600000Y-107750000D03*
X164950000Y-107750000D03*
X164300000Y-107750000D03*
X164300000Y-105650000D03*
X164950000Y-105650000D03*
X165600000Y-105650000D03*
D43*
X164950000Y-106700000D03*
%TD*%
D19*
%TO.C,R40*%
X133225000Y-108100000D03*
X131575000Y-108100000D03*
%TD*%
D33*
%TO.C,D48*%
X123250000Y-70900000D03*
X122550000Y-70900000D03*
%TD*%
%TO.C,D45*%
X143950000Y-67900000D03*
X143250000Y-67900000D03*
%TD*%
D26*
%TO.C,D6*%
X136100000Y-92250000D03*
X137400000Y-92250000D03*
X136750000Y-94250000D03*
%TD*%
D44*
%TO.C,L2*%
X139875000Y-104650000D03*
X139875000Y-102450000D03*
%TD*%
D45*
%TO.C,IC6*%
X131850000Y-105925000D03*
X131850000Y-105275000D03*
X131850000Y-104625000D03*
X131850000Y-103975000D03*
X136300000Y-103975000D03*
X136300000Y-104625000D03*
X136300000Y-105275000D03*
X136300000Y-105925000D03*
%TD*%
D14*
%TO.C,C2*%
X131725000Y-98600000D03*
X130175000Y-98600000D03*
%TD*%
D23*
%TO.C,D4*%
X131250000Y-70900000D03*
X131950000Y-70900000D03*
%TD*%
D46*
%TO.C,U2*%
X166150000Y-75495000D03*
X166150000Y-75895000D03*
X166150000Y-76295000D03*
X166150000Y-76695000D03*
X166150000Y-77095000D03*
X166150000Y-77495000D03*
X166150000Y-77895000D03*
X166150000Y-78295000D03*
X166150000Y-78695000D03*
X166150000Y-79095000D03*
X166150000Y-79495000D03*
X166150000Y-79895000D03*
X160425000Y-79895000D03*
X160425000Y-79495000D03*
X160425000Y-79095000D03*
X160425000Y-78695000D03*
X160425000Y-78295000D03*
X160425000Y-77895000D03*
X160425000Y-77495000D03*
X160425000Y-77095000D03*
X160425000Y-76695000D03*
X160425000Y-76295000D03*
X160425000Y-75895000D03*
X160425000Y-75495000D03*
%TD*%
D47*
%TO.C,L3*%
X115600000Y-77550000D03*
X110500000Y-77550000D03*
%TD*%
D10*
%TO.C,R34*%
X167774900Y-104325000D03*
X167774900Y-102675000D03*
%TD*%
D19*
%TO.C,R43*%
X181250000Y-70950000D03*
X179600000Y-70950000D03*
%TD*%
D16*
%TO.C,C9*%
X176300000Y-86225000D03*
X176300000Y-84675000D03*
%TD*%
D12*
%TO.C,R45*%
X121900000Y-108675000D03*
X121900000Y-110325000D03*
%TD*%
D22*
%TO.C,C10*%
X87575000Y-100250000D03*
X89125000Y-100250000D03*
%TD*%
%TO.C,C29*%
X168450000Y-100950000D03*
X170000000Y-100950000D03*
%TD*%
D33*
%TO.C,D41*%
X173500000Y-67900000D03*
X172800000Y-67900000D03*
%TD*%
D10*
%TO.C,R31*%
X87150000Y-97225000D03*
X87150000Y-95575000D03*
%TD*%
D11*
%TO.C,R20*%
X155950000Y-97150000D03*
X157600000Y-97150000D03*
%TD*%
D33*
%TO.C,D59*%
X128200000Y-76100000D03*
X127500000Y-76100000D03*
%TD*%
D48*
%TO.C,U4*%
X168850000Y-92325000D03*
X168850000Y-92975000D03*
X168850000Y-93625000D03*
X166950000Y-93625000D03*
X166950000Y-92325000D03*
%TD*%
D19*
%TO.C,R19*%
X168125000Y-87050000D03*
X166475000Y-87050000D03*
%TD*%
D36*
%TO.C,C46*%
X112150000Y-86650000D03*
X113110000Y-86650000D03*
%TD*%
D19*
%TO.C,R42*%
X181250000Y-73450000D03*
X179600000Y-73450000D03*
%TD*%
D15*
%TO.C,C6*%
X176325000Y-88075000D03*
X176325000Y-89625000D03*
%TD*%
D49*
%TO.C,D8*%
X131600000Y-84800000D03*
X131600000Y-85300000D03*
X131600000Y-85800000D03*
X131600000Y-86300000D03*
X131600000Y-86800000D03*
X130750000Y-86800000D03*
X130750000Y-86300000D03*
X130750000Y-85800000D03*
X130750000Y-85300000D03*
X130750000Y-84800000D03*
%TD*%
D18*
%TO.C,U1*%
X136725000Y-65295000D03*
X136725000Y-66565000D03*
X136725000Y-67835000D03*
X136725000Y-69105000D03*
X131775000Y-69105000D03*
X131775000Y-67835000D03*
X131775000Y-66565000D03*
X131775000Y-65295000D03*
%TD*%
D23*
%TO.C,D37*%
X168150000Y-67900000D03*
X168850000Y-67900000D03*
%TD*%
D15*
%TO.C,C54*%
X165350000Y-92200000D03*
X165350000Y-93750000D03*
%TD*%
D20*
%TO.C,D33*%
X98050000Y-84700000D03*
X95250000Y-84700000D03*
%TD*%
D10*
%TO.C,R46*%
X143600000Y-66375000D03*
X143600000Y-64725000D03*
%TD*%
D11*
%TO.C,R12*%
X127425000Y-96750000D03*
X129075000Y-96750000D03*
%TD*%
D10*
%TO.C,R39*%
X153700000Y-66375000D03*
X153700000Y-64725000D03*
%TD*%
D23*
%TO.C,D3*%
X175500000Y-67900000D03*
X176200000Y-67900000D03*
%TD*%
D26*
%TO.C,D2*%
X128300000Y-66950000D03*
X129600000Y-66950000D03*
X128950000Y-68950000D03*
%TD*%
D19*
%TO.C,R63*%
X163200000Y-87000000D03*
X161550000Y-87000000D03*
%TD*%
D50*
%TO.C,C42*%
X120700000Y-94487500D03*
X120700000Y-89412500D03*
%TD*%
D33*
%TO.C,D40*%
X158750000Y-67900000D03*
X158050000Y-67900000D03*
%TD*%
D11*
%TO.C,R18*%
X166475000Y-83300000D03*
X168125000Y-83300000D03*
%TD*%
D16*
%TO.C,C33*%
X174800000Y-96725000D03*
X174800000Y-95175000D03*
%TD*%
D10*
%TO.C,R25*%
X143200000Y-83285000D03*
X143200000Y-81635000D03*
%TD*%
D14*
%TO.C,C35*%
X134850000Y-102100000D03*
X133300000Y-102100000D03*
%TD*%
D12*
%TO.C,R16*%
X121900000Y-104725000D03*
X121900000Y-106375000D03*
%TD*%
D14*
%TO.C,C4*%
X136575000Y-100300000D03*
X135025000Y-100300000D03*
%TD*%
M02*
