M48
; DRILL file {KiCad 9.0.6} date 2026-02-12T01:09:22+0100
; FORMAT={-:-/ absolute / metric / decimal}
; #@! TF.CreationDate,2026-02-12T01:09:22+01:00
; #@! TF.GenerationSoftware,Kicad,Pcbnew,9.0.6
; #@! TF.FileFunction,MixedPlating,1,4
FMAT,2
METRIC
; #@! TA.AperFunction,Plated,PTH,ViaDrill
T1C0.300
; #@! TA.AperFunction,Plated,PTH,ComponentDrill
T2C0.550
; #@! TA.AperFunction,Plated,PTH,ComponentDrill
T3C0.700
; #@! TA.AperFunction,Plated,PTH,ComponentDrill
T4C1.000
; #@! TA.AperFunction,Plated,PTH,ComponentDrill
T5C1.100
; #@! TA.AperFunction,Plated,PTH,ComponentDrill
T6C1.250
; #@! TA.AperFunction,Plated,PTH,ComponentDrill
T7C1.300
; #@! TA.AperFunction,Plated,PTH,ComponentDrill
T8C2.200
; #@! TA.AperFunction,Plated,PTH,ComponentDrill
T9C2.700
; #@! TA.AperFunction,Plated,PTH,ComponentDrill
T10C3.000
; #@! TA.AperFunction,Plated,PTH,ComponentDrill
T11C4.550
; #@! TA.AperFunction,NonPlated,NPTH,ComponentDrill
T12C0.900
; #@! TA.AperFunction,NonPlated,NPTH,ComponentDrill
T13C1.000
; #@! TA.AperFunction,NonPlated,NPTH,ComponentDrill
T14C1.750
%
G90
G05
T1
X86.9Y-94.45
X87.15Y-73.787
X87.15Y-81.587
X87.15Y-89.388
X87.15Y-97.188
X87.55Y-99.2
X88.1Y-76.9
X88.1Y-84.75
X88.1Y-92.5
X88.6Y-104.65
X90.45Y-102.75
X90.6Y-100.25
X93.85Y-109.15
X93.85Y-110.1
X93.9Y-99.85
X95.1Y-109.15
X95.1Y-110.1
X95.15Y-99.85
X96.5Y-109.15
X96.5Y-110.1
X96.55Y-99.85
X97.85Y-109.15
X97.85Y-110.1
X97.9Y-99.85
X99.25Y-79.25
X99.25Y-86.85
X99.785Y-91.281
X99.9Y-90.35
X100.925Y-81.165
X100.925Y-83.705
X101.0Y-86.83
X101.0Y-89.37
X103.233Y-79.77
X103.3Y-90.273
X104.096Y-79.513
X104.539Y-81.798
X106.65Y-96.45
X106.9Y-92.2
X107.379Y-88.677
X107.6Y-79.25
X107.8Y-86.2
X108.123Y-87.4
X109.726Y-66.96
X110.0Y-86.0
X110.25Y-94.95
X110.75Y-65.075
X112.65Y-93.0
X112.65Y-93.8
X112.65Y-94.65
X112.65Y-95.45
X112.7Y-88.1
X112.7Y-90.2
X113.05Y-89.162
X113.11Y-85.957
X113.4Y-93.0
X113.4Y-93.8
X113.4Y-94.65
X113.4Y-95.45
X113.45Y-88.1
X113.45Y-90.2
X113.8Y-66.35
X114.95Y-65.5
X115.4Y-78.45
X115.4Y-79.55
X116.2Y-78.45
X116.2Y-79.55
X116.25Y-68.15
X116.9Y-86.7
X117.95Y-69.95
X117.95Y-71.6
X118.15Y-94.45
X118.6Y-98.05
X118.8Y-96.85
X119.662Y-81.59
X119.95Y-79.225
X120.35Y-93.3
X120.35Y-94.1
X120.35Y-94.9
X120.35Y-95.7
X120.45Y-98.3
X120.563Y-110.537
X120.7Y-88.15
X120.7Y-89.0
X120.7Y-89.8
X120.7Y-90.65
X120.85Y-106.4
X120.875Y-101.782
X121.1Y-93.3
X121.1Y-94.1
X121.1Y-94.9
X121.1Y-95.7
X121.9Y-100.15
X121.9Y-104.762
X121.9Y-109.375
X122.2Y-70.4
X122.95Y-78.975
X123.24Y-83.495
X123.25Y-69.15
X123.25Y-81.9
X123.25Y-82.7
X123.25Y-84.3
X123.25Y-85.15
X123.6Y-92.55
X123.887Y-70.403
X124.25Y-78.85
X124.35Y-81.9
X124.35Y-82.7
X124.35Y-83.5
X124.35Y-84.3
X124.35Y-85.15
X124.478Y-66.483
X125.25Y-99.05
X125.45Y-74.75
X125.45Y-76.05
X125.55Y-65.5
X125.7Y-107.9
X126.85Y-76.1
X127.577Y-102.455
X127.828Y-66.374
X128.225Y-107.525
X128.4Y-100.175
X128.95Y-65.5
X129.05Y-98.45
X129.275Y-101.368
X129.65Y-108.4
X130.25Y-68.127
X130.5Y-94.6
X130.75Y-76.1
X130.75Y-103.95
X131.0Y-101.55
X131.758Y-82.808
X131.95Y-70.0
X132.002Y-92.764
X132.55Y-70.9
X132.723Y-81.75
X132.723Y-84.95
X132.9Y-94.6
X133.3Y-102.9
X133.372Y-79.873
X134.3Y-100.3
X134.45Y-98.15
X134.55Y-89.6
X135.076Y-95.774
X135.35Y-93.2
X135.45Y-91.8
X136.65Y-87.6
X136.75Y-92.9
X136.858Y-98.187
X137.25Y-69.1
X137.43Y-90.78
X137.45Y-84.6
X137.7Y-108.1
X137.85Y-79.7
X137.915Y-70.382
X138.444Y-66.417
X138.51Y-92.873
X139.55Y-65.5
X139.642Y-92.442
X139.9Y-104.65
X139.925Y-83.575
X140.2Y-97.0
X140.2Y-107.85
X140.9Y-76.45
X141.35Y-88.0
X141.7Y-94.1
X141.75Y-90.1
X141.75Y-92.1
X143.05Y-68.75
X143.85Y-97.0
X143.95Y-86.43
X144.215Y-81.635
X144.7Y-100.25
X144.95Y-89.15
X145.45Y-87.062
X145.5Y-110.75
X146.06Y-88.6
X146.9Y-68.75
X147.5Y-90.164
X147.887Y-92.047
X147.9Y-94.05
X148.167Y-100.417
X148.2Y-85.9
X149.218Y-88.977
X149.4Y-75.7
X149.45Y-93.1
X149.65Y-92.0
X150.065Y-88.577
X150.25Y-81.45
X150.45Y-68.75
X150.95Y-88.3
X151.05Y-104.65
X151.4Y-75.7
X151.68Y-105.912
X152.68Y-86.2
X153.25Y-92.9
X153.306Y-92.002
X153.5Y-78.55
X153.967Y-75.714
X154.25Y-106.475
X154.25Y-109.0
X154.25Y-111.925
X154.3Y-68.7
X154.65Y-76.3
X155.7Y-78.55
X155.9Y-93.05
X156.012Y-97.15
X156.05Y-82.8
X156.25Y-87.223
X156.35Y-86.277
X156.35Y-90.75
X156.887Y-88.275
X156.919Y-89.46
X156.986Y-91.386
X157.077Y-80.05
X157.132Y-87.409
X157.156Y-85.877
X157.35Y-92.6
X157.58Y-88.849
X158.0Y-68.7
X158.1Y-85.877
X158.3Y-102.95
X158.45Y-80.0
X158.6Y-97.15
X158.7Y-111.95
X158.75Y-109.0
X159.15Y-74.202
X159.2Y-98.3
X159.45Y-86.35
X159.517Y-97.167
X160.15Y-81.375
X161.0Y-82.777
X161.373Y-96.601
X161.55Y-68.65
X161.7Y-74.9
X161.75Y-106.2
X161.9Y-81.375
X161.958Y-97.35
X162.061Y-75.725
X162.728Y-96.722
X162.85Y-91.073
X163.15Y-111.925
X163.614Y-96.336
X163.75Y-91.073
X164.132Y-92.634
X164.25Y-95.7
X164.36Y-88.66
X164.5Y-106.75
X164.579Y-79.973
X164.81Y-73.924
X165.3Y-110.95
X165.35Y-68.65
X165.4Y-106.75
X165.45Y-80.2
X166.05Y-104.35
X166.5Y-86.2
X166.829Y-80.779
X167.2Y-88.25
X167.45Y-75.323
X167.5Y-91.75
X167.527Y-80.15
X167.8Y-97.75
X168.075Y-101.775
X168.4Y-91.4
X168.727Y-80.3
X168.9Y-68.65
X169.028Y-78.288
X169.52Y-79.347
X169.6Y-93.0
X170.4Y-77.6
X170.95Y-109.05
X170.95Y-111.9
X171.35Y-78.1
X171.55Y-89.25
X171.7Y-104.25
X171.986Y-102.715
X172.475Y-107.925
X172.65Y-68.65
X174.575Y-101.925
X174.8Y-95.175
X174.8Y-96.725
X175.1Y-87.8
X175.4Y-106.475
X175.4Y-109.05
X175.4Y-111.925
X175.75Y-92.95
X175.775Y-83.865
X176.4Y-68.65
X177.112Y-89.089
X177.296Y-95.682
X177.3Y-66.65
X177.331Y-87.269
X178.35Y-86.2
X178.35Y-87.4
X178.7Y-90.7
X179.1Y-85.15
X179.1Y-104.55
X179.15Y-92.25
X179.18Y-72.459
X179.245Y-69.945
X179.251Y-74.893
X179.35Y-102.05
X179.383Y-89.076
X181.213Y-70.95
X181.213Y-75.9
X181.25Y-73.45
X181.35Y-93.4
X181.399Y-104.875
X181.4Y-87.75
X182.1Y-82.6
X182.5Y-97.1
X182.838Y-103.85
X183.2Y-89.05
X183.2Y-100.65
X184.6Y-86.85
X185.325Y-85.125
X186.3Y-82.25
X186.8Y-90.45
X188.75Y-100.3
X190.0Y-82.85
T2
X103.362Y-93.4
X104.612Y-93.4
X128.0Y-77.7
X129.25Y-77.7
X135.6Y-77.7
X136.85Y-77.7
T3
X111.3Y-69.9
X124.3Y-97.5
X124.3Y-100.75
X124.3Y-105.35
X124.3Y-109.95
X125.3Y-94.35
X127.8Y-94.35
X130.4Y-73.0
X133.55Y-73.0
X136.65Y-73.05
X139.75Y-73.05
X148.1Y-96.6
X162.65Y-102.6
X165.35Y-102.6
X176.45Y-80.23
X180.7Y-80.23
X186.3Y-104.6
X187.05Y-88.5
T4
X143.25Y-79.55
X143.95Y-70.0
X143.95Y-72.0
X145.95Y-70.0
X145.95Y-72.0
X148.25Y-79.55
X151.35Y-70.0
X151.35Y-72.0
X153.35Y-70.0
X153.35Y-72.0
X158.75Y-70.0
X158.75Y-72.0
X160.75Y-70.0
X160.75Y-72.0
X166.15Y-70.0
X166.15Y-72.0
X168.15Y-70.0
X168.15Y-72.0
X173.5Y-70.0
X173.5Y-72.0
X175.5Y-70.0
X175.5Y-72.0
T5
X127.4Y-82.7
X127.4Y-85.2
X127.4Y-87.7
X127.4Y-90.2
T6
X104.2Y-72.95
X104.2Y-75.45
X106.7Y-72.95
X106.7Y-75.45
T7
X190.55Y-78.925
X190.55Y-81.075
X190.55Y-95.925
X190.55Y-98.075
X192.5Y-78.3
X192.5Y-81.7
X192.5Y-95.3
X192.5Y-98.7
T8
X88.8Y-66.9
X88.8Y-109.9
X181.8Y-66.9
X181.8Y-109.9
T9
X91.1Y-73.0
X91.1Y-80.8
X91.1Y-88.6
X91.1Y-96.4
X96.1Y-73.0
X96.1Y-80.8
X96.1Y-88.6
X96.1Y-96.4
T10
X192.0Y-73.75
X192.0Y-86.25
X192.0Y-90.75
X192.0Y-103.25
T11
X103.95Y-100.1
X103.95Y-107.3
X115.05Y-100.1
X115.05Y-107.3
T12
X146.55Y-111.26
X149.55Y-111.26
T13
X156.5Y-109.075
X160.9Y-109.075
X168.75Y-109.075
X173.15Y-109.075
T14
X104.2Y-65.77
X106.7Y-65.77
M30
