%TF.GenerationSoftware,KiCad,Pcbnew,9.0.6*%
%TF.CreationDate,2026-02-12T01:09:26+01:00*%
%TF.ProjectId,2026_C_AV_PC_V1,32303236-5f43-45f4-9156-5f50435f5631,rev?*%
%TF.SameCoordinates,Original*%
%TF.FileFunction,Soldermask,Top*%
%TF.FilePolarity,Negative*%
%FSLAX46Y46*%
G04 Gerber Fmt 4.6, Leading zero omitted, Abs format (unit mm)*
G04 Created by KiCad (PCBNEW 9.0.6) date 2026-02-12 01:09:26*
%MOMM*%
%LPD*%
G01*
G04 APERTURE LIST*
G04 Aperture macros list*
%AMRoundRect*
0 Rectangle with rounded corners*
0 $1 Rounding radius*
0 $2 $3 $4 $5 $6 $7 $8 $9 X,Y pos of 4 corners*
0 Add a 4 corners polygon primitive as box body*
4,1,4,$2,$3,$4,$5,$6,$7,$8,$9,$2,$3,0*
0 Add four circle primitives for the rounded corners*
1,1,$1+$1,$2,$3*
1,1,$1+$1,$4,$5*
1,1,$1+$1,$6,$7*
1,1,$1+$1,$8,$9*
0 Add four rect primitives between the rounded corners*
20,1,$1+$1,$2,$3,$4,$5,0*
20,1,$1+$1,$4,$5,$6,$7,0*
20,1,$1+$1,$6,$7,$8,$9,0*
20,1,$1+$1,$8,$9,$2,$3,0*%
%AMFreePoly0*
4,1,23,0.500000,-0.750000,0.000000,-0.750000,0.000000,-0.745722,-0.065263,-0.745722,-0.191342,-0.711940,-0.304381,-0.646677,-0.396677,-0.554381,-0.461940,-0.441342,-0.495722,-0.315263,-0.495722,-0.250000,-0.500000,-0.250000,-0.500000,0.250000,-0.495722,0.250000,-0.495722,0.315263,-0.461940,0.441342,-0.396677,0.554381,-0.304381,0.646677,-0.191342,0.711940,-0.065263,0.745722,0.000000,0.745722,
0.000000,0.750000,0.500000,0.750000,0.500000,-0.750000,0.500000,-0.750000,$1*%
%AMFreePoly1*
4,1,23,0.000000,0.745722,0.065263,0.745722,0.191342,0.711940,0.304381,0.646677,0.396677,0.554381,0.461940,0.441342,0.495722,0.315263,0.495722,0.250000,0.500000,0.250000,0.500000,-0.250000,0.495722,-0.250000,0.495722,-0.315263,0.461940,-0.441342,0.396677,-0.554381,0.304381,-0.646677,0.191342,-0.711940,0.065263,-0.745722,0.000000,-0.745722,0.000000,-0.750000,-0.500000,-0.750000,
-0.500000,0.750000,0.000000,0.750000,0.000000,0.745722,0.000000,0.745722,$1*%
G04 Aperture macros list end*
%ADD10RoundRect,0.218750X-0.218750X-0.256250X0.218750X-0.256250X0.218750X0.256250X-0.218750X0.256250X0*%
%ADD11C,6.204000*%
%ADD12RoundRect,0.102000X3.000000X-3.000000X3.000000X3.000000X-3.000000X3.000000X-3.000000X-3.000000X0*%
%ADD13RoundRect,0.218750X0.218750X0.256250X-0.218750X0.256250X-0.218750X-0.256250X0.218750X-0.256250X0*%
%ADD14RoundRect,0.067500X0.157500X0.157500X-0.157500X0.157500X-0.157500X-0.157500X0.157500X-0.157500X0*%
%ADD15RoundRect,0.150000X-0.825000X-0.150000X0.825000X-0.150000X0.825000X0.150000X-0.825000X0.150000X0*%
%ADD16RoundRect,0.050000X0.150000X0.300000X-0.150000X0.300000X-0.150000X-0.300000X0.150000X-0.300000X0*%
%ADD17RoundRect,0.218750X-0.256250X0.218750X-0.256250X-0.218750X0.256250X-0.218750X0.256250X0.218750X0*%
%ADD18FreePoly0,90.000000*%
%ADD19FreePoly1,90.000000*%
%ADD20RoundRect,0.250000X0.450000X-0.262500X0.450000X0.262500X-0.450000X0.262500X-0.450000X-0.262500X0*%
%ADD21R,2.000000X2.000000*%
%ADD22C,2.000000*%
%ADD23RoundRect,0.102000X0.900000X-0.900000X0.900000X0.900000X-0.900000X0.900000X-0.900000X-0.900000X0*%
%ADD24C,2.004000*%
%ADD25C,4.204000*%
%ADD26RoundRect,0.050000X-0.150000X-0.300000X0.150000X-0.300000X0.150000X0.300000X-0.150000X0.300000X0*%
%ADD27RoundRect,0.250000X-0.250000X-0.475000X0.250000X-0.475000X0.250000X0.475000X-0.250000X0.475000X0*%
%ADD28RoundRect,0.050000X0.300000X-0.150000X0.300000X0.150000X-0.300000X0.150000X-0.300000X-0.150000X0*%
%ADD29RoundRect,0.140000X0.021213X-0.219203X0.219203X-0.021213X-0.021213X0.219203X-0.219203X0.021213X0*%
%ADD30RoundRect,0.140000X0.140000X0.170000X-0.140000X0.170000X-0.140000X-0.170000X0.140000X-0.170000X0*%
%ADD31R,0.300000X1.400000*%
%ADD32R,2.510000X1.000000*%
%ADD33RoundRect,0.200000X-0.200000X-0.275000X0.200000X-0.275000X0.200000X0.275000X-0.200000X0.275000X0*%
%ADD34R,0.650000X1.500000*%
%ADD35R,1.200000X1.800000*%
%ADD36RoundRect,0.200000X-0.275000X0.200000X-0.275000X-0.200000X0.275000X-0.200000X0.275000X0.200000X0*%
%ADD37C,1.500000*%
%ADD38R,1.500000X1.500000*%
%ADD39R,3.800000X3.800000*%
%ADD40C,3.800000*%
%ADD41C,1.000000*%
%ADD42R,0.500000X2.000000*%
%ADD43R,2.000000X1.700000*%
%ADD44RoundRect,0.225000X-0.017678X0.335876X-0.335876X0.017678X0.017678X-0.335876X0.335876X-0.017678X0*%
%ADD45RoundRect,0.075000X-0.725000X-0.075000X0.725000X-0.075000X0.725000X0.075000X-0.725000X0.075000X0*%
%ADD46RoundRect,0.075000X-0.075000X-0.725000X0.075000X-0.725000X0.075000X0.725000X-0.075000X0.725000X0*%
%ADD47R,0.900000X1.700000*%
%ADD48RoundRect,0.140000X0.170000X-0.140000X0.170000X0.140000X-0.170000X0.140000X-0.170000X-0.140000X0*%
%ADD49RoundRect,0.218750X0.256250X-0.218750X0.256250X0.218750X-0.256250X0.218750X-0.256250X-0.218750X0*%
%ADD50RoundRect,0.225000X0.250000X-0.225000X0.250000X0.225000X-0.250000X0.225000X-0.250000X-0.225000X0*%
%ADD51R,0.700000X1.200000*%
%ADD52R,1.000000X1.200000*%
%ADD53R,1.000000X0.800000*%
%ADD54R,1.000000X2.800000*%
%ADD55R,1.300000X1.900000*%
%ADD56R,0.550000X0.350000*%
%ADD57RoundRect,0.093750X-0.093750X0.156250X-0.093750X-0.156250X0.093750X-0.156250X0.093750X0.156250X0*%
%ADD58RoundRect,0.075000X-0.075000X0.250000X-0.075000X-0.250000X0.075000X-0.250000X0.075000X0.250000X0*%
%ADD59RoundRect,0.140000X-0.140000X-0.170000X0.140000X-0.170000X0.140000X0.170000X-0.140000X0.170000X0*%
%ADD60R,1.400000X0.450000*%
%ADD61C,0.900000*%
%ADD62R,0.700000X1.500000*%
%ADD63RoundRect,0.140000X0.219203X0.021213X0.021213X0.219203X-0.219203X-0.021213X-0.021213X-0.219203X0*%
%ADD64RoundRect,0.225000X-0.250000X0.225000X-0.250000X-0.225000X0.250000X-0.225000X0.250000X0.225000X0*%
%ADD65C,1.750000*%
%ADD66C,1.875000*%
%ADD67C,4.400000*%
%ADD68R,1.526000X0.435000*%
%ADD69R,1.650000X1.650000*%
%ADD70C,1.650000*%
%ADD71R,1.525000X0.700000*%
%ADD72R,1.750000X0.600000*%
%ADD73RoundRect,0.200000X0.275000X-0.200000X0.275000X0.200000X-0.275000X0.200000X-0.275000X-0.200000X0*%
%ADD74RoundRect,0.200000X0.250000X0.200000X-0.250000X0.200000X-0.250000X-0.200000X0.250000X-0.200000X0*%
%ADD75RoundRect,0.225000X0.225000X0.250000X-0.225000X0.250000X-0.225000X-0.250000X0.225000X-0.250000X0*%
%ADD76RoundRect,0.150000X0.512500X0.150000X-0.512500X0.150000X-0.512500X-0.150000X0.512500X-0.150000X0*%
%ADD77RoundRect,0.225000X-0.225000X-0.250000X0.225000X-0.250000X0.225000X0.250000X-0.225000X0.250000X0*%
%ADD78RoundRect,0.050000X-0.300000X0.150000X-0.300000X-0.150000X0.300000X-0.150000X0.300000X0.150000X0*%
%ADD79RoundRect,0.250000X0.250000X0.475000X-0.250000X0.475000X-0.250000X-0.475000X0.250000X-0.475000X0*%
%ADD80RoundRect,0.200000X0.200000X0.275000X-0.200000X0.275000X-0.200000X-0.275000X0.200000X-0.275000X0*%
G04 APERTURE END LIST*
%TO.C,JP3*%
G36*
X179800000Y-100150000D02*
G01*
X181300000Y-100150000D01*
X181300000Y-99850000D01*
X179800000Y-99850000D01*
X179800000Y-100150000D01*
G37*
%TO.C,JP4*%
G36*
X182450000Y-100150000D02*
G01*
X183950000Y-100150000D01*
X183950000Y-99850000D01*
X182450000Y-99850000D01*
X182450000Y-100150000D01*
G37*
%TD*%
D10*
%TO.C,D13*%
X156012500Y-97150000D03*
X157587500Y-97150000D03*
%TD*%
D11*
%TO.C,J8*%
X103950000Y-100100000D03*
D12*
X103950000Y-107300000D03*
%TD*%
D13*
%TO.C,FB1*%
X152035508Y-93001992D03*
X150460508Y-93001992D03*
%TD*%
D14*
%TO.C,U7*%
X154900000Y-103125000D03*
X154900000Y-103975000D03*
X154050000Y-103975000D03*
X154050000Y-103125000D03*
%TD*%
D15*
%TO.C,U5*%
X175775000Y-88450000D03*
X175775000Y-89720000D03*
X175775000Y-90990000D03*
X175775000Y-92260000D03*
X180725000Y-92260000D03*
X180725000Y-90990000D03*
X180725000Y-89720000D03*
X180725000Y-88450000D03*
%TD*%
D16*
%TO.C,D55*%
X184600000Y-89050000D03*
X183900000Y-89050000D03*
%TD*%
D17*
%TO.C,D12*%
X121900000Y-100150000D03*
X121900000Y-101725000D03*
%TD*%
D18*
%TO.C,JP3*%
X180550000Y-100650000D03*
D19*
X180550000Y-99350000D03*
%TD*%
D15*
%TO.C,Q4*%
X100925000Y-79895000D03*
X100925000Y-81165000D03*
X100925000Y-82435000D03*
X100925000Y-83705000D03*
X105875000Y-83705000D03*
X105875000Y-82435000D03*
X105875000Y-81165000D03*
X105875000Y-79895000D03*
%TD*%
D20*
%TO.C,R14*%
X95850000Y-106712500D03*
X95850000Y-104887500D03*
%TD*%
D21*
%TO.C,BZ1*%
X143250000Y-79550000D03*
D22*
X148250000Y-79550000D03*
%TD*%
D23*
%TO.C,J15*%
X192500000Y-78300000D03*
D24*
X190550000Y-78925000D03*
X190550000Y-81075000D03*
X192500000Y-81700000D03*
D25*
X192000000Y-86250000D03*
X192000000Y-73750000D03*
%TD*%
D26*
%TO.C,D54*%
X185350000Y-90600000D03*
X186050000Y-90600000D03*
%TD*%
D13*
%TO.C,D56*%
X148487500Y-90100000D03*
X146912500Y-90100000D03*
%TD*%
D27*
%TO.C,C41*%
X121700000Y-87950000D03*
X123600000Y-87950000D03*
%TD*%
D17*
%TO.C,D11*%
X121900000Y-104762500D03*
X121900000Y-106337500D03*
%TD*%
D28*
%TO.C,D64*%
X134650000Y-94700000D03*
X134650000Y-94000000D03*
%TD*%
D29*
%TO.C,C17*%
X169810589Y-94339411D03*
X170489411Y-93660589D03*
%TD*%
D30*
%TO.C,C18*%
X152680000Y-84800000D03*
X151720000Y-84800000D03*
%TD*%
D31*
%TO.C,IC1*%
X88600000Y-105900000D03*
X89100000Y-105900000D03*
X89600000Y-105900000D03*
X90100000Y-105900000D03*
X90600000Y-105900000D03*
X90600000Y-101500000D03*
X90100000Y-101500000D03*
X89600000Y-101500000D03*
X89100000Y-101500000D03*
X88600000Y-101500000D03*
%TD*%
D28*
%TO.C,D57*%
X139000000Y-94700000D03*
X139000000Y-94000000D03*
%TD*%
D32*
%TO.C,J18*%
X137430000Y-90780000D03*
X134120000Y-88240000D03*
X137430000Y-85700000D03*
X134120000Y-83160000D03*
X137430000Y-80620000D03*
%TD*%
D33*
%TO.C,R28*%
X111850000Y-83690000D03*
X113500000Y-83690000D03*
%TD*%
D34*
%TO.C,J25*%
X117250000Y-69200000D03*
X116250000Y-69200000D03*
D35*
X118550000Y-65300000D03*
X114950000Y-65300000D03*
%TD*%
D33*
%TO.C,R55*%
X119700000Y-82750000D03*
X121350000Y-82750000D03*
%TD*%
D36*
%TO.C,R13*%
X183300000Y-90530000D03*
X183300000Y-92180000D03*
%TD*%
D37*
%TO.C,TP3*%
X133550000Y-73000000D03*
%TD*%
%TO.C,TP17*%
X124300000Y-97500000D03*
%TD*%
D13*
%TO.C,D32*%
X181212500Y-70950000D03*
X179637500Y-70950000D03*
%TD*%
D38*
%TO.C,J5*%
X151350000Y-72000000D03*
D37*
X151350000Y-70000000D03*
X153350000Y-72000000D03*
X153350000Y-70000000D03*
%TD*%
D39*
%TO.C,J12*%
X91100000Y-73000000D03*
D40*
X96100000Y-73000000D03*
%TD*%
D41*
%TO.C,J19*%
X156500000Y-109075000D03*
X160900000Y-109075000D03*
D42*
X157100000Y-106375000D03*
X157900000Y-106375000D03*
X158700000Y-106375000D03*
X159500000Y-106375000D03*
X160300000Y-106375000D03*
D43*
X154250000Y-106475000D03*
X154250000Y-111925000D03*
X163150000Y-106475000D03*
X163150000Y-111925000D03*
%TD*%
D41*
%TO.C,J7*%
X168750000Y-109075000D03*
X173150000Y-109075000D03*
D42*
X169350000Y-106375000D03*
X170150000Y-106375000D03*
X170950000Y-106375000D03*
X171750000Y-106375000D03*
X172550000Y-106375000D03*
D43*
X166500000Y-106475000D03*
X166500000Y-111925000D03*
X175400000Y-106475000D03*
X175400000Y-111925000D03*
%TD*%
D37*
%TO.C,TP2*%
X136650000Y-73050000D03*
%TD*%
D41*
%TO.C,J16*%
X128000000Y-77700000D03*
X129250000Y-77700000D03*
%TD*%
D37*
%TO.C,TP11*%
X187050000Y-88500000D03*
%TD*%
D44*
%TO.C,C14*%
X154596016Y-77453984D03*
X153500000Y-78550000D03*
%TD*%
D13*
%TO.C,D30*%
X181212500Y-75900000D03*
X179637500Y-75900000D03*
%TD*%
D15*
%TO.C,U6*%
X175775000Y-82595000D03*
X175775000Y-83865000D03*
X175775000Y-85135000D03*
X175775000Y-86405000D03*
X180725000Y-86405000D03*
X180725000Y-85135000D03*
X180725000Y-83865000D03*
X180725000Y-82595000D03*
%TD*%
D45*
%TO.C,U9*%
X154775000Y-80300000D03*
X154775000Y-80800000D03*
X154775000Y-81300000D03*
X154775000Y-81800000D03*
X154775000Y-82300000D03*
X154775000Y-82800000D03*
X154775000Y-83300000D03*
X154775000Y-83800000D03*
X154775000Y-84300000D03*
X154775000Y-84800000D03*
X154775000Y-85300000D03*
X154775000Y-85800000D03*
X154775000Y-86300000D03*
X154775000Y-86800000D03*
X154775000Y-87300000D03*
X154775000Y-87800000D03*
X154775000Y-88300000D03*
X154775000Y-88800000D03*
X154775000Y-89300000D03*
X154775000Y-89800000D03*
X154775000Y-90300000D03*
X154775000Y-90800000D03*
X154775000Y-91300000D03*
X154775000Y-91800000D03*
X154775000Y-92300000D03*
D46*
X156450000Y-93975000D03*
X156950000Y-93975000D03*
X157450000Y-93975000D03*
X157950000Y-93975000D03*
X158450000Y-93975000D03*
X158950000Y-93975000D03*
X159450000Y-93975000D03*
X159950000Y-93975000D03*
X160450000Y-93975000D03*
X160950000Y-93975000D03*
X161450000Y-93975000D03*
X161950000Y-93975000D03*
X162450000Y-93975000D03*
X162950000Y-93975000D03*
X163450000Y-93975000D03*
X163950000Y-93975000D03*
X164450000Y-93975000D03*
X164950000Y-93975000D03*
X165450000Y-93975000D03*
X165950000Y-93975000D03*
X166450000Y-93975000D03*
X166950000Y-93975000D03*
X167450000Y-93975000D03*
X167950000Y-93975000D03*
X168450000Y-93975000D03*
D45*
X170125000Y-92300000D03*
X170125000Y-91800000D03*
X170125000Y-91300000D03*
X170125000Y-90800000D03*
X170125000Y-90300000D03*
X170125000Y-89800000D03*
X170125000Y-89300000D03*
X170125000Y-88800000D03*
X170125000Y-88300000D03*
X170125000Y-87800000D03*
X170125000Y-87300000D03*
X170125000Y-86800000D03*
X170125000Y-86300000D03*
X170125000Y-85800000D03*
X170125000Y-85300000D03*
X170125000Y-84800000D03*
X170125000Y-84300000D03*
X170125000Y-83800000D03*
X170125000Y-83300000D03*
X170125000Y-82800000D03*
X170125000Y-82300000D03*
X170125000Y-81800000D03*
X170125000Y-81300000D03*
X170125000Y-80800000D03*
X170125000Y-80300000D03*
D46*
X168450000Y-78625000D03*
X167950000Y-78625000D03*
X167450000Y-78625000D03*
X166950000Y-78625000D03*
X166450000Y-78625000D03*
X165950000Y-78625000D03*
X165450000Y-78625000D03*
X164950000Y-78625000D03*
X164450000Y-78625000D03*
X163950000Y-78625000D03*
X163450000Y-78625000D03*
X162950000Y-78625000D03*
X162450000Y-78625000D03*
X161950000Y-78625000D03*
X161450000Y-78625000D03*
X160950000Y-78625000D03*
X160450000Y-78625000D03*
X159950000Y-78625000D03*
X159450000Y-78625000D03*
X158950000Y-78625000D03*
X158450000Y-78625000D03*
X157950000Y-78625000D03*
X157450000Y-78625000D03*
X156950000Y-78625000D03*
X156450000Y-78625000D03*
%TD*%
D33*
%TO.C,R56*%
X111875000Y-76100000D03*
X113525000Y-76100000D03*
%TD*%
%TO.C,R54*%
X113525000Y-74400000D03*
X115175000Y-74400000D03*
%TD*%
D13*
%TO.C,D28*%
X148487500Y-94050000D03*
X146912500Y-94050000D03*
%TD*%
D47*
%TO.C,SW3*%
X140500000Y-86400000D03*
X143900000Y-86400000D03*
%TD*%
D48*
%TO.C,C31*%
X172050000Y-80330000D03*
X172050000Y-79370000D03*
%TD*%
D15*
%TO.C,Q2*%
X101000000Y-85560000D03*
X101000000Y-86830000D03*
X101000000Y-88100000D03*
X101000000Y-89370000D03*
X105950000Y-89370000D03*
X105950000Y-88100000D03*
X105950000Y-86830000D03*
X105950000Y-85560000D03*
%TD*%
D37*
%TO.C,TP13*%
X165350000Y-102600000D03*
%TD*%
D41*
%TO.C,J14*%
X103362500Y-93400000D03*
X104612500Y-93400000D03*
%TD*%
D34*
%TO.C,J2*%
X131250000Y-69200000D03*
X130250000Y-69200000D03*
D35*
X132550000Y-65300000D03*
X128950000Y-65300000D03*
%TD*%
D38*
%TO.C,J4*%
X158750000Y-72000000D03*
D37*
X158750000Y-70000000D03*
X160750000Y-72000000D03*
X160750000Y-70000000D03*
%TD*%
D49*
%TO.C,D21*%
X87150000Y-89387500D03*
X87150000Y-87812500D03*
%TD*%
D36*
%TO.C,R15*%
X183150000Y-83720000D03*
X183150000Y-85370000D03*
%TD*%
D13*
%TO.C,D27*%
X148475000Y-92050000D03*
X146900000Y-92050000D03*
%TD*%
D50*
%TO.C,C34*%
X182500000Y-96125000D03*
X182500000Y-94575000D03*
%TD*%
D28*
%TO.C,D58*%
X144700000Y-97700000D03*
X144700000Y-97000000D03*
%TD*%
D48*
%TO.C,C19*%
X156448008Y-76681992D03*
X156448008Y-75721992D03*
%TD*%
D51*
%TO.C,J10*%
X137725000Y-97025000D03*
X136625000Y-97025000D03*
X135525000Y-97025000D03*
X134425000Y-97025000D03*
X133325000Y-97025000D03*
X132225000Y-97025000D03*
X131125000Y-97025000D03*
X130025000Y-97025000D03*
D52*
X139275000Y-97025000D03*
X128225000Y-101325000D03*
D53*
X128225000Y-107525000D03*
D54*
X128225000Y-111675000D03*
D55*
X141625000Y-112125000D03*
D56*
X140700000Y-112900000D03*
D51*
X129075000Y-97025000D03*
%TD*%
D57*
%TO.C,U12*%
X171085000Y-101950000D03*
D58*
X170547500Y-101875000D03*
D57*
X170010000Y-101950000D03*
X170010000Y-103650000D03*
D58*
X170547500Y-103725000D03*
D57*
X171085000Y-103650000D03*
%TD*%
D59*
%TO.C,C20*%
X154300000Y-94400000D03*
X155260000Y-94400000D03*
%TD*%
D60*
%TO.C,IC4*%
X180450000Y-96625000D03*
X180450000Y-95975000D03*
X180450000Y-95325000D03*
X180450000Y-94675000D03*
X176050000Y-94675000D03*
X176050000Y-95325000D03*
X176050000Y-95975000D03*
X176050000Y-96625000D03*
%TD*%
D28*
%TO.C,D63*%
X136100000Y-94700000D03*
X136100000Y-94000000D03*
%TD*%
D34*
%TO.C,J24*%
X138250000Y-69200000D03*
X137250000Y-69200000D03*
D35*
X139550000Y-65300000D03*
X135950000Y-65300000D03*
%TD*%
D53*
%TO.C,SW2*%
X144400000Y-110150000D03*
X144400000Y-112360000D03*
D61*
X146550000Y-111260000D03*
X149550000Y-111260000D03*
D53*
X151700000Y-110150000D03*
X151700000Y-112360000D03*
D62*
X145800000Y-109500000D03*
X148800000Y-109500000D03*
X150300000Y-109500000D03*
%TD*%
D63*
%TO.C,C16*%
X170587419Y-78741403D03*
X169908597Y-78062581D03*
%TD*%
D64*
%TO.C,C44*%
X121900000Y-78975000D03*
X121900000Y-80525000D03*
%TD*%
D37*
%TO.C,TP8*%
X124300000Y-105350000D03*
%TD*%
D13*
%TO.C,D25*%
X182837500Y-103850000D03*
X181262500Y-103850000D03*
%TD*%
D57*
%TO.C,U13*%
X158837500Y-102100000D03*
D58*
X158300000Y-102025000D03*
D57*
X157762500Y-102100000D03*
X157762500Y-103800000D03*
D58*
X158300000Y-103875000D03*
D57*
X158837500Y-103800000D03*
%TD*%
D65*
%TO.C,J26*%
X106700000Y-65770000D03*
X104200000Y-65770000D03*
D66*
X104200000Y-75450000D03*
X106700000Y-75450000D03*
X104200000Y-72950000D03*
X106700000Y-72950000D03*
%TD*%
D67*
%TO.C,H2*%
X88800000Y-66900000D03*
%TD*%
D39*
%TO.C,J20*%
X91100000Y-88600000D03*
D40*
X96100000Y-88600000D03*
%TD*%
D37*
%TO.C,TP9*%
X124300000Y-100750000D03*
%TD*%
D68*
%TO.C,IC8*%
X112238000Y-77728000D03*
X112238000Y-78362000D03*
X112238000Y-78998000D03*
X112238000Y-79632000D03*
X112238000Y-80268000D03*
X112238000Y-80902000D03*
X112238000Y-81538000D03*
X112238000Y-82172000D03*
X117662000Y-82172000D03*
X117662000Y-81538000D03*
X117662000Y-80902000D03*
X117662000Y-80268000D03*
X117662000Y-79632000D03*
X117662000Y-78998000D03*
X117662000Y-78362000D03*
X117662000Y-77728000D03*
%TD*%
D37*
%TO.C,TP15*%
X148100000Y-96600000D03*
%TD*%
D17*
%TO.C,D16*%
X151680000Y-105912500D03*
X151680000Y-107487500D03*
%TD*%
D37*
%TO.C,TP7*%
X176450000Y-80230000D03*
%TD*%
D67*
%TO.C,H3*%
X88800000Y-109900000D03*
%TD*%
D33*
%TO.C,R27*%
X108725000Y-81150000D03*
X110375000Y-81150000D03*
%TD*%
D69*
%TO.C,J11*%
X127400000Y-82700000D03*
D70*
X127400000Y-85200000D03*
X127400000Y-87700000D03*
X127400000Y-90200000D03*
%TD*%
D37*
%TO.C,TP4*%
X130400000Y-73000000D03*
%TD*%
D49*
%TO.C,D20*%
X87150000Y-81587500D03*
X87150000Y-80012500D03*
%TD*%
D37*
%TO.C,TP16*%
X186300000Y-104600000D03*
%TD*%
%TO.C,TP18*%
X111300000Y-69900000D03*
%TD*%
D64*
%TO.C,C36*%
X110300000Y-76325000D03*
X110300000Y-77875000D03*
%TD*%
D71*
%TO.C,IC3*%
X115712000Y-93455000D03*
X115712000Y-92185000D03*
X115712000Y-90915000D03*
X115712000Y-89645000D03*
X110288000Y-89645000D03*
X110288000Y-90915000D03*
X110288000Y-92185000D03*
X110288000Y-93455000D03*
%TD*%
D37*
%TO.C,TP6*%
X180700000Y-80230000D03*
%TD*%
D41*
%TO.C,J6*%
X135600000Y-77700000D03*
X136850000Y-77700000D03*
%TD*%
D14*
%TO.C,U8*%
X151900000Y-103125000D03*
X151900000Y-103975000D03*
X151050000Y-103975000D03*
X151050000Y-103125000D03*
%TD*%
D27*
%TO.C,C49*%
X121700000Y-90100000D03*
X123600000Y-90100000D03*
%TD*%
D30*
%TO.C,C22*%
X152628008Y-90901992D03*
X151668008Y-90901992D03*
%TD*%
D37*
%TO.C,TP5*%
X124300000Y-109950000D03*
%TD*%
D49*
%TO.C,D22*%
X87150000Y-97187500D03*
X87150000Y-95612500D03*
%TD*%
D72*
%TO.C,J27*%
X144500000Y-90050000D03*
X142750000Y-91050000D03*
X144500000Y-92050000D03*
X142750000Y-93050000D03*
X144500000Y-94050000D03*
%TD*%
D38*
%TO.C,J23*%
X173500000Y-72000000D03*
D37*
X173500000Y-70000000D03*
X175500000Y-72000000D03*
X175500000Y-70000000D03*
%TD*%
D17*
%TO.C,D17*%
X110750000Y-65112500D03*
X110750000Y-66687500D03*
%TD*%
D28*
%TO.C,D62*%
X137550000Y-94700000D03*
X137550000Y-94000000D03*
%TD*%
D73*
%TO.C,R22*%
X148800000Y-107525000D03*
X148800000Y-105875000D03*
%TD*%
D74*
%TO.C,Y1*%
X149600000Y-85900000D03*
X148200000Y-85900000D03*
X148200000Y-87000000D03*
X149600000Y-87000000D03*
%TD*%
D75*
%TO.C,C12*%
X152200000Y-100550000D03*
X150650000Y-100550000D03*
%TD*%
D30*
%TO.C,C15*%
X152728008Y-82801992D03*
X151768008Y-82801992D03*
%TD*%
D59*
%TO.C,C27*%
X151720000Y-87600000D03*
X152680000Y-87600000D03*
%TD*%
D67*
%TO.C,H4*%
X181800000Y-109900000D03*
%TD*%
D37*
%TO.C,TP12*%
X127800000Y-94350000D03*
%TD*%
D67*
%TO.C,H1*%
X181800000Y-66900000D03*
%TD*%
D38*
%TO.C,J17*%
X143950000Y-72000000D03*
D37*
X143950000Y-70000000D03*
X145950000Y-72000000D03*
X145950000Y-70000000D03*
%TD*%
D50*
%TO.C,C38*%
X108250000Y-84475000D03*
X108250000Y-82925000D03*
%TD*%
D37*
%TO.C,TP14*%
X125300000Y-94350000D03*
%TD*%
D76*
%TO.C,D18*%
X119125000Y-75050000D03*
X121400000Y-76000000D03*
X121400000Y-74100000D03*
%TD*%
D34*
%TO.C,J3*%
X124250000Y-69200000D03*
X123250000Y-69200000D03*
D35*
X125550000Y-65300000D03*
X121950000Y-65300000D03*
%TD*%
D77*
%TO.C,C11*%
X131325000Y-94600000D03*
X132875000Y-94600000D03*
%TD*%
D78*
%TO.C,D61*%
X144700000Y-98850000D03*
X144700000Y-99550000D03*
%TD*%
D59*
%TO.C,C26*%
X151720000Y-86200000D03*
X152680000Y-86200000D03*
%TD*%
D17*
%TO.C,D36*%
X121900000Y-109412500D03*
X121900000Y-110987500D03*
%TD*%
D30*
%TO.C,C21*%
X152648008Y-89601992D03*
X151688008Y-89601992D03*
%TD*%
D79*
%TO.C,C53*%
X119700000Y-90100000D03*
X117800000Y-90100000D03*
%TD*%
D48*
%TO.C,C23*%
X150400000Y-90580000D03*
X150400000Y-89620000D03*
%TD*%
D49*
%TO.C,D35*%
X87150000Y-73787500D03*
X87150000Y-72212500D03*
%TD*%
D50*
%TO.C,C40*%
X117650000Y-85225000D03*
X117650000Y-83675000D03*
%TD*%
D37*
%TO.C,TP1*%
X139750000Y-73050000D03*
%TD*%
%TO.C,TP10*%
X162650000Y-102600000D03*
%TD*%
D80*
%TO.C,R53*%
X116825000Y-76100000D03*
X115175000Y-76100000D03*
%TD*%
D50*
%TO.C,C43*%
X119950000Y-79225000D03*
X119950000Y-77675000D03*
%TD*%
D49*
%TO.C,D15*%
X145450000Y-87062500D03*
X145450000Y-85487500D03*
%TD*%
D11*
%TO.C,J22*%
X115050000Y-100100000D03*
D12*
X115050000Y-107300000D03*
%TD*%
D75*
%TO.C,C13*%
X155225000Y-100550000D03*
X153675000Y-100550000D03*
%TD*%
D39*
%TO.C,J13*%
X91100000Y-80800000D03*
D40*
X96100000Y-80800000D03*
%TD*%
D79*
%TO.C,C48*%
X119700000Y-87950000D03*
X117800000Y-87950000D03*
%TD*%
D39*
%TO.C,J21*%
X91100000Y-96400000D03*
D40*
X96100000Y-96400000D03*
%TD*%
D18*
%TO.C,JP4*%
X183200000Y-100650000D03*
D19*
X183200000Y-99350000D03*
%TD*%
D13*
%TO.C,D31*%
X181212500Y-73450000D03*
X179637500Y-73450000D03*
%TD*%
D59*
%TO.C,C32*%
X168368008Y-96001992D03*
X169328008Y-96001992D03*
%TD*%
D36*
%TO.C,R52*%
X115150000Y-83700000D03*
X115150000Y-85350000D03*
%TD*%
D77*
%TO.C,C39*%
X108775000Y-79500000D03*
X110325000Y-79500000D03*
%TD*%
D23*
%TO.C,J9*%
X192500000Y-95300000D03*
D24*
X190550000Y-95925000D03*
X190550000Y-98075000D03*
X192500000Y-98700000D03*
D25*
X192000000Y-103250000D03*
X192000000Y-90750000D03*
%TD*%
D36*
%TO.C,R57*%
X110100000Y-82875000D03*
X110100000Y-84525000D03*
%TD*%
D38*
%TO.C,J1*%
X166150000Y-72000000D03*
D37*
X166150000Y-70000000D03*
X168150000Y-72000000D03*
X168150000Y-70000000D03*
%TD*%
M02*
