G04 #@! TF.GenerationSoftware,KiCad,Pcbnew,9.0.6*
G04 #@! TF.CreationDate,2026-02-18T15:40:18+01:00*
G04 #@! TF.ProjectId,2026_FH2_C_AV_FC,32303236-5f46-4483-925f-435f41565f46,rev?*
G04 #@! TF.SameCoordinates,Original*
G04 #@! TF.FileFunction,Copper,L4,Bot*
G04 #@! TF.FilePolarity,Positive*
%FSLAX46Y46*%
G04 Gerber Fmt 4.6, Leading zero omitted, Abs format (unit mm)*
G04 Created by KiCad (PCBNEW 9.0.6) date 2026-02-18 15:40:18*
%MOMM*%
%LPD*%
G01*
G04 APERTURE LIST*
G04 Aperture macros list*
%AMRoundRect*
0 Rectangle with rounded corners*
0 $1 Rounding radius*
0 $2 $3 $4 $5 $6 $7 $8 $9 X,Y pos of 4 corners*
0 Add a 4 corners polygon primitive as box body*
4,1,4,$2,$3,$4,$5,$6,$7,$8,$9,$2,$3,0*
0 Add four circle primitives for the rounded corners*
1,1,$1+$1,$2,$3*
1,1,$1+$1,$4,$5*
1,1,$1+$1,$6,$7*
1,1,$1+$1,$8,$9*
0 Add four rect primitives between the rounded corners*
20,1,$1+$1,$2,$3,$4,$5,0*
20,1,$1+$1,$4,$5,$6,$7,0*
20,1,$1+$1,$6,$7,$8,$9,0*
20,1,$1+$1,$8,$9,$2,$3,0*%
%AMRotRect*
0 Rectangle, with rotation*
0 The origin of the aperture is its center*
0 $1 length*
0 $2 width*
0 $3 Rotation angle, in degrees counterclockwise*
0 Add horizontal line*
21,1,$1,$2,0,0,$3*%
G04 Aperture macros list end*
G04 #@! TA.AperFunction,ComponentPad*
%ADD10C,5.600000*%
G04 #@! TD*
G04 #@! TA.AperFunction,ComponentPad*
%ADD11C,2.000000*%
G04 #@! TD*
G04 #@! TA.AperFunction,ComponentPad*
%ADD12R,1.950000X1.950000*%
G04 #@! TD*
G04 #@! TA.AperFunction,ComponentPad*
%ADD13C,1.950000*%
G04 #@! TD*
G04 #@! TA.AperFunction,ComponentPad*
%ADD14R,2.000000X2.000000*%
G04 #@! TD*
G04 #@! TA.AperFunction,ComponentPad*
%ADD15R,1.700000X1.700000*%
G04 #@! TD*
G04 #@! TA.AperFunction,ComponentPad*
%ADD16C,1.700000*%
G04 #@! TD*
G04 #@! TA.AperFunction,SMDPad,CuDef*
%ADD17R,1.500000X3.500000*%
G04 #@! TD*
G04 #@! TA.AperFunction,ComponentPad*
%ADD18RoundRect,0.249999X-0.525001X-0.525001X0.525001X-0.525001X0.525001X0.525001X-0.525001X0.525001X0*%
G04 #@! TD*
G04 #@! TA.AperFunction,ComponentPad*
%ADD19C,1.550000*%
G04 #@! TD*
G04 #@! TA.AperFunction,SMDPad,CuDef*
%ADD20RoundRect,0.062500X0.187500X0.062500X-0.187500X0.062500X-0.187500X-0.062500X0.187500X-0.062500X0*%
G04 #@! TD*
G04 #@! TA.AperFunction,HeatsinkPad*
%ADD21C,0.600000*%
G04 #@! TD*
G04 #@! TA.AperFunction,SMDPad,CuDef*
%ADD22R,0.900000X1.600000*%
G04 #@! TD*
G04 #@! TA.AperFunction,SMDPad,CuDef*
%ADD23RoundRect,0.200000X0.200000X0.275000X-0.200000X0.275000X-0.200000X-0.275000X0.200000X-0.275000X0*%
G04 #@! TD*
G04 #@! TA.AperFunction,SMDPad,CuDef*
%ADD24RoundRect,0.150000X0.825000X0.150000X-0.825000X0.150000X-0.825000X-0.150000X0.825000X-0.150000X0*%
G04 #@! TD*
G04 #@! TA.AperFunction,SMDPad,CuDef*
%ADD25RoundRect,0.225000X-0.017678X0.335876X-0.335876X0.017678X0.017678X-0.335876X0.335876X-0.017678X0*%
G04 #@! TD*
G04 #@! TA.AperFunction,SMDPad,CuDef*
%ADD26R,0.550000X1.145000*%
G04 #@! TD*
G04 #@! TA.AperFunction,SMDPad,CuDef*
%ADD27R,1.145000X0.550000*%
G04 #@! TD*
G04 #@! TA.AperFunction,SMDPad,CuDef*
%ADD28R,0.600000X1.300000*%
G04 #@! TD*
G04 #@! TA.AperFunction,SMDPad,CuDef*
%ADD29RoundRect,0.225000X0.250000X-0.225000X0.250000X0.225000X-0.250000X0.225000X-0.250000X-0.225000X0*%
G04 #@! TD*
G04 #@! TA.AperFunction,SMDPad,CuDef*
%ADD30RoundRect,0.225000X-0.225000X-0.250000X0.225000X-0.250000X0.225000X0.250000X-0.225000X0.250000X0*%
G04 #@! TD*
G04 #@! TA.AperFunction,SMDPad,CuDef*
%ADD31RoundRect,0.225000X0.225000X0.250000X-0.225000X0.250000X-0.225000X-0.250000X0.225000X-0.250000X0*%
G04 #@! TD*
G04 #@! TA.AperFunction,SMDPad,CuDef*
%ADD32RoundRect,0.135000X-0.226274X-0.035355X-0.035355X-0.226274X0.226274X0.035355X0.035355X0.226274X0*%
G04 #@! TD*
G04 #@! TA.AperFunction,SMDPad,CuDef*
%ADD33R,2.000000X5.300000*%
G04 #@! TD*
G04 #@! TA.AperFunction,SMDPad,CuDef*
%ADD34RoundRect,0.200000X-0.200000X-0.275000X0.200000X-0.275000X0.200000X0.275000X-0.200000X0.275000X0*%
G04 #@! TD*
G04 #@! TA.AperFunction,SMDPad,CuDef*
%ADD35RoundRect,0.200000X0.275000X-0.200000X0.275000X0.200000X-0.275000X0.200000X-0.275000X-0.200000X0*%
G04 #@! TD*
G04 #@! TA.AperFunction,SMDPad,CuDef*
%ADD36RoundRect,0.250000X0.320000X0.295000X-0.320000X0.295000X-0.320000X-0.295000X0.320000X-0.295000X0*%
G04 #@! TD*
G04 #@! TA.AperFunction,SMDPad,CuDef*
%ADD37RoundRect,0.225000X-0.250000X0.225000X-0.250000X-0.225000X0.250000X-0.225000X0.250000X0.225000X0*%
G04 #@! TD*
G04 #@! TA.AperFunction,SMDPad,CuDef*
%ADD38RotRect,0.250000X0.275000X135.000000*%
G04 #@! TD*
G04 #@! TA.AperFunction,SMDPad,CuDef*
%ADD39RotRect,0.250000X0.275000X45.000000*%
G04 #@! TD*
G04 #@! TA.AperFunction,SMDPad,CuDef*
%ADD40R,1.780000X5.080000*%
G04 #@! TD*
G04 #@! TA.AperFunction,SMDPad,CuDef*
%ADD41R,3.960000X3.960000*%
G04 #@! TD*
G04 #@! TA.AperFunction,SMDPad,CuDef*
%ADD42RoundRect,0.250000X0.275000X0.700000X-0.275000X0.700000X-0.275000X-0.700000X0.275000X-0.700000X0*%
G04 #@! TD*
G04 #@! TA.AperFunction,SMDPad,CuDef*
%ADD43R,0.250000X0.600000*%
G04 #@! TD*
G04 #@! TA.AperFunction,SMDPad,CuDef*
%ADD44RoundRect,0.200000X-0.335876X-0.053033X-0.053033X-0.335876X0.335876X0.053033X0.053033X0.335876X0*%
G04 #@! TD*
G04 #@! TA.AperFunction,SMDPad,CuDef*
%ADD45RoundRect,0.250000X0.400000X0.450000X-0.400000X0.450000X-0.400000X-0.450000X0.400000X-0.450000X0*%
G04 #@! TD*
G04 #@! TA.AperFunction,SMDPad,CuDef*
%ADD46RoundRect,0.200000X0.053033X-0.335876X0.335876X-0.053033X-0.053033X0.335876X-0.335876X0.053033X0*%
G04 #@! TD*
G04 #@! TA.AperFunction,SMDPad,CuDef*
%ADD47R,0.475000X0.250000*%
G04 #@! TD*
G04 #@! TA.AperFunction,SMDPad,CuDef*
%ADD48R,0.250000X0.475000*%
G04 #@! TD*
G04 #@! TA.AperFunction,SMDPad,CuDef*
%ADD49RoundRect,0.200000X-0.275000X0.200000X-0.275000X-0.200000X0.275000X-0.200000X0.275000X0.200000X0*%
G04 #@! TD*
G04 #@! TA.AperFunction,SMDPad,CuDef*
%ADD50RoundRect,0.225000X-0.335876X-0.017678X-0.017678X-0.335876X0.335876X0.017678X0.017678X0.335876X0*%
G04 #@! TD*
G04 #@! TA.AperFunction,SMDPad,CuDef*
%ADD51R,1.300000X0.600000*%
G04 #@! TD*
G04 #@! TA.AperFunction,SMDPad,CuDef*
%ADD52R,0.700000X1.200000*%
G04 #@! TD*
G04 #@! TA.AperFunction,SMDPad,CuDef*
%ADD53R,1.000000X0.800000*%
G04 #@! TD*
G04 #@! TA.AperFunction,SMDPad,CuDef*
%ADD54R,1.000000X2.800000*%
G04 #@! TD*
G04 #@! TA.AperFunction,SMDPad,CuDef*
%ADD55R,1.000000X1.200000*%
G04 #@! TD*
G04 #@! TA.AperFunction,SMDPad,CuDef*
%ADD56R,1.300000X1.900000*%
G04 #@! TD*
G04 #@! TA.AperFunction,SMDPad,CuDef*
%ADD57R,0.600000X0.250000*%
G04 #@! TD*
G04 #@! TA.AperFunction,SMDPad,CuDef*
%ADD58R,0.279400X1.327899*%
G04 #@! TD*
G04 #@! TA.AperFunction,SMDPad,CuDef*
%ADD59R,1.981200X1.778000*%
G04 #@! TD*
G04 #@! TA.AperFunction,SMDPad,CuDef*
%ADD60R,0.400000X1.200000*%
G04 #@! TD*
G04 #@! TA.AperFunction,SMDPad,CuDef*
%ADD61R,2.200000X2.150000*%
G04 #@! TD*
G04 #@! TA.AperFunction,SMDPad,CuDef*
%ADD62RoundRect,0.112500X-0.187500X-0.112500X0.187500X-0.112500X0.187500X0.112500X-0.187500X0.112500X0*%
G04 #@! TD*
G04 #@! TA.AperFunction,SMDPad,CuDef*
%ADD63RoundRect,0.125000X0.762500X0.125000X-0.762500X0.125000X-0.762500X-0.125000X0.762500X-0.125000X0*%
G04 #@! TD*
G04 #@! TA.AperFunction,SMDPad,CuDef*
%ADD64RoundRect,0.050000X-0.100000X0.285000X-0.100000X-0.285000X0.100000X-0.285000X0.100000X0.285000X0*%
G04 #@! TD*
G04 #@! TA.AperFunction,ViaPad*
%ADD65C,0.700000*%
G04 #@! TD*
G04 #@! TA.AperFunction,Conductor*
%ADD66C,0.300000*%
G04 #@! TD*
G04 #@! TA.AperFunction,Conductor*
%ADD67C,0.200000*%
G04 #@! TD*
G04 #@! TA.AperFunction,Conductor*
%ADD68C,1.000000*%
G04 #@! TD*
G04 #@! TA.AperFunction,Conductor*
%ADD69C,1.800000*%
G04 #@! TD*
G04 #@! TA.AperFunction,Conductor*
%ADD70C,0.500000*%
G04 #@! TD*
G04 #@! TA.AperFunction,Conductor*
%ADD71C,1.200000*%
G04 #@! TD*
G04 #@! TA.AperFunction,Conductor*
%ADD72C,0.150000*%
G04 #@! TD*
G04 APERTURE END LIST*
D10*
X124000000Y-51000000D03*
D11*
X178250000Y-72750000D03*
D10*
X194000000Y-51000000D03*
D12*
X189000000Y-81750000D03*
D13*
X189000000Y-76750000D03*
D10*
X194000000Y-121000000D03*
D14*
X131250000Y-69000000D03*
D11*
X131250000Y-74000000D03*
D15*
X127080000Y-90200000D03*
D16*
X129620000Y-90200000D03*
X132159999Y-90200000D03*
X134700000Y-90200000D03*
D12*
X189000000Y-94500000D03*
D13*
X189000000Y-89500000D03*
D12*
X189000000Y-107250000D03*
D13*
X189000000Y-102250000D03*
D17*
X131050000Y-114000000D03*
X136450000Y-114000000D03*
D15*
X127220001Y-82700000D03*
D16*
X129760001Y-82700000D03*
X132300000Y-82700000D03*
X134840001Y-82700000D03*
D12*
X189000000Y-69000000D03*
D13*
X189000000Y-64000000D03*
D10*
X124000000Y-121000000D03*
D18*
X139960000Y-51290000D03*
D19*
X142500000Y-51290000D03*
X145040000Y-51290000D03*
X147580000Y-51290000D03*
X150120000Y-51290000D03*
X152660000Y-51290000D03*
X155200000Y-51290000D03*
X157740000Y-51290000D03*
X160280000Y-51290000D03*
X162820000Y-51290000D03*
X165360000Y-51290000D03*
X167900000Y-51290000D03*
X170440000Y-51290000D03*
X172980000Y-51290000D03*
X175520000Y-51290000D03*
X178060000Y-51290000D03*
X139960000Y-53830000D03*
X142500000Y-53830000D03*
X145040000Y-53830000D03*
X147580000Y-53830000D03*
X150120000Y-53830000D03*
X152660000Y-53830000D03*
X155200000Y-53830000D03*
X157740000Y-53830000D03*
X160280000Y-53830000D03*
X162820000Y-53830000D03*
X165360000Y-53830000D03*
X167900000Y-53830000D03*
X170440000Y-53830000D03*
X172980000Y-53830000D03*
X175520000Y-53830000D03*
X178060000Y-53830000D03*
D20*
X140250000Y-92250000D03*
X140250000Y-92750000D03*
X140250000Y-93250000D03*
X140250000Y-93750000D03*
X138350000Y-93750000D03*
X138350000Y-93250000D03*
X138350000Y-92750000D03*
X138350000Y-92250000D03*
D21*
X139300000Y-93500000D03*
D22*
X139300000Y-93000000D03*
D21*
X139300000Y-92500000D03*
D23*
X169863000Y-72463348D03*
X168213000Y-72463348D03*
D11*
X192375000Y-116075000D03*
D23*
X181575000Y-83750000D03*
X179925000Y-83750000D03*
D24*
X180475000Y-113345000D03*
X180475000Y-114615000D03*
X180475000Y-115885000D03*
X180475000Y-117155000D03*
X175525000Y-117155000D03*
X175525000Y-115885000D03*
X175525000Y-114615000D03*
X175525000Y-113345000D03*
D25*
X152598459Y-84964438D03*
X151502443Y-86060454D03*
D26*
X126050000Y-59555000D03*
X126850000Y-59555000D03*
X127650000Y-59555000D03*
X128450000Y-59555000D03*
X129250000Y-59555000D03*
X130050000Y-59555000D03*
D27*
X130147500Y-60652500D03*
D26*
X130050000Y-61750000D03*
X129250000Y-61750000D03*
X128450000Y-61750000D03*
X127650000Y-61750000D03*
X126850000Y-61750000D03*
X126050000Y-61750000D03*
D27*
X125952500Y-60652500D03*
D25*
X159298008Y-91451992D03*
X158201992Y-92548008D03*
D28*
X186450000Y-97050000D03*
X184550000Y-97050000D03*
X185500000Y-94950000D03*
D29*
X170000001Y-78488348D03*
X170000001Y-76938348D03*
D23*
X166575001Y-72463348D03*
X164925001Y-72463348D03*
D30*
X186975000Y-119250000D03*
X188525000Y-119250000D03*
D31*
X154215100Y-59585000D03*
X152665100Y-59585000D03*
D32*
X156039376Y-99289376D03*
X156760624Y-100010624D03*
D33*
X179450000Y-67000000D03*
X186050000Y-67000000D03*
D23*
X181325000Y-106450000D03*
X179675000Y-106450000D03*
D34*
X186925000Y-114000000D03*
X188575000Y-114000000D03*
D35*
X143250000Y-104000000D03*
X143250000Y-102350000D03*
D30*
X135700000Y-68750000D03*
X137250000Y-68750000D03*
D36*
X129890000Y-56000000D03*
X128110000Y-56000000D03*
D37*
X184000000Y-115225000D03*
X184000000Y-116775000D03*
D23*
X190325000Y-54500000D03*
X188675000Y-54500000D03*
X178900000Y-97250000D03*
X177250000Y-97250000D03*
D34*
X178350000Y-62250000D03*
X180000000Y-62250000D03*
D38*
X160878680Y-93438722D03*
X161232233Y-93792275D03*
D39*
X161408303Y-94340283D03*
X161054749Y-94693836D03*
X160701196Y-95047390D03*
D38*
X160153188Y-94871320D03*
X159799635Y-94517767D03*
D39*
X159623565Y-93969759D03*
X159977119Y-93616206D03*
X160330672Y-93262652D03*
D40*
X125850000Y-100000000D03*
X135250000Y-100000000D03*
D41*
X130550000Y-100000000D03*
D31*
X176275000Y-111500000D03*
X174725000Y-111500000D03*
D11*
X192325000Y-112925000D03*
D38*
X165668203Y-88228244D03*
X166021756Y-88581797D03*
D39*
X166197826Y-89129805D03*
X165844272Y-89483358D03*
X165490719Y-89836912D03*
D38*
X164942711Y-89660842D03*
X164589158Y-89307289D03*
D39*
X164413088Y-88759281D03*
X164766642Y-88405728D03*
X165120195Y-88052174D03*
D23*
X182075000Y-72250000D03*
X180425000Y-72250000D03*
D31*
X160034000Y-67285200D03*
X158484000Y-67285200D03*
D29*
X125171384Y-76375062D03*
X125171384Y-74825062D03*
X133725001Y-76275000D03*
X133725001Y-74725000D03*
D35*
X143250000Y-100862501D03*
X143250000Y-99212501D03*
D42*
X175325000Y-58850000D03*
X172175000Y-58850000D03*
D23*
X180000000Y-60750000D03*
X178350000Y-60750000D03*
D43*
X166000001Y-69363348D03*
X166500001Y-69363348D03*
X167000001Y-69363348D03*
X167500001Y-69363348D03*
X168000001Y-69363348D03*
X168000001Y-70213348D03*
X167500001Y-70213348D03*
X167000001Y-70213348D03*
X166500001Y-70213348D03*
X166000001Y-70213348D03*
D44*
X150666637Y-80416637D03*
X151833363Y-81583363D03*
D45*
X174175000Y-56350000D03*
X171275000Y-56350000D03*
D46*
X174664213Y-101664213D03*
X175830939Y-100497487D03*
D23*
X146975000Y-110700000D03*
X145325000Y-110700000D03*
D47*
X128675000Y-65850063D03*
X128675000Y-66350063D03*
X128675000Y-66850063D03*
X128675000Y-67350063D03*
D48*
X128012500Y-67512563D03*
X127512500Y-67512563D03*
X127012500Y-67512563D03*
D47*
X126350000Y-67350063D03*
X126350000Y-66850063D03*
X126350000Y-66350063D03*
X126350000Y-65850063D03*
D48*
X127012500Y-65687563D03*
X127512500Y-65687563D03*
X128012500Y-65687563D03*
D32*
X156739376Y-98589376D03*
X157460624Y-99310624D03*
D31*
X162050000Y-100500000D03*
X160500000Y-100500000D03*
D30*
X126987500Y-68850063D03*
X128537500Y-68850063D03*
D28*
X185700000Y-73800000D03*
X183800000Y-73800000D03*
X184750000Y-71700000D03*
D25*
X163908922Y-86451992D03*
X162812906Y-87548008D03*
D38*
X160040024Y-81705473D03*
X160393577Y-82059026D03*
D39*
X160569647Y-82607034D03*
X160216093Y-82960587D03*
X159862540Y-83314141D03*
D38*
X159314532Y-83138071D03*
X158960979Y-82784518D03*
D39*
X158784909Y-82236510D03*
X159138463Y-81882957D03*
X159492016Y-81529403D03*
D34*
X180375000Y-97200000D03*
X182025000Y-97200000D03*
D49*
X171250000Y-60925000D03*
X171250000Y-62575000D03*
D50*
X166701992Y-86451992D03*
X167798008Y-87548008D03*
D51*
X183450000Y-108200000D03*
X183450000Y-106300000D03*
X185550000Y-107250000D03*
D52*
X158400000Y-109350000D03*
X159500000Y-109350000D03*
X160600000Y-109350000D03*
X161700000Y-109350000D03*
X162800000Y-109350000D03*
X163900000Y-109350000D03*
X165000000Y-109350000D03*
X166100000Y-109350000D03*
X167050000Y-109350000D03*
D53*
X168000000Y-119850000D03*
D54*
X168000000Y-124000000D03*
D55*
X168000000Y-113650000D03*
X156850000Y-109350000D03*
D56*
X154500000Y-124450000D03*
D46*
X168666637Y-82833363D03*
X169833363Y-81666637D03*
X169916637Y-84083363D03*
X171083363Y-82916637D03*
D47*
X128833884Y-73350062D03*
X128833884Y-73850062D03*
X128833884Y-74350062D03*
X128833884Y-74850062D03*
D48*
X128171384Y-75012562D03*
X127671384Y-75012562D03*
X127171384Y-75012562D03*
D47*
X126508884Y-74850062D03*
X126508884Y-74350062D03*
X126508884Y-73850062D03*
X126508884Y-73350062D03*
D48*
X127171384Y-73187562D03*
X127671384Y-73187562D03*
X128171384Y-73187562D03*
D46*
X170801643Y-102698356D03*
X171968369Y-101531630D03*
D49*
X176000000Y-87175000D03*
X176000000Y-88825000D03*
D35*
X176000000Y-91825000D03*
X176000000Y-90175000D03*
D43*
X157990000Y-106730000D03*
X157490000Y-106730000D03*
X156990000Y-106730000D03*
X156490000Y-106730000D03*
X155990000Y-106730000D03*
X155990000Y-105880000D03*
X156490000Y-105880000D03*
X156990000Y-105880000D03*
X157490000Y-105880000D03*
X157990000Y-105880000D03*
D33*
X179150000Y-78550000D03*
X185750000Y-78550000D03*
D29*
X125012500Y-68875063D03*
X125012500Y-67325063D03*
D37*
X163421500Y-63935200D03*
X163421500Y-65485200D03*
D23*
X188575000Y-112250000D03*
X186925000Y-112250000D03*
D38*
X154348549Y-86749883D03*
X154702102Y-87103436D03*
D39*
X154878172Y-87651444D03*
X154524618Y-88004997D03*
X154171065Y-88358551D03*
D38*
X153623057Y-88182481D03*
X153269504Y-87828928D03*
D39*
X153093434Y-87280920D03*
X153446988Y-86927367D03*
X153800541Y-86573813D03*
D33*
X178900000Y-90200000D03*
X185500000Y-90200000D03*
D46*
X172189339Y-104139087D03*
X173356065Y-102972361D03*
D57*
X136650000Y-87250000D03*
X136650000Y-86750000D03*
X136650001Y-86250000D03*
X136650000Y-85750000D03*
X136650000Y-85250000D03*
X137500000Y-85250000D03*
X137500000Y-85750000D03*
X137499999Y-86250000D03*
X137500000Y-86750000D03*
X137500000Y-87250000D03*
D30*
X127146384Y-76350062D03*
X128696384Y-76350062D03*
D29*
X133700000Y-68775001D03*
X133700000Y-67225001D03*
D23*
X178575000Y-95500000D03*
X176925000Y-95500000D03*
D44*
X151916637Y-79166637D03*
X153083363Y-80333363D03*
D34*
X186925000Y-121000000D03*
X188575000Y-121000000D03*
X188675000Y-56250000D03*
X190325000Y-56250000D03*
D31*
X162050000Y-99000000D03*
X160500000Y-99000000D03*
D34*
X179675000Y-108250000D03*
X181325000Y-108250000D03*
D58*
X166249999Y-74286652D03*
X166750001Y-74286652D03*
X167250000Y-74286652D03*
X167749999Y-74286652D03*
X168250001Y-74286652D03*
X168250001Y-78713348D03*
X167749999Y-78713348D03*
X167250000Y-78713348D03*
X166750001Y-78713348D03*
X166249999Y-78713348D03*
D59*
X167250000Y-76500000D03*
D23*
X143575000Y-93250000D03*
X141925000Y-93250000D03*
D60*
X173200000Y-61250000D03*
X173850000Y-61250001D03*
X174500000Y-61250000D03*
X174500000Y-63150000D03*
X173850000Y-63149999D03*
X173200000Y-63150000D03*
D57*
X133150001Y-87750000D03*
X133150001Y-87250000D03*
X133150002Y-86750000D03*
X133150001Y-86250000D03*
X133150001Y-85750000D03*
X134000001Y-85750000D03*
X134000001Y-86250000D03*
X134000000Y-86750000D03*
X134000001Y-87250000D03*
X134000001Y-87750000D03*
D30*
X172975000Y-65000000D03*
X174525000Y-65000000D03*
D31*
X160034000Y-59035200D03*
X158484000Y-59035200D03*
D34*
X179925000Y-85550000D03*
X181575000Y-85550000D03*
D25*
X158272257Y-79920734D03*
X157176241Y-81016750D03*
D30*
X125525000Y-57652500D03*
X127075000Y-57652500D03*
D49*
X173250000Y-114925000D03*
X173250000Y-116575000D03*
D31*
X130325000Y-57652500D03*
X128775000Y-57652500D03*
D28*
X185450000Y-85600000D03*
X183550000Y-85600000D03*
X184500000Y-83500000D03*
D34*
X180425000Y-74000000D03*
X182075000Y-74000000D03*
D61*
X181800000Y-54250000D03*
X186200000Y-54250000D03*
D50*
X155409208Y-84982116D03*
X156505224Y-86078132D03*
D30*
X177975000Y-119000000D03*
X179525000Y-119000000D03*
D51*
X190550000Y-58050000D03*
X190550000Y-59950000D03*
X188450000Y-59000000D03*
D47*
X137362501Y-65750001D03*
X137362500Y-66250001D03*
X137362500Y-66750001D03*
X137362501Y-67250001D03*
D48*
X136699999Y-67412501D03*
X136200000Y-67412501D03*
X135700001Y-67412501D03*
D47*
X135037499Y-67250001D03*
X135037500Y-66750001D03*
X135037500Y-66250001D03*
X135037499Y-65750001D03*
D48*
X135700001Y-65587501D03*
X136200000Y-65587501D03*
X136699999Y-65587501D03*
D62*
X130450000Y-71500000D03*
X132550000Y-71500000D03*
D30*
X138225000Y-91000000D03*
X139775000Y-91000000D03*
D31*
X181275000Y-111500000D03*
X179725000Y-111500000D03*
D23*
X174650000Y-106250000D03*
X173000000Y-106250000D03*
D30*
X135700000Y-76250000D03*
X137250000Y-76250000D03*
D50*
X161065330Y-79920735D03*
X162161346Y-81016751D03*
D37*
X163259000Y-60760199D03*
X163259000Y-62310199D03*
D63*
X161334000Y-60935200D03*
X161333999Y-61585200D03*
X161334000Y-62235200D03*
X161334000Y-62885200D03*
X161334000Y-63535200D03*
X161334000Y-64185200D03*
X161333999Y-64835200D03*
X161334000Y-65485200D03*
X154509000Y-65485200D03*
X154509001Y-64835200D03*
X154509000Y-64185200D03*
X154509000Y-63535200D03*
X154509000Y-62885200D03*
X154509000Y-62235200D03*
X154509001Y-61585200D03*
X154509000Y-60935200D03*
D23*
X182025000Y-95400000D03*
X180375000Y-95400000D03*
D33*
X178950000Y-101750000D03*
X185550000Y-101750000D03*
D30*
X172975000Y-66750000D03*
X174525000Y-66750000D03*
D47*
X137387502Y-73249999D03*
X137387501Y-73749999D03*
X137387501Y-74249999D03*
X137387502Y-74749999D03*
D48*
X136725000Y-74912499D03*
X136225001Y-74912499D03*
X135725002Y-74912499D03*
D47*
X135062500Y-74749999D03*
X135062501Y-74249999D03*
X135062501Y-73749999D03*
X135062500Y-73249999D03*
D48*
X135725002Y-73087499D03*
X136225001Y-73087499D03*
X136725000Y-73087499D03*
D50*
X161903984Y-91653984D03*
X163000000Y-92750000D03*
D46*
X173250000Y-100250000D03*
X174416726Y-99083274D03*
D23*
X178400000Y-83750000D03*
X176750000Y-83750000D03*
D29*
X189000000Y-117525000D03*
X189000000Y-115975000D03*
D43*
X166490000Y-106830000D03*
X165990000Y-106830000D03*
X165490000Y-106830000D03*
X164990000Y-106830000D03*
X164490000Y-106830000D03*
X164490000Y-105980000D03*
X164990000Y-105980000D03*
X165490000Y-105980000D03*
X165990000Y-105980000D03*
X166490000Y-105980000D03*
D31*
X174600000Y-108000000D03*
X173050000Y-108000000D03*
D64*
X185750000Y-116010000D03*
X186250000Y-116010000D03*
X186750000Y-116010000D03*
X187250000Y-116010000D03*
X187250000Y-117490000D03*
X186750000Y-117490000D03*
X186250000Y-117490000D03*
X185750000Y-117490000D03*
D34*
X173000000Y-109750000D03*
X174650000Y-109750000D03*
D23*
X178400000Y-85500000D03*
X176750000Y-85500000D03*
D65*
X180474978Y-110724339D03*
X173400000Y-81376000D03*
X145950000Y-109100000D03*
X165313050Y-88950000D03*
X175750000Y-99250000D03*
X143500000Y-85900000D03*
X135250000Y-105000000D03*
X155000000Y-114500000D03*
X165750000Y-113000000D03*
X155900000Y-87145154D03*
X170125000Y-96050000D03*
X184000000Y-107000000D03*
X157201600Y-72212800D03*
X131500000Y-61100000D03*
X184250000Y-75250000D03*
X187750000Y-113000000D03*
X159750000Y-123000000D03*
X162800000Y-87650000D03*
X185250000Y-98250000D03*
X138000000Y-113500000D03*
X163750000Y-93000000D03*
X138675000Y-87000000D03*
X157500000Y-115250000D03*
X156750000Y-80564020D03*
X166844427Y-82586262D03*
X138000000Y-115500000D03*
X180200000Y-118025000D03*
X147731330Y-94090890D03*
X151258000Y-66929600D03*
X141450000Y-96350000D03*
X131500000Y-107000000D03*
X159970200Y-68631400D03*
X171200000Y-60100000D03*
X154257924Y-80182101D03*
X175471129Y-90081596D03*
X162500000Y-113750000D03*
X146000000Y-118250000D03*
X151500000Y-118500000D03*
X135250000Y-108000000D03*
X165762553Y-99365908D03*
X152000000Y-114500000D03*
X146000000Y-114500000D03*
X177500000Y-115000000D03*
X161250000Y-103460624D03*
X154000000Y-87500000D03*
X164364400Y-73711400D03*
X130750000Y-109750000D03*
X156250000Y-108950000D03*
X129500000Y-115250000D03*
X124801000Y-68550000D03*
X131874000Y-95750000D03*
X166571303Y-88986846D03*
X160483980Y-94016272D03*
X133761051Y-76376000D03*
X159894000Y-57506200D03*
X164762178Y-118513918D03*
X143765000Y-66040600D03*
X180750000Y-101750000D03*
X159219999Y-118540002D03*
X185548000Y-123393800D03*
X191750000Y-55000000D03*
X183250000Y-75250000D03*
X151023500Y-85726500D03*
X173500000Y-69750000D03*
X127500000Y-103000000D03*
X169250000Y-114500000D03*
X135500000Y-69500000D03*
X127750000Y-56500000D03*
X126192154Y-76432908D03*
X167127269Y-93051443D03*
X137250000Y-95000000D03*
X153675643Y-95492045D03*
X142807300Y-56457300D03*
X175500000Y-110250000D03*
X147750000Y-122000000D03*
X169183363Y-80750000D03*
X169500000Y-123750000D03*
X189609200Y-118615800D03*
X176250000Y-122000000D03*
X150722391Y-83717635D03*
X123851400Y-62078200D03*
X147525000Y-55525000D03*
X177521600Y-94887500D03*
X184000000Y-87000000D03*
X141750000Y-102250000D03*
X164000000Y-123000000D03*
X172241151Y-83223949D03*
X129500000Y-113750000D03*
X127750000Y-100250000D03*
X181000000Y-63500000D03*
X184000000Y-98250000D03*
X159557319Y-82409883D03*
X156000000Y-104500000D03*
X159250000Y-99500000D03*
X174250000Y-103750000D03*
X162500000Y-81500000D03*
X153250000Y-122000000D03*
X174850000Y-77225000D03*
X164115380Y-85284620D03*
X184575725Y-115842184D03*
X186025000Y-51867400D03*
X144275000Y-99250000D03*
X183000000Y-87000000D03*
X183000000Y-107000000D03*
X130506200Y-88011600D03*
X158486949Y-93134811D03*
X133500000Y-99250000D03*
X124500000Y-99250000D03*
X145593800Y-70892000D03*
X142571200Y-69799800D03*
X182000000Y-114000000D03*
X137500000Y-84250000D03*
X131250000Y-71250000D03*
X140250000Y-84250000D03*
X131750000Y-64500000D03*
X133250000Y-71376000D03*
X160250000Y-79250000D03*
X133825000Y-74925000D03*
X138500000Y-90000000D03*
X170038706Y-79473151D03*
X137250000Y-68750000D03*
X135256000Y-80174000D03*
X131250000Y-59250000D03*
X125000000Y-77750000D03*
X143750000Y-92500000D03*
X137750000Y-100500000D03*
X160000000Y-90750000D03*
X133000000Y-67000000D03*
X144222200Y-56566400D03*
X169500000Y-86250000D03*
X146500000Y-95500000D03*
X142850600Y-106680600D03*
X142500000Y-95250000D03*
X133626900Y-55623100D03*
X164000000Y-80250000D03*
X124902500Y-58750000D03*
X153750000Y-82078400D03*
X137500000Y-76250000D03*
X171250000Y-88500000D03*
X165000000Y-87000000D03*
X143200000Y-109350000D03*
X161861241Y-98874000D03*
X158925761Y-80574239D03*
X151665620Y-98665620D03*
X145771600Y-60452600D03*
X125000000Y-70500000D03*
X155492324Y-84899000D03*
X137250000Y-93000000D03*
X160000000Y-105750000D03*
X128638500Y-68250000D03*
X173250000Y-84500000D03*
X150877000Y-63195800D03*
X189500000Y-121939998D03*
X165250000Y-82500000D03*
X168250000Y-118750000D03*
X187716427Y-118253748D03*
X173250000Y-123500000D03*
X176000000Y-108000000D03*
X170500000Y-62600000D03*
X154124000Y-106000000D03*
X156571330Y-123700000D03*
X170500000Y-75000000D03*
X174500000Y-80500000D03*
X179750000Y-70500000D03*
X179274200Y-74727400D03*
X179500000Y-82500000D03*
X179750000Y-95250000D03*
X161500000Y-84500000D03*
X155175000Y-81925000D03*
X158750000Y-84750000D03*
X162500000Y-86250000D03*
X152823587Y-88478928D03*
X152000000Y-87250000D03*
X157086117Y-79138883D03*
X157649482Y-81980243D03*
X155593820Y-90906180D03*
X155250000Y-90000000D03*
X148575880Y-72405720D03*
X151369399Y-79213669D03*
X141764446Y-92225000D03*
X150361895Y-70910295D03*
X124880025Y-55380025D03*
X149530800Y-77242000D03*
X146990800Y-70993600D03*
X149228420Y-70051380D03*
X141000000Y-91750000D03*
X147727400Y-71806400D03*
X150292800Y-78994600D03*
X150267400Y-68631400D03*
X140500000Y-95000000D03*
X153910000Y-56370000D03*
X158750000Y-76250000D03*
X156947600Y-57303000D03*
X187500000Y-58250000D03*
X176783433Y-118484080D03*
X182250000Y-117750000D03*
X175750000Y-96500000D03*
X142975843Y-84600000D03*
X130000000Y-63500000D03*
X168453800Y-96495200D03*
X138750000Y-99500000D03*
X147607353Y-97869916D03*
X145000000Y-103250000D03*
X148993719Y-99256281D03*
X146750000Y-97000000D03*
X136750000Y-99000000D03*
X155318725Y-97223235D03*
X156500000Y-97950000D03*
X182931800Y-64059400D03*
X188000000Y-49000000D03*
X146283552Y-91798075D03*
X143250000Y-100750000D03*
X147500000Y-102250000D03*
X151750000Y-100500000D03*
X151000000Y-100000000D03*
X146250000Y-101500000D03*
X143250000Y-104000000D03*
X173250000Y-100250000D03*
X164250000Y-104250000D03*
X159250000Y-103250000D03*
X164000000Y-105250000D03*
X165000000Y-103750000D03*
X172500000Y-120250000D03*
X167250000Y-98250000D03*
X170600002Y-122250000D03*
X146500000Y-93250000D03*
X144000000Y-95000000D03*
X146150000Y-94400000D03*
X148500000Y-101250000D03*
X171000000Y-102750000D03*
X168669240Y-91419240D03*
X169398971Y-90892460D03*
X180500000Y-107500000D03*
X155940308Y-101940308D03*
X159957689Y-102693959D03*
X167350001Y-56300000D03*
X153366200Y-57379200D03*
X166650001Y-58300000D03*
X164000000Y-83500000D03*
X129750000Y-65000000D03*
X139269220Y-68900020D03*
X138608800Y-65177000D03*
X160250000Y-85250000D03*
X161000000Y-83500000D03*
X161084620Y-87165380D03*
X154250000Y-89250000D03*
X133200000Y-72676000D03*
X138256811Y-72741443D03*
X162500000Y-94750000D03*
X169334620Y-89834620D03*
X139193000Y-78486600D03*
X153500000Y-90750000D03*
X165000000Y-94500000D03*
X169959620Y-88400000D03*
X172000000Y-87750000D03*
X161000000Y-77000000D03*
X168300000Y-59300000D03*
X165482000Y-56414000D03*
X174500000Y-101500000D03*
X172250000Y-104000000D03*
X181400000Y-119000000D03*
X185649600Y-119355200D03*
X185100000Y-121250000D03*
X182450000Y-120200000D03*
X144700000Y-110750000D03*
X169288935Y-84564431D03*
X168478864Y-83773650D03*
X159868600Y-72822400D03*
X160198800Y-71806400D03*
X194031600Y-83896800D03*
X194107800Y-62738600D03*
X178080400Y-84912800D03*
X193218800Y-95022000D03*
X178893200Y-96139600D03*
X194819000Y-61062200D03*
X182576200Y-57059400D03*
X169368200Y-98349400D03*
X180569600Y-58395200D03*
X169292000Y-97333400D03*
X174168800Y-75235400D03*
X171600000Y-64600000D03*
X190250000Y-110250000D03*
X175896000Y-64923000D03*
X182550800Y-60224000D03*
X193168000Y-85725600D03*
X177267600Y-89637200D03*
X192990200Y-63576800D03*
X179096400Y-59944600D03*
X167250000Y-102250000D03*
X140250000Y-86400000D03*
X167415380Y-103165380D03*
X140900000Y-87250000D03*
X144750000Y-84199000D03*
X139091400Y-77013400D03*
X147693052Y-80850046D03*
X138031364Y-75420965D03*
X145280934Y-81888306D03*
X123750000Y-65250000D03*
X132750000Y-77699000D03*
X146214187Y-80955053D03*
X143708132Y-78449000D03*
X143688800Y-75413200D03*
X138304000Y-66650200D03*
X139320000Y-72746200D03*
X134000000Y-63500000D03*
X145875000Y-92600000D03*
X135500000Y-64900000D03*
X133750000Y-64900000D03*
X134250000Y-80824000D03*
X139900000Y-89250000D03*
X124500000Y-65750000D03*
X149250000Y-95239376D03*
X133500000Y-73725000D03*
X125500000Y-72750000D03*
X144250000Y-83333620D03*
X130750000Y-77750000D03*
X127250000Y-71250000D03*
X144644535Y-82524704D03*
X131834620Y-77915380D03*
X137477000Y-77699200D03*
X134250000Y-72750000D03*
X150157843Y-86842157D03*
X140234400Y-104445400D03*
X148250000Y-98500000D03*
X140250000Y-100000000D03*
X140234400Y-101473600D03*
X148108400Y-105893200D03*
D66*
X162800000Y-87650000D02*
X162806565Y-87643435D01*
X167688348Y-76938348D02*
X167250000Y-76500000D01*
D67*
X164364400Y-73711400D02*
X167153000Y-76500000D01*
X153665582Y-63535200D02*
X153320500Y-63190118D01*
X154509000Y-63535200D02*
X153665582Y-63535200D01*
D66*
X174525000Y-68725000D02*
X173500000Y-69750000D01*
D67*
X155396499Y-63535200D02*
X154509000Y-63535200D01*
X133150002Y-86750000D02*
X134000000Y-86750000D01*
X140250000Y-93750000D02*
X139550000Y-93750000D01*
X181374000Y-72951000D02*
X181374000Y-74488064D01*
X176750000Y-85500000D02*
X178118600Y-86868600D01*
X173850000Y-61250001D02*
X173850000Y-62050001D01*
X181324000Y-96101000D02*
X181324000Y-97824000D01*
D66*
X160250000Y-100500000D02*
X159250000Y-99500000D01*
D67*
X158374900Y-103901000D02*
X156990000Y-105285900D01*
D68*
X183550000Y-85600000D02*
X183550000Y-86550000D01*
D66*
X135675000Y-76275000D02*
X135700000Y-76250000D01*
X164413088Y-88759281D02*
X164766642Y-88405728D01*
X184500000Y-116000000D02*
X184575725Y-115924275D01*
D67*
X128110000Y-56452500D02*
X128110000Y-56000000D01*
X127671384Y-75012562D02*
X127671384Y-75450062D01*
X173850000Y-62050001D02*
X173749001Y-62151000D01*
X139050000Y-92750000D02*
X139300000Y-93000000D01*
X127512500Y-67977063D02*
X126614500Y-68875063D01*
X159796662Y-93796662D02*
X159623565Y-93969759D01*
D68*
X183550000Y-86550000D02*
X184000000Y-87000000D01*
D67*
X136225001Y-74912499D02*
X136225001Y-75377000D01*
D66*
X160500000Y-100500000D02*
X160250000Y-100500000D01*
X174725000Y-108125000D02*
X174600000Y-108000000D01*
D67*
X180874000Y-86038064D02*
X181835936Y-87000000D01*
X136200000Y-67850001D02*
X135275000Y-68775001D01*
X160059624Y-103901000D02*
X158374900Y-103901000D01*
D66*
X154878172Y-87651444D02*
X154931912Y-87651444D01*
D67*
X181575000Y-83750000D02*
X180874000Y-84451000D01*
X129250000Y-58450000D02*
X129250000Y-59555000D01*
D66*
X168000000Y-113650000D02*
X168400000Y-113650000D01*
X167798008Y-87548008D02*
X167779623Y-87548008D01*
D68*
X184550000Y-97550000D02*
X185250000Y-98250000D01*
D67*
X136200000Y-67412501D02*
X136200000Y-67850001D01*
D66*
X162806565Y-87554349D02*
X162812906Y-87548008D01*
D67*
X159977119Y-93616206D02*
X159796662Y-93796662D01*
X181374000Y-74488064D02*
X182135936Y-75250000D01*
D66*
X154500000Y-124450000D02*
X154500000Y-123250000D01*
D67*
X130522500Y-114527500D02*
X130222500Y-114527500D01*
D68*
X183800000Y-73800000D02*
X183800000Y-74700000D01*
D67*
X127075000Y-57652500D02*
X127075000Y-59330000D01*
D66*
X174525000Y-66750000D02*
X174525000Y-68725000D01*
D67*
X163900000Y-108899900D02*
X163900000Y-109350000D01*
D66*
X144237501Y-99212501D02*
X144275000Y-99250000D01*
D67*
X152665100Y-61278799D02*
X153621501Y-62235200D01*
D66*
X189826000Y-116801000D02*
X189000000Y-115975000D01*
D67*
X178118600Y-86868600D02*
X180043464Y-86868600D01*
D66*
X156250000Y-108950000D02*
X156450000Y-108950000D01*
D67*
X135275000Y-68775001D02*
X133700000Y-68775001D01*
D66*
X158201992Y-92548008D02*
X158201992Y-92849854D01*
D67*
X153320500Y-63190118D02*
X153320500Y-62536201D01*
D68*
X184550000Y-97050000D02*
X184550000Y-97550000D01*
D67*
X152665100Y-59585000D02*
X152665100Y-61278799D01*
X136650001Y-86250000D02*
X137925000Y-86250000D01*
D66*
X156750000Y-80564020D02*
X156760778Y-80564020D01*
X163900000Y-110250000D02*
X163900000Y-109350000D01*
X174725000Y-111500000D02*
X174725000Y-108125000D01*
D67*
X158624000Y-67285200D02*
X159970200Y-68631400D01*
X161409717Y-94340283D02*
X161408303Y-94340283D01*
D66*
X175750000Y-99250000D02*
X174583452Y-99250000D01*
X165750000Y-113000000D02*
X167050000Y-111700000D01*
X128000000Y-100000000D02*
X127750000Y-100250000D01*
D67*
X130522500Y-114527500D02*
X130277500Y-114527500D01*
X131050000Y-114000000D02*
X130522500Y-114527500D01*
D66*
X131767800Y-86750000D02*
X130506200Y-88011600D01*
X125012500Y-68761500D02*
X125012500Y-68875063D01*
X164766642Y-88405728D02*
X164768778Y-88405728D01*
D67*
X128450000Y-59555000D02*
X128450000Y-57977500D01*
D66*
X127146384Y-76350062D02*
X126275000Y-76350062D01*
X163500000Y-92750000D02*
X163750000Y-93000000D01*
D67*
X167276001Y-74260651D02*
X167250000Y-74286652D01*
X172476000Y-62151000D02*
X171250000Y-60925000D01*
X158784909Y-82236510D02*
X159138463Y-81882957D01*
X158484000Y-67285200D02*
X158484000Y-66622701D01*
D66*
X160016272Y-94016272D02*
X160483980Y-94016272D01*
X167050000Y-109350000D02*
X167050000Y-110052000D01*
D67*
X181325000Y-106450000D02*
X182450000Y-106450000D01*
D66*
X155666678Y-86916678D02*
X155895154Y-87145154D01*
X162161346Y-81161346D02*
X162500000Y-81500000D01*
D67*
X127075000Y-59330000D02*
X126850000Y-59555000D01*
D66*
X133761051Y-76311050D02*
X133761051Y-76376000D01*
X125229230Y-76432908D02*
X125171384Y-76375062D01*
D67*
X135327001Y-76275000D02*
X133725001Y-76275000D01*
D66*
X189609200Y-118615800D02*
X188975000Y-119250000D01*
D67*
X182135936Y-75250000D02*
X183250000Y-75250000D01*
X136225001Y-75377000D02*
X135327001Y-76275000D01*
D66*
X159796662Y-93796662D02*
X160016272Y-94016272D01*
X175750000Y-100416548D02*
X175830939Y-100497487D01*
X159138463Y-81991027D02*
X159557319Y-82409883D01*
D69*
X170440000Y-53830000D02*
X170440000Y-51290000D01*
D67*
X128450000Y-59555000D02*
X129250000Y-59555000D01*
D66*
X167050000Y-111700000D02*
X167050000Y-109350000D01*
X188975000Y-119250000D02*
X188525000Y-119250000D01*
D67*
X139300000Y-91475000D02*
X139300000Y-92500000D01*
D66*
X154500000Y-123250000D02*
X153250000Y-122000000D01*
X151502443Y-86060454D02*
X151357454Y-86060454D01*
D67*
X128775000Y-57652500D02*
X128775000Y-57975000D01*
X153621501Y-62235200D02*
X154509000Y-62235200D01*
D66*
X175750000Y-99250000D02*
X175750000Y-100416548D01*
D67*
X165490000Y-105980000D02*
X165490000Y-106830000D01*
X128062500Y-56500000D02*
X128110000Y-56452500D01*
X180874000Y-84451000D02*
X180874000Y-86038064D01*
D66*
X155666678Y-86916678D02*
X156505224Y-86078132D01*
D68*
X183800000Y-74700000D02*
X183250000Y-75250000D01*
D66*
X166801000Y-110301000D02*
X163951000Y-110301000D01*
X154931912Y-87651444D02*
X155666678Y-86916678D01*
D67*
X182450000Y-106450000D02*
X183000000Y-107000000D01*
X167000001Y-71699284D02*
X167276001Y-71975284D01*
D66*
X153750000Y-87500000D02*
X154000000Y-87500000D01*
X157176241Y-80979483D02*
X157176241Y-81016750D01*
D67*
X138000000Y-113500000D02*
X137477500Y-113500000D01*
D66*
X170000001Y-76938348D02*
X167688348Y-76938348D01*
D67*
X158484000Y-67285200D02*
X158624000Y-67285200D01*
D70*
X186025000Y-51867400D02*
X186025000Y-54075000D01*
D66*
X180200000Y-118550000D02*
X179750000Y-119000000D01*
X195650000Y-121683452D02*
X195166726Y-122166726D01*
X184510000Y-116010000D02*
X184500000Y-116000000D01*
D67*
X181750000Y-98250000D02*
X184000000Y-98250000D01*
D66*
X153312177Y-87062177D02*
X153750000Y-87500000D01*
X166538816Y-88788816D02*
X166571303Y-88821303D01*
D68*
X190500000Y-54500000D02*
X194000000Y-51000000D01*
D66*
X169500000Y-123750000D02*
X168750000Y-123750000D01*
D67*
X128775000Y-57652500D02*
X128775000Y-56665000D01*
X164115380Y-85284620D02*
X163984620Y-85284620D01*
D70*
X186025000Y-54075000D02*
X186200000Y-54250000D01*
D67*
X128450000Y-57977500D02*
X128775000Y-57652500D01*
X165490000Y-106830000D02*
X165490000Y-107309900D01*
D68*
X183800000Y-73800000D02*
X183800000Y-74800000D01*
D66*
X174525000Y-66750000D02*
X174525000Y-65000000D01*
X171968369Y-101531630D02*
X174186739Y-103750000D01*
D67*
X139550000Y-93750000D02*
X139300000Y-93500000D01*
D68*
X191750000Y-55000000D02*
X190825000Y-55000000D01*
D66*
X156450000Y-108950000D02*
X156850000Y-109350000D01*
D67*
X176925000Y-95500000D02*
X176925000Y-95484100D01*
D66*
X189826000Y-118399000D02*
X189826000Y-116801000D01*
D68*
X184000000Y-107000000D02*
X183000000Y-107000000D01*
D67*
X173749001Y-62151000D02*
X172476000Y-62151000D01*
X167250000Y-74286652D02*
X167250000Y-76500000D01*
X180000000Y-62500000D02*
X181000000Y-63500000D01*
D66*
X163951000Y-110301000D02*
X163900000Y-110250000D01*
D67*
X127750000Y-56500000D02*
X128062500Y-56500000D01*
X127512500Y-67512563D02*
X127512500Y-67977063D01*
D66*
X174186739Y-103750000D02*
X174250000Y-103750000D01*
D67*
X158484000Y-66622701D02*
X155396499Y-63535200D01*
X153312177Y-87062177D02*
X153093434Y-87280920D01*
X137422500Y-115500000D02*
X136450000Y-114527500D01*
D69*
X170440000Y-55520000D02*
X170440000Y-53830000D01*
D67*
X161250000Y-103460624D02*
X160500000Y-103460624D01*
D66*
X168500000Y-124000000D02*
X168000000Y-124000000D01*
D67*
X182075000Y-72250000D02*
X181374000Y-72951000D01*
D66*
X189609200Y-118615800D02*
X189826000Y-118399000D01*
D68*
X183550000Y-85600000D02*
X183550000Y-86450000D01*
D66*
X135700000Y-69300000D02*
X135500000Y-69500000D01*
X151357454Y-86060454D02*
X151023500Y-85726500D01*
D68*
X190325000Y-54500000D02*
X190500000Y-54500000D01*
D66*
X163000000Y-92750000D02*
X163500000Y-92750000D01*
D67*
X127750000Y-56977500D02*
X127075000Y-57652500D01*
X153446988Y-86927367D02*
X153312177Y-87062177D01*
D68*
X190825000Y-55000000D02*
X190325000Y-54500000D01*
D66*
X133725001Y-76275000D02*
X135675000Y-76275000D01*
D67*
X156990000Y-105285900D02*
X156990000Y-106730000D01*
D68*
X184550000Y-97050000D02*
X184550000Y-97700000D01*
D67*
X128775000Y-56665000D02*
X128110000Y-56000000D01*
X163000000Y-92750000D02*
X161409717Y-94340283D01*
D66*
X160000000Y-99500000D02*
X160500000Y-99000000D01*
D68*
X184550000Y-97700000D02*
X184000000Y-98250000D01*
D66*
X175150000Y-110250000D02*
X174650000Y-109750000D01*
D67*
X127671384Y-75450062D02*
X126746384Y-76375062D01*
D66*
X194000000Y-121000000D02*
X195166726Y-122166726D01*
X126275000Y-76350062D02*
X126192154Y-76432908D01*
X130550000Y-100000000D02*
X128000000Y-100000000D01*
X158201992Y-92849854D02*
X158486949Y-93134811D01*
X164768778Y-88405728D02*
X165313050Y-88950000D01*
D67*
X167000001Y-70213348D02*
X167000001Y-71699284D01*
X138000000Y-115500000D02*
X137422500Y-115500000D01*
X161307034Y-82607034D02*
X160569647Y-82607034D01*
X130277500Y-114527500D02*
X129500000Y-113750000D01*
D66*
X143250000Y-102350000D02*
X141850000Y-102350000D01*
D67*
X136977500Y-114000000D02*
X136450000Y-114000000D01*
X137925000Y-86250000D02*
X138675000Y-87000000D01*
X181835936Y-87000000D02*
X183000000Y-87000000D01*
X167000001Y-69363348D02*
X167000001Y-70213348D01*
D66*
X124801000Y-68550000D02*
X125012500Y-68761500D01*
X167050000Y-110052000D02*
X166801000Y-110301000D01*
D67*
X128775000Y-57975000D02*
X129250000Y-58450000D01*
D66*
X133150002Y-86750000D02*
X131767800Y-86750000D01*
D67*
X160500000Y-99000000D02*
X160500000Y-100500000D01*
X137477500Y-113500000D02*
X136977500Y-114000000D01*
D66*
X175500000Y-110250000D02*
X175150000Y-110250000D01*
D69*
X171270000Y-56350000D02*
X170440000Y-55520000D01*
D67*
X163984620Y-85284620D02*
X161307034Y-82607034D01*
D66*
X180200000Y-118025000D02*
X180475000Y-117750000D01*
X195650000Y-121000000D02*
X195650000Y-121683452D01*
X141850000Y-102350000D02*
X141750000Y-102250000D01*
X159250000Y-99500000D02*
X160000000Y-99500000D01*
X174583452Y-99250000D02*
X174416726Y-99083274D01*
D67*
X138350000Y-92750000D02*
X139050000Y-92750000D01*
X180000000Y-62250000D02*
X180000000Y-62500000D01*
D66*
X184575725Y-115842184D02*
X184575725Y-115800725D01*
D67*
X158484000Y-59035200D02*
X158484000Y-58916200D01*
D66*
X180475000Y-117750000D02*
X180475000Y-117155000D01*
X162806565Y-87643435D02*
X162806565Y-87554349D01*
X186925000Y-112250000D02*
X187000000Y-112250000D01*
D67*
X126614500Y-68875063D02*
X125012500Y-68875063D01*
D66*
X184575725Y-115800725D02*
X184000000Y-115225000D01*
D67*
X127750000Y-56500000D02*
X127750000Y-56977500D01*
D66*
X179750000Y-119000000D02*
X179525000Y-119000000D01*
D67*
X181324000Y-97824000D02*
X181750000Y-98250000D01*
D66*
X162161346Y-81016751D02*
X162161346Y-81161346D01*
D67*
X160500000Y-103460624D02*
X160059624Y-103901000D01*
D66*
X156760778Y-80564020D02*
X157176241Y-80979483D01*
X155895154Y-87145154D02*
X155900000Y-87145154D01*
D67*
X130222500Y-114527500D02*
X129500000Y-115250000D01*
D66*
X166538816Y-88788816D02*
X166197826Y-89129805D01*
D69*
X171275000Y-56350000D02*
X171270000Y-56350000D01*
D66*
X180474978Y-110724339D02*
X180474978Y-110750022D01*
D67*
X167276001Y-71975284D02*
X167276001Y-74260651D01*
X128775000Y-57652500D02*
X127075000Y-57652500D01*
D66*
X168400000Y-113650000D02*
X169250000Y-114500000D01*
D68*
X183800000Y-74800000D02*
X184250000Y-75250000D01*
D66*
X180200000Y-118025000D02*
X180200000Y-118550000D01*
D67*
X126746384Y-76375062D02*
X125171384Y-76375062D01*
X167153000Y-76500000D02*
X167250000Y-76500000D01*
X180043464Y-86868600D02*
X180874000Y-86038064D01*
D66*
X184575725Y-115924275D02*
X184575725Y-115842184D01*
X187000000Y-112250000D02*
X187750000Y-113000000D01*
X133725001Y-76275000D02*
X133761051Y-76311050D01*
D67*
X139775000Y-91000000D02*
X139300000Y-91475000D01*
D66*
X171250000Y-60925000D02*
X171250000Y-60150000D01*
X143250000Y-99212501D02*
X144237501Y-99212501D01*
D67*
X153320500Y-62536201D02*
X153621501Y-62235200D01*
X165490000Y-107309900D02*
X163900000Y-108899900D01*
D66*
X185750000Y-116010000D02*
X184510000Y-116010000D01*
X171250000Y-60150000D02*
X171200000Y-60100000D01*
D68*
X183550000Y-86450000D02*
X183000000Y-87000000D01*
D66*
X167779623Y-87548008D02*
X166538816Y-88788816D01*
D67*
X176925000Y-95484100D02*
X177521600Y-94887500D01*
D66*
X159138463Y-81882957D02*
X159138463Y-81991027D01*
X168750000Y-123750000D02*
X168500000Y-124000000D01*
X166571303Y-88821303D02*
X166571303Y-88986846D01*
X135700000Y-68750000D02*
X135700000Y-69300000D01*
D67*
X136450000Y-114527500D02*
X136450000Y-114000000D01*
X158484000Y-58916200D02*
X159894000Y-57506200D01*
D66*
X180474978Y-110750022D02*
X179725000Y-111500000D01*
D68*
X185250000Y-98250000D02*
X184000000Y-98250000D01*
D66*
X126192154Y-76432908D02*
X125229230Y-76432908D01*
D67*
X182025000Y-95400000D02*
X181324000Y-96101000D01*
D66*
X128181000Y-102331000D02*
X125850000Y-100000000D01*
X124500000Y-99250000D02*
X125100000Y-99250000D01*
X135250000Y-100000000D02*
X134250000Y-100000000D01*
X134250000Y-100000000D02*
X133500000Y-99250000D01*
X135250000Y-100000000D02*
X132919000Y-102331000D01*
X125100000Y-99250000D02*
X125850000Y-100000000D01*
X132919000Y-102331000D02*
X128181000Y-102331000D01*
X180475000Y-114615000D02*
X181840000Y-114615000D01*
X184000000Y-116775000D02*
X186225000Y-116775000D01*
X191745600Y-117196200D02*
X191136000Y-117805800D01*
D67*
X143663400Y-70892000D02*
X145593800Y-70892000D01*
D66*
X131250000Y-71250000D02*
X130700000Y-71250000D01*
X191136000Y-117805800D02*
X191136000Y-118237600D01*
X188575000Y-121000000D02*
X188575000Y-120798600D01*
X131750000Y-64500000D02*
X131750000Y-66250000D01*
X180475000Y-115885000D02*
X180475000Y-114615000D01*
D67*
X142571200Y-69799800D02*
X143663400Y-70892000D01*
D66*
X184975000Y-120075000D02*
X183675000Y-118775000D01*
X181840000Y-114160000D02*
X182000000Y-114000000D01*
X181275000Y-111500000D02*
X181275000Y-112545000D01*
X186250000Y-116010000D02*
X186250000Y-116750000D01*
X191136000Y-118237600D02*
X189298600Y-120075000D01*
X181840000Y-114615000D02*
X181840000Y-114160000D01*
X186225000Y-116775000D02*
X186250000Y-116750000D01*
X131250000Y-66750000D02*
X131250000Y-69000000D01*
D67*
X140250000Y-84250000D02*
X137500000Y-84250000D01*
D66*
X183675000Y-118775000D02*
X183675000Y-117100000D01*
X183675000Y-117100000D02*
X184000000Y-116775000D01*
X188575000Y-120798600D02*
X189298600Y-120075000D01*
X186250000Y-116750000D02*
X186250000Y-117490000D01*
X180475000Y-113345000D02*
X180475000Y-114615000D01*
X181840000Y-114615000D02*
X184000000Y-116775000D01*
X189298600Y-120075000D02*
X184975000Y-120075000D01*
X131750000Y-66250000D02*
X131250000Y-66750000D01*
X130700000Y-71250000D02*
X130450000Y-71500000D01*
X192375000Y-116075000D02*
X191745600Y-116704400D01*
X181275000Y-112545000D02*
X180475000Y-113345000D01*
X191745600Y-116704400D02*
X191745600Y-117196200D01*
X132674000Y-71376000D02*
X132550000Y-71500000D01*
X133250000Y-71376000D02*
X132674000Y-71376000D01*
D67*
X130307500Y-56000000D02*
X129890000Y-56000000D01*
D66*
X124949000Y-88951000D02*
X124949000Y-86101000D01*
X128537500Y-68850063D02*
X128537500Y-68351000D01*
X172701000Y-88040364D02*
X172241364Y-88500000D01*
X167635454Y-118049000D02*
X168933372Y-118049000D01*
D67*
X165492133Y-88052174D02*
X165668203Y-88228244D01*
D66*
X143412100Y-55756300D02*
X144222200Y-56566400D01*
D67*
X171083363Y-82916637D02*
X169833363Y-81666637D01*
D66*
X128537500Y-68351000D02*
X128638500Y-68250000D01*
X154825000Y-103825000D02*
X153500000Y-102500000D01*
X189500000Y-123274206D02*
X187873206Y-124901000D01*
D67*
X127298000Y-60652500D02*
X130147500Y-60652500D01*
D66*
X146000000Y-96000000D02*
X146500000Y-95500000D01*
X135256000Y-80174000D02*
X135082000Y-80000000D01*
D67*
X155990000Y-106730000D02*
X155990000Y-105880000D01*
D66*
X173201000Y-118201000D02*
X173201000Y-122049000D01*
X127080000Y-90200000D02*
X131031000Y-86249000D01*
D67*
X143200000Y-109400000D02*
X143200000Y-109350000D01*
X146025000Y-109750000D02*
X143550000Y-109750000D01*
X170000001Y-78488348D02*
X170000001Y-79434446D01*
D66*
X152616137Y-84982116D02*
X152598459Y-84964438D01*
D67*
X126850000Y-61750000D02*
X126850000Y-61100500D01*
X142850600Y-106680600D02*
X142850600Y-105050800D01*
X160000000Y-105750000D02*
X160560000Y-105750000D01*
D66*
X152598459Y-84964438D02*
X152598459Y-85371731D01*
D67*
X160878680Y-93438722D02*
X160878680Y-92679288D01*
D66*
X155409208Y-84982116D02*
X152616137Y-84982116D01*
X130470200Y-80000000D02*
X128696384Y-78226184D01*
X175525000Y-114615000D02*
X175525000Y-113345000D01*
X131250000Y-59250000D02*
X131250000Y-59550000D01*
D67*
X154172479Y-86573813D02*
X154348549Y-86749883D01*
X124151000Y-68186563D02*
X124151000Y-69238673D01*
D66*
X142250000Y-105000000D02*
X137750000Y-100500000D01*
X135594600Y-86750000D02*
X136650000Y-86750000D01*
D67*
X171083363Y-83583363D02*
X171083363Y-82916637D01*
X128012500Y-67512563D02*
X128012500Y-68325063D01*
D66*
X172241364Y-88500000D02*
X171250000Y-88500000D01*
X160394595Y-79250000D02*
X161065330Y-79920735D01*
X138500000Y-90000000D02*
X138500000Y-90725000D01*
X161700000Y-109350000D02*
X161700000Y-106890000D01*
X145771600Y-60452600D02*
X149784800Y-60452600D01*
X172250000Y-117250000D02*
X173201000Y-118201000D01*
X131250000Y-59250000D02*
X131250000Y-58577500D01*
X153500000Y-100500000D02*
X151665620Y-98665620D01*
D67*
X127920384Y-77126062D02*
X128696384Y-76350062D01*
D66*
X160000000Y-90750000D02*
X161000000Y-90750000D01*
X153578400Y-82078400D02*
X153250000Y-81750000D01*
X125245000Y-58750000D02*
X126050000Y-59555000D01*
D67*
X172000000Y-84500000D02*
X171083363Y-83583363D01*
X165120195Y-88052174D02*
X165492133Y-88052174D01*
D66*
X153355500Y-58725400D02*
X154215100Y-59585000D01*
D67*
X130325000Y-57652500D02*
X130325000Y-59280000D01*
D66*
X152598459Y-85371731D02*
X153800541Y-86573813D01*
X138350000Y-93250000D02*
X138350000Y-93725000D01*
D67*
X124151000Y-75845446D02*
X124151000Y-76833900D01*
X170000001Y-79434446D02*
X170038706Y-79473151D01*
X125171384Y-74825062D02*
X126483884Y-74825062D01*
X160878680Y-92679288D02*
X161903984Y-91653984D01*
X135037499Y-67250001D02*
X133725000Y-67250001D01*
X138225000Y-92125000D02*
X138350000Y-92250000D01*
D66*
X165250000Y-81500000D02*
X165250000Y-82500000D01*
D67*
X160330672Y-93262652D02*
X160330672Y-92484656D01*
D66*
X154825000Y-105000000D02*
X154825000Y-103825000D01*
D67*
X130325000Y-57652500D02*
X130325000Y-56017500D01*
X153800541Y-86573813D02*
X154172479Y-86573813D01*
D66*
X137500000Y-93250000D02*
X138350000Y-93250000D01*
X149784800Y-60452600D02*
X151512000Y-58725400D01*
X124902500Y-58275000D02*
X125525000Y-57652500D01*
D67*
X162050000Y-99000000D02*
X161987241Y-99000000D01*
D66*
X171491364Y-86250000D02*
X172701000Y-87459636D01*
X153000000Y-80500000D02*
X153000000Y-80416726D01*
X160250000Y-79250000D02*
X160394595Y-79250000D01*
X133474999Y-67000000D02*
X133700000Y-67225001D01*
X126000000Y-84000000D02*
X127250000Y-82750000D01*
X161700000Y-109350000D02*
X161700000Y-110700000D01*
X176275000Y-111500000D02*
X176275000Y-112595000D01*
X134000001Y-86250000D02*
X133150001Y-86250000D01*
X164000000Y-80250000D02*
X165250000Y-81500000D01*
X153250000Y-81750000D02*
X152000000Y-81750000D01*
X134000001Y-86250000D02*
X135094600Y-86250000D01*
X152384021Y-84750000D02*
X152598459Y-84964438D01*
X124949000Y-86101000D02*
X126000000Y-85050000D01*
X167499000Y-117912546D02*
X167635454Y-118049000D01*
X172250000Y-115925000D02*
X172250000Y-117250000D01*
X126248000Y-90250000D02*
X124949000Y-88951000D01*
X138000000Y-92250000D02*
X138350000Y-92250000D01*
X169500000Y-86250000D02*
X171491364Y-86250000D01*
D67*
X125525000Y-59030000D02*
X126050000Y-59555000D01*
D66*
X143575000Y-93250000D02*
X143575000Y-92675000D01*
X142799800Y-105000000D02*
X142250000Y-105000000D01*
X189500000Y-121939998D02*
X189500000Y-123274206D01*
X173250000Y-114925000D02*
X175215000Y-114925000D01*
X161700000Y-110700000D02*
X156398000Y-110700000D01*
D67*
X128171384Y-75825062D02*
X128696384Y-76350062D01*
X160330672Y-93262652D02*
X160702610Y-93262652D01*
X173250000Y-84500000D02*
X172000000Y-84500000D01*
D66*
X172701000Y-87459636D02*
X172701000Y-88040364D01*
D67*
X124151000Y-69238673D02*
X124538390Y-69626063D01*
D66*
X137500000Y-76250000D02*
X137250000Y-76250000D01*
X161700000Y-110700000D02*
X165199000Y-114199000D01*
X133000000Y-67000000D02*
X133474999Y-67000000D01*
D67*
X159668086Y-81705473D02*
X159492016Y-81529403D01*
X160330672Y-92484656D02*
X159298008Y-91451992D01*
D66*
X127250000Y-90250000D02*
X126248000Y-90250000D01*
X176275000Y-112595000D02*
X175525000Y-113345000D01*
D67*
X133725000Y-67250001D02*
X133700000Y-67225001D01*
X155990000Y-105880000D02*
X155705000Y-105880000D01*
X127761500Y-69626063D02*
X128537500Y-68850063D01*
X159492016Y-81140493D02*
X159492016Y-81529403D01*
D66*
X138214800Y-54750000D02*
X139221100Y-55756300D01*
D67*
X169833363Y-79678494D02*
X170038706Y-79473151D01*
X135062500Y-74749999D02*
X133750000Y-74749999D01*
X160702610Y-93262652D02*
X160878680Y-93438722D01*
X126350000Y-67350063D02*
X125037500Y-67350063D01*
D66*
X125000000Y-70500000D02*
X126887563Y-70500000D01*
X143250000Y-96000000D02*
X146000000Y-96000000D01*
X139221100Y-55756300D02*
X143412100Y-55756300D01*
D67*
X160040024Y-81705473D02*
X159668086Y-81705473D01*
D66*
X153500000Y-102500000D02*
X153500000Y-100500000D01*
X135094600Y-86250000D02*
X135594600Y-86750000D01*
D67*
X124443162Y-77126062D02*
X127920384Y-77126062D01*
X165120195Y-87120195D02*
X165000000Y-87000000D01*
D66*
X161000000Y-90750000D02*
X161903984Y-91653984D01*
X153750000Y-82078400D02*
X153750000Y-81250000D01*
X154825000Y-105000000D02*
X142799800Y-105000000D01*
X149784800Y-60452600D02*
X149784800Y-62103600D01*
X152000000Y-81750000D02*
X151833363Y-81583363D01*
D67*
X143550000Y-109750000D02*
X143200000Y-109400000D01*
D66*
X124902500Y-58750000D02*
X124902500Y-58275000D01*
X137250000Y-93000000D02*
X138000000Y-92250000D01*
D67*
X155705000Y-105880000D02*
X154825000Y-105000000D01*
D66*
X161700000Y-106890000D02*
X161240000Y-106430000D01*
X142500000Y-95250000D02*
X143250000Y-96000000D01*
X126887563Y-70500000D02*
X128537500Y-68850063D01*
X134500000Y-54750000D02*
X138214800Y-54750000D01*
D67*
X136725000Y-74912499D02*
X136725000Y-75725000D01*
X128012500Y-68325063D02*
X128537500Y-68850063D01*
D66*
X166701992Y-86451992D02*
X169298008Y-86451992D01*
X131250000Y-58577500D02*
X130325000Y-57652500D01*
D67*
X154215100Y-59585000D02*
X154215100Y-61291299D01*
D66*
X124902500Y-58750000D02*
X125245000Y-58750000D01*
X125000000Y-77750000D02*
X124345384Y-77095384D01*
D67*
X130050000Y-59555000D02*
X130050000Y-60555000D01*
X169833363Y-81666637D02*
X169833363Y-79678494D01*
D66*
X158272257Y-79920734D02*
X158925761Y-80574239D01*
D67*
X124538390Y-69626063D02*
X127761500Y-69626063D01*
D66*
X128696384Y-78226184D02*
X128696384Y-76350062D01*
D67*
X130325000Y-56017500D02*
X130307500Y-56000000D01*
D66*
X173250000Y-114925000D02*
X172250000Y-115925000D01*
X164451992Y-86451992D02*
X165000000Y-87000000D01*
X154825000Y-109127000D02*
X154825000Y-105000000D01*
D67*
X125525000Y-57652500D02*
X125525000Y-59030000D01*
D66*
X124345384Y-75651062D02*
X125171384Y-74825062D01*
X155409208Y-84982116D02*
X155492324Y-84899000D01*
X138500000Y-90725000D02*
X138225000Y-91000000D01*
D67*
X146975000Y-110700000D02*
X146025000Y-109750000D01*
X136725000Y-75725000D02*
X137250000Y-76250000D01*
D66*
X168933372Y-118049000D02*
X173067186Y-122182814D01*
D67*
X126850000Y-61100500D02*
X127298000Y-60652500D01*
D66*
X137250000Y-93000000D02*
X137500000Y-93250000D01*
D67*
X130325000Y-59280000D02*
X130050000Y-59555000D01*
X138225000Y-91000000D02*
X138225000Y-92125000D01*
D66*
X133626900Y-55623100D02*
X134500000Y-54750000D01*
X153750000Y-82078400D02*
X153578400Y-82078400D01*
D67*
X162050000Y-99000000D02*
X162050000Y-100500000D01*
D66*
X153750000Y-81250000D02*
X153000000Y-80500000D01*
X131250000Y-59550000D02*
X130147500Y-60652500D01*
X151512000Y-58725400D02*
X153355500Y-58725400D01*
X169298008Y-86451992D02*
X169500000Y-86250000D01*
D67*
X130050000Y-60555000D02*
X130147500Y-60652500D01*
D66*
X143575000Y-92675000D02*
X143750000Y-92500000D01*
D67*
X125037500Y-67350063D02*
X125012500Y-67325063D01*
D66*
X131031000Y-86249000D02*
X133681200Y-86249000D01*
X166662546Y-114199000D02*
X167499000Y-115035454D01*
D67*
X158925761Y-80574239D02*
X159492016Y-81140493D01*
D66*
X175215000Y-114925000D02*
X175525000Y-114615000D01*
X156398000Y-110700000D02*
X154825000Y-109127000D01*
D67*
X165120195Y-88052174D02*
X165120195Y-87120195D01*
X125012500Y-67325063D02*
X124151000Y-68186563D01*
X161987241Y-99000000D02*
X161861241Y-98874000D01*
X160560000Y-105750000D02*
X161240000Y-106430000D01*
D66*
X133725001Y-74825001D02*
X133725001Y-74725000D01*
D67*
X124151000Y-76833900D02*
X124443162Y-77126062D01*
X136699999Y-67412501D02*
X136699999Y-68199999D01*
D66*
X160000000Y-90750000D02*
X159298008Y-91451992D01*
X149784800Y-62103600D02*
X150877000Y-63195800D01*
X167499000Y-115035454D02*
X167499000Y-117912546D01*
D67*
X154215100Y-61291299D02*
X154509001Y-61585200D01*
D66*
X187873206Y-124901000D02*
X175785372Y-124901000D01*
D67*
X128171384Y-75012562D02*
X128171384Y-75825062D01*
D66*
X126000000Y-85050000D02*
X126000000Y-84000000D01*
X124345384Y-77095384D02*
X124345384Y-75651062D01*
D67*
X167475000Y-78488348D02*
X167250000Y-78713348D01*
D66*
X135082000Y-80000000D02*
X130470200Y-80000000D01*
X165199000Y-114199000D02*
X166662546Y-114199000D01*
D67*
X126483884Y-74825062D02*
X126508884Y-74850062D01*
X142850600Y-105050800D02*
X142799800Y-105000000D01*
D66*
X153000000Y-80416726D02*
X153083363Y-80333363D01*
X133825000Y-74925000D02*
X133725001Y-74825001D01*
X173067186Y-122182814D02*
X175785372Y-124901000D01*
X173201000Y-122049000D02*
X173067186Y-122182814D01*
X137500000Y-86750000D02*
X136650000Y-86750000D01*
D67*
X170000001Y-78488348D02*
X167475000Y-78488348D01*
X136699999Y-68199999D02*
X137250000Y-68750000D01*
X125171384Y-74825062D02*
X124151000Y-75845446D01*
X133750000Y-74749999D02*
X133725001Y-74725000D01*
D66*
X163908922Y-86451992D02*
X164451992Y-86451992D01*
X177975000Y-117917322D02*
X175942678Y-115885000D01*
X177975000Y-119000000D02*
X177975000Y-117917322D01*
X175942678Y-115885000D02*
X175525000Y-115885000D01*
D69*
X175325000Y-57500000D02*
X174175000Y-56350000D01*
X175325000Y-58850000D02*
X175325000Y-57500000D01*
X172980000Y-55155000D02*
X172980000Y-53830000D01*
X172980000Y-53830000D02*
X172980000Y-51290000D01*
X174175000Y-56350000D02*
X172980000Y-55155000D01*
D66*
X168500000Y-118750000D02*
X168250000Y-118750000D01*
X186975000Y-118995175D02*
X187716427Y-118253748D01*
X186750000Y-117490000D02*
X186750000Y-119025000D01*
X173250000Y-123500000D02*
X168500000Y-118750000D01*
X186750000Y-119025000D02*
X186975000Y-119250000D01*
X186975000Y-119250000D02*
X186975000Y-118995175D01*
X173000000Y-109750000D02*
X173000000Y-106250000D01*
D67*
X175224000Y-107224000D02*
X173826000Y-107224000D01*
X173826000Y-107224000D02*
X173050000Y-108000000D01*
X176000000Y-108000000D02*
X175224000Y-107224000D01*
D66*
X170525000Y-62575000D02*
X170500000Y-62600000D01*
X171250000Y-62575000D02*
X170525000Y-62575000D01*
D67*
X154124000Y-110374000D02*
X156399000Y-112649000D01*
X154124000Y-106000000D02*
X154124000Y-110374000D01*
X156399000Y-123527670D02*
X156571330Y-123700000D01*
X156399000Y-112649000D02*
X156399000Y-123527670D01*
X170776001Y-75276001D02*
X170776001Y-79208601D01*
X170500000Y-75000000D02*
X170776001Y-75276001D01*
X172067400Y-80500000D02*
X174500000Y-80500000D01*
X170776001Y-79208601D02*
X172067400Y-80500000D01*
X180425000Y-72250000D02*
X180425000Y-71175000D01*
X180425000Y-72250000D02*
X180425000Y-74000000D01*
X180425000Y-71175000D02*
X179750000Y-70500000D01*
X179274200Y-74727400D02*
X179697600Y-74727400D01*
X179697600Y-74727400D02*
X180425000Y-74000000D01*
X179925000Y-83750000D02*
X179925000Y-85550000D01*
X179925000Y-82925000D02*
X179500000Y-82500000D01*
X179925000Y-83750000D02*
X179925000Y-82925000D01*
X180375000Y-95400000D02*
X179900000Y-95400000D01*
X180375000Y-97200000D02*
X180375000Y-95400000D01*
X179900000Y-95400000D02*
X179750000Y-95250000D01*
X161750000Y-84750000D02*
X161500000Y-84500000D01*
X163294272Y-89091450D02*
X161750000Y-87547178D01*
X164942711Y-89660842D02*
X164809648Y-89793905D01*
X164111005Y-89793905D02*
X163408550Y-89091450D01*
X164809648Y-89793905D02*
X164111005Y-89793905D01*
X161750000Y-87547178D02*
X161750000Y-84750000D01*
X163408550Y-89091450D02*
X163294272Y-89091450D01*
X164307289Y-89307289D02*
X164589158Y-89307289D01*
X155175000Y-81925000D02*
X155475000Y-81625000D01*
X155475000Y-81625000D02*
X155625000Y-81625000D01*
X162644854Y-86250000D02*
X163750000Y-87355146D01*
X162500000Y-86250000D02*
X162644854Y-86250000D01*
X163750000Y-88750000D02*
X164307289Y-89307289D01*
X163750000Y-87355146D02*
X163750000Y-88750000D01*
X155625000Y-81625000D02*
X158750000Y-84750000D01*
X153326610Y-88478928D02*
X153623057Y-88182481D01*
X152823587Y-88478928D02*
X153326610Y-88478928D01*
X152000000Y-87250000D02*
X152578928Y-87828928D01*
X152578928Y-87828928D02*
X153269504Y-87828928D01*
X158668718Y-82784518D02*
X158960979Y-82784518D01*
X158298293Y-82414093D02*
X158668718Y-82784518D01*
X157125399Y-79903832D02*
X158335327Y-81113760D01*
X158298293Y-82102992D02*
X158298293Y-82414093D01*
X157125399Y-79178165D02*
X157125399Y-79903832D01*
X157086117Y-79138883D02*
X157125399Y-79178165D01*
X158335327Y-81113760D02*
X158335327Y-82065958D01*
X158335327Y-82065958D02*
X158298293Y-82102992D01*
X159181469Y-83271134D02*
X159314532Y-83138071D01*
X158588234Y-83271134D02*
X159181469Y-83271134D01*
X157649482Y-81980243D02*
X157750000Y-82080761D01*
X157750000Y-82432900D02*
X158588234Y-83271134D01*
X157750000Y-82080761D02*
X157750000Y-82432900D01*
X155593820Y-91160920D02*
X159437283Y-95004383D01*
X159437283Y-95004383D02*
X160020125Y-95004383D01*
X160020125Y-95004383D02*
X160153188Y-94871320D01*
X155593820Y-90906180D02*
X155593820Y-91160920D01*
X155250000Y-90000000D02*
X156716060Y-90000000D01*
X159136949Y-92420889D02*
X159136949Y-94085599D01*
X156716060Y-90000000D02*
X159136949Y-92420889D01*
X159569117Y-94517767D02*
X159799635Y-94517767D01*
X159136949Y-94085599D02*
X159569117Y-94517767D01*
X150422220Y-70849970D02*
X150422220Y-70157820D01*
X148565600Y-73660600D02*
X151369399Y-76464399D01*
X138558000Y-58293600D02*
X134163800Y-58293600D01*
X124908550Y-55658550D02*
X125158550Y-55658550D01*
X151826862Y-79256412D02*
X151916637Y-79166637D01*
X134163800Y-58293600D02*
X130670200Y-54800000D01*
X141760936Y-92225000D02*
X141764446Y-92225000D01*
X126300000Y-54800000D02*
X125441450Y-55658550D01*
X125952500Y-60652500D02*
X125655000Y-60652500D01*
X124252500Y-59250000D02*
X124252500Y-56564600D01*
X150361895Y-70910295D02*
X150422220Y-70849970D01*
X130670200Y-54800000D02*
X126300000Y-54800000D01*
X140250000Y-92750000D02*
X141235936Y-92750000D01*
X141235936Y-92750000D02*
X141760936Y-92225000D01*
X148575880Y-72731080D02*
X148565600Y-72741360D01*
X124252500Y-56564600D02*
X125158550Y-55658550D01*
X148565600Y-72741360D02*
X148565600Y-73660600D01*
X151869605Y-79213669D02*
X151916637Y-79166637D01*
X125655000Y-60652500D02*
X124252500Y-59250000D01*
X148575880Y-72405720D02*
X148575880Y-72731080D01*
X151369399Y-76464399D02*
X151369399Y-79213669D01*
X151369399Y-79213669D02*
X151869605Y-79213669D01*
X150422220Y-70157820D02*
X138558000Y-58293600D01*
X124880025Y-55380025D02*
X124880025Y-55630025D01*
X125441450Y-55658550D02*
X125158550Y-55658550D01*
X124880025Y-55630025D02*
X124908550Y-55658550D01*
X146990800Y-74702000D02*
X149530800Y-77242000D01*
X149228420Y-70030820D02*
X149228420Y-70051380D01*
X146990800Y-70993600D02*
X146990800Y-74702000D01*
X140947600Y-61750000D02*
X149228420Y-70030820D01*
X130050000Y-61750000D02*
X140947600Y-61750000D01*
X147702000Y-71831800D02*
X147702000Y-74117800D01*
X126050000Y-61750000D02*
X124500000Y-61750000D01*
X147702000Y-74117800D02*
X150292800Y-76708600D01*
X134341600Y-57531600D02*
X130960000Y-54150000D01*
X147727400Y-71806400D02*
X147702000Y-71831800D01*
X135800000Y-94850000D02*
X136900000Y-95950000D01*
X141000000Y-92105840D02*
X140855840Y-92250000D01*
X139167600Y-57531600D02*
X134341600Y-57531600D01*
X123000000Y-60250000D02*
X123000000Y-62450000D01*
X121650000Y-63800000D02*
X121650000Y-88800000D01*
X121650000Y-88800000D02*
X127700000Y-94850000D01*
X126000000Y-54150000D02*
X125466380Y-54683620D01*
X140855840Y-92250000D02*
X140250000Y-92250000D01*
X141000000Y-91750000D02*
X141000000Y-92105840D01*
X124500000Y-61750000D02*
X123000000Y-60250000D01*
X123933620Y-55066380D02*
X123000000Y-56000000D01*
X139550000Y-95950000D02*
X140500000Y-95000000D01*
X150267400Y-68631400D02*
X139167600Y-57531600D01*
X123933620Y-55064966D02*
X123933620Y-55066380D01*
X150292800Y-80042800D02*
X150666637Y-80416637D01*
X136900000Y-95950000D02*
X139550000Y-95950000D01*
X123000000Y-62450000D02*
X121650000Y-63800000D01*
X125466380Y-54683620D02*
X124314966Y-54683620D01*
X127700000Y-94850000D02*
X135800000Y-94850000D01*
X123000000Y-56000000D02*
X123000000Y-60250000D01*
X150292800Y-78994600D02*
X150292800Y-80042800D01*
X150292800Y-76708600D02*
X150292800Y-78994600D01*
X124314966Y-54683620D02*
X123933620Y-55064966D01*
X130960000Y-54150000D02*
X126000000Y-54150000D01*
X153910000Y-52540000D02*
X152660000Y-51290000D01*
X153910000Y-56370000D02*
X153910000Y-52540000D01*
X158750000Y-76250000D02*
X158749600Y-76250000D01*
X145085800Y-57684000D02*
X145085800Y-55804400D01*
X143780000Y-54498600D02*
X143780000Y-52550000D01*
X145085800Y-55804400D02*
X143780000Y-54498600D01*
X143790400Y-58979400D02*
X145085800Y-57684000D01*
X152020000Y-69520400D02*
X152020000Y-68910800D01*
X143790400Y-60681200D02*
X143790400Y-58979400D01*
X152020000Y-68910800D02*
X143790400Y-60681200D01*
X158749600Y-76250000D02*
X152020000Y-69520400D01*
X143780000Y-52550000D02*
X145040000Y-51290000D01*
X156947600Y-57303000D02*
X156923000Y-57303000D01*
X156490000Y-56870000D02*
X156490000Y-52580000D01*
X156923000Y-57303000D02*
X156490000Y-56870000D01*
X156490000Y-52580000D02*
X155200000Y-51290000D01*
D68*
X182647400Y-54250000D02*
X186647400Y-58250000D01*
X188450000Y-59000000D02*
X188250000Y-59000000D01*
X188250000Y-59000000D02*
X187500000Y-58250000D01*
X186647400Y-58250000D02*
X187500000Y-58250000D01*
X181800000Y-54250000D02*
X182647400Y-54250000D01*
D71*
X191313800Y-81306000D02*
X191313800Y-94387000D01*
X191313800Y-94387000D02*
X191313800Y-104936200D01*
X189000000Y-69000000D02*
X190513400Y-69000000D01*
X191313800Y-104936200D02*
X189000000Y-107250000D01*
X190550000Y-59950000D02*
X191313800Y-60713800D01*
X191200800Y-94500000D02*
X191313800Y-94387000D01*
X191313800Y-68199600D02*
X191313800Y-81306000D01*
X189000000Y-81750000D02*
X190869800Y-81750000D01*
X191313800Y-60713800D02*
X191313800Y-68199600D01*
X190869800Y-81750000D02*
X191313800Y-81306000D01*
X189000000Y-94500000D02*
X191200800Y-94500000D01*
X190513400Y-69000000D02*
X191313800Y-68199600D01*
D66*
X190550000Y-56475000D02*
X190325000Y-56250000D01*
X190550000Y-58050000D02*
X190550000Y-56475000D01*
D67*
X182075000Y-74000000D02*
X183226000Y-72849000D01*
X184749000Y-72849000D02*
X185700000Y-73800000D01*
X183226000Y-72849000D02*
X184749000Y-72849000D01*
X181575000Y-85550000D02*
X182476000Y-84649000D01*
X182476000Y-84649000D02*
X184499000Y-84649000D01*
X184499000Y-84649000D02*
X185450000Y-85600000D01*
D66*
X173830000Y-117155000D02*
X173250000Y-116575000D01*
D67*
X175525000Y-117225647D02*
X176783433Y-118484080D01*
D66*
X175525000Y-117155000D02*
X173830000Y-117155000D01*
D67*
X175525000Y-117155000D02*
X175525000Y-117225647D01*
D66*
X188575000Y-114000000D02*
X188575000Y-114685000D01*
X188575000Y-114685000D02*
X187250000Y-116010000D01*
X188575000Y-112250000D02*
X188575000Y-114000000D01*
D67*
X176671733Y-103723733D02*
X176671733Y-98724499D01*
X176671733Y-98724499D02*
X176000000Y-98052766D01*
X182250000Y-117313032D02*
X181422968Y-116486000D01*
X178250000Y-115276968D02*
X178250000Y-105302000D01*
X176000000Y-98052766D02*
X176000000Y-96750000D01*
X182250000Y-117750000D02*
X182250000Y-117313032D01*
X178250000Y-105302000D02*
X176671733Y-103723733D01*
X181422968Y-116486000D02*
X179459032Y-116486000D01*
X176000000Y-96750000D02*
X175750000Y-96500000D01*
X179459032Y-116486000D02*
X178250000Y-115276968D01*
X142975843Y-84600000D02*
X142512400Y-84600000D01*
X139386400Y-81474000D02*
X124724000Y-81474000D01*
X123100000Y-79850000D02*
X123100000Y-64550000D01*
X123100000Y-64550000D02*
X124150000Y-63500000D01*
X142512400Y-84600000D02*
X139386400Y-81474000D01*
X124724000Y-81474000D02*
X123100000Y-79850000D01*
X124150000Y-63500000D02*
X130000000Y-63500000D01*
X174650000Y-105268654D02*
X174650000Y-106250000D01*
X168453800Y-96495200D02*
X168453800Y-99072454D01*
X168453800Y-99072454D02*
X174650000Y-105268654D01*
X140380084Y-97869916D02*
X147607353Y-97869916D01*
X138750000Y-99500000D02*
X140380084Y-97869916D01*
X146000000Y-100750000D02*
X147500000Y-100750000D01*
X147500000Y-100750000D02*
X148993719Y-99256281D01*
X145000000Y-103250000D02*
X145000000Y-101750000D01*
X145000000Y-101750000D02*
X146000000Y-100750000D01*
X136750000Y-99000000D02*
X138750000Y-97000000D01*
X138750000Y-97000000D02*
X146750000Y-97000000D01*
X155850000Y-99100000D02*
X156039376Y-99289376D01*
X155318725Y-97223235D02*
X155850000Y-97754510D01*
X155850000Y-97754510D02*
X155850000Y-99100000D01*
X156739376Y-98189376D02*
X156739376Y-98589376D01*
X156500000Y-97950000D02*
X156739376Y-98189376D01*
D66*
X188000000Y-49000000D02*
X188750000Y-49750000D01*
D67*
X185700400Y-61290800D02*
X182931800Y-64059400D01*
X189510400Y-59360400D02*
X187580000Y-61290800D01*
D66*
X188675000Y-56250000D02*
X188675000Y-54500000D01*
X188750000Y-54425000D02*
X188675000Y-54500000D01*
D67*
X189510400Y-58420600D02*
X189510400Y-59360400D01*
X188675000Y-56250000D02*
X188675000Y-57585200D01*
X187580000Y-61290800D02*
X185700400Y-61290800D01*
X188675000Y-57585200D02*
X189510400Y-58420600D01*
D66*
X188750000Y-49750000D02*
X188750000Y-54425000D01*
D67*
X141925000Y-93250000D02*
X140250000Y-93250000D01*
X146283552Y-91798075D02*
X146276291Y-91790814D01*
X143384186Y-91790814D02*
X141925000Y-93250000D01*
X146276291Y-91790814D02*
X143384186Y-91790814D01*
D66*
X143250000Y-100862501D02*
X143250000Y-100750000D01*
D67*
X148000000Y-102500000D02*
X149750000Y-102500000D01*
X149750000Y-102500000D02*
X151750000Y-100500000D01*
X147750000Y-102250000D02*
X148000000Y-102500000D01*
X147500000Y-102250000D02*
X147750000Y-102250000D01*
X149000000Y-102000000D02*
X151000000Y-100000000D01*
X146250000Y-101500000D02*
X147750000Y-101500000D01*
X147750000Y-101500000D02*
X148250000Y-102000000D01*
X148250000Y-102000000D02*
X149000000Y-102000000D01*
X159300000Y-101400000D02*
X157460624Y-99560624D01*
X166490000Y-103010000D02*
X166500000Y-103000000D01*
X166100000Y-107834100D02*
X166490000Y-107444100D01*
X166490000Y-105980000D02*
X166490000Y-103010000D01*
X166500000Y-103000000D02*
X164900000Y-101400000D01*
X166490000Y-107444100D02*
X166490000Y-105980000D01*
X157460624Y-99560624D02*
X157460624Y-99310624D01*
X164900000Y-101400000D02*
X159300000Y-101400000D01*
X166100000Y-109350000D02*
X166100000Y-107834100D01*
X159500000Y-109350000D02*
X159500000Y-108550000D01*
X157490000Y-105353000D02*
X158362000Y-104481000D01*
X159200000Y-108250000D02*
X158500000Y-108250000D01*
X157490000Y-105880000D02*
X157490000Y-105353000D01*
X157490000Y-107240000D02*
X157490000Y-105880000D01*
X158362000Y-104481000D02*
X164019000Y-104481000D01*
X164019000Y-104481000D02*
X164250000Y-104250000D01*
X159500000Y-108550000D02*
X159200000Y-108250000D01*
X158500000Y-108250000D02*
X157490000Y-107240000D01*
X156490000Y-107440000D02*
X156490000Y-105880000D01*
X156490000Y-107440000D02*
X158400000Y-109350000D01*
X156490000Y-105218800D02*
X158458800Y-103250000D01*
X156490000Y-105880000D02*
X156490000Y-105218800D01*
X158458800Y-103250000D02*
X159250000Y-103250000D01*
X165990000Y-107377000D02*
X165990000Y-105980000D01*
X165990000Y-103790000D02*
X164100000Y-101900000D01*
X158650000Y-101900000D02*
X164100000Y-101900000D01*
X165990000Y-105980000D02*
X165990000Y-103790000D01*
X158650000Y-101900000D02*
X156760624Y-100010624D01*
X165000000Y-109350000D02*
X165000000Y-108367000D01*
X165000000Y-108367000D02*
X165990000Y-107377000D01*
X160600000Y-109350000D02*
X160600000Y-108850000D01*
X158750000Y-107750000D02*
X157990000Y-106990000D01*
X157990000Y-106990000D02*
X157990000Y-105880000D01*
X159500000Y-107750000D02*
X158750000Y-107750000D01*
X157990000Y-105880000D02*
X158870000Y-105000000D01*
X158870000Y-105000000D02*
X163750000Y-105000000D01*
X160600000Y-108850000D02*
X159500000Y-107750000D01*
X163750000Y-105000000D02*
X164000000Y-105250000D01*
X164990000Y-105980000D02*
X164990000Y-106830000D01*
X164990000Y-107242800D02*
X163982800Y-108250000D01*
X164990000Y-106830000D02*
X164990000Y-107242800D01*
X163982800Y-108250000D02*
X163448000Y-108250000D01*
X162800000Y-108898000D02*
X162800000Y-109350000D01*
X164990000Y-105980000D02*
X164990000Y-103760000D01*
X163448000Y-108250000D02*
X162800000Y-108898000D01*
X164990000Y-103760000D02*
X165000000Y-103750000D01*
X169960849Y-115960849D02*
X172500000Y-118500000D01*
X170600002Y-122250000D02*
X169750000Y-122250000D01*
X168000000Y-120500000D02*
X168000000Y-119850000D01*
X167250000Y-98646446D02*
X167250000Y-98250000D01*
X169960849Y-101357295D02*
X167250000Y-98646446D01*
X172500000Y-120250000D02*
X172500000Y-118500000D01*
X169750000Y-122250000D02*
X168000000Y-120500000D01*
X169960849Y-115960849D02*
X169960849Y-101357295D01*
X144000000Y-95000000D02*
X145750000Y-93250000D01*
X145750000Y-93250000D02*
X146500000Y-93250000D01*
X148420654Y-101170654D02*
X148500000Y-101250000D01*
X148420654Y-100750000D02*
X148420654Y-101170654D01*
X149644719Y-97144719D02*
X149644719Y-99525935D01*
X149644719Y-99525935D02*
X148420654Y-100750000D01*
X146900000Y-94400000D02*
X149644719Y-97144719D01*
X146150000Y-94400000D02*
X146900000Y-94400000D01*
D66*
X170801643Y-102698356D02*
X170948356Y-102698356D01*
X170948356Y-102698356D02*
X171000000Y-102750000D01*
D67*
X168669240Y-91419240D02*
X168669240Y-92430126D01*
X132997240Y-82750000D02*
X135497240Y-85250000D01*
X132250000Y-82750000D02*
X132997240Y-82750000D01*
X164399366Y-96700000D02*
X158750000Y-96700000D01*
X168669240Y-92430126D02*
X164399366Y-96700000D01*
X155550000Y-94400000D02*
X146400000Y-85250000D01*
X156450000Y-94400000D02*
X155550000Y-94400000D01*
X135497240Y-85250000D02*
X137500000Y-85250000D01*
X146400000Y-85250000D02*
X137500000Y-85250000D01*
X158750000Y-96700000D02*
X156450000Y-94400000D01*
X142981376Y-86631376D02*
X146781376Y-86631376D01*
X131026000Y-84026000D02*
X133303001Y-84026000D01*
X137500000Y-85750000D02*
X139979346Y-85750000D01*
X165000000Y-97200000D02*
X169398971Y-92801029D01*
X169398971Y-92801029D02*
X169398971Y-90892460D01*
X139980346Y-85749000D02*
X140519654Y-85749000D01*
X129750000Y-82750000D02*
X131026000Y-84026000D01*
X155250000Y-95100000D02*
X156400000Y-95100000D01*
X140519654Y-85749000D02*
X140520654Y-85750000D01*
X146781376Y-86631376D02*
X155250000Y-95100000D01*
X133303001Y-84026000D02*
X135027001Y-85750000D01*
X158500000Y-97200000D02*
X165000000Y-97200000D01*
X135027001Y-85750000D02*
X137500000Y-85750000D01*
X139979346Y-85750000D02*
X139980346Y-85749000D01*
X140520654Y-85750000D02*
X142100000Y-85750000D01*
X142100000Y-85750000D02*
X142981376Y-86631376D01*
X156400000Y-95100000D02*
X158500000Y-97200000D01*
X179750000Y-108250000D02*
X180500000Y-107500000D01*
X179675000Y-108250000D02*
X179750000Y-108250000D01*
X179675000Y-106450000D02*
X179675000Y-108250000D01*
D68*
X189000000Y-102250000D02*
X186050000Y-102250000D01*
X186050000Y-102250000D02*
X185550000Y-101750000D01*
X179450000Y-67000000D02*
X180050000Y-67000000D01*
D67*
X179299000Y-66849000D02*
X179450000Y-67000000D01*
X179299000Y-61451000D02*
X179299000Y-66849000D01*
D68*
X180050000Y-67000000D02*
X184750000Y-71700000D01*
D67*
X180000000Y-60750000D02*
X179299000Y-61451000D01*
X178400000Y-83750000D02*
X178400000Y-79300000D01*
X178400000Y-79300000D02*
X179150000Y-78550000D01*
D68*
X184500000Y-83500000D02*
X184100000Y-83500000D01*
X184100000Y-83500000D02*
X179150000Y-78550000D01*
D67*
X182025000Y-97200000D02*
X183126000Y-96099000D01*
X185499000Y-96099000D02*
X186450000Y-97050000D01*
X183126000Y-96099000D02*
X185499000Y-96099000D01*
X176000000Y-87175000D02*
X178900000Y-90075000D01*
D68*
X180750000Y-90200000D02*
X185500000Y-94950000D01*
X178900000Y-90200000D02*
X180750000Y-90200000D01*
D67*
X178900000Y-90075000D02*
X178900000Y-90200000D01*
X183450000Y-108200000D02*
X181375000Y-108200000D01*
X181375000Y-108200000D02*
X181325000Y-108250000D01*
D68*
X185550000Y-107250000D02*
X185550000Y-105950000D01*
X184850000Y-105250000D02*
X182450000Y-105250000D01*
D67*
X178900000Y-97250000D02*
X178900000Y-101700000D01*
D68*
X182450000Y-105250000D02*
X178950000Y-101750000D01*
D67*
X178900000Y-101700000D02*
X178950000Y-101750000D01*
D68*
X185550000Y-105950000D02*
X184850000Y-105250000D01*
D67*
X129750000Y-89932900D02*
X132432900Y-87250000D01*
X141750000Y-88250000D02*
X141449000Y-87949000D01*
X136322000Y-87949000D02*
X135623000Y-87250000D01*
X141449000Y-87949000D02*
X136322000Y-87949000D01*
X135623000Y-87250000D02*
X134000001Y-87250000D01*
X150699200Y-93538600D02*
X145410600Y-88250000D01*
X155349000Y-101349000D02*
X155349000Y-99748000D01*
X155349000Y-99748000D02*
X150699200Y-95098200D01*
X145410600Y-88250000D02*
X141750000Y-88250000D01*
X155940308Y-101940308D02*
X155349000Y-101349000D01*
X132432900Y-87250000D02*
X134000001Y-87250000D01*
X150699200Y-95098200D02*
X150699200Y-93538600D01*
X129750000Y-90250000D02*
X129750000Y-89932900D01*
X132250000Y-90250000D02*
X132250000Y-88000000D01*
X158500000Y-102500000D02*
X158408692Y-102591308D01*
X159763730Y-102500000D02*
X158500000Y-102500000D01*
X145211400Y-88950000D02*
X141550000Y-88950000D01*
X141100000Y-88500000D02*
X134750001Y-88500000D01*
X155322108Y-102591308D02*
X154255200Y-101524400D01*
X134750001Y-88500000D02*
X134000001Y-87750000D01*
X132250000Y-88000000D02*
X132500000Y-87750000D01*
X154255200Y-101524400D02*
X154255200Y-99644800D01*
X159957689Y-102693959D02*
X159763730Y-102500000D01*
X158408692Y-102591308D02*
X155322108Y-102591308D01*
X154255200Y-99644800D02*
X150038800Y-95428400D01*
X141550000Y-88950000D02*
X141100000Y-88500000D01*
X150038800Y-95428400D02*
X150038800Y-93777400D01*
X150038800Y-93777400D02*
X145211400Y-88950000D01*
X132500000Y-87750000D02*
X134000001Y-87750000D01*
X167500001Y-69363348D02*
X167426001Y-69289348D01*
X167426001Y-69289348D02*
X167426001Y-68762348D01*
D72*
X167350001Y-56300000D02*
X166849000Y-55798999D01*
D67*
X167400000Y-56349999D02*
X167350001Y-56300000D01*
D72*
X166849000Y-55798999D02*
X166849000Y-52341000D01*
D67*
X167925001Y-71675001D02*
X167925001Y-72175349D01*
X167426001Y-68762348D02*
X167400000Y-68762348D01*
X168213000Y-72463348D02*
X167925001Y-72463348D01*
X167925001Y-72463348D02*
X167749999Y-72638350D01*
D72*
X166849000Y-52341000D02*
X167900000Y-51290000D01*
D67*
X167500001Y-71250001D02*
X167925001Y-71675001D01*
X167925001Y-72175349D02*
X168213000Y-72463348D01*
X167500001Y-69363348D02*
X167500001Y-71250001D01*
X167400000Y-68762348D02*
X167400000Y-56349999D01*
X167749999Y-72638350D02*
X167749999Y-74286652D01*
X153366200Y-57379200D02*
X153366200Y-57076200D01*
X153366200Y-57076200D02*
X150120000Y-53830000D01*
X166600000Y-58350001D02*
X166650001Y-58300000D01*
X166600000Y-68762348D02*
X166600000Y-58500000D01*
D72*
X166411000Y-52341000D02*
X165360000Y-51290000D01*
X166650001Y-56408001D02*
X166411000Y-56169000D01*
D67*
X166750001Y-72638348D02*
X166750001Y-74286652D01*
X166500001Y-72388348D02*
X166575001Y-72463348D01*
D72*
X166650001Y-58300000D02*
X166650001Y-56408001D01*
D67*
X166500001Y-69363348D02*
X166574001Y-69289348D01*
X166500001Y-69363348D02*
X166500001Y-72388348D01*
X166574001Y-68762348D02*
X166600000Y-68762348D01*
D72*
X166411000Y-56169000D02*
X166411000Y-52341000D01*
D67*
X166574001Y-69289348D02*
X166574001Y-68762348D01*
X166600000Y-58500000D02*
X166600000Y-58350001D01*
X166575001Y-72463348D02*
X166750001Y-72638348D01*
X134269654Y-64151000D02*
X133730346Y-64151000D01*
X134420654Y-64000000D02*
X134269654Y-64151000D01*
X136250000Y-64250000D02*
X136000000Y-64000000D01*
X163500000Y-83750000D02*
X161500000Y-81750000D01*
X136200000Y-65587501D02*
X136200000Y-64300000D01*
X160702603Y-81750000D02*
X160393577Y-82059026D01*
X160526640Y-81113041D02*
X156814599Y-77401000D01*
X155658800Y-77401000D02*
X146000200Y-67742400D01*
X132583900Y-63901000D02*
X132432900Y-63750000D01*
X130269654Y-64151000D02*
X129730346Y-64151000D01*
X166154819Y-88448734D02*
X166154819Y-87002249D01*
X161500000Y-81750000D02*
X160702603Y-81750000D01*
X166021756Y-88581797D02*
X166154819Y-88448734D01*
X140488400Y-67742400D02*
X139777200Y-67031200D01*
X165835708Y-86085708D02*
X163500000Y-83750000D01*
X139000000Y-64349000D02*
X138230346Y-64349000D01*
X165835708Y-86683138D02*
X165835708Y-86085708D01*
X133480346Y-63901000D02*
X132583900Y-63901000D01*
X160526640Y-81925963D02*
X160526640Y-81113041D01*
X139777200Y-65126200D02*
X139000000Y-64349000D01*
X129579346Y-64000000D02*
X128500000Y-64000000D01*
X166154819Y-87002249D02*
X165835708Y-86683138D01*
X160393577Y-82059026D02*
X160526640Y-81925963D01*
X127512500Y-64987500D02*
X127512500Y-65687563D01*
X156814599Y-77401000D02*
X155658800Y-77401000D01*
X138079346Y-64500000D02*
X136500000Y-64500000D01*
X133730346Y-64151000D02*
X133480346Y-63901000D01*
X136200000Y-64300000D02*
X136250000Y-64250000D01*
X163750000Y-83500000D02*
X163500000Y-83750000D01*
X136500000Y-64500000D02*
X136250000Y-64250000D01*
X129730346Y-64151000D02*
X129579346Y-64000000D01*
X139777200Y-67031200D02*
X139777200Y-65126200D01*
X130670654Y-63750000D02*
X130269654Y-64151000D01*
X138230346Y-64349000D02*
X138079346Y-64500000D01*
X164000000Y-83500000D02*
X163750000Y-83500000D01*
X132432900Y-63750000D02*
X130670654Y-63750000D01*
X146000200Y-67742400D02*
X140488400Y-67742400D01*
X136000000Y-64000000D02*
X134420654Y-64000000D01*
X128500000Y-64000000D02*
X127512500Y-64987500D01*
X128012500Y-65250063D02*
X128262563Y-65000000D01*
X136699999Y-65150001D02*
X136949000Y-64901000D01*
X159500000Y-86500000D02*
X163750000Y-90750000D01*
X163750000Y-90750000D02*
X165197765Y-90750000D01*
X149632400Y-80975800D02*
X151385000Y-82728400D01*
X149632400Y-78512000D02*
X149632400Y-80975800D01*
X159500000Y-86000000D02*
X159500000Y-86500000D01*
X141174200Y-70053800D02*
X149632400Y-78512000D01*
X151385000Y-82728400D02*
X155728400Y-82728400D01*
X128012500Y-65687563D02*
X128012500Y-65250063D01*
X160755506Y-83500000D02*
X160216093Y-82960587D01*
X140423000Y-70053800D02*
X141174200Y-70053800D01*
X138332800Y-64901000D02*
X138608800Y-65177000D01*
X128262563Y-65000000D02*
X129750000Y-65000000D01*
X165197765Y-90750000D02*
X165977335Y-89970430D01*
X165977335Y-89616421D02*
X165844272Y-89483358D01*
X161000000Y-83500000D02*
X160755506Y-83500000D01*
X136699999Y-65150001D02*
X136699999Y-65587501D01*
X136949000Y-64901000D02*
X138332800Y-64901000D01*
X139269220Y-68900020D02*
X140423000Y-70053800D01*
X159000000Y-86000000D02*
X159500000Y-86000000D01*
X155728400Y-82728400D02*
X159000000Y-86000000D01*
X160250000Y-85250000D02*
X159500000Y-86000000D01*
X165977335Y-89970430D02*
X165977335Y-89616421D01*
X139091400Y-66516946D02*
X139091400Y-68250000D01*
X155425000Y-78335600D02*
X145339400Y-68250000D01*
X165077631Y-90250000D02*
X163817100Y-90250000D01*
X159426681Y-83750000D02*
X158500000Y-83750000D01*
X161250000Y-86500000D02*
X161250000Y-85329346D01*
X133750000Y-70250000D02*
X133699000Y-70301000D01*
X161084620Y-86665380D02*
X161250000Y-86500000D01*
X159426681Y-83750000D02*
X159862540Y-83314141D01*
X159670654Y-83750000D02*
X159426681Y-83750000D01*
X161084620Y-87165380D02*
X161084620Y-86665380D01*
X161250000Y-87682900D02*
X161250000Y-86500000D01*
X161250000Y-85329346D02*
X159670654Y-83750000D01*
X145339400Y-68250000D02*
X139091400Y-68250000D01*
X139000000Y-68250000D02*
X137000000Y-70250000D01*
X138398455Y-65824001D02*
X139091400Y-66516946D01*
X139091400Y-68250000D02*
X139000000Y-68250000D01*
X158500000Y-83750000D02*
X155425000Y-80675000D01*
X137901000Y-65824001D02*
X137827000Y-65750001D01*
X129949000Y-70301000D02*
X129750000Y-70102000D01*
X129750000Y-70102000D02*
X129750000Y-66460563D01*
X163817100Y-90250000D02*
X161250000Y-87682900D01*
X137901000Y-65824001D02*
X138398455Y-65824001D01*
X137000000Y-70250000D02*
X133750000Y-70250000D01*
X165490719Y-89836912D02*
X165077631Y-90250000D01*
X155425000Y-80675000D02*
X155425000Y-78335600D01*
X129139500Y-65850063D02*
X128675000Y-65850063D01*
X137827000Y-65750001D02*
X137362501Y-65750001D01*
X133699000Y-70301000D02*
X129949000Y-70301000D01*
X129750000Y-66460563D02*
X129139500Y-65850063D01*
X153500000Y-91000000D02*
X153750000Y-91000000D01*
X153500000Y-90750000D02*
X153807139Y-91057139D01*
X153807139Y-91057139D02*
X158900000Y-96150000D01*
X138164367Y-72648999D02*
X138256811Y-72741443D01*
X136726000Y-72648999D02*
X138164367Y-72648999D01*
X165209620Y-93959620D02*
X169334620Y-89834620D01*
X154657681Y-88138060D02*
X154657681Y-88842319D01*
X133200000Y-72676000D02*
X128327610Y-72676000D01*
X128171384Y-72832226D02*
X128171384Y-73187562D01*
X136725000Y-73087499D02*
X136725000Y-72649999D01*
X162250000Y-95000000D02*
X161360913Y-95000000D01*
X153750000Y-91000000D02*
X153807139Y-91057139D01*
X162250000Y-95000000D02*
X162500000Y-94750000D01*
X147250000Y-82910106D02*
X147250000Y-84853554D01*
X165000000Y-94500000D02*
X165209620Y-94290380D01*
X161360913Y-95000000D02*
X161054749Y-94693836D01*
X154657681Y-88842319D02*
X154250000Y-89250000D01*
X142826494Y-78486600D02*
X139193000Y-78486600D01*
X136725000Y-72649999D02*
X136726000Y-72648999D01*
X142826494Y-78486600D02*
X147250000Y-82910106D01*
X163350000Y-96150000D02*
X165209620Y-94290380D01*
X154524618Y-88004997D02*
X154657681Y-88138060D01*
X158900000Y-96150000D02*
X163350000Y-96150000D01*
X153146446Y-90750000D02*
X153500000Y-90750000D01*
X147250000Y-84853554D02*
X153146446Y-90750000D01*
X128327610Y-72676000D02*
X128171384Y-72832226D01*
X165209620Y-94290380D02*
X165209620Y-93959620D01*
X168683620Y-89566380D02*
X162552000Y-95698000D01*
X154171065Y-88358551D02*
X153381026Y-89148590D01*
X154505850Y-90737450D02*
X159466400Y-95698000D01*
X138862800Y-74260798D02*
X138862800Y-76200600D01*
X144781000Y-76200600D02*
X148540200Y-79959800D01*
X169066380Y-89183620D02*
X169064966Y-89183620D01*
X150000000Y-85756830D02*
X150808843Y-86565673D01*
X128833884Y-73350062D02*
X129298384Y-73350062D01*
X137852001Y-73249999D02*
X138862800Y-74260798D01*
X137974000Y-77026000D02*
X138799400Y-76200600D01*
X153381026Y-89148590D02*
X153101410Y-89148590D01*
X160701196Y-95649196D02*
X160750000Y-95698000D01*
X169609620Y-88750000D02*
X169500000Y-88750000D01*
X137387502Y-73249999D02*
X137852001Y-73249999D01*
X129298384Y-73350062D02*
X129949000Y-74000678D01*
X150808843Y-86565673D02*
X150808843Y-87558843D01*
X138862800Y-76200600D02*
X144781000Y-76200600D01*
X148540200Y-83884100D02*
X150000000Y-85343900D01*
X150808843Y-87558843D02*
X152398590Y-89148590D01*
X169959620Y-88400000D02*
X169609620Y-88750000D01*
X160701196Y-95047390D02*
X160701196Y-95649196D01*
X129949000Y-74000678D02*
X129949000Y-74538892D01*
X169064966Y-89183620D02*
X168683620Y-89564966D01*
X153101410Y-89148590D02*
X153101410Y-89375000D01*
X129949000Y-74538892D02*
X132436108Y-77026000D01*
X169500000Y-88750000D02*
X169066380Y-89183620D01*
X153101410Y-89375000D02*
X154463860Y-90737450D01*
X132436108Y-77026000D02*
X137974000Y-77026000D01*
X160750000Y-95698000D02*
X159466400Y-95698000D01*
X152398590Y-89148590D02*
X153101410Y-89148590D01*
X162552000Y-95698000D02*
X160750000Y-95698000D01*
X150000000Y-85343900D02*
X150000000Y-85756830D01*
X168683620Y-89564966D02*
X168683620Y-89566380D01*
X148540200Y-79959800D02*
X148540200Y-83884100D01*
X154463860Y-90737450D02*
X154505850Y-90737450D01*
X138799400Y-76200600D02*
X138862800Y-76200600D01*
X149099000Y-81763200D02*
X149099000Y-79248600D01*
X156750000Y-85000000D02*
X155750000Y-84000000D01*
X136250000Y-72026000D02*
X141876400Y-72026000D01*
X156750000Y-85000000D02*
X163250000Y-91500000D01*
X149099000Y-79248600D02*
X141876400Y-72026000D01*
X154835165Y-86970373D02*
X154835165Y-86686115D01*
X154835165Y-86686115D02*
X156521280Y-85000000D01*
X127671384Y-72723062D02*
X128368446Y-72026000D01*
X128368446Y-72026000D02*
X136250000Y-72026000D01*
X161232233Y-93792275D02*
X162133716Y-92890792D01*
X136225001Y-73087499D02*
X136225001Y-72050999D01*
X155750000Y-84000000D02*
X151945400Y-84000000D01*
X127671384Y-73187562D02*
X127671384Y-72723062D01*
X165250000Y-92000000D02*
X169500000Y-87750000D01*
X150800800Y-82855400D02*
X150191200Y-82855400D01*
X154702102Y-87103436D02*
X154835165Y-86970373D01*
X163250000Y-91500000D02*
X163750000Y-92000000D01*
X156521280Y-85000000D02*
X156750000Y-85000000D01*
X150191200Y-82855400D02*
X149099000Y-81763200D01*
X136225001Y-72050999D02*
X136250000Y-72026000D01*
X162133716Y-92554208D02*
X163187924Y-91500000D01*
X169500000Y-87750000D02*
X172000000Y-87750000D01*
X151945400Y-84000000D02*
X150800800Y-82855400D01*
X162133716Y-92890792D02*
X162133716Y-92554208D01*
X163750000Y-92000000D02*
X165250000Y-92000000D01*
X163187924Y-91500000D02*
X163250000Y-91500000D01*
X145910000Y-58129800D02*
X145910000Y-54700000D01*
X154331400Y-68631400D02*
X154331400Y-70331400D01*
X149810200Y-65812000D02*
X151512000Y-65812000D01*
X145910000Y-58129800D02*
X144628600Y-59411200D01*
X145910000Y-54700000D02*
X145040000Y-53830000D01*
X144628600Y-59411200D02*
X144628600Y-60630400D01*
X151512000Y-65812000D02*
X154331400Y-68631400D01*
X144628600Y-60630400D02*
X149810200Y-65812000D01*
X154331400Y-70331400D02*
X161000000Y-77000000D01*
X168000001Y-62615812D02*
X168000001Y-62735812D01*
X168000001Y-66215812D02*
X168000001Y-66335812D01*
X168000001Y-65015812D02*
X168000001Y-65135812D01*
X168560001Y-60815812D02*
X168560001Y-60935812D01*
X168320001Y-62375812D02*
X168240001Y-62375812D01*
X168320001Y-64775812D02*
X168240001Y-64775812D01*
X168200001Y-59300000D02*
X168300000Y-59300000D01*
X168560001Y-63215812D02*
X168560001Y-63335812D01*
X168000001Y-61415812D02*
X168000001Y-61535812D01*
X168560001Y-64415812D02*
X168560001Y-64535812D01*
X169575001Y-72961652D02*
X168250001Y-74286652D01*
X168240001Y-60575812D02*
X168320001Y-60575812D01*
X168320001Y-61175812D02*
X168240001Y-61175812D01*
X168240001Y-65375812D02*
X168320001Y-65375812D01*
X168240001Y-64175812D02*
X168320001Y-64175812D01*
X168320001Y-63575812D02*
X168240001Y-63575812D01*
X168000001Y-66570000D02*
X168000001Y-69363348D01*
X168000001Y-59500000D02*
X168000001Y-54599999D01*
X168000001Y-59500000D02*
X168200001Y-59300000D01*
X168560001Y-62015812D02*
X168560001Y-62135812D01*
X169575001Y-72751347D02*
X169575001Y-72961652D01*
X168560001Y-65615812D02*
X168560001Y-65735812D01*
X168000001Y-70888348D02*
X169575001Y-72463348D01*
X168000001Y-69363348D02*
X168000001Y-70888348D01*
X168240001Y-61775812D02*
X168320001Y-61775812D01*
X168320001Y-65975812D02*
X168240001Y-65975812D01*
X168240001Y-62975812D02*
X168320001Y-62975812D01*
X169863000Y-72463348D02*
X169575001Y-72751347D01*
X168000001Y-63815812D02*
X168000001Y-63935812D01*
X168000001Y-59500000D02*
X168000001Y-60335812D01*
X168000001Y-66335812D02*
X168000001Y-66570000D01*
X169575001Y-72463348D02*
X169863000Y-72463348D01*
X168240001Y-64775812D02*
G75*
G03*
X168000012Y-65015812I-1J-239988D01*
G01*
X168320001Y-64175812D02*
G75*
G02*
X168559988Y-64415812I-1J-239988D01*
G01*
X168000001Y-61535812D02*
G75*
G03*
X168240001Y-61775799I239999J12D01*
G01*
X168240001Y-61175812D02*
G75*
G03*
X168000012Y-61415812I-1J-239988D01*
G01*
X168560001Y-63335812D02*
G75*
G02*
X168320001Y-63575801I-240001J12D01*
G01*
X168000001Y-60335812D02*
G75*
G03*
X168240001Y-60575799I239999J12D01*
G01*
X168320001Y-61775812D02*
G75*
G02*
X168559988Y-62015812I-1J-239988D01*
G01*
X168560001Y-60935812D02*
G75*
G02*
X168320001Y-61175801I-240001J12D01*
G01*
X168320001Y-60575812D02*
G75*
G02*
X168559988Y-60815812I-1J-239988D01*
G01*
X168320001Y-65375812D02*
G75*
G02*
X168559988Y-65615812I-1J-239988D01*
G01*
X168560001Y-62135812D02*
G75*
G02*
X168320001Y-62375801I-240001J12D01*
G01*
X168320001Y-62975812D02*
G75*
G02*
X168559988Y-63215812I-1J-239988D01*
G01*
X168000001Y-63935812D02*
G75*
G03*
X168240001Y-64175799I239999J12D01*
G01*
X168240001Y-65975812D02*
G75*
G03*
X168000012Y-66215812I-1J-239988D01*
G01*
X168000001Y-62735812D02*
G75*
G03*
X168240001Y-62975799I239999J12D01*
G01*
X168000001Y-65135812D02*
G75*
G03*
X168240001Y-65375799I239999J12D01*
G01*
X168240001Y-62375812D02*
G75*
G03*
X168000012Y-62615812I-1J-239988D01*
G01*
X168560001Y-65735812D02*
G75*
G02*
X168320001Y-65975801I-240001J12D01*
G01*
X168560001Y-64535812D02*
G75*
G02*
X168320001Y-64775801I-240001J12D01*
G01*
X168240001Y-63575812D02*
G75*
G03*
X168000012Y-63815812I-1J-239988D01*
G01*
X166000001Y-65280000D02*
X166000001Y-65360000D01*
X165480001Y-60960000D02*
X165480001Y-61080000D01*
X165720001Y-62520000D02*
X165760001Y-62520000D01*
X165482000Y-56414000D02*
X165814001Y-56414000D01*
X165720001Y-61320000D02*
X165760001Y-61320000D01*
X166000001Y-56600000D02*
X166000001Y-59280000D01*
X165360000Y-56292000D02*
X165360000Y-53830000D01*
X165480001Y-64560000D02*
X165480001Y-64680000D01*
X165720001Y-63720000D02*
X165760001Y-63720000D01*
X166000001Y-60360000D02*
X166000001Y-60480000D01*
X165760001Y-64320000D02*
X165720001Y-64320000D01*
X165480001Y-62160000D02*
X165480001Y-62280000D01*
X166249999Y-74286652D02*
X164925001Y-72961654D01*
X166000001Y-65160000D02*
X166000001Y-65280000D01*
X165760001Y-61920000D02*
X165720001Y-61920000D01*
X165814001Y-56414000D02*
X166000001Y-56600000D01*
X165482000Y-56414000D02*
X165360000Y-56292000D01*
X166000001Y-62760000D02*
X166000001Y-62880000D01*
X166000001Y-63960000D02*
X166000001Y-64080000D01*
X164925001Y-72463348D02*
X166000001Y-71388348D01*
X165760001Y-59520000D02*
X165720001Y-59520000D01*
X166000001Y-71388348D02*
X166000001Y-69363348D01*
X165760001Y-63120000D02*
X165720001Y-63120000D01*
X166000001Y-61560000D02*
X166000001Y-61680000D01*
X165760001Y-60720000D02*
X165720001Y-60720000D01*
X165480001Y-59760000D02*
X165480001Y-59880000D01*
X165480001Y-63360000D02*
X165480001Y-63480000D01*
X164925001Y-72961654D02*
X164925001Y-72463348D01*
X165720001Y-60120000D02*
X165760001Y-60120000D01*
X165720001Y-64920000D02*
X165760001Y-64920000D01*
X166000001Y-65360000D02*
X166000001Y-69363348D01*
X165760001Y-62520000D02*
G75*
G02*
X166000000Y-62760000I-1J-240000D01*
G01*
X165720001Y-61920000D02*
G75*
G03*
X165480000Y-62160000I-1J-240000D01*
G01*
X165480001Y-63480000D02*
G75*
G03*
X165720001Y-63719999I239999J0D01*
G01*
X165760001Y-63720000D02*
G75*
G02*
X166000000Y-63960000I-1J-240000D01*
G01*
X166000001Y-61680000D02*
G75*
G02*
X165760001Y-61920001I-240001J0D01*
G01*
X165480001Y-64680000D02*
G75*
G03*
X165720001Y-64919999I239999J0D01*
G01*
X165480001Y-61080000D02*
G75*
G03*
X165720001Y-61319999I239999J0D01*
G01*
X166000001Y-59280000D02*
G75*
G02*
X165760001Y-59520001I-240001J0D01*
G01*
X165720001Y-64320000D02*
G75*
G03*
X165480000Y-64560000I-1J-240000D01*
G01*
X165720001Y-63120000D02*
G75*
G03*
X165480000Y-63360000I-1J-240000D01*
G01*
X165760001Y-60120000D02*
G75*
G02*
X166000000Y-60360000I-1J-240000D01*
G01*
X165760001Y-61320000D02*
G75*
G02*
X166000000Y-61560000I-1J-240000D01*
G01*
X165720001Y-60720000D02*
G75*
G03*
X165480000Y-60960000I-1J-240000D01*
G01*
X166000001Y-60480000D02*
G75*
G02*
X165760001Y-60720001I-240001J0D01*
G01*
X165720001Y-59520000D02*
G75*
G03*
X165480000Y-59760000I-1J-240000D01*
G01*
X166000001Y-62880000D02*
G75*
G02*
X165760001Y-63120001I-240001J0D01*
G01*
X165480001Y-62280000D02*
G75*
G03*
X165720001Y-62519999I239999J0D01*
G01*
X165760001Y-64920000D02*
G75*
G02*
X166000000Y-65160000I-1J-240000D01*
G01*
X165480001Y-59880000D02*
G75*
G03*
X165720001Y-60119999I239999J0D01*
G01*
X166000001Y-64080000D02*
G75*
G02*
X165760001Y-64320001I-240001J0D01*
G01*
X164156600Y-66853400D02*
X164766000Y-66244000D01*
X164766000Y-66244000D02*
X164766000Y-59126000D01*
X164010000Y-58370000D02*
X164010000Y-52480000D01*
X162702200Y-66853400D02*
X164156600Y-66853400D01*
X164766000Y-59126000D02*
X164010000Y-58370000D01*
X164010000Y-52480000D02*
X162820000Y-51290000D01*
X161334000Y-65485200D02*
X162702200Y-66853400D01*
X160032800Y-56617200D02*
X162820000Y-53830000D01*
X159259000Y-56617200D02*
X160032800Y-56617200D01*
X157252400Y-58623800D02*
X159259000Y-56617200D01*
X155396499Y-62885200D02*
X157252400Y-61029299D01*
X157252400Y-61029299D02*
X157252400Y-58623800D01*
X154509000Y-62885200D02*
X155396499Y-62885200D01*
X162683999Y-62885200D02*
X161334000Y-62885200D01*
X163259000Y-62310199D02*
X162683999Y-62885200D01*
X162433999Y-61585200D02*
X161333999Y-61585200D01*
X163259000Y-60760199D02*
X162433999Y-61585200D01*
X162177417Y-64185200D02*
X161334000Y-64185200D01*
X163421500Y-65485200D02*
X163421500Y-65429283D01*
X163421500Y-65429283D02*
X162177417Y-64185200D01*
X163421500Y-63935200D02*
X163021500Y-63535200D01*
X163021500Y-63535200D02*
X161334000Y-63535200D01*
X160489800Y-64835200D02*
X161333999Y-64835200D01*
X160034000Y-65291000D02*
X160489800Y-64835200D01*
X160034000Y-67285200D02*
X160034000Y-65291000D01*
X160034000Y-59035200D02*
X160034000Y-61778619D01*
X160490581Y-62235200D02*
X161334000Y-62235200D01*
X160034000Y-61778619D02*
X160490581Y-62235200D01*
D66*
X174664213Y-101664213D02*
X174500000Y-101500000D01*
X172189339Y-104139087D02*
X172189339Y-104060661D01*
X172189339Y-104060661D02*
X172250000Y-104000000D01*
D67*
X185100000Y-121250000D02*
X184500000Y-121250000D01*
X184500000Y-121250000D02*
X182250000Y-119000000D01*
X185649600Y-117590400D02*
X185750000Y-117490000D01*
X182250000Y-119000000D02*
X181400000Y-119000000D01*
X185649600Y-119355200D02*
X185649600Y-117590400D01*
X185521800Y-122403200D02*
X186925000Y-121000000D01*
X182450000Y-120549800D02*
X184303400Y-122403200D01*
X184303400Y-122403200D02*
X185521800Y-122403200D01*
X182450000Y-120200000D02*
X182450000Y-120549800D01*
X144700000Y-110750000D02*
X145275000Y-110750000D01*
X145275000Y-110750000D02*
X145325000Y-110700000D01*
D66*
X173200000Y-61250000D02*
X173200000Y-59875000D01*
X173200000Y-59875000D02*
X172175000Y-58850000D01*
X174025000Y-59875000D02*
X173200000Y-59875000D01*
X174500000Y-60350000D02*
X174025000Y-59875000D01*
X174500000Y-61250000D02*
X174500000Y-60350000D01*
D68*
X189000000Y-64000000D02*
X189000000Y-64050000D01*
X189000000Y-64050000D02*
X186050000Y-67000000D01*
X187200000Y-78550000D02*
X189000000Y-76750000D01*
X185750000Y-78550000D02*
X187200000Y-78550000D01*
X189000000Y-89500000D02*
X186200000Y-89500000D01*
X186200000Y-89500000D02*
X185500000Y-90200000D01*
D67*
X169288935Y-84564431D02*
X169435569Y-84564431D01*
X166750001Y-79925361D02*
X169916637Y-83091997D01*
X169435569Y-84564431D02*
X169916637Y-84083363D01*
X166750001Y-78713348D02*
X166750001Y-79925361D01*
X169916637Y-83091997D02*
X169916637Y-84083363D01*
X168478864Y-83773650D02*
X168478864Y-83021136D01*
X168666637Y-82833363D02*
X166249999Y-80416725D01*
X168478864Y-83021136D02*
X168666637Y-82833363D01*
X166249999Y-80416725D02*
X166249999Y-78713348D01*
X159868600Y-72822400D02*
X159868600Y-72797000D01*
X155296600Y-66272800D02*
X154509000Y-65485200D01*
X155296600Y-68225000D02*
X155296600Y-66272800D01*
X159868600Y-72797000D02*
X155296600Y-68225000D01*
X156388800Y-67996400D02*
X156388800Y-65221581D01*
X155352419Y-64185200D02*
X154509000Y-64185200D01*
X156388800Y-65221581D02*
X155352419Y-64185200D01*
X160198800Y-71806400D02*
X156388800Y-67996400D01*
X194031600Y-83896800D02*
X194260200Y-83668200D01*
X178080400Y-85180400D02*
X178400000Y-85500000D01*
X178080400Y-84912800D02*
X178080400Y-85180400D01*
X194260200Y-62891000D02*
X194107800Y-62738600D01*
X176750000Y-83850000D02*
X178400000Y-85500000D01*
X176750000Y-83750000D02*
X176750000Y-83850000D01*
X194260200Y-83668200D02*
X194260200Y-62891000D01*
X195174600Y-93066200D02*
X193218800Y-95022000D01*
X178575000Y-95925000D02*
X177250000Y-97250000D01*
X195174600Y-61417800D02*
X195174600Y-93066200D01*
X178893200Y-96139600D02*
X178893200Y-95818200D01*
X178575000Y-95500000D02*
X178575000Y-95925000D01*
X194819000Y-61062200D02*
X195174600Y-61417800D01*
X178893200Y-95818200D02*
X178575000Y-95500000D01*
X175642000Y-85852600D02*
X174422800Y-87071800D01*
X182474600Y-57338800D02*
X182474600Y-58192000D01*
X176581800Y-81179000D02*
X175642000Y-82118800D01*
X182576200Y-57059400D02*
X182576200Y-57237200D01*
X174422800Y-94768000D02*
X170841400Y-98349400D01*
X174422800Y-87071800D02*
X174422800Y-94768000D01*
X182474600Y-58192000D02*
X181560200Y-59106400D01*
X181560200Y-59106400D02*
X178664600Y-59106400D01*
X178664600Y-59106400D02*
X177216800Y-60554200D01*
X177216800Y-60554200D02*
X177216800Y-68783800D01*
X176581800Y-69418800D02*
X176581800Y-81179000D01*
X175642000Y-82118800D02*
X175642000Y-85852600D01*
X177216800Y-68783800D02*
X176581800Y-69418800D01*
X170841400Y-98349400D02*
X169368200Y-98349400D01*
X182576200Y-57237200D02*
X182474600Y-57338800D01*
X174930800Y-81763200D02*
X174930800Y-85293800D01*
X176607200Y-60376400D02*
X176607200Y-68479000D01*
X180468000Y-58293600D02*
X178690000Y-58293600D01*
X173483000Y-86741600D02*
X173483000Y-94564800D01*
X174930800Y-85293800D02*
X173483000Y-86741600D01*
X176607200Y-68479000D02*
X175997600Y-69088600D01*
X175997600Y-80696400D02*
X174930800Y-81763200D01*
X173483000Y-94564800D02*
X170714400Y-97333400D01*
X175997600Y-69088600D02*
X175997600Y-80696400D01*
X170714400Y-97333400D02*
X169292000Y-97333400D01*
X180569600Y-58395200D02*
X180468000Y-58293600D01*
X178690000Y-58293600D02*
X176607200Y-60376400D01*
D66*
X186750000Y-116010000D02*
X186750000Y-114175000D01*
X173200000Y-64775000D02*
X172975000Y-65000000D01*
D68*
X185400000Y-111350000D02*
X185400000Y-113250000D01*
X185400000Y-113250000D02*
X186150000Y-114000000D01*
D66*
X187285000Y-117525000D02*
X187250000Y-117490000D01*
X174168800Y-72492200D02*
X172517800Y-70841200D01*
X186750000Y-116500000D02*
X187251000Y-117001000D01*
X189000000Y-117525000D02*
X187285000Y-117525000D01*
X186750000Y-116010000D02*
X186750000Y-116500000D01*
X172000000Y-65000000D02*
X171600000Y-64600000D01*
X186750000Y-114175000D02*
X186925000Y-114000000D01*
X173200000Y-63150000D02*
X173200000Y-64775000D01*
X172975000Y-65000000D02*
X172000000Y-65000000D01*
D68*
X186150000Y-114000000D02*
X186925000Y-114000000D01*
D66*
X172975000Y-66750000D02*
X172975000Y-65000000D01*
D68*
X186500000Y-110250000D02*
X185400000Y-111350000D01*
D66*
X172975000Y-68402800D02*
X172975000Y-66750000D01*
X173200000Y-63150000D02*
X173850000Y-63149999D01*
X187251000Y-117001000D02*
X187251000Y-117490000D01*
X172517800Y-68860000D02*
X172975000Y-68402800D01*
D68*
X190250000Y-110250000D02*
X186500000Y-110250000D01*
D66*
X172517800Y-70841200D02*
X172517800Y-68860000D01*
X174168800Y-75235400D02*
X174168800Y-72492200D01*
D67*
X183516000Y-59258800D02*
X183516000Y-56769600D01*
X182996400Y-56250000D02*
X179971600Y-56250000D01*
X183516000Y-56769600D02*
X182996400Y-56250000D01*
X182550800Y-60224000D02*
X183516000Y-59258800D01*
X176073800Y-64745200D02*
X175896000Y-64923000D01*
X176073800Y-60147800D02*
X176073800Y-64745200D01*
X179971600Y-56250000D02*
X176073800Y-60147800D01*
X193345800Y-63729200D02*
X193345800Y-85547800D01*
X193193400Y-63576800D02*
X193345800Y-63729200D01*
X177242200Y-91440600D02*
X176857800Y-91825000D01*
X193345800Y-85547800D02*
X193168000Y-85725600D01*
X176455400Y-88825000D02*
X177242200Y-89611800D01*
X176857800Y-91825000D02*
X176000000Y-91825000D01*
X177242200Y-89611800D02*
X177242200Y-91440600D01*
X192990200Y-63576800D02*
X193193400Y-63576800D01*
X176000000Y-88825000D02*
X176455400Y-88825000D01*
X179096400Y-59944600D02*
X179096400Y-60003600D01*
X179096400Y-60003600D02*
X178350000Y-60750000D01*
X178350000Y-60750000D02*
X178350000Y-62250000D01*
X140250000Y-86400000D02*
X141700000Y-86400000D01*
X162950000Y-97700000D02*
X167250000Y-102000000D01*
X142500000Y-87200000D02*
X146325000Y-87200000D01*
X154875000Y-95750000D02*
X156075000Y-95750000D01*
X158025000Y-97700000D02*
X162950000Y-97700000D01*
X156075000Y-95750000D02*
X158025000Y-97700000D01*
X146325000Y-87200000D02*
X154875000Y-95750000D01*
X141700000Y-86400000D02*
X142500000Y-87200000D01*
X167250000Y-102000000D02*
X167250000Y-102250000D01*
X152550000Y-95825000D02*
X153125000Y-96400000D01*
X167415380Y-103165380D02*
X167232480Y-103165380D01*
X141750000Y-87250000D02*
X142200000Y-87700000D01*
X156000000Y-96400000D02*
X157824000Y-98224000D01*
X152550000Y-94450000D02*
X152550000Y-95825000D01*
X166500000Y-102420654D02*
X167244726Y-103165380D01*
X167244726Y-103165380D02*
X167415380Y-103165380D01*
X145800000Y-87700000D02*
X152550000Y-94450000D01*
X142200000Y-87700000D02*
X145800000Y-87700000D01*
X153125000Y-96400000D02*
X156000000Y-96400000D01*
X157824000Y-98224000D02*
X162724000Y-98224000D01*
X162724000Y-98224000D02*
X166500000Y-102000000D01*
X166500000Y-102000000D02*
X166500000Y-102420654D01*
X140900000Y-87250000D02*
X141750000Y-87250000D01*
X129189220Y-74850062D02*
X128833884Y-74850062D01*
X130000000Y-78386800D02*
X130000000Y-75660842D01*
X140207800Y-81000000D02*
X137261400Y-81000000D01*
X130000000Y-75660842D02*
X129189220Y-74850062D01*
X144750000Y-84199000D02*
X143495497Y-84199000D01*
X130938000Y-79324800D02*
X130000000Y-78386800D01*
X143245497Y-83949000D02*
X143156800Y-83949000D01*
X135586200Y-79324800D02*
X130938000Y-79324800D01*
X143495497Y-84199000D02*
X143245497Y-83949000D01*
X143156800Y-83949000D02*
X140207800Y-81000000D01*
X137261400Y-81000000D02*
X135586200Y-79324800D01*
X137766837Y-74773999D02*
X137826001Y-74833163D01*
X137387502Y-74773999D02*
X137766837Y-74773999D01*
X139142200Y-77064200D02*
X144259346Y-77064200D01*
X137826001Y-74833163D02*
X137826001Y-75249506D01*
X139142200Y-77064200D02*
X139091400Y-77013400D01*
X147421503Y-80226357D02*
X147421503Y-80578497D01*
X147421503Y-80578497D02*
X147693052Y-80850046D01*
X137826001Y-75249506D02*
X137997529Y-75421034D01*
X138031295Y-75421034D02*
X138031364Y-75420965D01*
X137387502Y-74749999D02*
X137387502Y-74773999D01*
X137997529Y-75421034D02*
X138031295Y-75421034D01*
X147421503Y-80226357D02*
X144259346Y-77064200D01*
X137923000Y-79172400D02*
X136449600Y-77699000D01*
X126779273Y-65099000D02*
X127012500Y-65332227D01*
X136449600Y-77699000D02*
X132750000Y-77699000D01*
X145142628Y-81750000D02*
X144209000Y-81750000D01*
X127012500Y-65332227D02*
X127012500Y-65687563D01*
X144209000Y-81750000D02*
X141631400Y-79172400D01*
X141631400Y-79172400D02*
X137923000Y-79172400D01*
X123750000Y-65250000D02*
X123901000Y-65099000D01*
X145280934Y-81888306D02*
X145142628Y-81750000D01*
X123901000Y-65099000D02*
X126779273Y-65099000D01*
X146214187Y-80955053D02*
X143708134Y-78449000D01*
X143708134Y-78449000D02*
X143708132Y-78449000D01*
X141021800Y-72746200D02*
X139320000Y-72746200D01*
X137362501Y-67250001D02*
X138250000Y-67250000D01*
X143688800Y-75413200D02*
X141021800Y-72746200D01*
X138250000Y-67250000D02*
X138250000Y-66704200D01*
X138250000Y-66704200D02*
X138304000Y-66650200D01*
X132750000Y-63500000D02*
X132099000Y-62849000D01*
X143714064Y-94300000D02*
X145414064Y-92600000D01*
X122400000Y-88450000D02*
X128250000Y-94300000D01*
X128250000Y-94300000D02*
X143714064Y-94300000D01*
X122400000Y-64350000D02*
X122400000Y-88450000D01*
X132099000Y-62849000D02*
X123901000Y-62849000D01*
X135700001Y-65100001D02*
X135700001Y-65587501D01*
X135500000Y-64900000D02*
X135700001Y-65100001D01*
X145414064Y-92600000D02*
X145875000Y-92600000D01*
X123901000Y-62849000D02*
X122400000Y-64350000D01*
X134000000Y-63500000D02*
X132750000Y-63500000D01*
X126508884Y-74350062D02*
X125921494Y-74350062D01*
X139900000Y-89250000D02*
X140500000Y-89850000D01*
X123750000Y-67362454D02*
X123750000Y-73763500D01*
X135037500Y-66750001D02*
X134450110Y-66750001D01*
X133500000Y-73725000D02*
X134000127Y-73725000D01*
X124412438Y-74074062D02*
X124236500Y-74250000D01*
X134176000Y-80750000D02*
X125500000Y-80750000D01*
X149250000Y-93801400D02*
X149250000Y-95239376D01*
X134250000Y-80824000D02*
X134176000Y-80750000D01*
X133750000Y-66049891D02*
X133750000Y-64900000D01*
X145298600Y-89850000D02*
X149250000Y-93801400D01*
X125609500Y-66574063D02*
X124538390Y-66574063D01*
X134000127Y-73725000D02*
X134525126Y-74249999D01*
X124538390Y-66574063D02*
X124306227Y-66806227D01*
X125921494Y-74350062D02*
X125645494Y-74074062D01*
X124306227Y-66806227D02*
X123750000Y-67362454D01*
X140500000Y-89850000D02*
X145298600Y-89850000D01*
X123750000Y-74736500D02*
X124236500Y-74250000D01*
X134450110Y-66750001D02*
X133750000Y-66049891D01*
X123750000Y-73763500D02*
X124236500Y-74250000D01*
X126350000Y-66850063D02*
X125885500Y-66850063D01*
X134525126Y-74249999D02*
X135062501Y-74249999D01*
X125645494Y-74074062D02*
X124412438Y-74074062D01*
X124500000Y-66612454D02*
X124306227Y-66806227D01*
X125885500Y-66850063D02*
X125609500Y-66574063D01*
X123750000Y-79000000D02*
X123750000Y-74736500D01*
X124500000Y-65750000D02*
X124500000Y-66612454D01*
X125500000Y-80750000D02*
X123750000Y-79000000D01*
X137491200Y-80340800D02*
X135941800Y-78791400D01*
X130750000Y-77943000D02*
X130750000Y-77750000D01*
X144250000Y-83333620D02*
X144249000Y-83334620D01*
X127171322Y-72750000D02*
X127171384Y-72750062D01*
X127171384Y-72750062D02*
X127171384Y-73187562D01*
X135941800Y-78791400D02*
X131598400Y-78791400D01*
X131598400Y-78791400D02*
X130750000Y-77943000D01*
X125500000Y-72750000D02*
X127171322Y-72750000D01*
X140767800Y-80340800D02*
X137491200Y-80340800D01*
X143761620Y-83334620D02*
X140767800Y-80340800D01*
X144249000Y-83334620D02*
X143761620Y-83334620D01*
X133019654Y-78350000D02*
X132480346Y-78350000D01*
X129112500Y-67350063D02*
X128675000Y-67350063D01*
X127362673Y-71250000D02*
X129288500Y-69324173D01*
X132000000Y-78080760D02*
X131834620Y-77915380D01*
X132388346Y-78258000D02*
X132233400Y-78258000D01*
X132233400Y-78258000D02*
X132056160Y-78080760D01*
X144644535Y-82524704D02*
X144485619Y-82683620D01*
X127250000Y-71250000D02*
X127362673Y-71250000D01*
X129288500Y-67526063D02*
X129112500Y-67350063D01*
X141148800Y-79756600D02*
X137770600Y-79756600D01*
X133111654Y-78258000D02*
X133019654Y-78350000D01*
X132056160Y-78080760D02*
X132000000Y-78080760D01*
X132480346Y-78350000D02*
X132388346Y-78258000D01*
X137770600Y-79756600D02*
X136272000Y-78258000D01*
X129288500Y-69324173D02*
X129288500Y-67526063D01*
X136272000Y-78258000D02*
X133111654Y-78258000D01*
X144075820Y-82683620D02*
X141148800Y-79756600D01*
X144485619Y-82683620D02*
X144075820Y-82683620D01*
X147020503Y-80840715D02*
X147020503Y-81513503D01*
X134351001Y-72648999D02*
X135724002Y-72648999D01*
X143978788Y-77799000D02*
X147020503Y-80840715D01*
X138451000Y-77799000D02*
X143978788Y-77799000D01*
X147879800Y-84564114D02*
X150157843Y-86842157D01*
X134250000Y-72750000D02*
X134351001Y-72648999D01*
X135725002Y-72649999D02*
X135725002Y-73087499D01*
X147020503Y-81513503D02*
X147879800Y-82372800D01*
X137500200Y-77676000D02*
X138328000Y-77676000D01*
X147879800Y-82372800D02*
X147879800Y-84564114D01*
X135724002Y-72648999D02*
X135725002Y-72649999D01*
X138328000Y-77676000D02*
X138451000Y-77799000D01*
X137477000Y-77699200D02*
X137500200Y-77676000D01*
X146750000Y-100000000D02*
X148250000Y-98500000D01*
X140250000Y-101458000D02*
X140234400Y-101473600D01*
X140234400Y-104445400D02*
X140259800Y-104470800D01*
X140250000Y-100000000D02*
X140250000Y-101458000D01*
X142571200Y-108230000D02*
X145847800Y-108230000D01*
X140250000Y-100000000D02*
X146750000Y-100000000D01*
X140259800Y-105918600D02*
X142571200Y-108230000D01*
X145847800Y-108230000D02*
X148108400Y-105969400D01*
X140259800Y-104470800D02*
X140259800Y-105918600D01*
X148108400Y-105969400D02*
X148108400Y-105893200D01*
G04 #@! TA.AperFunction,Conductor*
G36*
X180180677Y-50259685D02*
G01*
X180201319Y-50276319D01*
X182973681Y-53048681D01*
X183007166Y-53110004D01*
X183010000Y-53136362D01*
X183010000Y-54808638D01*
X182990315Y-54875677D01*
X182973681Y-54896319D01*
X182576319Y-55293681D01*
X182514996Y-55327166D01*
X182488638Y-55330000D01*
X175393862Y-55330000D01*
X175326823Y-55310315D01*
X175306181Y-55293681D01*
X174456319Y-54443819D01*
X174422834Y-54382496D01*
X174420000Y-54356138D01*
X174420000Y-50818237D01*
X174439685Y-50751198D01*
X174456319Y-50730556D01*
X174910556Y-50276319D01*
X174971879Y-50242834D01*
X174998237Y-50240000D01*
X180113638Y-50240000D01*
X180180677Y-50259685D01*
G37*
G04 #@! TD.AperFunction*
M02*
