G04 #@! TF.GenerationSoftware,KiCad,Pcbnew,9.0.6*
G04 #@! TF.CreationDate,2026-02-18T15:40:18+01:00*
G04 #@! TF.ProjectId,2026_FH2_C_AV_FC,32303236-5f46-4483-925f-435f41565f46,rev?*
G04 #@! TF.SameCoordinates,Original*
G04 #@! TF.FileFunction,Paste,Bot*
G04 #@! TF.FilePolarity,Positive*
%FSLAX46Y46*%
G04 Gerber Fmt 4.6, Leading zero omitted, Abs format (unit mm)*
G04 Created by KiCad (PCBNEW 9.0.6) date 2026-02-18 15:40:18*
%MOMM*%
%LPD*%
G01*
G04 APERTURE LIST*
G04 Aperture macros list*
%AMRoundRect*
0 Rectangle with rounded corners*
0 $1 Rounding radius*
0 $2 $3 $4 $5 $6 $7 $8 $9 X,Y pos of 4 corners*
0 Add a 4 corners polygon primitive as box body*
4,1,4,$2,$3,$4,$5,$6,$7,$8,$9,$2,$3,0*
0 Add four circle primitives for the rounded corners*
1,1,$1+$1,$2,$3*
1,1,$1+$1,$4,$5*
1,1,$1+$1,$6,$7*
1,1,$1+$1,$8,$9*
0 Add four rect primitives between the rounded corners*
20,1,$1+$1,$2,$3,$4,$5,0*
20,1,$1+$1,$4,$5,$6,$7,0*
20,1,$1+$1,$6,$7,$8,$9,0*
20,1,$1+$1,$8,$9,$2,$3,0*%
%AMRotRect*
0 Rectangle, with rotation*
0 The origin of the aperture is its center*
0 $1 length*
0 $2 width*
0 $3 Rotation angle, in degrees counterclockwise*
0 Add horizontal line*
21,1,$1,$2,0,0,$3*%
G04 Aperture macros list end*
%ADD10C,0.010000*%
%ADD11R,1.500000X3.500000*%
%ADD12R,0.750000X0.650000*%
%ADD13RoundRect,0.062500X0.187500X0.062500X-0.187500X0.062500X-0.187500X-0.062500X0.187500X-0.062500X0*%
%ADD14RoundRect,0.200000X0.200000X0.275000X-0.200000X0.275000X-0.200000X-0.275000X0.200000X-0.275000X0*%
%ADD15RoundRect,0.150000X0.825000X0.150000X-0.825000X0.150000X-0.825000X-0.150000X0.825000X-0.150000X0*%
%ADD16RoundRect,0.225000X-0.017678X0.335876X-0.335876X0.017678X0.017678X-0.335876X0.335876X-0.017678X0*%
%ADD17R,0.550000X1.145000*%
%ADD18R,1.145000X0.550000*%
%ADD19R,0.600000X1.300000*%
%ADD20RoundRect,0.225000X0.250000X-0.225000X0.250000X0.225000X-0.250000X0.225000X-0.250000X-0.225000X0*%
%ADD21RoundRect,0.225000X-0.225000X-0.250000X0.225000X-0.250000X0.225000X0.250000X-0.225000X0.250000X0*%
%ADD22RoundRect,0.225000X0.225000X0.250000X-0.225000X0.250000X-0.225000X-0.250000X0.225000X-0.250000X0*%
%ADD23RoundRect,0.135000X-0.226274X-0.035355X-0.035355X-0.226274X0.226274X0.035355X0.035355X0.226274X0*%
%ADD24R,2.000000X5.300000*%
%ADD25RoundRect,0.200000X-0.200000X-0.275000X0.200000X-0.275000X0.200000X0.275000X-0.200000X0.275000X0*%
%ADD26RoundRect,0.200000X0.275000X-0.200000X0.275000X0.200000X-0.275000X0.200000X-0.275000X-0.200000X0*%
%ADD27RoundRect,0.250000X0.320000X0.295000X-0.320000X0.295000X-0.320000X-0.295000X0.320000X-0.295000X0*%
%ADD28RoundRect,0.225000X-0.250000X0.225000X-0.250000X-0.225000X0.250000X-0.225000X0.250000X0.225000X0*%
%ADD29RotRect,0.250000X0.275000X135.000000*%
%ADD30RotRect,0.250000X0.275000X45.000000*%
%ADD31R,1.780000X5.080000*%
%ADD32R,3.960000X3.960000*%
%ADD33RoundRect,0.250000X0.275000X0.700000X-0.275000X0.700000X-0.275000X-0.700000X0.275000X-0.700000X0*%
%ADD34R,0.250000X0.600000*%
%ADD35RoundRect,0.200000X-0.335876X-0.053033X-0.053033X-0.335876X0.335876X0.053033X0.053033X0.335876X0*%
%ADD36RoundRect,0.250000X0.400000X0.450000X-0.400000X0.450000X-0.400000X-0.450000X0.400000X-0.450000X0*%
%ADD37RoundRect,0.200000X0.053033X-0.335876X0.335876X-0.053033X-0.053033X0.335876X-0.335876X0.053033X0*%
%ADD38RoundRect,0.200000X-0.275000X0.200000X-0.275000X-0.200000X0.275000X-0.200000X0.275000X0.200000X0*%
%ADD39RoundRect,0.225000X-0.335876X-0.017678X-0.017678X-0.335876X0.335876X0.017678X0.017678X0.335876X0*%
%ADD40R,1.300000X0.600000*%
%ADD41R,0.700000X1.200000*%
%ADD42R,1.000000X0.800000*%
%ADD43R,1.000000X2.800000*%
%ADD44R,1.000000X1.200000*%
%ADD45R,1.300000X1.900000*%
%ADD46R,0.600000X0.250000*%
%ADD47R,0.279400X1.327899*%
%ADD48R,1.981200X1.778000*%
%ADD49R,0.400000X1.200000*%
%ADD50R,2.200000X2.150000*%
%ADD51RoundRect,0.112500X-0.187500X-0.112500X0.187500X-0.112500X0.187500X0.112500X-0.187500X0.112500X0*%
%ADD52RoundRect,0.125000X0.762500X0.125000X-0.762500X0.125000X-0.762500X-0.125000X0.762500X-0.125000X0*%
%ADD53RoundRect,0.050000X-0.100000X0.285000X-0.100000X-0.285000X0.100000X-0.285000X0.100000X0.285000X0*%
G04 APERTURE END LIST*
D10*
X126575000Y-65969063D02*
X126125000Y-65969063D01*
X126125000Y-65731063D01*
X126575000Y-65731063D01*
X126575000Y-65969063D01*
G36*
X126575000Y-65969063D02*
G01*
X126125000Y-65969063D01*
X126125000Y-65731063D01*
X126575000Y-65731063D01*
X126575000Y-65969063D01*
G37*
X126575000Y-66469063D02*
X126125000Y-66469063D01*
X126125000Y-66231063D01*
X126575000Y-66231063D01*
X126575000Y-66469063D01*
G36*
X126575000Y-66469063D02*
G01*
X126125000Y-66469063D01*
X126125000Y-66231063D01*
X126575000Y-66231063D01*
X126575000Y-66469063D01*
G37*
X126575000Y-66969063D02*
X126125000Y-66969063D01*
X126125000Y-66731063D01*
X126575000Y-66731063D01*
X126575000Y-66969063D01*
G36*
X126575000Y-66969063D02*
G01*
X126125000Y-66969063D01*
X126125000Y-66731063D01*
X126575000Y-66731063D01*
X126575000Y-66969063D01*
G37*
X126575000Y-67469063D02*
X126125000Y-67469063D01*
X126125000Y-67231063D01*
X126575000Y-67231063D01*
X126575000Y-67469063D01*
G36*
X126575000Y-67469063D02*
G01*
X126125000Y-67469063D01*
X126125000Y-67231063D01*
X126575000Y-67231063D01*
X126575000Y-67469063D01*
G37*
X127131500Y-65912563D02*
X126893500Y-65912563D01*
X126893500Y-65462563D01*
X127131500Y-65462563D01*
X127131500Y-65912563D01*
G36*
X127131500Y-65912563D02*
G01*
X126893500Y-65912563D01*
X126893500Y-65462563D01*
X127131500Y-65462563D01*
X127131500Y-65912563D01*
G37*
X127131500Y-67737563D02*
X126893500Y-67737563D01*
X126893500Y-67287563D01*
X127131500Y-67287563D01*
X127131500Y-67737563D01*
G36*
X127131500Y-67737563D02*
G01*
X126893500Y-67737563D01*
X126893500Y-67287563D01*
X127131500Y-67287563D01*
X127131500Y-67737563D01*
G37*
X127631500Y-65912563D02*
X127393500Y-65912563D01*
X127393500Y-65462563D01*
X127631500Y-65462563D01*
X127631500Y-65912563D01*
G36*
X127631500Y-65912563D02*
G01*
X127393500Y-65912563D01*
X127393500Y-65462563D01*
X127631500Y-65462563D01*
X127631500Y-65912563D01*
G37*
X127631500Y-67737563D02*
X127393500Y-67737563D01*
X127393500Y-67287563D01*
X127631500Y-67287563D01*
X127631500Y-67737563D01*
G36*
X127631500Y-67737563D02*
G01*
X127393500Y-67737563D01*
X127393500Y-67287563D01*
X127631500Y-67287563D01*
X127631500Y-67737563D01*
G37*
X128131500Y-65912563D02*
X127893500Y-65912563D01*
X127893500Y-65462563D01*
X128131500Y-65462563D01*
X128131500Y-65912563D01*
G36*
X128131500Y-65912563D02*
G01*
X127893500Y-65912563D01*
X127893500Y-65462563D01*
X128131500Y-65462563D01*
X128131500Y-65912563D01*
G37*
X128131500Y-67737563D02*
X127893500Y-67737563D01*
X127893500Y-67287563D01*
X128131500Y-67287563D01*
X128131500Y-67737563D01*
G36*
X128131500Y-67737563D02*
G01*
X127893500Y-67737563D01*
X127893500Y-67287563D01*
X128131500Y-67287563D01*
X128131500Y-67737563D01*
G37*
X128900000Y-65969063D02*
X128450000Y-65969063D01*
X128450000Y-65731063D01*
X128900000Y-65731063D01*
X128900000Y-65969063D01*
G36*
X128900000Y-65969063D02*
G01*
X128450000Y-65969063D01*
X128450000Y-65731063D01*
X128900000Y-65731063D01*
X128900000Y-65969063D01*
G37*
X128900000Y-66469063D02*
X128450000Y-66469063D01*
X128450000Y-66231063D01*
X128900000Y-66231063D01*
X128900000Y-66469063D01*
G36*
X128900000Y-66469063D02*
G01*
X128450000Y-66469063D01*
X128450000Y-66231063D01*
X128900000Y-66231063D01*
X128900000Y-66469063D01*
G37*
X128900000Y-66969063D02*
X128450000Y-66969063D01*
X128450000Y-66731063D01*
X128900000Y-66731063D01*
X128900000Y-66969063D01*
G36*
X128900000Y-66969063D02*
G01*
X128450000Y-66969063D01*
X128450000Y-66731063D01*
X128900000Y-66731063D01*
X128900000Y-66969063D01*
G37*
X128900000Y-67469063D02*
X128450000Y-67469063D01*
X128450000Y-67231063D01*
X128900000Y-67231063D01*
X128900000Y-67469063D01*
G36*
X128900000Y-67469063D02*
G01*
X128450000Y-67469063D01*
X128450000Y-67231063D01*
X128900000Y-67231063D01*
X128900000Y-67469063D01*
G37*
X126733884Y-73469062D02*
X126283884Y-73469062D01*
X126283884Y-73231062D01*
X126733884Y-73231062D01*
X126733884Y-73469062D01*
G36*
X126733884Y-73469062D02*
G01*
X126283884Y-73469062D01*
X126283884Y-73231062D01*
X126733884Y-73231062D01*
X126733884Y-73469062D01*
G37*
X126733884Y-73969062D02*
X126283884Y-73969062D01*
X126283884Y-73731062D01*
X126733884Y-73731062D01*
X126733884Y-73969062D01*
G36*
X126733884Y-73969062D02*
G01*
X126283884Y-73969062D01*
X126283884Y-73731062D01*
X126733884Y-73731062D01*
X126733884Y-73969062D01*
G37*
X126733884Y-74469062D02*
X126283884Y-74469062D01*
X126283884Y-74231062D01*
X126733884Y-74231062D01*
X126733884Y-74469062D01*
G36*
X126733884Y-74469062D02*
G01*
X126283884Y-74469062D01*
X126283884Y-74231062D01*
X126733884Y-74231062D01*
X126733884Y-74469062D01*
G37*
X126733884Y-74969062D02*
X126283884Y-74969062D01*
X126283884Y-74731062D01*
X126733884Y-74731062D01*
X126733884Y-74969062D01*
G36*
X126733884Y-74969062D02*
G01*
X126283884Y-74969062D01*
X126283884Y-74731062D01*
X126733884Y-74731062D01*
X126733884Y-74969062D01*
G37*
X127290384Y-73412562D02*
X127052384Y-73412562D01*
X127052384Y-72962562D01*
X127290384Y-72962562D01*
X127290384Y-73412562D01*
G36*
X127290384Y-73412562D02*
G01*
X127052384Y-73412562D01*
X127052384Y-72962562D01*
X127290384Y-72962562D01*
X127290384Y-73412562D01*
G37*
X127290384Y-75237562D02*
X127052384Y-75237562D01*
X127052384Y-74787562D01*
X127290384Y-74787562D01*
X127290384Y-75237562D01*
G36*
X127290384Y-75237562D02*
G01*
X127052384Y-75237562D01*
X127052384Y-74787562D01*
X127290384Y-74787562D01*
X127290384Y-75237562D01*
G37*
X127790384Y-73412562D02*
X127552384Y-73412562D01*
X127552384Y-72962562D01*
X127790384Y-72962562D01*
X127790384Y-73412562D01*
G36*
X127790384Y-73412562D02*
G01*
X127552384Y-73412562D01*
X127552384Y-72962562D01*
X127790384Y-72962562D01*
X127790384Y-73412562D01*
G37*
X127790384Y-75237562D02*
X127552384Y-75237562D01*
X127552384Y-74787562D01*
X127790384Y-74787562D01*
X127790384Y-75237562D01*
G36*
X127790384Y-75237562D02*
G01*
X127552384Y-75237562D01*
X127552384Y-74787562D01*
X127790384Y-74787562D01*
X127790384Y-75237562D01*
G37*
X128290384Y-73412562D02*
X128052384Y-73412562D01*
X128052384Y-72962562D01*
X128290384Y-72962562D01*
X128290384Y-73412562D01*
G36*
X128290384Y-73412562D02*
G01*
X128052384Y-73412562D01*
X128052384Y-72962562D01*
X128290384Y-72962562D01*
X128290384Y-73412562D01*
G37*
X128290384Y-75237562D02*
X128052384Y-75237562D01*
X128052384Y-74787562D01*
X128290384Y-74787562D01*
X128290384Y-75237562D01*
G36*
X128290384Y-75237562D02*
G01*
X128052384Y-75237562D01*
X128052384Y-74787562D01*
X128290384Y-74787562D01*
X128290384Y-75237562D01*
G37*
X129058884Y-73469062D02*
X128608884Y-73469062D01*
X128608884Y-73231062D01*
X129058884Y-73231062D01*
X129058884Y-73469062D01*
G36*
X129058884Y-73469062D02*
G01*
X128608884Y-73469062D01*
X128608884Y-73231062D01*
X129058884Y-73231062D01*
X129058884Y-73469062D01*
G37*
X129058884Y-73969062D02*
X128608884Y-73969062D01*
X128608884Y-73731062D01*
X129058884Y-73731062D01*
X129058884Y-73969062D01*
G36*
X129058884Y-73969062D02*
G01*
X128608884Y-73969062D01*
X128608884Y-73731062D01*
X129058884Y-73731062D01*
X129058884Y-73969062D01*
G37*
X129058884Y-74469062D02*
X128608884Y-74469062D01*
X128608884Y-74231062D01*
X129058884Y-74231062D01*
X129058884Y-74469062D01*
G36*
X129058884Y-74469062D02*
G01*
X128608884Y-74469062D01*
X128608884Y-74231062D01*
X129058884Y-74231062D01*
X129058884Y-74469062D01*
G37*
X129058884Y-74969062D02*
X128608884Y-74969062D01*
X128608884Y-74731062D01*
X129058884Y-74731062D01*
X129058884Y-74969062D01*
G36*
X129058884Y-74969062D02*
G01*
X128608884Y-74969062D01*
X128608884Y-74731062D01*
X129058884Y-74731062D01*
X129058884Y-74969062D01*
G37*
X135262500Y-66869001D02*
X134812500Y-66869001D01*
X134812500Y-66631001D01*
X135262499Y-66631001D01*
X135262500Y-66869001D01*
G36*
X135262500Y-66869001D02*
G01*
X134812500Y-66869001D01*
X134812500Y-66631001D01*
X135262499Y-66631001D01*
X135262500Y-66869001D01*
G37*
X135262500Y-65869001D02*
X134812500Y-65869001D01*
X134812500Y-65631001D01*
X135262500Y-65631001D01*
X135262500Y-65869001D01*
G36*
X135262500Y-65869001D02*
G01*
X134812500Y-65869001D01*
X134812500Y-65631001D01*
X135262500Y-65631001D01*
X135262500Y-65869001D01*
G37*
X135262499Y-66369001D02*
X134812500Y-66369001D01*
X134812500Y-66131001D01*
X135262500Y-66131001D01*
X135262499Y-66369001D01*
G36*
X135262499Y-66369001D02*
G01*
X134812500Y-66369001D01*
X134812500Y-66131001D01*
X135262500Y-66131001D01*
X135262499Y-66369001D01*
G37*
X135262500Y-67369001D02*
X134812500Y-67369001D01*
X134812500Y-67131001D01*
X135262500Y-67131001D01*
X135262500Y-67369001D01*
G36*
X135262500Y-67369001D02*
G01*
X134812500Y-67369001D01*
X134812500Y-67131001D01*
X135262500Y-67131001D01*
X135262500Y-67369001D01*
G37*
X135819000Y-65812501D02*
X135581000Y-65812501D01*
X135581000Y-65362501D01*
X135819000Y-65362501D01*
X135819000Y-65812501D01*
G36*
X135819000Y-65812501D02*
G01*
X135581000Y-65812501D01*
X135581000Y-65362501D01*
X135819000Y-65362501D01*
X135819000Y-65812501D01*
G37*
X135819000Y-67637501D02*
X135581000Y-67637501D01*
X135581000Y-67187501D01*
X135819000Y-67187501D01*
X135819000Y-67637501D01*
G36*
X135819000Y-67637501D02*
G01*
X135581000Y-67637501D01*
X135581000Y-67187501D01*
X135819000Y-67187501D01*
X135819000Y-67637501D01*
G37*
X136319000Y-65812501D02*
X136081000Y-65812501D01*
X136081000Y-65362501D01*
X136319000Y-65362501D01*
X136319000Y-65812501D01*
G36*
X136319000Y-65812501D02*
G01*
X136081000Y-65812501D01*
X136081000Y-65362501D01*
X136319000Y-65362501D01*
X136319000Y-65812501D01*
G37*
X136319000Y-67637501D02*
X136081000Y-67637501D01*
X136081000Y-67187501D01*
X136319000Y-67187501D01*
X136319000Y-67637501D01*
G36*
X136319000Y-67637501D02*
G01*
X136081000Y-67637501D01*
X136081000Y-67187501D01*
X136319000Y-67187501D01*
X136319000Y-67637501D01*
G37*
X136819000Y-65812501D02*
X136581000Y-65812501D01*
X136581000Y-65362501D01*
X136819000Y-65362501D01*
X136819000Y-65812501D01*
G36*
X136819000Y-65812501D02*
G01*
X136581000Y-65812501D01*
X136581000Y-65362501D01*
X136819000Y-65362501D01*
X136819000Y-65812501D01*
G37*
X136819000Y-67637501D02*
X136581000Y-67637501D01*
X136581000Y-67187501D01*
X136819000Y-67187501D01*
X136819000Y-67637501D01*
G36*
X136819000Y-67637501D02*
G01*
X136581000Y-67637501D01*
X136581000Y-67187501D01*
X136819000Y-67187501D01*
X136819000Y-67637501D01*
G37*
X137587500Y-65869001D02*
X137137500Y-65869001D01*
X137137500Y-65631001D01*
X137587500Y-65631001D01*
X137587500Y-65869001D01*
G36*
X137587500Y-65869001D02*
G01*
X137137500Y-65869001D01*
X137137500Y-65631001D01*
X137587500Y-65631001D01*
X137587500Y-65869001D01*
G37*
X137587500Y-66369001D02*
X137137501Y-66369001D01*
X137137500Y-66131001D01*
X137587500Y-66131001D01*
X137587500Y-66369001D01*
G36*
X137587500Y-66369001D02*
G01*
X137137501Y-66369001D01*
X137137500Y-66131001D01*
X137587500Y-66131001D01*
X137587500Y-66369001D01*
G37*
X137587500Y-66869001D02*
X137137500Y-66869001D01*
X137137501Y-66631001D01*
X137587500Y-66631001D01*
X137587500Y-66869001D01*
G36*
X137587500Y-66869001D02*
G01*
X137137500Y-66869001D01*
X137137501Y-66631001D01*
X137587500Y-66631001D01*
X137587500Y-66869001D01*
G37*
X137587500Y-67369001D02*
X137137500Y-67369001D01*
X137137500Y-67131001D01*
X137587500Y-67131001D01*
X137587500Y-67369001D01*
G36*
X137587500Y-67369001D02*
G01*
X137137500Y-67369001D01*
X137137500Y-67131001D01*
X137587500Y-67131001D01*
X137587500Y-67369001D01*
G37*
X135287501Y-74368999D02*
X134837501Y-74368999D01*
X134837501Y-74130999D01*
X135287500Y-74130999D01*
X135287501Y-74368999D01*
G36*
X135287501Y-74368999D02*
G01*
X134837501Y-74368999D01*
X134837501Y-74130999D01*
X135287500Y-74130999D01*
X135287501Y-74368999D01*
G37*
X135287501Y-73368999D02*
X134837501Y-73368999D01*
X134837501Y-73130999D01*
X135287501Y-73130999D01*
X135287501Y-73368999D01*
G36*
X135287501Y-73368999D02*
G01*
X134837501Y-73368999D01*
X134837501Y-73130999D01*
X135287501Y-73130999D01*
X135287501Y-73368999D01*
G37*
X135287500Y-73868999D02*
X134837501Y-73868999D01*
X134837501Y-73630999D01*
X135287501Y-73630999D01*
X135287500Y-73868999D01*
G36*
X135287500Y-73868999D02*
G01*
X134837501Y-73868999D01*
X134837501Y-73630999D01*
X135287501Y-73630999D01*
X135287500Y-73868999D01*
G37*
X135287501Y-74868999D02*
X134837501Y-74868999D01*
X134837501Y-74630999D01*
X135287501Y-74630999D01*
X135287501Y-74868999D01*
G36*
X135287501Y-74868999D02*
G01*
X134837501Y-74868999D01*
X134837501Y-74630999D01*
X135287501Y-74630999D01*
X135287501Y-74868999D01*
G37*
X135844001Y-73312499D02*
X135606001Y-73312499D01*
X135606001Y-72862499D01*
X135844001Y-72862499D01*
X135844001Y-73312499D01*
G36*
X135844001Y-73312499D02*
G01*
X135606001Y-73312499D01*
X135606001Y-72862499D01*
X135844001Y-72862499D01*
X135844001Y-73312499D01*
G37*
X135844001Y-75137499D02*
X135606001Y-75137499D01*
X135606001Y-74687499D01*
X135844001Y-74687499D01*
X135844001Y-75137499D01*
G36*
X135844001Y-75137499D02*
G01*
X135606001Y-75137499D01*
X135606001Y-74687499D01*
X135844001Y-74687499D01*
X135844001Y-75137499D01*
G37*
X136344001Y-73312499D02*
X136106001Y-73312499D01*
X136106001Y-72862499D01*
X136344001Y-72862499D01*
X136344001Y-73312499D01*
G36*
X136344001Y-73312499D02*
G01*
X136106001Y-73312499D01*
X136106001Y-72862499D01*
X136344001Y-72862499D01*
X136344001Y-73312499D01*
G37*
X136344001Y-75137499D02*
X136106001Y-75137499D01*
X136106001Y-74687499D01*
X136344001Y-74687499D01*
X136344001Y-75137499D01*
G36*
X136344001Y-75137499D02*
G01*
X136106001Y-75137499D01*
X136106001Y-74687499D01*
X136344001Y-74687499D01*
X136344001Y-75137499D01*
G37*
X136844001Y-73312499D02*
X136606001Y-73312499D01*
X136606001Y-72862499D01*
X136844001Y-72862499D01*
X136844001Y-73312499D01*
G36*
X136844001Y-73312499D02*
G01*
X136606001Y-73312499D01*
X136606001Y-72862499D01*
X136844001Y-72862499D01*
X136844001Y-73312499D01*
G37*
X136844001Y-75137499D02*
X136606001Y-75137499D01*
X136606001Y-74687499D01*
X136844001Y-74687499D01*
X136844001Y-75137499D01*
G36*
X136844001Y-75137499D02*
G01*
X136606001Y-75137499D01*
X136606001Y-74687499D01*
X136844001Y-74687499D01*
X136844001Y-75137499D01*
G37*
X137612501Y-73368999D02*
X137162501Y-73368999D01*
X137162501Y-73130999D01*
X137612501Y-73130999D01*
X137612501Y-73368999D01*
G36*
X137612501Y-73368999D02*
G01*
X137162501Y-73368999D01*
X137162501Y-73130999D01*
X137612501Y-73130999D01*
X137612501Y-73368999D01*
G37*
X137612501Y-73868999D02*
X137162502Y-73868999D01*
X137162501Y-73630999D01*
X137612501Y-73630999D01*
X137612501Y-73868999D01*
G36*
X137612501Y-73868999D02*
G01*
X137162502Y-73868999D01*
X137162501Y-73630999D01*
X137612501Y-73630999D01*
X137612501Y-73868999D01*
G37*
X137612501Y-74368999D02*
X137162501Y-74368999D01*
X137162502Y-74130999D01*
X137612501Y-74130999D01*
X137612501Y-74368999D01*
G36*
X137612501Y-74368999D02*
G01*
X137162501Y-74368999D01*
X137162502Y-74130999D01*
X137612501Y-74130999D01*
X137612501Y-74368999D01*
G37*
X137612501Y-74868999D02*
X137162501Y-74868999D01*
X137162501Y-74630999D01*
X137612501Y-74630999D01*
X137612501Y-74868999D01*
G36*
X137612501Y-74868999D02*
G01*
X137162501Y-74868999D01*
X137162501Y-74630999D01*
X137612501Y-74630999D01*
X137612501Y-74868999D01*
G37*
D11*
X131050000Y-114000000D03*
X136450000Y-114000000D03*
D12*
X139300000Y-93400000D03*
X139300000Y-92600000D03*
D13*
X140250000Y-92250000D03*
X140250000Y-92750000D03*
X140250000Y-93250000D03*
X140250000Y-93750000D03*
X138350000Y-93750000D03*
X138350000Y-93250000D03*
X138350000Y-92750000D03*
X138350000Y-92250000D03*
D14*
X169863000Y-72463348D03*
X168213000Y-72463348D03*
X181575000Y-83750000D03*
X179925000Y-83750000D03*
D15*
X180475000Y-113345000D03*
X180475000Y-114615000D03*
X180475000Y-115885000D03*
X180475000Y-117155000D03*
X175525000Y-117155000D03*
X175525000Y-115885000D03*
X175525000Y-114615000D03*
X175525000Y-113345000D03*
D16*
X152598459Y-84964438D03*
X151502443Y-86060454D03*
D17*
X126050000Y-59555000D03*
X126850000Y-59555000D03*
X127650000Y-59555000D03*
X128450000Y-59555000D03*
X129250000Y-59555000D03*
X130050000Y-59555000D03*
D18*
X130147500Y-60652500D03*
D17*
X130050000Y-61750000D03*
X129250000Y-61750000D03*
X128450000Y-61750000D03*
X127650000Y-61750000D03*
X126850000Y-61750000D03*
X126050000Y-61750000D03*
D18*
X125952500Y-60652500D03*
D16*
X159298008Y-91451992D03*
X158201992Y-92548008D03*
D19*
X186450000Y-97050000D03*
X184550000Y-97050000D03*
X185500000Y-94950000D03*
D20*
X170000001Y-78488348D03*
X170000001Y-76938348D03*
D14*
X166575001Y-72463348D03*
X164925001Y-72463348D03*
D21*
X186975000Y-119250000D03*
X188525000Y-119250000D03*
D22*
X154215100Y-59585000D03*
X152665100Y-59585000D03*
D23*
X156039376Y-99289376D03*
X156760624Y-100010624D03*
D24*
X179450000Y-67000000D03*
X186050000Y-67000000D03*
D14*
X181325000Y-106450000D03*
X179675000Y-106450000D03*
D25*
X186925000Y-114000000D03*
X188575000Y-114000000D03*
D26*
X143250000Y-104000000D03*
X143250000Y-102350000D03*
D21*
X135700000Y-68750000D03*
X137250000Y-68750000D03*
D27*
X129890000Y-56000000D03*
X128110000Y-56000000D03*
D28*
X184000000Y-115225000D03*
X184000000Y-116775000D03*
D14*
X190325000Y-54500000D03*
X188675000Y-54500000D03*
X178900000Y-97250000D03*
X177250000Y-97250000D03*
D25*
X178350000Y-62250000D03*
X180000000Y-62250000D03*
D29*
X160878680Y-93438722D03*
X161232233Y-93792275D03*
D30*
X161408303Y-94340283D03*
X161054749Y-94693836D03*
X160701196Y-95047390D03*
D29*
X160153188Y-94871320D03*
X159799635Y-94517767D03*
D30*
X159623565Y-93969759D03*
X159977119Y-93616206D03*
X160330672Y-93262652D03*
D31*
X125850000Y-100000000D03*
X135250000Y-100000000D03*
D32*
X130550000Y-100000000D03*
D22*
X176275000Y-111500000D03*
X174725000Y-111500000D03*
D29*
X165668203Y-88228244D03*
X166021756Y-88581797D03*
D30*
X166197826Y-89129805D03*
X165844272Y-89483358D03*
X165490719Y-89836912D03*
D29*
X164942711Y-89660842D03*
X164589158Y-89307289D03*
D30*
X164413088Y-88759281D03*
X164766642Y-88405728D03*
X165120195Y-88052174D03*
D14*
X182075000Y-72250000D03*
X180425000Y-72250000D03*
D22*
X160034000Y-67285200D03*
X158484000Y-67285200D03*
D20*
X125171384Y-76375062D03*
X125171384Y-74825062D03*
X133725001Y-76275000D03*
X133725001Y-74725000D03*
D26*
X143250000Y-100862501D03*
X143250000Y-99212501D03*
D33*
X175325000Y-58850000D03*
X172175000Y-58850000D03*
D14*
X180000000Y-60750000D03*
X178350000Y-60750000D03*
D34*
X166000001Y-69363348D03*
X166500001Y-69363348D03*
X167000001Y-69363348D03*
X167500001Y-69363348D03*
X168000001Y-69363348D03*
X168000001Y-70213348D03*
X167500001Y-70213348D03*
X167000001Y-70213348D03*
X166500001Y-70213348D03*
X166000001Y-70213348D03*
D35*
X150666637Y-80416637D03*
X151833363Y-81583363D03*
D36*
X174175000Y-56350000D03*
X171275000Y-56350000D03*
D37*
X174664213Y-101664213D03*
X175830939Y-100497487D03*
D14*
X146975000Y-110700000D03*
X145325000Y-110700000D03*
D23*
X156739376Y-98589376D03*
X157460624Y-99310624D03*
D22*
X162050000Y-100500000D03*
X160500000Y-100500000D03*
D21*
X126987500Y-68850063D03*
X128537500Y-68850063D03*
D19*
X185700000Y-73800000D03*
X183800000Y-73800000D03*
X184750000Y-71700000D03*
D16*
X163908922Y-86451992D03*
X162812906Y-87548008D03*
D29*
X160040024Y-81705473D03*
X160393577Y-82059026D03*
D30*
X160569647Y-82607034D03*
X160216093Y-82960587D03*
X159862540Y-83314141D03*
D29*
X159314532Y-83138071D03*
X158960979Y-82784518D03*
D30*
X158784909Y-82236510D03*
X159138463Y-81882957D03*
X159492016Y-81529403D03*
D25*
X180375000Y-97200000D03*
X182025000Y-97200000D03*
D38*
X171250000Y-60925000D03*
X171250000Y-62575000D03*
D39*
X166701992Y-86451992D03*
X167798008Y-87548008D03*
D40*
X183450000Y-108200000D03*
X183450000Y-106300000D03*
X185550000Y-107250000D03*
D41*
X158400000Y-109350000D03*
X159500000Y-109350000D03*
X160600000Y-109350000D03*
X161700000Y-109350000D03*
X162800000Y-109350000D03*
X163900000Y-109350000D03*
X165000000Y-109350000D03*
X166100000Y-109350000D03*
X167050000Y-109350000D03*
D42*
X168000000Y-119850000D03*
D43*
X168000000Y-124000000D03*
D44*
X168000000Y-113650000D03*
X156850000Y-109350000D03*
D45*
X154500000Y-124450000D03*
D37*
X168666637Y-82833363D03*
X169833363Y-81666637D03*
X169916637Y-84083363D03*
X171083363Y-82916637D03*
X170801643Y-102698356D03*
X171968369Y-101531630D03*
D38*
X176000000Y-87175000D03*
X176000000Y-88825000D03*
D26*
X176000000Y-91825000D03*
X176000000Y-90175000D03*
D34*
X157990000Y-106730000D03*
X157490000Y-106730000D03*
X156990000Y-106730000D03*
X156490000Y-106730000D03*
X155990000Y-106730000D03*
X155990000Y-105880000D03*
X156490000Y-105880000D03*
X156990000Y-105880000D03*
X157490000Y-105880000D03*
X157990000Y-105880000D03*
D24*
X179150000Y-78550000D03*
X185750000Y-78550000D03*
D20*
X125012500Y-68875063D03*
X125012500Y-67325063D03*
D28*
X163421500Y-63935200D03*
X163421500Y-65485200D03*
D14*
X188575000Y-112250000D03*
X186925000Y-112250000D03*
D29*
X154348549Y-86749883D03*
X154702102Y-87103436D03*
D30*
X154878172Y-87651444D03*
X154524618Y-88004997D03*
X154171065Y-88358551D03*
D29*
X153623057Y-88182481D03*
X153269504Y-87828928D03*
D30*
X153093434Y-87280920D03*
X153446988Y-86927367D03*
X153800541Y-86573813D03*
D24*
X178900000Y-90200000D03*
X185500000Y-90200000D03*
D37*
X172189339Y-104139087D03*
X173356065Y-102972361D03*
D46*
X136650000Y-87250000D03*
X136650000Y-86750000D03*
X136650001Y-86250000D03*
X136650000Y-85750000D03*
X136650000Y-85250000D03*
X137500000Y-85250000D03*
X137500000Y-85750000D03*
X137499999Y-86250000D03*
X137500000Y-86750000D03*
X137500000Y-87250000D03*
D21*
X127146384Y-76350062D03*
X128696384Y-76350062D03*
D20*
X133700000Y-68775001D03*
X133700000Y-67225001D03*
D14*
X178575000Y-95500000D03*
X176925000Y-95500000D03*
D35*
X151916637Y-79166637D03*
X153083363Y-80333363D03*
D25*
X186925000Y-121000000D03*
X188575000Y-121000000D03*
X188675000Y-56250000D03*
X190325000Y-56250000D03*
D22*
X162050000Y-99000000D03*
X160500000Y-99000000D03*
D25*
X179675000Y-108250000D03*
X181325000Y-108250000D03*
D47*
X166249999Y-74286652D03*
X166750001Y-74286652D03*
X167250000Y-74286652D03*
X167749999Y-74286652D03*
X168250001Y-74286652D03*
X168250001Y-78713348D03*
X167749999Y-78713348D03*
X167250000Y-78713348D03*
X166750001Y-78713348D03*
X166249999Y-78713348D03*
D48*
X167250000Y-76500000D03*
D14*
X143575000Y-93250000D03*
X141925000Y-93250000D03*
D49*
X173200000Y-61250000D03*
X173850000Y-61250001D03*
X174500000Y-61250000D03*
X174500000Y-63150000D03*
X173850000Y-63149999D03*
X173200000Y-63150000D03*
D46*
X133150001Y-87750000D03*
X133150001Y-87250000D03*
X133150002Y-86750000D03*
X133150001Y-86250000D03*
X133150001Y-85750000D03*
X134000001Y-85750000D03*
X134000001Y-86250000D03*
X134000000Y-86750000D03*
X134000001Y-87250000D03*
X134000001Y-87750000D03*
D21*
X172975000Y-65000000D03*
X174525000Y-65000000D03*
D22*
X160034000Y-59035200D03*
X158484000Y-59035200D03*
D25*
X179925000Y-85550000D03*
X181575000Y-85550000D03*
D16*
X158272257Y-79920734D03*
X157176241Y-81016750D03*
D21*
X125525000Y-57652500D03*
X127075000Y-57652500D03*
D38*
X173250000Y-114925000D03*
X173250000Y-116575000D03*
D22*
X130325000Y-57652500D03*
X128775000Y-57652500D03*
D19*
X185450000Y-85600000D03*
X183550000Y-85600000D03*
X184500000Y-83500000D03*
D25*
X180425000Y-74000000D03*
X182075000Y-74000000D03*
D50*
X181800000Y-54250000D03*
X186200000Y-54250000D03*
D39*
X155409208Y-84982116D03*
X156505224Y-86078132D03*
D21*
X177975000Y-119000000D03*
X179525000Y-119000000D03*
D40*
X190550000Y-58050000D03*
X190550000Y-59950000D03*
X188450000Y-59000000D03*
D51*
X130450000Y-71500000D03*
X132550000Y-71500000D03*
D21*
X138225000Y-91000000D03*
X139775000Y-91000000D03*
D22*
X181275000Y-111500000D03*
X179725000Y-111500000D03*
D14*
X174650000Y-106250000D03*
X173000000Y-106250000D03*
D21*
X135700000Y-76250000D03*
X137250000Y-76250000D03*
D39*
X161065330Y-79920735D03*
X162161346Y-81016751D03*
D28*
X163259000Y-60760199D03*
X163259000Y-62310199D03*
D52*
X161334000Y-60935200D03*
X161333999Y-61585200D03*
X161334000Y-62235200D03*
X161334000Y-62885200D03*
X161334000Y-63535200D03*
X161334000Y-64185200D03*
X161333999Y-64835200D03*
X161334000Y-65485200D03*
X154509000Y-65485200D03*
X154509001Y-64835200D03*
X154509000Y-64185200D03*
X154509000Y-63535200D03*
X154509000Y-62885200D03*
X154509000Y-62235200D03*
X154509001Y-61585200D03*
X154509000Y-60935200D03*
D14*
X182025000Y-95400000D03*
X180375000Y-95400000D03*
D24*
X178950000Y-101750000D03*
X185550000Y-101750000D03*
D21*
X172975000Y-66750000D03*
X174525000Y-66750000D03*
D39*
X161903984Y-91653984D03*
X163000000Y-92750000D03*
D37*
X173250000Y-100250000D03*
X174416726Y-99083274D03*
D14*
X178400000Y-83750000D03*
X176750000Y-83750000D03*
D20*
X189000000Y-117525000D03*
X189000000Y-115975000D03*
D34*
X166490000Y-106830000D03*
X165990000Y-106830000D03*
X165490000Y-106830000D03*
X164990000Y-106830000D03*
X164490000Y-106830000D03*
X164490000Y-105980000D03*
X164990000Y-105980000D03*
X165490000Y-105980000D03*
X165990000Y-105980000D03*
X166490000Y-105980000D03*
D22*
X174600000Y-108000000D03*
X173050000Y-108000000D03*
D53*
X185750000Y-116010000D03*
X186250000Y-116010000D03*
X186750000Y-116010000D03*
X187250000Y-116010000D03*
X187250000Y-117490000D03*
X186750000Y-117490000D03*
X186250000Y-117490000D03*
X185750000Y-117490000D03*
D25*
X173000000Y-109750000D03*
X174650000Y-109750000D03*
D14*
X178400000Y-85500000D03*
X176750000Y-85500000D03*
M02*
