G04 #@! TF.GenerationSoftware,KiCad,Pcbnew,9.0.7*
G04 #@! TF.CreationDate,2026-02-18T02:14:08+01:00*
G04 #@! TF.ProjectId,2026_FH2_C_AV_FC,32303236-5f46-4483-925f-435f41565f46,rev?*
G04 #@! TF.SameCoordinates,Original*
G04 #@! TF.FileFunction,Copper,L1,Top*
G04 #@! TF.FilePolarity,Positive*
%FSLAX46Y46*%
G04 Gerber Fmt 4.6, Leading zero omitted, Abs format (unit mm)*
G04 Created by KiCad (PCBNEW 9.0.7) date 2026-02-18 02:14:08*
%MOMM*%
%LPD*%
G01*
G04 APERTURE LIST*
G04 Aperture macros list*
%AMRoundRect*
0 Rectangle with rounded corners*
0 $1 Rounding radius*
0 $2 $3 $4 $5 $6 $7 $8 $9 X,Y pos of 4 corners*
0 Add a 4 corners polygon primitive as box body*
4,1,4,$2,$3,$4,$5,$6,$7,$8,$9,$2,$3,0*
0 Add four circle primitives for the rounded corners*
1,1,$1+$1,$2,$3*
1,1,$1+$1,$4,$5*
1,1,$1+$1,$6,$7*
1,1,$1+$1,$8,$9*
0 Add four rect primitives between the rounded corners*
20,1,$1+$1,$2,$3,$4,$5,0*
20,1,$1+$1,$4,$5,$6,$7,0*
20,1,$1+$1,$6,$7,$8,$9,0*
20,1,$1+$1,$8,$9,$2,$3,0*%
%AMRotRect*
0 Rectangle, with rotation*
0 The origin of the aperture is its center*
0 $1 length*
0 $2 width*
0 $3 Rotation angle, in degrees counterclockwise*
0 Add horizontal line*
21,1,$1,$2,0,0,$3*%
G04 Aperture macros list end*
G04 #@! TA.AperFunction,SMDPad,CuDef*
%ADD10R,0.600000X2.500000*%
G04 #@! TD*
G04 #@! TA.AperFunction,SMDPad,CuDef*
%ADD11R,2.000000X2.500000*%
G04 #@! TD*
G04 #@! TA.AperFunction,SMDPad,CuDef*
%ADD12RoundRect,0.140000X0.021213X-0.219203X0.219203X-0.021213X-0.021213X0.219203X-0.219203X0.021213X0*%
G04 #@! TD*
G04 #@! TA.AperFunction,SMDPad,CuDef*
%ADD13RoundRect,0.200000X0.200000X0.275000X-0.200000X0.275000X-0.200000X-0.275000X0.200000X-0.275000X0*%
G04 #@! TD*
G04 #@! TA.AperFunction,SMDPad,CuDef*
%ADD14RoundRect,0.218750X-0.256250X0.218750X-0.256250X-0.218750X0.256250X-0.218750X0.256250X0.218750X0*%
G04 #@! TD*
G04 #@! TA.AperFunction,SMDPad,CuDef*
%ADD15RoundRect,0.218750X-0.424264X-0.114905X-0.114905X-0.424264X0.424264X0.114905X0.114905X0.424264X0*%
G04 #@! TD*
G04 #@! TA.AperFunction,ComponentPad*
%ADD16C,5.600000*%
G04 #@! TD*
G04 #@! TA.AperFunction,SMDPad,CuDef*
%ADD17RoundRect,0.067500X-0.157500X-0.157500X0.157500X-0.157500X0.157500X0.157500X-0.157500X0.157500X0*%
G04 #@! TD*
G04 #@! TA.AperFunction,SMDPad,CuDef*
%ADD18RoundRect,0.200000X-0.275000X0.200000X-0.275000X-0.200000X0.275000X-0.200000X0.275000X0.200000X0*%
G04 #@! TD*
G04 #@! TA.AperFunction,SMDPad,CuDef*
%ADD19RoundRect,0.218750X0.256250X-0.218750X0.256250X0.218750X-0.256250X0.218750X-0.256250X-0.218750X0*%
G04 #@! TD*
G04 #@! TA.AperFunction,SMDPad,CuDef*
%ADD20RoundRect,0.225000X0.250000X-0.225000X0.250000X0.225000X-0.250000X0.225000X-0.250000X-0.225000X0*%
G04 #@! TD*
G04 #@! TA.AperFunction,SMDPad,CuDef*
%ADD21RoundRect,0.135000X-0.035355X0.226274X-0.226274X0.035355X0.035355X-0.226274X0.226274X-0.035355X0*%
G04 #@! TD*
G04 #@! TA.AperFunction,SMDPad,CuDef*
%ADD22RoundRect,0.225000X0.225000X0.250000X-0.225000X0.250000X-0.225000X-0.250000X0.225000X-0.250000X0*%
G04 #@! TD*
G04 #@! TA.AperFunction,SMDPad,CuDef*
%ADD23RoundRect,0.218750X0.026517X-0.335876X0.335876X-0.026517X-0.026517X0.335876X-0.335876X0.026517X0*%
G04 #@! TD*
G04 #@! TA.AperFunction,SMDPad,CuDef*
%ADD24RoundRect,0.250000X0.400000X0.450000X-0.400000X0.450000X-0.400000X-0.450000X0.400000X-0.450000X0*%
G04 #@! TD*
G04 #@! TA.AperFunction,SMDPad,CuDef*
%ADD25R,1.000000X0.800000*%
G04 #@! TD*
G04 #@! TA.AperFunction,SMDPad,CuDef*
%ADD26R,0.700000X1.500000*%
G04 #@! TD*
G04 #@! TA.AperFunction,SMDPad,CuDef*
%ADD27RoundRect,0.140000X0.219203X0.021213X0.021213X0.219203X-0.219203X-0.021213X-0.021213X-0.219203X0*%
G04 #@! TD*
G04 #@! TA.AperFunction,SMDPad,CuDef*
%ADD28RoundRect,0.075000X0.415425X0.521491X-0.521491X-0.415425X-0.415425X-0.521491X0.521491X0.415425X0*%
G04 #@! TD*
G04 #@! TA.AperFunction,SMDPad,CuDef*
%ADD29RoundRect,0.075000X-0.415425X0.521491X-0.521491X0.415425X0.415425X-0.521491X0.521491X-0.415425X0*%
G04 #@! TD*
G04 #@! TA.AperFunction,SMDPad,CuDef*
%ADD30RoundRect,0.225000X-0.250000X0.225000X-0.250000X-0.225000X0.250000X-0.225000X0.250000X0.225000X0*%
G04 #@! TD*
G04 #@! TA.AperFunction,SMDPad,CuDef*
%ADD31R,0.650000X0.970000*%
G04 #@! TD*
G04 #@! TA.AperFunction,SMDPad,CuDef*
%ADD32RoundRect,0.218750X-0.218750X-0.256250X0.218750X-0.256250X0.218750X0.256250X-0.218750X0.256250X0*%
G04 #@! TD*
G04 #@! TA.AperFunction,SMDPad,CuDef*
%ADD33RoundRect,0.135000X0.035355X-0.226274X0.226274X-0.035355X-0.035355X0.226274X-0.226274X0.035355X0*%
G04 #@! TD*
G04 #@! TA.AperFunction,ComponentPad*
%ADD34C,2.000000*%
G04 #@! TD*
G04 #@! TA.AperFunction,SMDPad,CuDef*
%ADD35RoundRect,0.218750X0.218750X0.256250X-0.218750X0.256250X-0.218750X-0.256250X0.218750X-0.256250X0*%
G04 #@! TD*
G04 #@! TA.AperFunction,SMDPad,CuDef*
%ADD36R,0.650000X1.100000*%
G04 #@! TD*
G04 #@! TA.AperFunction,SMDPad,CuDef*
%ADD37RotRect,0.900000X1.000000X135.000000*%
G04 #@! TD*
G04 #@! TA.AperFunction,SMDPad,CuDef*
%ADD38RoundRect,0.200000X0.275000X-0.200000X0.275000X0.200000X-0.275000X0.200000X-0.275000X-0.200000X0*%
G04 #@! TD*
G04 #@! TA.AperFunction,ComponentPad*
%ADD39R,1.950000X1.950000*%
G04 #@! TD*
G04 #@! TA.AperFunction,ComponentPad*
%ADD40C,1.950000*%
G04 #@! TD*
G04 #@! TA.AperFunction,SMDPad,CuDef*
%ADD41RoundRect,0.225000X-0.225000X-0.250000X0.225000X-0.250000X0.225000X0.250000X-0.225000X0.250000X0*%
G04 #@! TD*
G04 #@! TA.AperFunction,SMDPad,CuDef*
%ADD42RoundRect,0.225000X-0.335876X-0.017678X-0.017678X-0.335876X0.335876X0.017678X0.017678X0.335876X0*%
G04 #@! TD*
G04 #@! TA.AperFunction,SMDPad,CuDef*
%ADD43R,0.350000X0.650000*%
G04 #@! TD*
G04 #@! TA.AperFunction,SMDPad,CuDef*
%ADD44R,2.400000X1.550000*%
G04 #@! TD*
G04 #@! TA.AperFunction,SMDPad,CuDef*
%ADD45RoundRect,0.200000X-0.200000X-0.275000X0.200000X-0.275000X0.200000X0.275000X-0.200000X0.275000X0*%
G04 #@! TD*
G04 #@! TA.AperFunction,SMDPad,CuDef*
%ADD46RoundRect,0.135000X-0.226274X-0.035355X-0.035355X-0.226274X0.226274X0.035355X0.035355X0.226274X0*%
G04 #@! TD*
G04 #@! TA.AperFunction,SMDPad,CuDef*
%ADD47R,0.400000X1.200000*%
G04 #@! TD*
G04 #@! TA.AperFunction,SMDPad,CuDef*
%ADD48RoundRect,0.140000X-0.021213X0.219203X-0.219203X0.021213X0.021213X-0.219203X0.219203X-0.021213X0*%
G04 #@! TD*
G04 #@! TA.AperFunction,ComponentPad*
%ADD49R,2.000000X2.000000*%
G04 #@! TD*
G04 #@! TA.AperFunction,SMDPad,CuDef*
%ADD50RoundRect,0.200000X-0.335876X-0.053033X-0.053033X-0.335876X0.335876X0.053033X0.053033X0.335876X0*%
G04 #@! TD*
G04 #@! TA.AperFunction,SMDPad,CuDef*
%ADD51RoundRect,0.250000X-0.400000X-0.450000X0.400000X-0.450000X0.400000X0.450000X-0.400000X0.450000X0*%
G04 #@! TD*
G04 #@! TA.AperFunction,SMDPad,CuDef*
%ADD52C,1.000000*%
G04 #@! TD*
G04 #@! TA.AperFunction,ComponentPad*
%ADD53R,1.700000X1.700000*%
G04 #@! TD*
G04 #@! TA.AperFunction,ComponentPad*
%ADD54C,1.700000*%
G04 #@! TD*
G04 #@! TA.AperFunction,SMDPad,CuDef*
%ADD55RoundRect,0.200000X-0.053033X0.335876X-0.335876X0.053033X0.053033X-0.335876X0.335876X-0.053033X0*%
G04 #@! TD*
G04 #@! TA.AperFunction,SMDPad,CuDef*
%ADD56RoundRect,0.250000X-0.275000X-0.700000X0.275000X-0.700000X0.275000X0.700000X-0.275000X0.700000X0*%
G04 #@! TD*
G04 #@! TA.AperFunction,SMDPad,CuDef*
%ADD57RoundRect,0.175000X-0.175000X0.725000X-0.175000X-0.725000X0.175000X-0.725000X0.175000X0.725000X0*%
G04 #@! TD*
G04 #@! TA.AperFunction,SMDPad,CuDef*
%ADD58RoundRect,0.200000X-0.200000X0.700000X-0.200000X-0.700000X0.200000X-0.700000X0.200000X0.700000X0*%
G04 #@! TD*
G04 #@! TA.AperFunction,SMDPad,CuDef*
%ADD59R,1.700000X0.900000*%
G04 #@! TD*
G04 #@! TA.AperFunction,SMDPad,CuDef*
%ADD60R,1.100000X0.800000*%
G04 #@! TD*
G04 #@! TA.AperFunction,SMDPad,CuDef*
%ADD61R,1.500000X3.500000*%
G04 #@! TD*
G04 #@! TA.AperFunction,SMDPad,CuDef*
%ADD62R,0.250000X0.600000*%
G04 #@! TD*
G04 #@! TA.AperFunction,SMDPad,CuDef*
%ADD63R,1.300000X0.600000*%
G04 #@! TD*
G04 #@! TA.AperFunction,SMDPad,CuDef*
%ADD64RoundRect,0.225000X0.335876X0.017678X0.017678X0.335876X-0.335876X-0.017678X-0.017678X-0.335876X0*%
G04 #@! TD*
G04 #@! TA.AperFunction,SMDPad,CuDef*
%ADD65RoundRect,0.140000X-0.219203X-0.021213X-0.021213X-0.219203X0.219203X0.021213X0.021213X0.219203X0*%
G04 #@! TD*
G04 #@! TA.AperFunction,SMDPad,CuDef*
%ADD66RoundRect,0.100000X0.100000X-0.637500X0.100000X0.637500X-0.100000X0.637500X-0.100000X-0.637500X0*%
G04 #@! TD*
G04 #@! TA.AperFunction,SMDPad,CuDef*
%ADD67RoundRect,0.200000X0.053033X-0.335876X0.335876X-0.053033X-0.053033X0.335876X-0.335876X0.053033X0*%
G04 #@! TD*
G04 #@! TA.AperFunction,SMDPad,CuDef*
%ADD68RoundRect,0.200000X0.335876X0.053033X0.053033X0.335876X-0.335876X-0.053033X-0.053033X-0.335876X0*%
G04 #@! TD*
G04 #@! TA.AperFunction,SMDPad,CuDef*
%ADD69RoundRect,0.225000X-0.017678X0.335876X-0.335876X0.017678X0.017678X-0.335876X0.335876X-0.017678X0*%
G04 #@! TD*
G04 #@! TA.AperFunction,SMDPad,CuDef*
%ADD70RoundRect,0.250000X0.275000X0.700000X-0.275000X0.700000X-0.275000X-0.700000X0.275000X-0.700000X0*%
G04 #@! TD*
G04 #@! TA.AperFunction,ComponentPad*
%ADD71RoundRect,0.249999X-0.525001X-0.525001X0.525001X-0.525001X0.525001X0.525001X-0.525001X0.525001X0*%
G04 #@! TD*
G04 #@! TA.AperFunction,ComponentPad*
%ADD72C,1.550000*%
G04 #@! TD*
G04 #@! TA.AperFunction,SMDPad,CuDef*
%ADD73RoundRect,0.150000X-0.150000X0.587500X-0.150000X-0.587500X0.150000X-0.587500X0.150000X0.587500X0*%
G04 #@! TD*
G04 #@! TA.AperFunction,SMDPad,CuDef*
%ADD74RoundRect,0.140000X-0.170000X0.140000X-0.170000X-0.140000X0.170000X-0.140000X0.170000X0.140000X0*%
G04 #@! TD*
G04 #@! TA.AperFunction,HeatsinkPad*
%ADD75C,0.600000*%
G04 #@! TD*
G04 #@! TA.AperFunction,SMDPad,CuDef*
%ADD76R,0.900000X1.600000*%
G04 #@! TD*
G04 #@! TA.AperFunction,ViaPad*
%ADD77C,0.700000*%
G04 #@! TD*
G04 #@! TA.AperFunction,Conductor*
%ADD78C,0.200000*%
G04 #@! TD*
G04 #@! TA.AperFunction,Conductor*
%ADD79C,0.300000*%
G04 #@! TD*
G04 #@! TA.AperFunction,Conductor*
%ADD80C,0.500000*%
G04 #@! TD*
G04 #@! TA.AperFunction,Conductor*
%ADD81C,0.750000*%
G04 #@! TD*
G04 #@! TA.AperFunction,Conductor*
%ADD82C,1.000000*%
G04 #@! TD*
G04 APERTURE END LIST*
D10*
X171900000Y-116420000D03*
X172700000Y-116420000D03*
X173500000Y-116420000D03*
X174300000Y-116420000D03*
X175100000Y-116420000D03*
D11*
X169050000Y-116420000D03*
X177950000Y-116420000D03*
X169050000Y-121870000D03*
X177950000Y-121870000D03*
D12*
X156481189Y-73644411D03*
X157160011Y-72965589D03*
D13*
X193000000Y-56500000D03*
X191350000Y-56500000D03*
D14*
X179700000Y-92662500D03*
X179700000Y-94237500D03*
D15*
X165473827Y-69269152D03*
X166976429Y-70771754D03*
D16*
X124000000Y-51000000D03*
D17*
X185075000Y-112950000D03*
X185075000Y-112100000D03*
X185925000Y-112100000D03*
X185925000Y-112950000D03*
D18*
X126500000Y-96200000D03*
X126500000Y-97850000D03*
D19*
X188200000Y-50962500D03*
X188200000Y-49387500D03*
D20*
X151000000Y-65775000D03*
X151000000Y-64225000D03*
D21*
X148610624Y-96639376D03*
X147889376Y-97360624D03*
D22*
X133525000Y-95000000D03*
X131975000Y-95000000D03*
D23*
X170828159Y-102671840D03*
X171941853Y-101558146D03*
D14*
X188500000Y-117462500D03*
X188500000Y-119037500D03*
D24*
X165824998Y-123000002D03*
X162924998Y-123000002D03*
D25*
X182350000Y-122890000D03*
X182350000Y-125100000D03*
X189650000Y-122890000D03*
X189650000Y-125100000D03*
D26*
X183750000Y-122240000D03*
X186750000Y-122240000D03*
X188250000Y-122240000D03*
D27*
X172839411Y-83839411D03*
X172160589Y-83160589D03*
D28*
X173173031Y-86652128D03*
X172819478Y-86298575D03*
X172465925Y-85945021D03*
X172112371Y-85591468D03*
X171758818Y-85237915D03*
X171405264Y-84884361D03*
X171051711Y-84530808D03*
X170698158Y-84177255D03*
X170344604Y-83823701D03*
X169991051Y-83470148D03*
X169637497Y-83116594D03*
X169283944Y-82763041D03*
X168930391Y-82409488D03*
X168576837Y-82055934D03*
X168223284Y-81702381D03*
X167869731Y-81348827D03*
X167516177Y-80995274D03*
X167162624Y-80641721D03*
X166809070Y-80288167D03*
X166455517Y-79934614D03*
X166101964Y-79581060D03*
X165748410Y-79227507D03*
X165394857Y-78873954D03*
X165041303Y-78520400D03*
X164687750Y-78166847D03*
X164334197Y-77813294D03*
X163980643Y-77459740D03*
X163627090Y-77106187D03*
X163273536Y-76752633D03*
X162919983Y-76399080D03*
X162566430Y-76045527D03*
X162212876Y-75691973D03*
X161859323Y-75338420D03*
X161505770Y-74984866D03*
X161152216Y-74631313D03*
X160798663Y-74277760D03*
D29*
X158093979Y-74277760D03*
X157740426Y-74631313D03*
X157386872Y-74984866D03*
X157033319Y-75338420D03*
X156679766Y-75691973D03*
X156326212Y-76045527D03*
X155972659Y-76399080D03*
X155619106Y-76752633D03*
X155265552Y-77106187D03*
X154911999Y-77459740D03*
X154558445Y-77813294D03*
X154204892Y-78166847D03*
X153851339Y-78520400D03*
X153497785Y-78873954D03*
X153144232Y-79227507D03*
X152790678Y-79581060D03*
X152437125Y-79934614D03*
X152083572Y-80288167D03*
X151730018Y-80641721D03*
X151376465Y-80995274D03*
X151022911Y-81348827D03*
X150669358Y-81702381D03*
X150315805Y-82055934D03*
X149962251Y-82409488D03*
X149608698Y-82763041D03*
X149255145Y-83116594D03*
X148901591Y-83470148D03*
X148548038Y-83823701D03*
X148194484Y-84177255D03*
X147840931Y-84530808D03*
X147487378Y-84884361D03*
X147133824Y-85237915D03*
X146780271Y-85591468D03*
X146426717Y-85945021D03*
X146073164Y-86298575D03*
X145719611Y-86652128D03*
D28*
X145719611Y-89356812D03*
X146073164Y-89710365D03*
X146426717Y-90063919D03*
X146780271Y-90417472D03*
X147133824Y-90771025D03*
X147487378Y-91124579D03*
X147840931Y-91478132D03*
X148194484Y-91831685D03*
X148548038Y-92185239D03*
X148901591Y-92538792D03*
X149255145Y-92892346D03*
X149608698Y-93245899D03*
X149962251Y-93599452D03*
X150315805Y-93953006D03*
X150669358Y-94306559D03*
X151022911Y-94660113D03*
X151376465Y-95013666D03*
X151730018Y-95367219D03*
X152083572Y-95720773D03*
X152437125Y-96074326D03*
X152790678Y-96427880D03*
X153144232Y-96781433D03*
X153497785Y-97134986D03*
X153851339Y-97488540D03*
X154204892Y-97842093D03*
X154558445Y-98195646D03*
X154911999Y-98549200D03*
X155265552Y-98902753D03*
X155619106Y-99256307D03*
X155972659Y-99609860D03*
X156326212Y-99963413D03*
X156679766Y-100316967D03*
X157033319Y-100670520D03*
X157386872Y-101024074D03*
X157740426Y-101377627D03*
X158093979Y-101731180D03*
D29*
X160798663Y-101731180D03*
X161152216Y-101377627D03*
X161505770Y-101024074D03*
X161859323Y-100670520D03*
X162212876Y-100316967D03*
X162566430Y-99963413D03*
X162919983Y-99609860D03*
X163273536Y-99256307D03*
X163627090Y-98902753D03*
X163980643Y-98549200D03*
X164334197Y-98195646D03*
X164687750Y-97842093D03*
X165041303Y-97488540D03*
X165394857Y-97134986D03*
X165748410Y-96781433D03*
X166101964Y-96427880D03*
X166455517Y-96074326D03*
X166809070Y-95720773D03*
X167162624Y-95367219D03*
X167516177Y-95013666D03*
X167869731Y-94660113D03*
X168223284Y-94306559D03*
X168576837Y-93953006D03*
X168930391Y-93599452D03*
X169283944Y-93245899D03*
X169637497Y-92892346D03*
X169991051Y-92538792D03*
X170344604Y-92185239D03*
X170698158Y-91831685D03*
X171051711Y-91478132D03*
X171405264Y-91124579D03*
X171758818Y-90771025D03*
X172112371Y-90417472D03*
X172465925Y-90063919D03*
X172819478Y-89710365D03*
X173173031Y-89356812D03*
D30*
X161500000Y-112225000D03*
X161500000Y-113775000D03*
D31*
X129250000Y-97010000D03*
X129250000Y-100490000D03*
D32*
X180762500Y-119650000D03*
X182337500Y-119650000D03*
D27*
X152339411Y-98089411D03*
X151660589Y-97410589D03*
D32*
X132212500Y-110500000D03*
X133787500Y-110500000D03*
D33*
X148639376Y-98110624D03*
X149360624Y-97389376D03*
D34*
X178250000Y-72750000D03*
D35*
X161287501Y-125000000D03*
X159712499Y-125000000D03*
D23*
X173276516Y-100223484D03*
X174390210Y-99109790D03*
D36*
X147540000Y-58050000D03*
X149460000Y-58050000D03*
X148500000Y-55950000D03*
D37*
X173128858Y-73856066D03*
X171643934Y-72371142D03*
X170371142Y-73643934D03*
X171856066Y-75128858D03*
D16*
X194000000Y-51000000D03*
D38*
X189950000Y-51000000D03*
X189950000Y-49350000D03*
D20*
X185500000Y-115800000D03*
X185500000Y-114250000D03*
D21*
X150110624Y-98139376D03*
X149389376Y-98860624D03*
D39*
X189000000Y-81750000D03*
D40*
X189000000Y-76750000D03*
D22*
X159525000Y-114000000D03*
X157975000Y-114000000D03*
D41*
X134975000Y-95000000D03*
X136525000Y-95000000D03*
D22*
X142600000Y-68937500D03*
X141050000Y-68937500D03*
D13*
X190000000Y-56500000D03*
X188350000Y-56500000D03*
D16*
X194000000Y-121000000D03*
D42*
X163036154Y-71860829D03*
X164132170Y-72956845D03*
D43*
X140775000Y-67550000D03*
X141425000Y-67550000D03*
X142075000Y-67550000D03*
X142725000Y-67550000D03*
X142725000Y-64450000D03*
X142075000Y-64450000D03*
X141425000Y-64450000D03*
X140775000Y-64450000D03*
D44*
X141750000Y-66000000D03*
D45*
X146275000Y-103875000D03*
X147925000Y-103875000D03*
D46*
X163139376Y-102639376D03*
X163860624Y-103360624D03*
D47*
X158450000Y-117500000D03*
X159100000Y-117499999D03*
X159750000Y-117500000D03*
X159750000Y-115600000D03*
X159100000Y-115600001D03*
X158450000Y-115600000D03*
D48*
X169976909Y-95151552D03*
X169298087Y-95830374D03*
D49*
X131250000Y-69000000D03*
D34*
X131250000Y-74000000D03*
D23*
X174690729Y-101637697D03*
X175804423Y-100524003D03*
D30*
X147250000Y-59700000D03*
X147250000Y-61250000D03*
D50*
X143166637Y-87666637D03*
X144333363Y-88833363D03*
D13*
X142575000Y-62750000D03*
X140925000Y-62750000D03*
D38*
X179530000Y-103977500D03*
X179530000Y-102327500D03*
D51*
X158050000Y-123000000D03*
X160950000Y-123000000D03*
D27*
X144697841Y-87168316D03*
X144019019Y-86489494D03*
D52*
X165984000Y-56362000D03*
D38*
X179700000Y-91025000D03*
X179700000Y-89375000D03*
D52*
X171500000Y-78500000D03*
D22*
X149125000Y-68887500D03*
X147575000Y-68887500D03*
D20*
X181000000Y-115800000D03*
X181000000Y-114250000D03*
D52*
X168784000Y-58562000D03*
D21*
X147860624Y-95889376D03*
X147139376Y-96610624D03*
D41*
X164225000Y-114000000D03*
X165775000Y-114000000D03*
D53*
X127080000Y-90200000D03*
D54*
X129620000Y-90200000D03*
X132159999Y-90200000D03*
X134700000Y-90200000D03*
D46*
X162389376Y-103389376D03*
X163110624Y-104110624D03*
X165889376Y-100889376D03*
X166610624Y-101610624D03*
D55*
X170309291Y-76654131D03*
X169142565Y-77820857D03*
D39*
X189000000Y-94500000D03*
D40*
X189000000Y-89500000D03*
D56*
X157925000Y-120500000D03*
X161075000Y-120500000D03*
D12*
X147910589Y-81839411D03*
X148589411Y-81160589D03*
D42*
X164273592Y-70623392D03*
X165369608Y-71719408D03*
D46*
X164889376Y-101389376D03*
X165610624Y-102110624D03*
D57*
X141450000Y-96967500D03*
D58*
X140350000Y-96967500D03*
X139250000Y-96967500D03*
X138150000Y-96967500D03*
X137050000Y-96967500D03*
X135950000Y-96967500D03*
X134850000Y-96967500D03*
X133750000Y-96967500D03*
D57*
X132650000Y-96967500D03*
X132650000Y-106467500D03*
D58*
X133750000Y-106467500D03*
X134850000Y-106467500D03*
X135950000Y-106467500D03*
X137050000Y-106467500D03*
X138150000Y-106467500D03*
X139250000Y-106467500D03*
X140350000Y-106467500D03*
D57*
X141450000Y-106467500D03*
D20*
X144250000Y-64525000D03*
X144250000Y-62975000D03*
D47*
X164200000Y-117500000D03*
X164850000Y-117499999D03*
X165500000Y-117500000D03*
X165500000Y-115600000D03*
X164850000Y-115600001D03*
X164200000Y-115600000D03*
D36*
X140815000Y-58050000D03*
X142735000Y-58050000D03*
X141775000Y-55950000D03*
D59*
X175650000Y-76550000D03*
X175650000Y-79950000D03*
D60*
X174009999Y-78250000D03*
D32*
X163212499Y-111250000D03*
X164787501Y-111250000D03*
D19*
X143250000Y-103962501D03*
X143250000Y-102387499D03*
D27*
X148410153Y-94769713D03*
X147731331Y-94090891D03*
D19*
X176500000Y-83037501D03*
X176500000Y-81462499D03*
D30*
X173250000Y-79725000D03*
X173250000Y-81275000D03*
D39*
X189000000Y-107250000D03*
D40*
X189000000Y-102250000D03*
D23*
X172215855Y-104112571D03*
X173329549Y-102998877D03*
D61*
X133750000Y-114000000D03*
X131050000Y-114000000D03*
X136450000Y-114000000D03*
D13*
X146950000Y-105450000D03*
X145300000Y-105450000D03*
D62*
X149750000Y-110250000D03*
X150250000Y-110250000D03*
X150750000Y-110250000D03*
X151250000Y-110250000D03*
X151750000Y-110250000D03*
X151750000Y-109400000D03*
X151250000Y-109400000D03*
X150750000Y-109400000D03*
X150250000Y-109400000D03*
X149750000Y-109400000D03*
D63*
X145267500Y-107110000D03*
X145267500Y-109010000D03*
X147367500Y-108060000D03*
D30*
X143000000Y-59725000D03*
X143000000Y-61275000D03*
D38*
X179750000Y-65575000D03*
X179750000Y-63925000D03*
D53*
X127220001Y-82700000D03*
D54*
X129760001Y-82700000D03*
X132300000Y-82700000D03*
X134840001Y-82700000D03*
D52*
X168784000Y-56414000D03*
D64*
X174548008Y-72048008D03*
X173451992Y-70951992D03*
D39*
X189000000Y-69000000D03*
D40*
X189000000Y-64000000D03*
D62*
X172750000Y-110250000D03*
X173250000Y-110250000D03*
X173750000Y-110250000D03*
X174250000Y-110250000D03*
X174750000Y-110250000D03*
X174750000Y-109400000D03*
X174250000Y-109400000D03*
X173750000Y-109400000D03*
X173250000Y-109400000D03*
X172750000Y-109400000D03*
D27*
X164496831Y-75147500D03*
X163818009Y-74468678D03*
D14*
X179500000Y-105675000D03*
X179500000Y-107250000D03*
D17*
X182825000Y-112950000D03*
X182825000Y-112100000D03*
X183675000Y-112100000D03*
X183675000Y-112950000D03*
D43*
X147525000Y-67300000D03*
X148175000Y-67300000D03*
X148825000Y-67300000D03*
X149475000Y-67300000D03*
X149475000Y-64200000D03*
X148825000Y-64200000D03*
X148175000Y-64200000D03*
X147525000Y-64200000D03*
D44*
X148500000Y-65750000D03*
D45*
X158350000Y-111250000D03*
X160000000Y-111250000D03*
D52*
X162000000Y-116500000D03*
D65*
X168767757Y-79418426D03*
X169446579Y-80097248D03*
D35*
X192962500Y-58250000D03*
X191387500Y-58250000D03*
D30*
X126500000Y-99500000D03*
X126500000Y-101050000D03*
D10*
X148900000Y-116420000D03*
X149700000Y-116420000D03*
X150500000Y-116420000D03*
X151300000Y-116420000D03*
X152100000Y-116420000D03*
D11*
X146050000Y-116420000D03*
X154950000Y-116420000D03*
X146050000Y-121870000D03*
X154950000Y-121870000D03*
D19*
X143250000Y-100825002D03*
X143250000Y-99250000D03*
D14*
X171250000Y-62712499D03*
X171250000Y-64287501D03*
D45*
X128925000Y-62500000D03*
X130575000Y-62500000D03*
D30*
X149750000Y-59725000D03*
X149750000Y-61275000D03*
X140500000Y-59725000D03*
X140500000Y-61275000D03*
D13*
X130575000Y-64250000D03*
X128925000Y-64250000D03*
D66*
X181475000Y-58862500D03*
X182125000Y-58862500D03*
X182775000Y-58862500D03*
X183425000Y-58862500D03*
X184075000Y-58862500D03*
X184725000Y-58862500D03*
X185375000Y-58862500D03*
X186025000Y-58862500D03*
X186025000Y-53137500D03*
X185375000Y-53137500D03*
X184725000Y-53137500D03*
X184075000Y-53137500D03*
X183425000Y-53137500D03*
X182775000Y-53137500D03*
X182125000Y-53137500D03*
X181475000Y-53137500D03*
D52*
X171000000Y-80750000D03*
D13*
X149325000Y-62750000D03*
X147675000Y-62750000D03*
D16*
X124000000Y-121000000D03*
D48*
X166441374Y-98687086D03*
X165762552Y-99365908D03*
D38*
X179600000Y-77825000D03*
X179600000Y-76175000D03*
D67*
X167867727Y-76546019D03*
X169034453Y-75379293D03*
D45*
X162675000Y-125000000D03*
X164325000Y-125000000D03*
D38*
X187000000Y-119075000D03*
X187000000Y-117425000D03*
D68*
X144083363Y-90833363D03*
X142916637Y-89666637D03*
D69*
X166607045Y-72921489D03*
X165511029Y-74017505D03*
D38*
X175000000Y-83075000D03*
X175000000Y-81425000D03*
D17*
X180575000Y-112950000D03*
X180575000Y-112100000D03*
X181425000Y-112100000D03*
X181425000Y-112950000D03*
D35*
X133737500Y-108567500D03*
X132162500Y-108567500D03*
D12*
X151090086Y-78329481D03*
X151768908Y-77650659D03*
D14*
X179750000Y-67212500D03*
X179750000Y-68787500D03*
D46*
X166639376Y-100139376D03*
X167360624Y-100860624D03*
D70*
X166075000Y-120500000D03*
X162925000Y-120500000D03*
D35*
X146900000Y-110700000D03*
X145324998Y-110700000D03*
D65*
X174247834Y-88787589D03*
X174926656Y-89466411D03*
D71*
X139960000Y-51290000D03*
D72*
X142500000Y-51290000D03*
X145040000Y-51290000D03*
X147580000Y-51290000D03*
X150120000Y-51290000D03*
X152660000Y-51290000D03*
X155200000Y-51290000D03*
X157740000Y-51290000D03*
X160280000Y-51290000D03*
X162820000Y-51290000D03*
X165360000Y-51290000D03*
X167900000Y-51290000D03*
X170440000Y-51290000D03*
X172980000Y-51290000D03*
X175520000Y-51290000D03*
X178060000Y-51290000D03*
X139960000Y-53830000D03*
X142500000Y-53830000D03*
X145040000Y-53830000D03*
X147580000Y-53830000D03*
X150120000Y-53830000D03*
X152660000Y-53830000D03*
X155200000Y-53830000D03*
X157740000Y-53830000D03*
X160280000Y-53830000D03*
X162820000Y-53830000D03*
X165360000Y-53830000D03*
X167900000Y-53830000D03*
X170440000Y-53830000D03*
X172980000Y-53830000D03*
X175520000Y-53830000D03*
X178060000Y-53830000D03*
D73*
X126950000Y-62312500D03*
X125050000Y-62312500D03*
X126000000Y-64187501D03*
D52*
X165984000Y-58462000D03*
D74*
X130700000Y-107987500D03*
X130700000Y-108947500D03*
D20*
X183250000Y-115800000D03*
X183250000Y-114250000D03*
D46*
X163889376Y-101889376D03*
X164610624Y-102610624D03*
D27*
X157425763Y-103431771D03*
X156746941Y-102752949D03*
D64*
X157298008Y-105048008D03*
X156201992Y-103951992D03*
D38*
X188500000Y-115825000D03*
X188500000Y-114175000D03*
D45*
X188350000Y-58250000D03*
X190000000Y-58250000D03*
D14*
X179600000Y-79462500D03*
X179600000Y-81037500D03*
D75*
X139300000Y-93500000D03*
D76*
X139300000Y-93000000D03*
D75*
X139300000Y-92500000D03*
D34*
X192375000Y-116075000D03*
X192325000Y-112925000D03*
D77*
X153910000Y-56370000D03*
X180474978Y-110724339D03*
X173400000Y-81376000D03*
X145950000Y-109100000D03*
X165313050Y-88950000D03*
X175750000Y-99250000D03*
X143500000Y-85900000D03*
X135250000Y-105000000D03*
X155000000Y-114500000D03*
X165750000Y-113000000D03*
X155900000Y-87145154D03*
X170125000Y-96050000D03*
X184000000Y-107000000D03*
X157201600Y-72212800D03*
X131500000Y-61100000D03*
X184250000Y-75250000D03*
X187750000Y-113000000D03*
X159750000Y-123000000D03*
X162800000Y-87650000D03*
X185250000Y-98250000D03*
X138000000Y-113500000D03*
X163750000Y-93000000D03*
X138675000Y-87000000D03*
X157500000Y-115250000D03*
X156750000Y-80564020D03*
X166844427Y-82586262D03*
X138000000Y-115500000D03*
X180200000Y-118025000D03*
X147731330Y-94090890D03*
X151258000Y-66929600D03*
X141450000Y-96350000D03*
X131500000Y-107000000D03*
X159970200Y-68631400D03*
X171200000Y-60100000D03*
X154257924Y-80182101D03*
X175471129Y-90081596D03*
X162500000Y-113750000D03*
X146000000Y-118250000D03*
X151500000Y-118500000D03*
X135250000Y-108000000D03*
X165762553Y-99365908D03*
X152000000Y-114500000D03*
X146000000Y-114500000D03*
X177500000Y-115000000D03*
X161250000Y-103460624D03*
X154000000Y-87500000D03*
X164364400Y-73711400D03*
X130750000Y-109750000D03*
X156250000Y-108950000D03*
X129500000Y-115250000D03*
X124801000Y-68550000D03*
X131874000Y-95750000D03*
X166571303Y-88986846D03*
X160483980Y-94016272D03*
X133761051Y-76376000D03*
X159894000Y-57506200D03*
X164762178Y-118513918D03*
X143765000Y-66040600D03*
X180750000Y-101750000D03*
X159219999Y-118540002D03*
X185548000Y-123393800D03*
X191750000Y-55000000D03*
X183250000Y-75250000D03*
X151023500Y-85726500D03*
X173500000Y-69750000D03*
X127500000Y-103000000D03*
X169250000Y-114500000D03*
X135500000Y-69500000D03*
X127750000Y-56500000D03*
X126192154Y-76432908D03*
X167127269Y-93051443D03*
X137250000Y-95000000D03*
X153675643Y-95492045D03*
X142807300Y-56457300D03*
X175500000Y-110250000D03*
X147750000Y-122000000D03*
X169183363Y-80750000D03*
X169500000Y-123750000D03*
X189609200Y-118615800D03*
X176250000Y-122000000D03*
X150722391Y-83717635D03*
X123851400Y-62078200D03*
X147525000Y-55525000D03*
X177521600Y-94887500D03*
X184000000Y-87000000D03*
X141750000Y-102250000D03*
X164000000Y-123000000D03*
X172241151Y-83223949D03*
X129500000Y-113750000D03*
X127750000Y-100250000D03*
X181000000Y-63500000D03*
X184000000Y-98250000D03*
X159557319Y-82409883D03*
X156000000Y-104500000D03*
X159250000Y-99500000D03*
X174250000Y-103750000D03*
X162500000Y-81500000D03*
X153250000Y-122000000D03*
X174850000Y-77225000D03*
X164115380Y-85284620D03*
X184575725Y-115842184D03*
X186025000Y-51867400D03*
X144275000Y-99250000D03*
X183000000Y-87000000D03*
X183000000Y-107000000D03*
X130506200Y-88011600D03*
X158486949Y-93134811D03*
X133500000Y-99250000D03*
X124500000Y-99250000D03*
X145593800Y-70892000D03*
X142571200Y-69799800D03*
X182000000Y-114000000D03*
X137500000Y-84250000D03*
X131250000Y-71250000D03*
X140250000Y-84250000D03*
X131750000Y-64500000D03*
X133250000Y-71376000D03*
X160250000Y-79250000D03*
X133825000Y-74925000D03*
X138500000Y-90000000D03*
X170038706Y-79473151D03*
X137250000Y-68750000D03*
X135256000Y-80174000D03*
X131250000Y-59250000D03*
X125000000Y-77750000D03*
X143750000Y-92500000D03*
X137750000Y-100500000D03*
X160000000Y-90750000D03*
X133000000Y-67000000D03*
X144222200Y-56566400D03*
X169500000Y-86250000D03*
X146500000Y-95500000D03*
X142850600Y-106680600D03*
X142500000Y-95250000D03*
X133626900Y-55623100D03*
X164000000Y-80250000D03*
X124902500Y-58750000D03*
X153750000Y-82078400D03*
X137500000Y-76250000D03*
X171250000Y-88500000D03*
X165000000Y-87000000D03*
X143200000Y-109350000D03*
X161861241Y-98874000D03*
X158925761Y-80574239D03*
X151665620Y-98665620D03*
X145771600Y-60452600D03*
X125000000Y-70500000D03*
X155492324Y-84899000D03*
X137250000Y-93000000D03*
X160000000Y-105750000D03*
X128638500Y-68250000D03*
X173250000Y-84500000D03*
X150877000Y-63195800D03*
X189500000Y-121939998D03*
X165250000Y-82500000D03*
X168250000Y-118750000D03*
X187716427Y-118253748D03*
X173250000Y-123500000D03*
X176000000Y-108000000D03*
X170500000Y-62600000D03*
X154124000Y-106000000D03*
X156571330Y-123700000D03*
X170500000Y-75000000D03*
X174500000Y-80500000D03*
X179750000Y-70500000D03*
X179274200Y-74727400D03*
X179500000Y-82500000D03*
X179750000Y-95250000D03*
X161500000Y-84500000D03*
X155175000Y-81925000D03*
X158750000Y-84750000D03*
X162500000Y-86250000D03*
X152823587Y-88478928D03*
X152000000Y-87250000D03*
X157086117Y-79138883D03*
X157649482Y-81980243D03*
X155593820Y-90906180D03*
X155250000Y-90000000D03*
X148575880Y-72405720D03*
X151369399Y-79213669D03*
X141764446Y-92225000D03*
X150361895Y-70910295D03*
X124880025Y-55380025D03*
X149530800Y-77242000D03*
X146990800Y-70993600D03*
X149228420Y-70051380D03*
X141000000Y-91750000D03*
X147727400Y-71806400D03*
X150292800Y-78994600D03*
X150267400Y-68631400D03*
X140500000Y-95000000D03*
X158750000Y-76250000D03*
X156947600Y-57303000D03*
X187500000Y-58250000D03*
X176783433Y-118484080D03*
X182250000Y-117750000D03*
X175750000Y-96500000D03*
X142975843Y-84600000D03*
X130000000Y-63500000D03*
X168453800Y-96495200D03*
X138750000Y-99500000D03*
X147607353Y-97869916D03*
X145000000Y-103250000D03*
X148993719Y-99256281D03*
X146750000Y-97000000D03*
X136750000Y-99000000D03*
X155318725Y-97223235D03*
X156500000Y-97950000D03*
X182931800Y-64059400D03*
X188000000Y-49000000D03*
X146283552Y-91798075D03*
X143250000Y-100750000D03*
X147500000Y-102250000D03*
X151750000Y-100500000D03*
X151000000Y-100000000D03*
X146250000Y-101500000D03*
X143250000Y-104000000D03*
X173250000Y-100250000D03*
X164250000Y-104250000D03*
X159250000Y-103250000D03*
X164000000Y-105250000D03*
X165000000Y-103750000D03*
X172500000Y-120250000D03*
X167250000Y-98250000D03*
X170600002Y-122250000D03*
X146500000Y-93250000D03*
X144000000Y-95000000D03*
X146150000Y-94400000D03*
X148500000Y-101250000D03*
X171000000Y-102750000D03*
X168669240Y-91419240D03*
X169398971Y-90892460D03*
X180500000Y-107500000D03*
X155940308Y-101940308D03*
X159957689Y-102693959D03*
X167350001Y-56300000D03*
X153366200Y-57379200D03*
X166650001Y-58300000D03*
X164000000Y-83500000D03*
X129750000Y-65000000D03*
X139269220Y-68900020D03*
X138608800Y-65177000D03*
X160250000Y-85250000D03*
X161000000Y-83500000D03*
X161084620Y-87165380D03*
X154250000Y-89250000D03*
X133200000Y-72676000D03*
X138256811Y-72741443D03*
X162500000Y-94750000D03*
X169334620Y-89834620D03*
X139193000Y-78486600D03*
X153500000Y-90750000D03*
X165000000Y-94500000D03*
X169959620Y-88400000D03*
X172000000Y-87750000D03*
X161000000Y-77000000D03*
X168300000Y-59300000D03*
X165482000Y-56414000D03*
X174500000Y-101500000D03*
X172250000Y-104000000D03*
X181400000Y-119000000D03*
X185649600Y-119355200D03*
X185100000Y-121250000D03*
X182450000Y-120200000D03*
X144700000Y-110750000D03*
X169288935Y-84564431D03*
X168478864Y-83773650D03*
X159868600Y-72822400D03*
X160198800Y-71806400D03*
X194031600Y-83896800D03*
X194107800Y-62738600D03*
X178080400Y-84912800D03*
X193218800Y-95022000D03*
X178893200Y-96139600D03*
X194819000Y-61062200D03*
X182576200Y-57059400D03*
X169368200Y-98349400D03*
X180569600Y-58395200D03*
X169292000Y-97333400D03*
X174168800Y-75235400D03*
X171600000Y-64600000D03*
X190250000Y-110250000D03*
X175896000Y-64923000D03*
X182550800Y-60224000D03*
X193168000Y-85725600D03*
X177267600Y-89637200D03*
X192990200Y-63576800D03*
X179096400Y-59944600D03*
X167250000Y-102250000D03*
X140250000Y-86400000D03*
X167415380Y-103165380D03*
X140900000Y-87250000D03*
X144750000Y-84199000D03*
X139091400Y-77013400D03*
X147693052Y-80850046D03*
X138031364Y-75420965D03*
X145280934Y-81888306D03*
X123750000Y-65250000D03*
X132750000Y-77699000D03*
X146214187Y-80955053D03*
X143708132Y-78449000D03*
X143688800Y-75413200D03*
X138304000Y-66650200D03*
X139320000Y-72746200D03*
X134000000Y-63500000D03*
X145875000Y-92600000D03*
X135500000Y-64900000D03*
X133750000Y-64900000D03*
X134250000Y-80824000D03*
X139900000Y-89250000D03*
X124500000Y-65750000D03*
X149250000Y-95239376D03*
X133500000Y-73725000D03*
X125500000Y-72750000D03*
X144250000Y-83333620D03*
X130750000Y-77750000D03*
X127250000Y-71250000D03*
X144644535Y-82524704D03*
X131834620Y-77915380D03*
X137477000Y-77699200D03*
X134250000Y-72750000D03*
X150157843Y-86842157D03*
X140234400Y-104445400D03*
X148250000Y-98500000D03*
X140250000Y-100000000D03*
X140234400Y-101473600D03*
X148108400Y-105893200D03*
D78*
X146803797Y-56115391D02*
X146952289Y-56263883D01*
X144280000Y-55110000D02*
X145360000Y-55110000D01*
X146952289Y-56702289D02*
X147100782Y-56850782D01*
X143510000Y-52660000D02*
X143780000Y-52930000D01*
X143780000Y-54610000D02*
X144280000Y-55110000D01*
X148330000Y-56920000D02*
X149460000Y-58050000D01*
X147170000Y-56920000D02*
X148330000Y-56920000D01*
X147100782Y-56850782D02*
X147135000Y-56885000D01*
X145360000Y-55110000D02*
X145630000Y-55380000D01*
X142500000Y-52860000D02*
X142700000Y-52660000D01*
X147135000Y-56885000D02*
X147170000Y-56920000D01*
X142700000Y-52660000D02*
X143510000Y-52660000D01*
X146068406Y-55380000D02*
X146216898Y-55528492D01*
X142500000Y-53830000D02*
X142500000Y-52860000D01*
X146216898Y-55966898D02*
X146365391Y-56115391D01*
X143780000Y-52930000D02*
X143780000Y-54610000D01*
X146216899Y-55747696D02*
G75*
G03*
X146216895Y-55966900I109601J-109604D01*
G01*
X145849204Y-55380001D02*
G75*
G02*
X146068400Y-55380005I109596J-109599D01*
G01*
X146365391Y-56115391D02*
G75*
G03*
X146584602Y-56115399I109609J109591D01*
G01*
X146584595Y-56115392D02*
G75*
G02*
X146803800Y-56115387I109605J-109608D01*
G01*
X146952289Y-56263883D02*
G75*
G02*
X146952305Y-56483102I-109589J-109617D01*
G01*
X146952290Y-56483087D02*
G75*
G03*
X146952277Y-56702300I109610J-109613D01*
G01*
X145630000Y-55380000D02*
G75*
G03*
X145849201Y-55379999I109600J109600D01*
G01*
X146216898Y-55528492D02*
G75*
G02*
X146216905Y-55747702I-109598J-109608D01*
G01*
X158954200Y-55044200D02*
X157740000Y-53830000D01*
X158954200Y-73454200D02*
X158954200Y-55044200D01*
X156510000Y-52520000D02*
X157740000Y-51290000D01*
X156510000Y-54800000D02*
X156510000Y-52520000D01*
X158093979Y-56383979D02*
X156510000Y-54800000D01*
X158093979Y-74277760D02*
X158093979Y-56383979D01*
X155200000Y-54940000D02*
X155200000Y-53830000D01*
X156070000Y-55810000D02*
X155200000Y-54940000D01*
X156070000Y-69585200D02*
X156070000Y-55810000D01*
X156134358Y-75077271D02*
X156134358Y-75006559D01*
X155245800Y-74118001D02*
X155245800Y-70409400D01*
X156160200Y-75103113D02*
X156134358Y-75077271D01*
X156134358Y-75006559D02*
X155245800Y-74118001D01*
X155245800Y-70409400D02*
X156070000Y-69585200D01*
X156160200Y-75172407D02*
X156160200Y-75103113D01*
X156679766Y-75691973D02*
X156160200Y-75172407D01*
X154179000Y-56639000D02*
X153910000Y-56370000D01*
X154179000Y-56779000D02*
X154179000Y-56639000D01*
X155296600Y-56466600D02*
X152660000Y-53830000D01*
X155296600Y-69418800D02*
X155296600Y-56466600D01*
X154179000Y-59487400D02*
X154179000Y-56779000D01*
X151390000Y-52560000D02*
X150120000Y-51290000D01*
X151390000Y-55530000D02*
X151390000Y-52560000D01*
X152528000Y-56668000D02*
X151390000Y-55530000D01*
X152528000Y-60224000D02*
X152528000Y-56668000D01*
X152756600Y-68606000D02*
X153366200Y-67996400D01*
X152756600Y-76226000D02*
X152756600Y-68606000D01*
X153366200Y-61062200D02*
X152528000Y-60224000D01*
X153751039Y-77220439D02*
X152756600Y-76226000D01*
X153756290Y-77220439D02*
X153751039Y-77220439D01*
X153366200Y-67996400D02*
X153366200Y-61062200D01*
X154489151Y-77813294D02*
X153943743Y-77267886D01*
X154558445Y-77813294D02*
X154489151Y-77813294D01*
X153943743Y-77267886D02*
X153803737Y-77267886D01*
X153803737Y-77267886D02*
X153756290Y-77220439D01*
X146710976Y-85591468D02*
X146780271Y-85591468D01*
X146165568Y-85046060D02*
X146710976Y-85591468D01*
X145897796Y-84849000D02*
X146094856Y-85046060D01*
X144349000Y-84849000D02*
X145897796Y-84849000D01*
X143500000Y-84000000D02*
X144349000Y-84849000D01*
X146584400Y-79665600D02*
X143500000Y-82750000D01*
X146584400Y-77750000D02*
X146584400Y-79665600D01*
X151562800Y-72771600D02*
X146584400Y-77750000D01*
X151994600Y-67113654D02*
X151562800Y-67545454D01*
X151994600Y-61621000D02*
X151994600Y-67113654D01*
X146094856Y-85046060D02*
X146165568Y-85046060D01*
X151562800Y-67545454D02*
X151562800Y-72771600D01*
X151283400Y-57323400D02*
X151283400Y-60909800D01*
X147790000Y-53830000D02*
X151283400Y-57323400D01*
X151283400Y-60909800D02*
X151994600Y-61621000D01*
X143500000Y-82750000D02*
X143500000Y-84000000D01*
X147580000Y-53830000D02*
X147790000Y-53830000D01*
X149010000Y-52720000D02*
X147580000Y-51290000D01*
X149010000Y-54350000D02*
X149010000Y-52720000D01*
X151969200Y-57309200D02*
X149010000Y-54350000D01*
X151969200Y-60655800D02*
X151969200Y-57309200D01*
X152705800Y-61392400D02*
X151969200Y-60655800D01*
X152172400Y-68072600D02*
X152705800Y-67539200D01*
X152705800Y-67539200D02*
X152705800Y-61392400D01*
X152172400Y-76810200D02*
X152172400Y-68072600D01*
X152983639Y-77621439D02*
X152172400Y-76810200D01*
X153590190Y-77621439D02*
X152983639Y-77621439D01*
X154204892Y-78166847D02*
X154135598Y-78166847D01*
X154135598Y-78166847D02*
X153590190Y-77621439D01*
X141230000Y-52560000D02*
X142500000Y-51290000D01*
X143290000Y-55720000D02*
X142550000Y-54980000D01*
X142550000Y-54980000D02*
X141960000Y-54980000D01*
X141230000Y-54250000D02*
X141230000Y-52560000D01*
X145210000Y-55720000D02*
X143290000Y-55720000D01*
X147540000Y-58050000D02*
X145210000Y-55720000D01*
X141960000Y-54980000D02*
X141230000Y-54250000D01*
X139960000Y-52860000D02*
X139960000Y-53830000D01*
X139780000Y-52680000D02*
X139960000Y-52860000D01*
X138780000Y-54960000D02*
X138780000Y-53090000D01*
X142398000Y-58018000D02*
X141350000Y-56970000D01*
X142398000Y-58050000D02*
X142398000Y-58018000D01*
X141350000Y-56970000D02*
X140790000Y-56970000D01*
X140790000Y-56970000D02*
X138780000Y-54960000D01*
X142735000Y-58050000D02*
X142398000Y-58050000D01*
X138780000Y-53090000D02*
X139190000Y-52680000D01*
X139190000Y-52680000D02*
X139780000Y-52680000D01*
X138190000Y-55440000D02*
X140800000Y-58050000D01*
X140800000Y-58050000D02*
X140815000Y-58050000D01*
X138190000Y-52320000D02*
X138190000Y-55440000D01*
X139220000Y-51290000D02*
X138190000Y-52320000D01*
X139960000Y-51290000D02*
X139220000Y-51290000D01*
D79*
X134756800Y-52933200D02*
X134756800Y-54551000D01*
X138743600Y-48946400D02*
X134756800Y-52933200D01*
X181915800Y-51003800D02*
X179858400Y-48946400D01*
X186653800Y-51003800D02*
X181915800Y-51003800D01*
X187580000Y-51930000D02*
X186653800Y-51003800D01*
X187580000Y-52248400D02*
X187580000Y-51930000D01*
X189231600Y-53900000D02*
X187580000Y-52248400D01*
X194375000Y-54600000D02*
X192600000Y-54600000D01*
X192600000Y-54600000D02*
X191900000Y-53900000D01*
X197050000Y-57275000D02*
X194375000Y-54600000D01*
X179858400Y-48946400D02*
X138743600Y-48946400D01*
X197050000Y-108208800D02*
X197050000Y-57275000D01*
X194463400Y-110795400D02*
X197050000Y-108208800D01*
X192375000Y-115525400D02*
X194463400Y-113437000D01*
X194463400Y-113437000D02*
X194463400Y-110795400D01*
X192375000Y-116075000D02*
X192375000Y-115525400D01*
X191900000Y-53900000D02*
X189231600Y-53900000D01*
D80*
X143500000Y-85900000D02*
X143509902Y-85909902D01*
D79*
X182999680Y-111249680D02*
X183675000Y-111925000D01*
D80*
X153250000Y-122000000D02*
X154820000Y-122000000D01*
D79*
X169121309Y-80097247D02*
X169446580Y-80097247D01*
X164325000Y-123325000D02*
X164000000Y-123000000D01*
D80*
X152100000Y-114600000D02*
X152100000Y-116420000D01*
D78*
X148001000Y-65201000D02*
X148001000Y-68461500D01*
D80*
X152000000Y-114500000D02*
X152100000Y-114600000D01*
D78*
X179700000Y-89375000D02*
X180625000Y-89375000D01*
X174850000Y-77225000D02*
X175222600Y-77225000D01*
X151000000Y-66374800D02*
X151000000Y-65775000D01*
D79*
X169446579Y-80486784D02*
X169183363Y-80750000D01*
D78*
X180575000Y-63925000D02*
X181000000Y-63500000D01*
X145860000Y-109010000D02*
X145950000Y-109100000D01*
D79*
X191750000Y-55000000D02*
X191750000Y-56100000D01*
X130700000Y-109700000D02*
X130750000Y-109750000D01*
X127750000Y-100250000D02*
X127300000Y-100250000D01*
X185457816Y-115842184D02*
X185500000Y-115800000D01*
D78*
X156201992Y-103951992D02*
X156201992Y-104298008D01*
D80*
X146000000Y-116470000D02*
X146050000Y-116420000D01*
D78*
X186025000Y-58862500D02*
X186025000Y-58125001D01*
X130327500Y-115250000D02*
X131050000Y-114527500D01*
D79*
X150563292Y-83717635D02*
X150722391Y-83717635D01*
D78*
X141425000Y-67550000D02*
X141425000Y-65552000D01*
X175650000Y-76797600D02*
X175650000Y-76550000D01*
D79*
X189950000Y-49350000D02*
X189962500Y-49350000D01*
X141450000Y-96350000D02*
X141450000Y-96967500D01*
D80*
X146050000Y-121870000D02*
X147620000Y-121870000D01*
D79*
X137477500Y-113500000D02*
X136977500Y-114000000D01*
X167127269Y-93051443D02*
X167410111Y-93334288D01*
X126500000Y-101050000D02*
X126500000Y-102000000D01*
X148056599Y-94090890D02*
X147731330Y-94090890D01*
D78*
X157160011Y-74050898D02*
X157160011Y-72965589D01*
D79*
X173500000Y-70903984D02*
X173451992Y-70951992D01*
X126500000Y-102000000D02*
X127500000Y-103000000D01*
D78*
X150750000Y-113250000D02*
X152000000Y-114500000D01*
D79*
X132650000Y-106467500D02*
X132032500Y-106467500D01*
D78*
X151258000Y-66632800D02*
X151000000Y-66374800D01*
D79*
X158350000Y-113625000D02*
X157975000Y-114000000D01*
X136977500Y-114000000D02*
X136450000Y-114000000D01*
D80*
X146000000Y-118250000D02*
X146000000Y-116470000D01*
D79*
X123851400Y-62078200D02*
X124085700Y-62312500D01*
X136525000Y-95000000D02*
X137250000Y-95000000D01*
X135250000Y-105000000D02*
X135250000Y-105767500D01*
X153144233Y-79227507D02*
X154098825Y-80182101D01*
D78*
X142775000Y-66000000D02*
X141750000Y-66000000D01*
X153689639Y-96236026D02*
X153144232Y-96781433D01*
X182325000Y-76175000D02*
X183250000Y-75250000D01*
X140775000Y-64902000D02*
X140775000Y-64450000D01*
D79*
X167869730Y-81348826D02*
X166844427Y-82374130D01*
X183675000Y-111925000D02*
X183675000Y-112100000D01*
X189962500Y-49350000D02*
X190562500Y-49950000D01*
D80*
X169180000Y-123430000D02*
X169180000Y-122000000D01*
D78*
X180625000Y-89375000D02*
X183000000Y-87000000D01*
X150526000Y-57639000D02*
X150526000Y-60499000D01*
D79*
X163818009Y-74468678D02*
X163818009Y-73271006D01*
X173250000Y-81275000D02*
X174850000Y-81275000D01*
X184575725Y-115842184D02*
X183292184Y-115842184D01*
D78*
X147525000Y-64725000D02*
X148001000Y-65201000D01*
D79*
X185925000Y-111925000D02*
X185925000Y-112100000D01*
X174850000Y-81275000D02*
X175000000Y-81425000D01*
D78*
X141750000Y-66000000D02*
X143724400Y-66000000D01*
D79*
X148589411Y-81160589D02*
X148883914Y-81455092D01*
X156201992Y-103951992D02*
X156201992Y-103297898D01*
D80*
X159750000Y-123000000D02*
X164000000Y-123000000D01*
D79*
X130575000Y-62025000D02*
X131500000Y-61100000D01*
X135250000Y-106067500D02*
X134850000Y-106467500D01*
D78*
X173750000Y-109400000D02*
X173750000Y-110250000D01*
D80*
X143509902Y-85909902D02*
X143509902Y-85980376D01*
D78*
X143776000Y-57426000D02*
X143776000Y-60499000D01*
X141425000Y-67550000D02*
X141425000Y-68562500D01*
D79*
X124085700Y-62312500D02*
X125050000Y-62312500D01*
D80*
X177950000Y-115450000D02*
X177500000Y-115000000D01*
D78*
X146974000Y-63649000D02*
X147525000Y-64200000D01*
X165762552Y-99365908D02*
X165762553Y-99365908D01*
D80*
X177820000Y-122000000D02*
X177950000Y-121870000D01*
D79*
X149255145Y-92892344D02*
X148056599Y-94090890D01*
X164687750Y-97842093D02*
X165762553Y-98916894D01*
D78*
X175222600Y-77225000D02*
X175650000Y-76797600D01*
D79*
X169550000Y-96050000D02*
X169330374Y-95830374D01*
D78*
X129500000Y-113750000D02*
X130272500Y-113750000D01*
X143993600Y-107736100D02*
X143993600Y-105567336D01*
D80*
X164850000Y-118426096D02*
X164762178Y-118513918D01*
D78*
X144250000Y-64525000D02*
X142775000Y-66000000D01*
D79*
X181000000Y-115800000D02*
X185500000Y-115800000D01*
D78*
X140100000Y-63775000D02*
X140775000Y-64450000D01*
D79*
X130700000Y-108947500D02*
X130700000Y-109700000D01*
X167410111Y-93334288D02*
X167410111Y-93493387D01*
D78*
X184725000Y-58862500D02*
X186025000Y-58862500D01*
D79*
X154098825Y-80182101D02*
X154257924Y-80182101D01*
D78*
X145267500Y-109010000D02*
X143993600Y-107736100D01*
D80*
X169180000Y-122000000D02*
X169050000Y-121870000D01*
D79*
X167869730Y-81348826D02*
X169121309Y-80097247D01*
D78*
X186025000Y-51867400D02*
X186025000Y-53137500D01*
D79*
X135250000Y-105767500D02*
X135950000Y-106467500D01*
X138000000Y-113500000D02*
X137477500Y-113500000D01*
D78*
X157160011Y-72965589D02*
X157160011Y-72254389D01*
D80*
X165775000Y-114000000D02*
X165775000Y-113025000D01*
D79*
X191750000Y-56100000D02*
X191350000Y-56500000D01*
D80*
X146050000Y-114550000D02*
X146000000Y-114500000D01*
D79*
X148279400Y-55950000D02*
X148500000Y-55950000D01*
D78*
X146974000Y-61526000D02*
X146974000Y-63649000D01*
D79*
X156201992Y-103297898D02*
X156746941Y-102752949D01*
D80*
X159100000Y-118420003D02*
X159219999Y-118540002D01*
D79*
X153144233Y-79227507D02*
X151768909Y-77852185D01*
D78*
X152515076Y-97410589D02*
X151660589Y-97410589D01*
D80*
X152100000Y-117900000D02*
X152100000Y-116420000D01*
D78*
X143724400Y-66000000D02*
X143765000Y-66040600D01*
X179750000Y-63925000D02*
X180575000Y-63925000D01*
D79*
X166844427Y-82374130D02*
X166844427Y-82586262D01*
X132032500Y-106467500D02*
X131500000Y-107000000D01*
D80*
X161500000Y-113775000D02*
X162475000Y-113775000D01*
D79*
X167410111Y-93493387D02*
X168223283Y-94306559D01*
D78*
X142300000Y-55950000D02*
X143776000Y-57426000D01*
X148500000Y-55950000D02*
X148837000Y-55950000D01*
X171643934Y-72371142D02*
X173063084Y-70951992D01*
D79*
X181000320Y-111249680D02*
X182999680Y-111249680D01*
X151768909Y-77852185D02*
X151768909Y-77650659D01*
D78*
X164132170Y-73479170D02*
X164364400Y-73711400D01*
D80*
X154820000Y-122000000D02*
X154950000Y-121870000D01*
X165775000Y-113025000D02*
X165750000Y-113000000D01*
D78*
X150526000Y-60499000D02*
X149750000Y-61275000D01*
X130522500Y-114000000D02*
X131050000Y-114000000D01*
D80*
X176250000Y-122000000D02*
X177820000Y-122000000D01*
D78*
X145685936Y-103875000D02*
X146275000Y-103875000D01*
D79*
X182999680Y-111249680D02*
X185249680Y-111249680D01*
D78*
X141775000Y-55950000D02*
X142300000Y-55950000D01*
D79*
X187750000Y-113000000D02*
X187750000Y-113425000D01*
D78*
X140100000Y-61675000D02*
X140100000Y-63775000D01*
X184394200Y-122240000D02*
X185548000Y-123393800D01*
D80*
X155000000Y-116370000D02*
X154950000Y-116420000D01*
D78*
X147525000Y-64200000D02*
X147525000Y-64725000D01*
X153144232Y-96781433D02*
X152515076Y-97410589D01*
D79*
X173500000Y-69750000D02*
X173500000Y-70903984D01*
X151660589Y-97410589D02*
X151660589Y-97589411D01*
D80*
X157975000Y-114000000D02*
X157500000Y-114475000D01*
D79*
X131462500Y-109750000D02*
X132212500Y-110500000D01*
D78*
X143776000Y-60499000D02*
X143000000Y-61275000D01*
D79*
X189850000Y-55000000D02*
X191750000Y-55000000D01*
X131874000Y-95250000D02*
X131975000Y-95149000D01*
X156746942Y-102371112D02*
X156746941Y-102752949D01*
X164325000Y-125000000D02*
X164325000Y-123325000D01*
D80*
X175100000Y-116420000D02*
X177950000Y-116420000D01*
D79*
X148883914Y-81455092D02*
X148883914Y-82038255D01*
X170125000Y-96050000D02*
X169550000Y-96050000D01*
D78*
X173824000Y-110851000D02*
X175176000Y-110851000D01*
D79*
X163818009Y-73271006D02*
X164132170Y-72956845D01*
X157740427Y-101377627D02*
X156746942Y-102371112D01*
D78*
X153689639Y-95506041D02*
X153689639Y-96236026D01*
X187650001Y-56500000D02*
X188350000Y-56500000D01*
X151258000Y-66929600D02*
X151258000Y-66632800D01*
X145138768Y-104422168D02*
X145685936Y-103875000D01*
D80*
X155000000Y-114500000D02*
X155000000Y-116370000D01*
D78*
X151000000Y-65775000D02*
X148525000Y-65775000D01*
D79*
X172160589Y-83160589D02*
X172177791Y-83160589D01*
X184575725Y-115842184D02*
X185457816Y-115842184D01*
X131975000Y-95149000D02*
X131975000Y-95000000D01*
D78*
X141425000Y-65552000D02*
X140775000Y-64902000D01*
D79*
X190562500Y-49950000D02*
X192950000Y-49950000D01*
X130750000Y-109750000D02*
X131462500Y-109750000D01*
X162566431Y-76045527D02*
X163818010Y-74793948D01*
D80*
X146050000Y-116420000D02*
X146050000Y-114550000D01*
D78*
X143993600Y-105567336D02*
X145138768Y-104422168D01*
D79*
X138000000Y-115500000D02*
X137422500Y-115500000D01*
D78*
X173750000Y-110777000D02*
X173824000Y-110851000D01*
X148001000Y-68461500D02*
X147575000Y-68887500D01*
D79*
X169330374Y-95830374D02*
X169298087Y-95830374D01*
X148883914Y-82038255D02*
X150563292Y-83717635D01*
D80*
X143509902Y-85980376D02*
X144019019Y-86489493D01*
D78*
X141425000Y-68562500D02*
X141050000Y-68937500D01*
D79*
X185249680Y-111249680D02*
X185925000Y-111925000D01*
X131874000Y-95750000D02*
X131874000Y-95250000D01*
X183292184Y-115842184D02*
X183250000Y-115800000D01*
D78*
X179530000Y-102327500D02*
X180172500Y-102327500D01*
D79*
X137422500Y-115500000D02*
X136450000Y-114527500D01*
D78*
X173063084Y-70951992D02*
X173451992Y-70951992D01*
D79*
X192950000Y-49950000D02*
X194000000Y-51000000D01*
D80*
X169050000Y-114700000D02*
X169250000Y-114500000D01*
X177950000Y-116420000D02*
X177950000Y-115450000D01*
D78*
X145267500Y-109010000D02*
X145860000Y-109010000D01*
X157160011Y-72254389D02*
X157201600Y-72212800D01*
D79*
X136450000Y-114527500D02*
X136450000Y-114000000D01*
X164132170Y-72956845D02*
X165369608Y-71719408D01*
D78*
X157740426Y-74631313D02*
X157160011Y-74050898D01*
D79*
X135250000Y-105000000D02*
X135250000Y-106067500D01*
D80*
X159100000Y-117499999D02*
X159100000Y-118420003D01*
D79*
X134850000Y-107600000D02*
X135250000Y-108000000D01*
X127300000Y-100250000D02*
X126500000Y-101050000D01*
D78*
X179600000Y-76175000D02*
X182325000Y-76175000D01*
D80*
X151500000Y-118500000D02*
X152100000Y-117900000D01*
D78*
X131050000Y-114527500D02*
X131050000Y-114000000D01*
D80*
X147620000Y-121870000D02*
X147750000Y-122000000D01*
X174926655Y-89466414D02*
X175471129Y-90010884D01*
X169500000Y-123750000D02*
X169180000Y-123430000D01*
D79*
X135950000Y-107300000D02*
X135250000Y-108000000D01*
X187750000Y-113425000D02*
X188500000Y-114175000D01*
X134850000Y-106467500D02*
X134850000Y-107600000D01*
X169446579Y-80097248D02*
X169446579Y-80486784D01*
D80*
X162475000Y-113775000D02*
X162500000Y-113750000D01*
D79*
X181000320Y-111249680D02*
X180474978Y-110724339D01*
X168223283Y-94306559D02*
X169298086Y-95381362D01*
X165511029Y-74017505D02*
X165192830Y-74017505D01*
X147525000Y-55525000D02*
X147854400Y-55525000D01*
D78*
X140500000Y-61275000D02*
X140100000Y-61675000D01*
X164132170Y-72956845D02*
X164132170Y-73479170D01*
X130272500Y-113750000D02*
X130522500Y-114000000D01*
X148525000Y-65775000D02*
X148500000Y-65750000D01*
D79*
X172177791Y-83160589D02*
X172241151Y-83223949D01*
D78*
X156201992Y-104298008D02*
X156000000Y-104500000D01*
D80*
X157500000Y-114475000D02*
X157500000Y-115250000D01*
D78*
X147250000Y-61250000D02*
X146974000Y-61526000D01*
X183750000Y-122240000D02*
X184394200Y-122240000D01*
X186025000Y-58125001D02*
X187650001Y-56500000D01*
D79*
X135950000Y-106467500D02*
X135950000Y-107300000D01*
D78*
X173750000Y-110250000D02*
X173750000Y-110777000D01*
X180172500Y-102327500D02*
X180750000Y-101750000D01*
D79*
X165762553Y-98916894D02*
X165762553Y-99365908D01*
X147854400Y-55525000D02*
X148279400Y-55950000D01*
X181425000Y-112100000D02*
X181425000Y-111674361D01*
X188350000Y-56500000D02*
X189850000Y-55000000D01*
D80*
X164850000Y-117499999D02*
X164850000Y-118426096D01*
D78*
X147731331Y-94090891D02*
X147731330Y-94090890D01*
X175500000Y-110527000D02*
X175500000Y-110250000D01*
D79*
X181425000Y-111674361D02*
X181000320Y-111249680D01*
X130575000Y-62500000D02*
X130575000Y-62025000D01*
D78*
X175176000Y-110851000D02*
X175500000Y-110527000D01*
X148837000Y-55950000D02*
X150526000Y-57639000D01*
D80*
X175471129Y-90010884D02*
X175471129Y-90081596D01*
D78*
X150750000Y-109400000D02*
X150750000Y-113250000D01*
D79*
X158350000Y-111250000D02*
X158350000Y-113625000D01*
D78*
X129500000Y-115250000D02*
X130327500Y-115250000D01*
D79*
X169298086Y-95381362D02*
X169298085Y-95830375D01*
D78*
X153675643Y-95492045D02*
X153689639Y-95506041D01*
D79*
X165192830Y-74017505D02*
X164132170Y-72956845D01*
D80*
X169050000Y-116420000D02*
X169050000Y-114700000D01*
D79*
X135950000Y-97800000D02*
X135950000Y-96967500D01*
X133500000Y-99250000D02*
X134500000Y-99250000D01*
X126500000Y-97850000D02*
X126500000Y-99500000D01*
X124750000Y-99500000D02*
X124500000Y-99250000D01*
X134500000Y-99250000D02*
X135950000Y-97800000D01*
X126500000Y-99500000D02*
X124750000Y-99500000D01*
D78*
X141098000Y-70439500D02*
X142600000Y-68937500D01*
D79*
X133500000Y-60700000D02*
X133500000Y-61250000D01*
X182825000Y-113825000D02*
X183250000Y-114250000D01*
X134950000Y-59250000D02*
X134950000Y-54744200D01*
X134950000Y-59250000D02*
X133500000Y-60700000D01*
X185075000Y-113825000D02*
X185500000Y-114250000D01*
X131250000Y-69000000D02*
X131250000Y-71250000D01*
X132500000Y-63750000D02*
X131750000Y-64500000D01*
X134950000Y-54744200D02*
X134756800Y-54551000D01*
X133500000Y-61250000D02*
X132500000Y-62250000D01*
X180575000Y-112950000D02*
X180575000Y-113825000D01*
X126568130Y-84250000D02*
X137500000Y-84250000D01*
D78*
X145771600Y-70892000D02*
X146686000Y-69977600D01*
D79*
X182825000Y-112950000D02*
X182825000Y-113825000D01*
X185075000Y-112950000D02*
X185075000Y-113825000D01*
D78*
X140250000Y-80730900D02*
X141098000Y-79882900D01*
X142075000Y-68412500D02*
X142600000Y-68937500D01*
D79*
X182000000Y-114000000D02*
X182000000Y-114250000D01*
D78*
X149125000Y-68887500D02*
X148825000Y-68587500D01*
X142600000Y-69771000D02*
X142571200Y-69799800D01*
X148034900Y-69977600D02*
X149125000Y-68887500D01*
D79*
X126801000Y-54551000D02*
X126750000Y-54500000D01*
X126750000Y-54500000D02*
X122350000Y-58900000D01*
D78*
X145593800Y-70892000D02*
X145771600Y-70892000D01*
X148825000Y-68587500D02*
X148825000Y-67300000D01*
D79*
X122350000Y-80031870D02*
X126568130Y-84250000D01*
X134756800Y-54551000D02*
X126801000Y-54551000D01*
X132500000Y-62250000D02*
X132500000Y-63750000D01*
D78*
X141098000Y-79882900D02*
X141098000Y-70439500D01*
X146686000Y-69977600D02*
X148034900Y-69977600D01*
D79*
X182000000Y-114250000D02*
X181000000Y-114250000D01*
D78*
X142600000Y-68937500D02*
X142600000Y-69771000D01*
D79*
X185500000Y-114250000D02*
X182000000Y-114250000D01*
D78*
X140250000Y-84250000D02*
X140250000Y-80730900D01*
D79*
X180575000Y-113825000D02*
X181000000Y-114250000D01*
D78*
X142075000Y-67550000D02*
X142075000Y-68412500D01*
D79*
X122350000Y-58900000D02*
X122350000Y-80031870D01*
D78*
X131250000Y-72750000D02*
X131250000Y-74000000D01*
D79*
X132500000Y-72750000D02*
X131250000Y-74000000D01*
D78*
X125500000Y-64687501D02*
X125500000Y-67625000D01*
X126000000Y-64187501D02*
X125500000Y-64687501D01*
X126125000Y-68250000D02*
X126750000Y-68250000D01*
X126750000Y-68250000D02*
X131250000Y-72750000D01*
D79*
X132500000Y-72126000D02*
X133250000Y-71376000D01*
D78*
X125500000Y-67625000D02*
X126125000Y-68250000D01*
D79*
X132500000Y-72126000D02*
X132500000Y-72750000D01*
D78*
X169983981Y-79418426D02*
X168767757Y-79418426D01*
X161651000Y-76730346D02*
X161269654Y-76349000D01*
X176886600Y-57607800D02*
X181356900Y-53137500D01*
X149608698Y-93245899D02*
X150479597Y-92375000D01*
X156481189Y-74079183D02*
X157386872Y-74984866D01*
D79*
X150858843Y-92141157D02*
X150858843Y-86551793D01*
D78*
X172839411Y-83839411D02*
X172450214Y-83839411D01*
D79*
X146500000Y-88250000D02*
X145719611Y-87469611D01*
X165250000Y-82500000D02*
X165250000Y-86750000D01*
D78*
X158480346Y-75599000D02*
X158329346Y-75750000D01*
D79*
X189800000Y-115001600D02*
X191876600Y-112925000D01*
X169142565Y-79043618D02*
X168767757Y-79418426D01*
X133525000Y-95000000D02*
X133525000Y-96742500D01*
X135256000Y-80174000D02*
X135430000Y-80000000D01*
D78*
X159170654Y-75750000D02*
X159019654Y-75599000D01*
D79*
X165250000Y-86750000D02*
X165000000Y-87000000D01*
X130750000Y-58750000D02*
X131250000Y-59250000D01*
X160000000Y-88750000D02*
X160975000Y-89725000D01*
X133626900Y-55623100D02*
X133250000Y-56000000D01*
X162919983Y-76399080D02*
X164171562Y-75147500D01*
X145214028Y-86652129D02*
X145719611Y-86652129D01*
X135250000Y-76875000D02*
X135250000Y-80168000D01*
D78*
X165041303Y-97488540D02*
X164250000Y-96697237D01*
D79*
X151763202Y-98665620D02*
X152339411Y-98089411D01*
X189500000Y-121939998D02*
X189500000Y-120100000D01*
D78*
X173173031Y-89356812D02*
X172316219Y-88500000D01*
D79*
X155625000Y-83953400D02*
X155625000Y-84766324D01*
X146500000Y-88250000D02*
X147250000Y-88250000D01*
X144755600Y-62469400D02*
X144250000Y-62975000D01*
X128638500Y-68250000D02*
X129298000Y-68250000D01*
X133825000Y-74925000D02*
X133825000Y-75450000D01*
X160250000Y-78750000D02*
X162500000Y-78750000D01*
D78*
X152790678Y-79581060D02*
X153336086Y-80126468D01*
D79*
X133000000Y-100500000D02*
X132990000Y-100490000D01*
D78*
X176886600Y-62586200D02*
X176886600Y-57607800D01*
D79*
X144755600Y-60020800D02*
X145339800Y-60020800D01*
D78*
X162374575Y-76944488D02*
X161651000Y-76944488D01*
X172316219Y-88500000D02*
X171250000Y-88500000D01*
D79*
X155625000Y-84766324D02*
X155492324Y-84899000D01*
D78*
X168576837Y-93953006D02*
X168031430Y-93407599D01*
D79*
X123038600Y-60613900D02*
X123038600Y-71095200D01*
X155492324Y-84899000D02*
X156149000Y-84899000D01*
D78*
X165671500Y-75147500D02*
X164496831Y-75147500D01*
D79*
X160250000Y-79250000D02*
X160250000Y-78750000D01*
X154825000Y-95807770D02*
X154441385Y-96191385D01*
X137750000Y-100500000D02*
X133000000Y-100500000D01*
X150625000Y-92375000D02*
X151900000Y-92375000D01*
D78*
X150975000Y-64200000D02*
X151000000Y-64225000D01*
D79*
X147250000Y-88250000D02*
X149875000Y-85625000D01*
X167500000Y-92000000D02*
X167143364Y-92000000D01*
X131174000Y-98566000D02*
X131174000Y-94505178D01*
X173678614Y-89356813D02*
X173173032Y-89356811D01*
X150877000Y-64102000D02*
X151000000Y-64225000D01*
D78*
X152790678Y-79581060D02*
X152790678Y-79635509D01*
D79*
X153750000Y-82078400D02*
X155625000Y-83953400D01*
X157298008Y-103559526D02*
X157425763Y-103431771D01*
D78*
X168961800Y-70511000D02*
X176886600Y-62586200D01*
X157298008Y-105048008D02*
X157346016Y-105000000D01*
D79*
X141250000Y-90000000D02*
X138500000Y-90000000D01*
D78*
X150750000Y-84665898D02*
X150750000Y-84750000D01*
D79*
X158925761Y-80574239D02*
X160250000Y-79250000D01*
X158500000Y-77000000D02*
X160250000Y-78750000D01*
X169775384Y-95151551D02*
X169976910Y-95151551D01*
X165701000Y-93442364D02*
X165701000Y-94799000D01*
D78*
X157386872Y-74984866D02*
X157932280Y-75530274D01*
X150479597Y-92375000D02*
X150625000Y-92375000D01*
X143200000Y-107030000D02*
X142850600Y-106680600D01*
X169500000Y-86250000D02*
X170039625Y-86250000D01*
D79*
X165041304Y-97488539D02*
X166239850Y-98687085D01*
X167516177Y-80995274D02*
X168767756Y-79743695D01*
X189500000Y-121939998D02*
X188550002Y-121939998D01*
X166239850Y-98687085D02*
X166441375Y-98687085D01*
X143750000Y-92500000D02*
X141250000Y-90000000D01*
X157425764Y-103431772D02*
X158093978Y-102763557D01*
X160000000Y-90750000D02*
X160000000Y-88750000D01*
X165750000Y-82500000D02*
X169500000Y-86250000D01*
D78*
X161861241Y-98874000D02*
X161861241Y-98861241D01*
D79*
X148410152Y-94444443D02*
X148410151Y-94769714D01*
X169500000Y-86250000D02*
X167500000Y-88250000D01*
X160975000Y-89725000D02*
X163150000Y-89725000D01*
X125000000Y-77750000D02*
X123394200Y-76144200D01*
X133525000Y-96742500D02*
X133750000Y-96967500D01*
D78*
X159500000Y-75750000D02*
X159170654Y-75750000D01*
X149255145Y-83116594D02*
X149255145Y-83171043D01*
D79*
X136358800Y-80000000D02*
X138177000Y-78181800D01*
X138177000Y-78181800D02*
X138177000Y-76927000D01*
X167143364Y-92000000D02*
X165701000Y-93442364D01*
X189500000Y-120100000D02*
X190800000Y-118800000D01*
X164250000Y-96250000D02*
X163576575Y-96250000D01*
D78*
X158152006Y-75750000D02*
X157932280Y-75530274D01*
X166976429Y-70771754D02*
X167237183Y-70511000D01*
D79*
X144222200Y-56566400D02*
X144755600Y-57099800D01*
D78*
X167516177Y-80995274D02*
X166011451Y-82500000D01*
D79*
X131174000Y-94505178D02*
X131505178Y-94174000D01*
X144697842Y-87168316D02*
X145214028Y-86652129D01*
X149608698Y-93245897D02*
X148410152Y-94444443D01*
X132699000Y-94174000D02*
X133525000Y-95000000D01*
X132250000Y-56000000D02*
X131250000Y-57000000D01*
D78*
X153336086Y-80126468D02*
X153336086Y-81664486D01*
D79*
X146500000Y-95500000D02*
X147250000Y-95500000D01*
X133000000Y-67000000D02*
X134750000Y-68750000D01*
X136975000Y-93000000D02*
X137250000Y-93000000D01*
D78*
X152543360Y-98089411D02*
X153497785Y-97134986D01*
D79*
X161413287Y-98413287D02*
X158094687Y-101731888D01*
X143750000Y-92500000D02*
X142500000Y-93750000D01*
X133825000Y-75450000D02*
X135250000Y-76875000D01*
D78*
X172450214Y-83839411D02*
X171405264Y-84884361D01*
D79*
X133250000Y-56000000D02*
X132250000Y-56000000D01*
D78*
X167237183Y-70511000D02*
X168961800Y-70511000D01*
X159250000Y-105000000D02*
X160000000Y-105750000D01*
D79*
X156149000Y-84899000D02*
X160000000Y-88750000D01*
X190800000Y-118000000D02*
X189800000Y-117000000D01*
X152790679Y-79581059D02*
X151539100Y-78329480D01*
X133525000Y-95000000D02*
X134975000Y-95000000D01*
X167500000Y-88250000D02*
X167500000Y-92000000D01*
X132990000Y-100490000D02*
X129250000Y-100490000D01*
X163150000Y-89725000D02*
X165000000Y-87875000D01*
X165250000Y-82500000D02*
X165750000Y-82500000D01*
X142500000Y-93750000D02*
X142500000Y-95250000D01*
D78*
X161861241Y-98861241D02*
X161413287Y-98413287D01*
X157932280Y-75530274D02*
X157932280Y-76432280D01*
X160730346Y-76349000D02*
X160414673Y-76664673D01*
D79*
X124902500Y-58750000D02*
X123038600Y-60613900D01*
X166976429Y-70771754D02*
X166976429Y-72552105D01*
X150877000Y-63195800D02*
X150877000Y-64102000D01*
X133750000Y-96967500D02*
X134850000Y-96967500D01*
X147250000Y-95500000D02*
X147980287Y-94769713D01*
X149875000Y-85625000D02*
X150750000Y-84750000D01*
X131505178Y-94174000D02*
X132699000Y-94174000D01*
D78*
X142775000Y-64450000D02*
X144250000Y-62975000D01*
X181356900Y-53137500D02*
X181475000Y-53137500D01*
X153497785Y-97134986D02*
X154441385Y-96191385D01*
D79*
X163576575Y-96250000D02*
X161413287Y-98413287D01*
X166976429Y-72552105D02*
X166607045Y-72921489D01*
X168767756Y-79743695D02*
X168767756Y-79418425D01*
X154825000Y-95300000D02*
X154825000Y-95807770D01*
D78*
X152339411Y-98089411D02*
X152543360Y-98089411D01*
D79*
X134850000Y-96967500D02*
X134850000Y-95125000D01*
X191876600Y-112925000D02*
X192325000Y-112925000D01*
X135430000Y-80000000D02*
X136358800Y-80000000D01*
X123394200Y-76144200D02*
X123394200Y-71450800D01*
X131250000Y-57000000D02*
X131250000Y-59250000D01*
X189800000Y-117000000D02*
X189800000Y-115001600D01*
D78*
X172839411Y-84089411D02*
X173250000Y-84500000D01*
D79*
X134750000Y-68750000D02*
X137250000Y-68750000D01*
D78*
X149255145Y-83171043D02*
X150750000Y-84665898D01*
X158329346Y-75750000D02*
X158152006Y-75750000D01*
X149475000Y-64200000D02*
X150975000Y-64200000D01*
D79*
X151900000Y-92375000D02*
X154825000Y-95300000D01*
D78*
X161269654Y-76349000D02*
X160730346Y-76349000D01*
D79*
X138177000Y-76927000D02*
X137500000Y-76250000D01*
X165701000Y-94799000D02*
X164250000Y-96250000D01*
X174247835Y-88787590D02*
X173678614Y-89356813D01*
D78*
X170039625Y-86250000D02*
X171405264Y-84884361D01*
D79*
X144755600Y-60020800D02*
X144755600Y-62469400D01*
D78*
X143200000Y-109350000D02*
X143200000Y-107030000D01*
X160414673Y-76664673D02*
X159500000Y-75750000D01*
X166011451Y-82500000D02*
X165750000Y-82500000D01*
D79*
X150625000Y-92375000D02*
X150858843Y-92141157D01*
X135250000Y-80168000D02*
X135256000Y-80174000D01*
X131174000Y-94174000D02*
X131174000Y-94505178D01*
X129250000Y-100490000D02*
X131174000Y-98566000D01*
X123394200Y-71450800D02*
X124049200Y-71450800D01*
X145339800Y-60020800D02*
X145771600Y-60452600D01*
X145719611Y-87469611D02*
X145719611Y-86652128D01*
X162500000Y-78750000D02*
X164000000Y-80250000D01*
X134850000Y-95125000D02*
X134975000Y-95000000D01*
D78*
X156481189Y-73644411D02*
X156481189Y-74079183D01*
D79*
X127250000Y-90250000D02*
X131174000Y-94174000D01*
X188550002Y-121939998D02*
X188250000Y-122240000D01*
X169142565Y-77820857D02*
X169142565Y-79043618D01*
X168576838Y-93953005D02*
X169775384Y-95151551D01*
D78*
X157932280Y-76432280D02*
X158500000Y-77000000D01*
D79*
X127250000Y-82750000D02*
X127250000Y-80000000D01*
X165000000Y-87875000D02*
X165000000Y-87000000D01*
X151665620Y-98665620D02*
X151763202Y-98665620D01*
D78*
X164250000Y-96697237D02*
X164250000Y-96250000D01*
D79*
X147980287Y-94769713D02*
X148410153Y-94769713D01*
D78*
X157346016Y-105000000D02*
X159250000Y-105000000D01*
D79*
X124902500Y-58750000D02*
X130750000Y-58750000D01*
D78*
X161651000Y-76944488D02*
X161651000Y-76730346D01*
D79*
X190800000Y-118800000D02*
X190800000Y-118000000D01*
X151539100Y-78329480D02*
X151090086Y-78329480D01*
D78*
X166607045Y-74211955D02*
X165671500Y-75147500D01*
X172839411Y-83839411D02*
X172839411Y-84089411D01*
D79*
X157298008Y-105048008D02*
X157298008Y-103559526D01*
X124049200Y-71450800D02*
X125000000Y-70500000D01*
D78*
X153336086Y-81664486D02*
X153750000Y-82078400D01*
X162919983Y-76399080D02*
X162374575Y-76944488D01*
X168031430Y-92531430D02*
X167500000Y-92000000D01*
X159019654Y-75599000D02*
X158480346Y-75599000D01*
D79*
X149932050Y-85625000D02*
X149875000Y-85625000D01*
X127250000Y-80000000D02*
X125000000Y-77750000D01*
X150858843Y-86551793D02*
X149932050Y-85625000D01*
D78*
X142725000Y-64450000D02*
X142775000Y-64450000D01*
X170038706Y-79473151D02*
X169983981Y-79418426D01*
D79*
X149255145Y-83116595D02*
X147826789Y-81688238D01*
X123038600Y-71095200D02*
X123394200Y-71450800D01*
D78*
X166607045Y-72921489D02*
X166607045Y-74211955D01*
D79*
X134975000Y-95000000D02*
X136975000Y-93000000D01*
D78*
X168031430Y-93407599D02*
X168031430Y-92531430D01*
D79*
X130548000Y-67000000D02*
X133000000Y-67000000D01*
X144755600Y-57099800D02*
X144755600Y-60020800D01*
X158093978Y-102763557D02*
X158093980Y-101731179D01*
X129298000Y-68250000D02*
X130548000Y-67000000D01*
X174700000Y-123500000D02*
X175200000Y-124000000D01*
D81*
X158974000Y-115076000D02*
X158450000Y-115600000D01*
D79*
X164991364Y-111250000D02*
X164787501Y-111250000D01*
X181361000Y-122139000D02*
X181852364Y-122139000D01*
D81*
X162900000Y-115600000D02*
X162000000Y-116500000D01*
D79*
X175200000Y-124000000D02*
X179500000Y-124000000D01*
X166924000Y-117424000D02*
X166924000Y-113182636D01*
D80*
X164200000Y-115600000D02*
X164849999Y-115600000D01*
D79*
X181852364Y-122139000D02*
X185737616Y-118253748D01*
D81*
X162900000Y-115600000D02*
X162900000Y-115325000D01*
X158974000Y-114551000D02*
X158974000Y-115076000D01*
X164787501Y-111250000D02*
X164787501Y-113437499D01*
X162000000Y-115898000D02*
X162000000Y-116500000D01*
X161300000Y-112225000D02*
X159525000Y-114000000D01*
D79*
X173250000Y-123500000D02*
X174700000Y-123500000D01*
X179500000Y-124000000D02*
X181361000Y-122139000D01*
D81*
X161500000Y-112225000D02*
X161300000Y-112225000D01*
X159525000Y-114000000D02*
X158974000Y-114551000D01*
D80*
X164200000Y-115600000D02*
X162900000Y-115600000D01*
D79*
X185737616Y-118253748D02*
X187716427Y-118253748D01*
X168250000Y-118750000D02*
X166924000Y-117424000D01*
D81*
X160102000Y-114000000D02*
X162000000Y-115898000D01*
X162900000Y-115325000D02*
X164225000Y-114000000D01*
X159525000Y-114000000D02*
X160102000Y-114000000D01*
X164787501Y-113437499D02*
X164225000Y-114000000D01*
D80*
X164849999Y-115600000D02*
X164850000Y-115600001D01*
D79*
X166924000Y-113182636D02*
X164991364Y-111250000D01*
D81*
X158450000Y-115600000D02*
X158974000Y-115600000D01*
D80*
X158050000Y-120625000D02*
X157925000Y-120500000D01*
X158050000Y-123000000D02*
X158050000Y-120625000D01*
X148900000Y-116420000D02*
X148900000Y-118042951D01*
X150958049Y-120101000D02*
X157824002Y-120101000D01*
X148900000Y-118042951D02*
X150958049Y-120101000D01*
D79*
X131582500Y-107987500D02*
X132162500Y-108567500D01*
X130700000Y-107987500D02*
X131582500Y-107987500D01*
D78*
X171834564Y-75128858D02*
X170309291Y-76654131D01*
X171856066Y-75128858D02*
X174548008Y-72436916D01*
X174548008Y-72436916D02*
X174548008Y-72048008D01*
X171856066Y-75128858D02*
X171834564Y-75128858D01*
D79*
X165473827Y-69423156D02*
X165473827Y-69269152D01*
X163036154Y-71860829D02*
X165473827Y-69423156D01*
D78*
X163036154Y-74161589D02*
X163036154Y-71860829D01*
X161859323Y-75338420D02*
X163036154Y-74161589D01*
X180100000Y-112100000D02*
X176000000Y-108000000D01*
X180575000Y-112100000D02*
X180100000Y-112100000D01*
X149875000Y-114369999D02*
X149700000Y-114544999D01*
X144775000Y-96593198D02*
X149875000Y-101693198D01*
X146426717Y-90099273D02*
X144775000Y-91750990D01*
X149875000Y-108799000D02*
X149824000Y-108799000D01*
X144775000Y-91750990D02*
X144775000Y-96593198D01*
X146426717Y-90063919D02*
X146426717Y-90099273D01*
X149875000Y-110851000D02*
X149875000Y-114369999D01*
X149824000Y-108799000D02*
X149824000Y-110851000D01*
X149700000Y-114544999D02*
X149700000Y-116420000D01*
X149824000Y-110851000D02*
X149875000Y-110851000D01*
X149875000Y-101693198D02*
X149875000Y-108799000D01*
X145225000Y-91937388D02*
X146744916Y-90417472D01*
X150325000Y-114369999D02*
X150325000Y-107458481D01*
X146744916Y-90417472D02*
X146780271Y-90417472D01*
X150500000Y-114544999D02*
X150325000Y-114369999D01*
X150325000Y-106442553D02*
X150325000Y-101506802D01*
X150740928Y-107042553D02*
X150740928Y-106858481D01*
X150325000Y-101506802D02*
X145225000Y-96406802D01*
X145225000Y-96406802D02*
X145225000Y-91937388D01*
X150500000Y-116420000D02*
X150500000Y-114544999D01*
X150325000Y-107458481D02*
G75*
G02*
X150532964Y-107250500I208000J-19D01*
G01*
X150532964Y-107250517D02*
G75*
G03*
X150740917Y-107042553I36J207917D01*
G01*
X150740928Y-106858481D02*
G75*
G03*
X150532964Y-106650572I-207928J-19D01*
G01*
X150532964Y-106650517D02*
G75*
G02*
X150325083Y-106442553I36J207917D01*
G01*
D79*
X171137501Y-62600000D02*
X171250000Y-62712499D01*
X170500000Y-62600000D02*
X171137501Y-62600000D01*
D78*
X154124000Y-106000000D02*
X154124000Y-101458519D01*
X154124000Y-101458519D02*
X155972659Y-99609860D01*
X159712499Y-125000000D02*
X157871330Y-125000000D01*
X157871330Y-125000000D02*
X156571330Y-123700000D01*
D79*
X176500000Y-83037501D02*
X175037499Y-83037501D01*
X175037499Y-83037501D02*
X175000000Y-83075000D01*
D78*
X164757044Y-78166847D02*
X164687750Y-78166847D01*
D79*
X176500000Y-80800000D02*
X175650000Y-79950000D01*
D78*
X170500000Y-75011178D02*
X169291091Y-76220087D01*
X174500000Y-80500000D02*
X175100000Y-80500000D01*
X170500000Y-75000000D02*
X170500000Y-75011178D01*
X168533161Y-76220087D02*
X168018299Y-75705225D01*
X168018299Y-75705225D02*
X167544775Y-75705225D01*
X173725000Y-79725000D02*
X174500000Y-80500000D01*
X165619781Y-77630219D02*
X165611002Y-77621439D01*
X173250000Y-79725000D02*
X173725000Y-79725000D01*
X169291091Y-76220087D02*
X168533161Y-76220087D01*
X175650000Y-79950000D02*
X175100000Y-80500000D01*
X167544775Y-75705225D02*
X165619781Y-77630219D01*
X165302452Y-77621439D02*
X164757044Y-78166847D01*
X165611002Y-77621439D02*
X165302452Y-77621439D01*
D79*
X176500000Y-81462499D02*
X176500000Y-80800000D01*
X188462500Y-119075000D02*
X188500000Y-119037500D01*
X187000000Y-119075000D02*
X188462500Y-119075000D01*
X186750000Y-119325000D02*
X187000000Y-119075000D01*
X186750000Y-122240000D02*
X186750000Y-119325000D01*
X188500000Y-117462500D02*
X188500000Y-115825000D01*
X192962500Y-56537500D02*
X193000000Y-56500000D01*
X192962500Y-58250000D02*
X192962500Y-56537500D01*
D78*
X171906420Y-82026000D02*
X174224000Y-82026000D01*
X171096642Y-82835778D02*
X171906420Y-82026000D01*
X176950999Y-82299001D02*
X177445400Y-81804600D01*
X174224000Y-82026000D02*
X174497001Y-82299001D01*
X171096642Y-83071663D02*
X171096642Y-82835778D01*
X170344604Y-83823701D02*
X171096642Y-83071663D01*
X177445400Y-81804600D02*
X177445400Y-76556200D01*
X174497001Y-82299001D02*
X176950999Y-82299001D01*
X179750000Y-70500000D02*
X179750000Y-68787500D01*
X177445400Y-76556200D02*
X179274200Y-74727400D01*
X174977558Y-84502358D02*
X177497642Y-84502358D01*
X172902200Y-82427000D02*
X174977558Y-84502358D01*
X171497642Y-83377771D02*
X171497642Y-83001878D01*
X177497642Y-84502358D02*
X179500000Y-82500000D01*
X179500000Y-82500000D02*
X179500000Y-81137500D01*
X172072520Y-82427000D02*
X172902200Y-82427000D01*
X171497642Y-83001878D02*
X172072520Y-82427000D01*
X179500000Y-81137500D02*
X179600000Y-81037500D01*
X170698158Y-84177255D02*
X171497642Y-83377771D01*
X179700000Y-92662500D02*
X179700000Y-91025000D01*
X179750000Y-67212500D02*
X179750000Y-65575000D01*
X176639506Y-94237500D02*
X179700000Y-94237500D01*
X179750000Y-95250000D02*
X179750000Y-94287500D01*
X179750000Y-94287500D02*
X179700000Y-94237500D01*
X172465925Y-90063919D02*
X176639506Y-94237500D01*
D80*
X162925000Y-118724000D02*
X164149000Y-117500000D01*
X163908882Y-120500000D02*
X165750000Y-118658882D01*
X162925000Y-120500000D02*
X162925000Y-118724000D01*
X165750000Y-118658882D02*
X165750000Y-117699000D01*
X162925000Y-120500000D02*
X163908882Y-120500000D01*
X165750000Y-117699000D02*
X165551000Y-117500000D01*
X161075000Y-120500000D02*
X160000000Y-120500000D01*
X161075000Y-118774000D02*
X159801000Y-117500000D01*
X161075000Y-120500000D02*
X161075000Y-118774000D01*
X160000000Y-120500000D02*
X158399000Y-118899000D01*
X158399000Y-118899000D02*
X158399000Y-118129639D01*
D78*
X156100000Y-82450000D02*
X157150000Y-83500000D01*
X157150000Y-83500000D02*
X158875000Y-83500000D01*
X154461040Y-79130101D02*
X155255101Y-79130101D01*
X153851339Y-78520400D02*
X154461040Y-79130101D01*
X158875000Y-83500000D02*
X159875000Y-84500000D01*
X156100000Y-79975000D02*
X156100000Y-82450000D01*
X159875000Y-84500000D02*
X161500000Y-84500000D01*
X155255101Y-79130101D02*
X156100000Y-79975000D01*
X162500000Y-86250000D02*
X160250000Y-86250000D01*
X155251001Y-81551001D02*
X155251001Y-80859757D01*
X154043192Y-79419361D02*
X153497785Y-78873954D01*
X154527578Y-79531101D02*
X154279339Y-79531101D01*
X155250000Y-80260686D02*
X154908924Y-79919610D01*
X154908924Y-79912447D02*
X154527578Y-79531101D01*
X154167599Y-79419361D02*
X154043192Y-79419361D01*
X155250000Y-80858756D02*
X155250000Y-80260686D01*
X154908924Y-79919610D02*
X154908924Y-79912447D01*
X155251001Y-80859757D02*
X155250000Y-80858756D01*
X155175000Y-81925000D02*
X155175000Y-81627002D01*
X154279339Y-79531101D02*
X154167599Y-79419361D01*
X160250000Y-86250000D02*
X158750000Y-84750000D01*
X155175000Y-81627002D02*
X155251001Y-81551001D01*
X150315805Y-82055934D02*
X150925506Y-82665635D01*
X151158145Y-82665635D02*
X152823587Y-84331077D01*
X150925506Y-82665635D02*
X151158145Y-82665635D01*
X152823587Y-84331077D02*
X152823587Y-88478928D01*
X149962251Y-82409488D02*
X150619398Y-83066635D01*
X152000000Y-84074590D02*
X152000000Y-87250000D01*
X150619398Y-83066635D02*
X150992045Y-83066635D01*
X150992045Y-83066635D02*
X152000000Y-84074590D01*
X157100000Y-79125000D02*
X157100000Y-78940635D01*
X157100000Y-78940635D02*
X155265552Y-77106187D01*
X157086117Y-79138883D02*
X157100000Y-79125000D01*
X157750000Y-78883527D02*
X155619106Y-76752633D01*
X157649482Y-81980243D02*
X157750000Y-81879725D01*
X157750000Y-81879725D02*
X157750000Y-78883527D01*
X155222670Y-85550000D02*
X154650000Y-84977330D01*
X151793379Y-82050000D02*
X151092206Y-81348827D01*
X155593820Y-90906180D02*
X156750000Y-89750000D01*
X156750000Y-89750000D02*
X156750000Y-86850000D01*
X154650000Y-84977330D02*
X154650000Y-84200000D01*
X155450000Y-85550000D02*
X155222670Y-85550000D01*
X152500000Y-82050000D02*
X151793379Y-82050000D01*
X154650000Y-84200000D02*
X152500000Y-82050000D01*
X156750000Y-86850000D02*
X155450000Y-85550000D01*
X151092206Y-81348827D02*
X151022911Y-81348827D01*
X151231612Y-82264635D02*
X151324245Y-82264635D01*
X155250000Y-86900000D02*
X155250000Y-90000000D01*
X153750000Y-84690390D02*
X153750000Y-85400000D01*
X153750000Y-85400000D02*
X155250000Y-86900000D01*
X151324245Y-82264635D02*
X153750000Y-84690390D01*
X150669358Y-81702381D02*
X151231612Y-82264635D01*
X151347018Y-79236050D02*
X151369399Y-79213669D01*
X121590800Y-58328440D02*
X121590800Y-81840800D01*
X141764446Y-91593792D02*
X141764446Y-92225000D01*
X138678346Y-91099000D02*
X141269654Y-91099000D01*
X152083572Y-80288167D02*
X151347018Y-79551613D01*
X150361895Y-70910295D02*
X150361895Y-71356305D01*
X126901000Y-87151000D02*
X134730346Y-87151000D01*
X121590800Y-81840800D02*
X126901000Y-87151000D01*
X124880025Y-55380025D02*
X124539215Y-55380025D01*
X151347018Y-79256412D02*
X151347018Y-79236050D01*
X124539215Y-55380025D02*
X121590800Y-58328440D01*
X151347018Y-79551613D02*
X151347018Y-79256412D01*
X149312480Y-72405720D02*
X148575880Y-72405720D01*
X150361895Y-71356305D02*
X149312480Y-72405720D01*
X134730346Y-87151000D02*
X138678346Y-91099000D01*
X141269654Y-91099000D02*
X141764446Y-91593792D01*
X148514800Y-70561800D02*
X149025220Y-70051380D01*
X150000000Y-79750000D02*
X149250000Y-79000000D01*
X149025220Y-70051380D02*
X149228420Y-70051380D01*
X151376465Y-80995274D02*
X151307170Y-80995274D01*
X151307170Y-80995274D02*
X150061896Y-79750000D01*
X150061896Y-79750000D02*
X150000000Y-79750000D01*
X149250000Y-79000000D02*
X149250000Y-77522800D01*
X149250000Y-77522800D02*
X149530800Y-77242000D01*
X146990800Y-70993600D02*
X147727400Y-70993600D01*
X148159200Y-70561800D02*
X148514800Y-70561800D01*
X147727400Y-70993600D02*
X148159200Y-70561800D01*
X150267400Y-70085550D02*
X150267400Y-68631400D01*
X149003750Y-71349200D02*
X150267400Y-70085550D01*
X150326316Y-79154950D02*
X150326316Y-79028116D01*
X148184600Y-71349200D02*
X149003750Y-71349200D01*
X140933747Y-94566253D02*
X140500000Y-95000000D01*
X141000000Y-91750000D02*
X140933747Y-91816253D01*
X140933747Y-91816253D02*
X140933747Y-94566253D01*
X150326316Y-79154950D02*
X150985803Y-79814437D01*
X147727400Y-71806400D02*
X148184600Y-71349200D01*
X150985803Y-79814437D02*
X150985803Y-79897506D01*
X150326316Y-79028116D02*
X150292800Y-78994600D01*
X150985803Y-79897506D02*
X151730018Y-80641721D01*
D79*
X129250000Y-97010000D02*
X127310000Y-97010000D01*
X127310000Y-97010000D02*
X126500000Y-96200000D01*
D78*
X149325000Y-62750000D02*
X148900000Y-62325000D01*
X148825000Y-63250000D02*
X149325000Y-62750000D01*
X148900000Y-60575000D02*
X149750000Y-59725000D01*
X149460000Y-58050000D02*
X149460000Y-59435000D01*
X149460000Y-59435000D02*
X149750000Y-59725000D01*
X148900000Y-62325000D02*
X148900000Y-60575000D01*
X148825000Y-64200000D02*
X148825000Y-63250000D01*
X142075000Y-63250000D02*
X142075000Y-64450000D01*
X142224000Y-60501000D02*
X142224000Y-62399000D01*
X142735000Y-59460000D02*
X143000000Y-59725000D01*
X142735000Y-58050000D02*
X142735000Y-59460000D01*
X142224000Y-62399000D02*
X142575000Y-62750000D01*
X143000000Y-59725000D02*
X142224000Y-60501000D01*
X142575000Y-62750000D02*
X142075000Y-63250000D01*
X154585400Y-69012400D02*
X154585400Y-59893800D01*
X155357957Y-75853672D02*
X155254472Y-75853672D01*
X155972659Y-76399080D02*
X155903365Y-76399080D01*
X154585400Y-59893800D02*
X154179000Y-59487400D01*
X155903365Y-76399080D02*
X155357957Y-75853672D01*
X154026600Y-74625800D02*
X154026600Y-69571200D01*
X155254472Y-75853672D02*
X154026600Y-74625800D01*
X154026600Y-69571200D02*
X154585400Y-69012400D01*
X161250000Y-78250000D02*
X163190383Y-78250000D01*
X163190383Y-78250000D02*
X163980643Y-77459740D01*
X159250000Y-76250000D02*
X161250000Y-78250000D01*
X158750000Y-76250000D02*
X159250000Y-76250000D01*
X157033319Y-75338420D02*
X155809000Y-74114101D01*
X155809000Y-74114101D02*
X155809000Y-71040000D01*
X156998400Y-69850600D02*
X156998400Y-57353800D01*
X156998400Y-57353800D02*
X156947600Y-57303000D01*
X155809000Y-71040000D02*
X156998400Y-69850600D01*
D82*
X187500000Y-58250000D02*
X188350000Y-58250000D01*
D78*
X128925000Y-64250000D02*
X128925000Y-62500000D01*
X128562500Y-62312500D02*
X126950000Y-62312500D01*
X128750000Y-62500000D02*
X128562500Y-62312500D01*
X128925000Y-62500000D02*
X128750000Y-62500000D01*
X176783433Y-118484080D02*
X178737920Y-118484080D01*
X178737920Y-118484080D02*
X179251000Y-117971000D01*
X179251000Y-117971000D02*
X179251000Y-112171654D01*
X176802000Y-100623856D02*
X176802000Y-96521315D01*
X175349000Y-108269654D02*
X175349000Y-102076856D01*
X176802000Y-96521315D02*
X171405264Y-91124579D01*
X179251000Y-112171654D02*
X175349000Y-108269654D01*
X175349000Y-102076856D02*
X176802000Y-100623856D01*
X169034453Y-75379293D02*
X170371142Y-74042604D01*
X170371142Y-74042604D02*
X170371142Y-73643934D01*
X167722792Y-76546019D02*
X165394857Y-78873954D01*
X167867727Y-76546019D02*
X167722792Y-76546019D01*
X187000000Y-117425000D02*
X182575000Y-117425000D01*
X182575000Y-117425000D02*
X182250000Y-117750000D01*
X175750000Y-96176421D02*
X171051711Y-91478132D01*
X175750000Y-96500000D02*
X175750000Y-96176421D01*
X142975843Y-84725843D02*
X143500000Y-85250000D01*
X142975843Y-84600000D02*
X142975843Y-84725843D01*
X145731696Y-85250000D02*
X146426717Y-85945021D01*
X143500000Y-85250000D02*
X145731696Y-85250000D01*
X130000000Y-63500000D02*
X130000000Y-63675000D01*
X130000000Y-63675000D02*
X130575000Y-64250000D01*
X168453800Y-96495200D02*
X168163195Y-96204595D01*
X168000000Y-96204595D02*
X167162624Y-95367219D01*
X168163195Y-96204595D02*
X168000000Y-96204595D01*
X137050000Y-97800000D02*
X138750000Y-99500000D01*
X137050000Y-96967500D02*
X137050000Y-97800000D01*
X147607353Y-97642647D02*
X147889376Y-97360624D01*
X147607353Y-97869916D02*
X147607353Y-97642647D01*
X150457861Y-96639376D02*
X148610624Y-96639376D01*
X151730018Y-95367219D02*
X150457861Y-96639376D01*
X145000000Y-103428601D02*
X141961101Y-106467500D01*
X141961101Y-106467500D02*
X141450000Y-106467500D01*
X145000000Y-103250000D02*
X145000000Y-103428601D01*
X148993719Y-99256281D02*
X149389376Y-98860624D01*
X151763809Y-96747642D02*
X151502358Y-96747642D01*
X152437125Y-96074326D02*
X151763809Y-96747642D01*
X151502358Y-96747642D02*
X150110624Y-98139376D01*
X146750000Y-97000000D02*
X147139376Y-96610624D01*
X132650000Y-99320654D02*
X133230346Y-99901000D01*
X135849000Y-99901000D02*
X136750000Y-99000000D01*
X133230346Y-99901000D02*
X135849000Y-99901000D01*
X132650000Y-96967500D02*
X132650000Y-99320654D01*
X150500755Y-95889376D02*
X147860624Y-95889376D01*
X151376465Y-95013666D02*
X150500755Y-95889376D01*
X152083572Y-95720773D02*
X151457703Y-96346642D01*
X151336258Y-96346642D02*
X150293524Y-97389376D01*
X151457703Y-96346642D02*
X151336258Y-96346642D01*
X150293524Y-97389376D02*
X149360624Y-97389376D01*
X155318725Y-97223235D02*
X155318725Y-97435366D01*
X155318725Y-97435366D02*
X154558445Y-98195646D01*
X156269654Y-97651000D02*
X155810199Y-97651000D01*
X156500000Y-97950000D02*
X156500000Y-97881346D01*
X155810199Y-97651000D02*
X154911999Y-98549200D01*
X156500000Y-97881346D02*
X156269654Y-97651000D01*
X162389376Y-101907680D02*
X161505770Y-101024074D01*
X162389376Y-103389376D02*
X162389376Y-101907680D01*
X163139376Y-101950573D02*
X161859323Y-100670520D01*
X163139376Y-102639376D02*
X163139376Y-101950573D01*
X164156605Y-100139376D02*
X163273536Y-99256307D01*
X166639376Y-100139376D02*
X164156605Y-100139376D01*
X163889376Y-101889376D02*
X163785285Y-101889376D01*
X163785285Y-101889376D02*
X162212876Y-100316967D01*
X177394600Y-64719800D02*
X169750000Y-72364400D01*
D79*
X188150000Y-49150000D02*
X188150000Y-49337500D01*
D78*
X182271400Y-64719800D02*
X177394600Y-64719800D01*
X165249561Y-77220439D02*
X164927052Y-77220439D01*
X182931800Y-64059400D02*
X182271400Y-64719800D01*
X169750000Y-72720000D02*
X165249561Y-77220439D01*
D79*
X188150000Y-49337500D02*
X188200000Y-49387500D01*
X188000000Y-49000000D02*
X188150000Y-49150000D01*
D78*
X169750000Y-72364400D02*
X169750000Y-72720000D01*
X164927052Y-77220439D02*
X164334197Y-77813294D01*
X140815000Y-58050000D02*
X140815000Y-59410000D01*
X140500000Y-59725000D02*
X141400000Y-60625000D01*
X140815000Y-59410000D02*
X140500000Y-59725000D01*
X141400000Y-62275000D02*
X140925000Y-62750000D01*
X141400000Y-60625000D02*
X141400000Y-62275000D01*
X141425000Y-63250000D02*
X141425000Y-64450000D01*
X140925000Y-62750000D02*
X141425000Y-63250000D01*
X146283552Y-91798075D02*
X146290814Y-91790813D01*
X146290814Y-91614035D02*
X147133824Y-90771025D01*
X146290814Y-91790813D02*
X146290814Y-91614035D01*
D79*
X143250000Y-100750000D02*
X143250000Y-100825002D01*
D78*
X146000000Y-100000000D02*
X142482500Y-100000000D01*
X147500000Y-101500000D02*
X146000000Y-100000000D01*
X140350000Y-97867500D02*
X140350000Y-96967500D01*
X151750000Y-100296985D02*
X154204892Y-97842093D01*
X142482500Y-100000000D02*
X140350000Y-97867500D01*
X147500000Y-102250000D02*
X147500000Y-101500000D01*
X151750000Y-100500000D02*
X151750000Y-100296985D01*
X145436498Y-101563502D02*
X142772400Y-101563502D01*
X151250480Y-100000000D02*
X153216533Y-98033947D01*
X139250000Y-98041102D02*
X139250000Y-96967500D01*
X151000000Y-100000000D02*
X151250480Y-100000000D01*
X145500000Y-101500000D02*
X145436498Y-101563502D01*
X142772400Y-101563502D02*
X139250000Y-98041102D01*
X146250000Y-101500000D02*
X145500000Y-101500000D01*
X153216533Y-98033947D02*
X153305932Y-98033947D01*
X153305932Y-98033947D02*
X153851339Y-97488540D01*
D79*
X185016280Y-112100000D02*
X185075000Y-112100000D01*
X184166280Y-112950000D02*
X185016280Y-112100000D01*
X183675000Y-112950000D02*
X184166280Y-112950000D01*
D78*
X133750000Y-106467500D02*
X133750000Y-114000000D01*
D79*
X189912500Y-50962500D02*
X189950000Y-51000000D01*
X188200000Y-50962500D02*
X189912500Y-50962500D01*
X190000000Y-58250000D02*
X191387500Y-58250000D01*
X190000000Y-58250000D02*
X190000000Y-56500000D01*
D78*
X179500000Y-105675000D02*
X179500000Y-104007500D01*
X179500000Y-104007500D02*
X179530000Y-103977500D01*
X169706793Y-92892346D02*
X174390210Y-97575763D01*
X174390210Y-97575763D02*
X174390210Y-99109790D01*
X169637497Y-92892346D02*
X169706793Y-92892346D01*
X164250000Y-104250000D02*
X164250000Y-103750000D01*
X164250000Y-103750000D02*
X163860624Y-103360624D01*
X159250000Y-103250000D02*
X160110624Y-104110624D01*
X160110624Y-104110624D02*
X163110624Y-104110624D01*
X168250000Y-103250000D02*
X168250000Y-101750000D01*
X166250000Y-105250000D02*
X168250000Y-103250000D01*
X168250000Y-101750000D02*
X167360624Y-100860624D01*
X164000000Y-105250000D02*
X166250000Y-105250000D01*
X165000000Y-103000000D02*
X164610624Y-102610624D01*
X165000000Y-103750000D02*
X165000000Y-103000000D01*
X171750000Y-122250000D02*
X172500000Y-121500000D01*
X167250000Y-98250000D02*
X166680394Y-97680394D01*
X170600002Y-122250000D02*
X171750000Y-122250000D01*
X166680394Y-97680394D02*
X165940265Y-97680394D01*
X165940265Y-97680394D02*
X165394857Y-97134986D01*
X172500000Y-121500000D02*
X172500000Y-120250000D01*
X171243565Y-93493565D02*
X171243565Y-92446388D01*
X176401000Y-99927426D02*
X176401000Y-98651000D01*
X176401000Y-98651000D02*
X171243565Y-93493565D01*
X175804423Y-100524003D02*
X176401000Y-99927426D01*
X171243565Y-92446388D02*
X170698158Y-91900981D01*
X170698158Y-91900981D02*
X170698158Y-91831685D01*
X170005422Y-93791307D02*
X171500000Y-95285885D01*
X171500000Y-95285885D02*
X171500000Y-100000000D01*
X173329549Y-101829549D02*
X173329549Y-102998877D01*
X169829352Y-93791307D02*
X170005422Y-93791307D01*
X171500000Y-100000000D02*
X173329549Y-101829549D01*
X169283944Y-93245899D02*
X169829352Y-93791307D01*
X143250000Y-95750000D02*
X144000000Y-95000000D01*
X146723056Y-93026944D02*
X146500000Y-93250000D01*
X143250000Y-99250000D02*
X143250000Y-95750000D01*
X148548038Y-92185239D02*
X147706333Y-93026944D01*
X147706333Y-93026944D02*
X146723056Y-93026944D01*
X148500000Y-102170654D02*
X147670654Y-103000000D01*
X147151000Y-93519654D02*
X147151000Y-93474000D01*
X148012439Y-93427944D02*
X148901591Y-92538792D01*
X147151000Y-93474000D02*
X147197056Y-93427944D01*
X146769654Y-93901000D02*
X147151000Y-93519654D01*
X148500000Y-101250000D02*
X148500000Y-102170654D01*
X146150000Y-94400000D02*
X146649000Y-93901000D01*
X145058153Y-102387499D02*
X143250000Y-102387499D01*
X146649000Y-93901000D02*
X146769654Y-93901000D01*
X147197056Y-93427944D02*
X148012439Y-93427944D01*
X147670654Y-103000000D02*
X145670654Y-103000000D01*
X145670654Y-103000000D02*
X145058153Y-102387499D01*
X169897015Y-94250000D02*
X169580939Y-94250000D01*
X171000000Y-100616293D02*
X171000000Y-95352985D01*
X169580939Y-94250000D02*
X168930391Y-93599452D01*
X171000000Y-95352985D02*
X169897015Y-94250000D01*
X171941853Y-101558146D02*
X171000000Y-100616293D01*
X148175000Y-63250000D02*
X148175000Y-64200000D01*
X147540000Y-59410000D02*
X147250000Y-59700000D01*
X147675000Y-62750000D02*
X148175000Y-63250000D01*
X147540000Y-58050000D02*
X147540000Y-59410000D01*
X148026000Y-60476000D02*
X148026000Y-62399000D01*
X148026000Y-62399000D02*
X147675000Y-62750000D01*
X147250000Y-59700000D02*
X148026000Y-60476000D01*
X168871499Y-91419240D02*
X169991051Y-92538792D01*
X168669240Y-91419240D02*
X168871499Y-91419240D01*
X169398971Y-91239606D02*
X170344604Y-92185239D01*
X169398971Y-90892460D02*
X169398971Y-91239606D01*
X172112371Y-90417472D02*
X178300000Y-96605101D01*
X179750000Y-107500000D02*
X179500000Y-107250000D01*
X180500000Y-107500000D02*
X179750000Y-107500000D01*
X178300000Y-96605101D02*
X178300000Y-106050000D01*
X178300000Y-106050000D02*
X179500000Y-107250000D01*
X155940308Y-101763531D02*
X157033319Y-100670520D01*
X155940308Y-101940308D02*
X155940308Y-101763531D01*
X160029843Y-102500000D02*
X160798663Y-101731180D01*
X160029843Y-102621805D02*
X160029843Y-102500000D01*
X159957689Y-102693959D02*
X160029843Y-102621805D01*
X167350001Y-56300000D02*
X167500000Y-56150001D01*
X168670000Y-56300000D02*
X168784000Y-56414000D01*
X167350001Y-56300000D02*
X168670000Y-56300000D01*
X153417000Y-75964741D02*
X153417000Y-69114000D01*
X153950400Y-68580600D02*
X153950400Y-60452600D01*
X154911999Y-77459740D02*
X153417000Y-75964741D01*
X153366200Y-57506200D02*
X153366200Y-57379200D01*
X153264600Y-57607800D02*
X153366200Y-57506200D01*
X153290000Y-59792200D02*
X153290000Y-57633200D01*
X153290000Y-57633200D02*
X153264600Y-57607800D01*
X153950400Y-60452600D02*
X153290000Y-59792200D01*
X153417000Y-69114000D02*
X153950400Y-68580600D01*
X158093979Y-74277760D02*
X157912800Y-74096581D01*
X166650001Y-58300000D02*
X166146000Y-58300000D01*
X166146000Y-58300000D02*
X165984000Y-58462000D01*
X164980346Y-81849000D02*
X164000000Y-82829346D01*
X165248237Y-81849000D02*
X164980346Y-81849000D01*
X164000000Y-82829346D02*
X164000000Y-83500000D01*
X166809070Y-80288167D02*
X165248237Y-81849000D01*
X160250000Y-85250000D02*
X162025000Y-85250000D01*
X161000000Y-83500000D02*
X162250000Y-83500000D01*
X133349000Y-64151000D02*
X133349000Y-63230346D01*
X138608800Y-65108800D02*
X136000000Y-62500000D01*
X129750000Y-65000000D02*
X129942968Y-64807032D01*
X133776000Y-62849000D02*
X134125000Y-62500000D01*
X133349000Y-63230346D02*
X133730346Y-62849000D01*
X162250000Y-83500000D02*
X162750000Y-83000000D01*
X134125000Y-62500000D02*
X136000000Y-62500000D01*
X162025000Y-85250000D02*
X162750000Y-84525000D01*
X139269220Y-65837420D02*
X139269220Y-68900020D01*
X138608800Y-65177000D02*
X139269220Y-65837420D01*
X130385936Y-65250000D02*
X132250000Y-65250000D01*
X132250000Y-65250000D02*
X133349000Y-64151000D01*
X138608800Y-65177000D02*
X138608800Y-65108800D01*
X162750000Y-83000000D02*
X162750000Y-82933024D01*
X162750000Y-84525000D02*
X162750000Y-83000000D01*
X133730346Y-62849000D02*
X133776000Y-62849000D01*
X162750000Y-82933024D02*
X166101964Y-79581060D01*
X129942968Y-64807032D02*
X130385936Y-65250000D01*
X161975000Y-88650000D02*
X161084620Y-87759620D01*
X164000000Y-86575000D02*
X164000000Y-87700000D01*
X164000000Y-87700000D02*
X163050000Y-88650000D01*
X161084620Y-87759620D02*
X161084620Y-87165380D01*
X163350000Y-82912246D02*
X163350000Y-85925000D01*
X163050000Y-88650000D02*
X161975000Y-88650000D01*
X164814246Y-81448000D02*
X163350000Y-82912246D01*
X164942131Y-81448000D02*
X164814246Y-81448000D01*
X166455517Y-79934614D02*
X164942131Y-81448000D01*
X163350000Y-85925000D02*
X164000000Y-86575000D01*
X133200000Y-72676000D02*
X133200000Y-72550000D01*
X139777200Y-77902400D02*
X139777200Y-75997400D01*
X137015368Y-71500000D02*
X138256811Y-72741443D01*
X154250000Y-89250000D02*
X154250000Y-90000000D01*
X169308620Y-89808620D02*
X169308620Y-87688113D01*
X134250000Y-71500000D02*
X137015368Y-71500000D01*
X169308620Y-87688113D02*
X171758818Y-85237915D01*
X162500000Y-94750000D02*
X164750000Y-94750000D01*
X139193000Y-78486600D02*
X139777200Y-77902400D01*
X138256811Y-74477011D02*
X138256811Y-72741443D01*
X169334620Y-89834620D02*
X169308620Y-89808620D01*
X164750000Y-94750000D02*
X165000000Y-94500000D01*
X154250000Y-90000000D02*
X153500000Y-90750000D01*
X133200000Y-72550000D02*
X134250000Y-71500000D01*
X139777200Y-75997400D02*
X138256811Y-74477011D01*
X170500000Y-87859620D02*
X170500000Y-87203839D01*
X170500000Y-87203839D02*
X172112371Y-85591468D01*
X169959620Y-88400000D02*
X170500000Y-87859620D01*
X172075159Y-87750000D02*
X173173031Y-86652128D01*
X172000000Y-87750000D02*
X172075159Y-87750000D01*
X158954200Y-73454200D02*
X159777760Y-74277760D01*
X159777760Y-74277760D02*
X160798663Y-74277760D01*
X154610800Y-70104600D02*
X155296600Y-69418800D01*
X156326212Y-76045527D02*
X154610800Y-74330115D01*
X154610800Y-74330115D02*
X154610800Y-70104600D01*
X163081683Y-77651594D02*
X161651594Y-77651594D01*
X163627090Y-77106187D02*
X163081683Y-77651594D01*
X161651594Y-77651594D02*
X161000000Y-77000000D01*
X168300000Y-59046000D02*
X168784000Y-58562000D01*
X168300000Y-59300000D02*
X168300000Y-59046000D01*
X165482000Y-56414000D02*
X165932000Y-56414000D01*
X165932000Y-56414000D02*
X165984000Y-56362000D01*
X144950166Y-90833363D02*
X146073164Y-89710365D01*
X144083363Y-90833363D02*
X144950166Y-90833363D01*
D79*
X163212499Y-111250000D02*
X160000000Y-111250000D01*
D78*
X181400000Y-119012500D02*
X180762500Y-119650000D01*
X185116200Y-119888600D02*
X185649600Y-119355200D01*
X185100000Y-120932400D02*
X185116200Y-120916200D01*
X181400000Y-119000000D02*
X181400000Y-119012500D01*
X185116200Y-120916200D02*
X185116200Y-119888600D01*
X185100000Y-121250000D02*
X185100000Y-120932400D01*
X182450000Y-119762500D02*
X182337500Y-119650000D01*
X182450000Y-120200000D02*
X182450000Y-119762500D01*
X179600000Y-79462500D02*
X179600000Y-77825000D01*
D79*
X161287501Y-125000000D02*
X162675000Y-125000000D01*
D78*
X145324998Y-110700000D02*
X144750000Y-110700000D01*
X144750000Y-110700000D02*
X144700000Y-110750000D01*
X146900000Y-110700000D02*
X146900000Y-108527500D01*
X146900000Y-108527500D02*
X147367500Y-108060000D01*
X163702474Y-101099457D02*
X164599457Y-101099457D01*
X164599457Y-101099457D02*
X164889376Y-101389376D01*
X162566430Y-99963413D02*
X163702474Y-101099457D01*
X164008580Y-100698457D02*
X162919983Y-99609860D01*
X165889376Y-100889376D02*
X165698457Y-100698457D01*
X165698457Y-100698457D02*
X164008580Y-100698457D01*
X169991051Y-83470148D02*
X169288935Y-84172264D01*
X169288935Y-84172264D02*
X169288935Y-84564431D01*
X170536458Y-82924741D02*
X169991051Y-83470148D01*
X171999999Y-81112601D02*
X170583905Y-82528695D01*
X170583905Y-82528695D02*
X170583905Y-82667992D01*
X171999999Y-78999999D02*
X171999999Y-81112601D01*
X170583905Y-82667992D02*
X170536458Y-82715439D01*
X171500000Y-78500000D02*
X171999999Y-78999999D01*
X170536458Y-82715439D02*
X170536458Y-82924741D01*
X170182905Y-82501892D02*
X169637497Y-83047300D01*
X171000000Y-80750000D02*
X171000000Y-81401400D01*
X170182905Y-82218495D02*
X170182905Y-82501892D01*
X171000000Y-81401400D02*
X170182905Y-82218495D01*
X169637497Y-83116594D02*
X168980441Y-83773650D01*
X168980441Y-83773650D02*
X168478864Y-83773650D01*
X169637497Y-83047300D02*
X169637497Y-83116594D01*
X145719611Y-89122179D02*
X144264069Y-87666637D01*
X144264069Y-87666637D02*
X143166637Y-87666637D01*
X145719611Y-89356812D02*
X145719611Y-89122179D01*
X161697624Y-74085905D02*
X161152216Y-74631313D01*
X160989563Y-73000000D02*
X161697624Y-73708061D01*
X160046200Y-73000000D02*
X160989563Y-73000000D01*
X161697624Y-73708061D02*
X161697624Y-74085905D01*
X159868600Y-72822400D02*
X160046200Y-73000000D01*
X160198800Y-71806400D02*
X160563242Y-72170842D01*
X162098624Y-73541961D02*
X162098624Y-74392012D01*
X160563242Y-72170842D02*
X160727505Y-72170842D01*
X160727505Y-72170842D02*
X162098624Y-73541961D01*
X162098624Y-74392012D02*
X161505770Y-74984866D01*
X193041000Y-61748000D02*
X179655200Y-61748000D01*
X194031600Y-83896800D02*
X193498200Y-84430200D01*
X193498200Y-84430200D02*
X178563000Y-84430200D01*
X178156600Y-58014200D02*
X180214000Y-55956800D01*
X180214000Y-55956800D02*
X180823600Y-55956800D01*
X194107800Y-62738600D02*
X194031600Y-62738600D01*
X194031600Y-62738600D02*
X193041000Y-61748000D01*
X182775000Y-54005400D02*
X182775000Y-53137500D01*
X180823600Y-55956800D02*
X182775000Y-54005400D01*
X178563000Y-84430200D02*
X178080400Y-84912800D01*
X179655200Y-61748000D02*
X178156600Y-60249400D01*
X178156600Y-60249400D02*
X178156600Y-58014200D01*
X194819000Y-61062200D02*
X194666600Y-60909800D01*
X184075000Y-54483400D02*
X184075000Y-53137500D01*
X181534800Y-57023600D02*
X184075000Y-54483400D01*
X192101200Y-96139600D02*
X178893200Y-96139600D01*
X194666600Y-60909800D02*
X181407800Y-60909800D01*
X179706000Y-58141200D02*
X180823600Y-57023600D01*
X193218800Y-95022000D02*
X192101200Y-96139600D01*
X180823600Y-57023600D02*
X181534800Y-57023600D01*
X179706000Y-59208000D02*
X179706000Y-58141200D01*
X181407800Y-60909800D02*
X179706000Y-59208000D01*
X182754000Y-57059400D02*
X183323200Y-56490200D01*
X167209200Y-96828009D02*
X167209200Y-97181000D01*
X183323200Y-56490200D02*
X183338200Y-56490200D01*
X168377600Y-98349400D02*
X169368200Y-98349400D01*
X183338200Y-56490200D02*
X184725000Y-55103400D01*
X166455517Y-96074326D02*
X167209200Y-96828009D01*
X182576200Y-57059400D02*
X182754000Y-57059400D01*
X167209200Y-97181000D02*
X168377600Y-98349400D01*
X184725000Y-55103400D02*
X184725000Y-53137500D01*
X168377600Y-97358800D02*
X169165000Y-97358800D01*
X169165000Y-97358800D02*
X169190400Y-97333400D01*
X181255400Y-57709400D02*
X183135000Y-57709400D01*
X169190400Y-97333400D02*
X169292000Y-97333400D01*
X166809070Y-95720773D02*
X166809070Y-95790270D01*
X166809070Y-95790270D02*
X168377600Y-97358800D01*
X183135000Y-57709400D02*
X185375000Y-55469400D01*
X185375000Y-55469400D02*
X185375000Y-53137500D01*
X180569600Y-58395200D02*
X181255400Y-57709400D01*
X156326212Y-99963413D02*
X155691978Y-100597647D01*
X172700000Y-116420000D02*
X172700000Y-115470000D01*
X172700000Y-115470000D02*
X172875000Y-115295000D01*
X154525000Y-101799981D02*
X154525000Y-105093198D01*
X155691978Y-100633003D02*
X154525000Y-101799981D01*
X155691978Y-100597647D02*
X155691978Y-100633003D01*
X172700000Y-114544999D02*
X172700000Y-116420000D01*
X172875000Y-110851000D02*
X172875000Y-114369999D01*
X154525000Y-105093198D02*
X156406802Y-106975000D01*
X172824000Y-110851000D02*
X172875000Y-110851000D01*
X170906802Y-106975000D02*
X172824000Y-108892198D01*
X156406802Y-106975000D02*
X170906802Y-106975000D01*
X172824000Y-108892198D02*
X172824000Y-110851000D01*
X172875000Y-114369999D02*
X172700000Y-114544999D01*
X156593198Y-106525000D02*
X171093198Y-106525000D01*
X156593198Y-106525000D02*
X154975000Y-104906802D01*
X173325000Y-114369999D02*
X173325000Y-108756802D01*
X154975000Y-101986377D02*
X156010176Y-100951201D01*
X171093198Y-106525000D02*
X171359793Y-106791595D01*
X173500000Y-116420000D02*
X173500000Y-115470000D01*
X154975000Y-104906802D02*
X154975000Y-101986377D01*
X156045532Y-100951201D02*
X156679766Y-100316967D01*
X173325000Y-108756802D02*
X172033478Y-107465280D01*
X156010176Y-100951201D02*
X156045532Y-100951201D01*
X173500000Y-116420000D02*
X173500000Y-114544999D01*
X173500000Y-115470000D02*
X173325000Y-115295000D01*
X172033478Y-106966440D02*
X171858633Y-106791595D01*
X173500000Y-114544999D02*
X173325000Y-114369999D01*
X171858633Y-106791595D02*
G75*
G03*
X171609213Y-106791595I-124710J-124709D01*
G01*
X172033478Y-107465280D02*
G75*
G02*
X172033508Y-107215890I124722J124680D01*
G01*
X171609213Y-106791595D02*
G75*
G02*
X171359793Y-106791595I-124710J124709D01*
G01*
X172033478Y-107215860D02*
G75*
G03*
X172033428Y-106966490I-124678J124660D01*
G01*
X171900000Y-116229346D02*
X171900000Y-116420000D01*
D80*
X168500002Y-119999998D02*
X166575002Y-119999998D01*
X166575002Y-119999998D02*
X166075000Y-120500000D01*
D78*
X155619106Y-99256307D02*
X152800000Y-102075413D01*
D80*
X165824998Y-120750002D02*
X166075000Y-120500000D01*
X171900000Y-116420000D02*
X171900000Y-116600000D01*
D78*
X152800000Y-106150000D02*
X154700000Y-108050000D01*
X154700000Y-108050000D02*
X163720654Y-108050000D01*
X152800000Y-102075413D02*
X152800000Y-106150000D01*
D80*
X171900000Y-116600000D02*
X168500002Y-119999998D01*
X165824998Y-123000002D02*
X165824998Y-120750002D01*
D78*
X163720654Y-108050000D02*
X171900000Y-116229346D01*
D82*
X178250000Y-72750000D02*
X191038200Y-72750000D01*
X195784200Y-77496000D02*
X195784200Y-104715800D01*
D79*
X174168800Y-75235400D02*
X175837700Y-73566500D01*
X175837700Y-73566500D02*
X177433500Y-73566500D01*
X171600000Y-64600000D02*
X171562499Y-64600000D01*
X177433500Y-73566500D02*
X178250000Y-72750000D01*
D82*
X195784200Y-104715800D02*
X190250000Y-110250000D01*
X191038200Y-72750000D02*
X195784200Y-77496000D01*
D79*
X171562499Y-64600000D02*
X171250000Y-64287501D01*
D78*
X182775000Y-58862500D02*
X182775000Y-59999800D01*
X165482000Y-76149800D02*
X168961800Y-72670000D01*
X163273536Y-76752633D02*
X163876369Y-76149800D01*
X182775000Y-59999800D02*
X182550800Y-60224000D01*
X168961800Y-71933400D02*
X175896000Y-64999200D01*
X168961800Y-72670000D02*
X168961800Y-71933400D01*
X165482000Y-76149800D02*
X163876369Y-76149800D01*
X175896000Y-64999200D02*
X175896000Y-64923000D01*
X192228200Y-62408400D02*
X179299600Y-62408400D01*
X182125000Y-53874999D02*
X182125000Y-53137500D01*
X177547000Y-57785600D02*
X179985400Y-55347200D01*
X177547000Y-60655800D02*
X177547000Y-57785600D01*
X180652799Y-55347200D02*
X182125000Y-53874999D01*
X193168000Y-85725600D02*
X181179200Y-85725600D01*
X179985400Y-55347200D02*
X180652799Y-55347200D01*
X192990200Y-63576800D02*
X192990200Y-63170400D01*
X181179200Y-85725600D02*
X177267600Y-89637200D01*
X192990200Y-63170400D02*
X192228200Y-62408400D01*
X179299600Y-62408400D02*
X177547000Y-60655800D01*
X183425000Y-54244400D02*
X183425000Y-53137500D01*
X181179200Y-56490200D02*
X183425000Y-54244400D01*
X178944000Y-57988800D02*
X180442600Y-56490200D01*
X178944000Y-59792200D02*
X178944000Y-57988800D01*
X179096400Y-59944600D02*
X178944000Y-59792200D01*
X180442600Y-56490200D02*
X181179200Y-56490200D01*
X145267500Y-105482500D02*
X145300000Y-105450000D01*
X145267500Y-107110000D02*
X145267500Y-105482500D01*
X140412200Y-79553400D02*
X139500000Y-80465600D01*
X139500000Y-85650000D02*
X140250000Y-86400000D01*
X166610624Y-101610624D02*
X167250000Y-102250000D01*
X140412200Y-70587200D02*
X140412200Y-79553400D01*
X139980400Y-70155400D02*
X140412200Y-70587200D01*
X139980400Y-68344600D02*
X139980400Y-70155400D01*
X139500000Y-80465600D02*
X139500000Y-85650000D01*
X140775000Y-67550000D02*
X139980400Y-68344600D01*
X141910800Y-80315400D02*
X141910800Y-71527000D01*
X143638000Y-69799800D02*
X143638000Y-68463000D01*
X141000000Y-81226200D02*
X141910800Y-80315400D01*
X141000000Y-87150000D02*
X141000000Y-81226200D01*
X165610624Y-102110624D02*
X166665380Y-103165380D01*
X143638000Y-68463000D02*
X142725000Y-67550000D01*
X166665380Y-103165380D02*
X167415380Y-103165380D01*
X140900000Y-87250000D02*
X141000000Y-87150000D01*
X141910800Y-71527000D02*
X143638000Y-69799800D01*
X144958800Y-68987000D02*
X146645800Y-67300000D01*
X141656800Y-86656800D02*
X141656800Y-81991800D01*
X146645800Y-67300000D02*
X147525000Y-67300000D01*
X142916637Y-89666637D02*
X141750000Y-88500000D01*
X142698200Y-80950400D02*
X142698200Y-72390600D01*
X144958800Y-70130000D02*
X144958800Y-68987000D01*
X142698200Y-72390600D02*
X144958800Y-70130000D01*
X141750000Y-86750000D02*
X141656800Y-86656800D01*
X141750000Y-88500000D02*
X141750000Y-86750000D01*
X141656800Y-81991800D02*
X142698200Y-80950400D01*
X151029400Y-72263600D02*
X151029400Y-68072600D01*
X142325843Y-87923275D02*
X142325843Y-83049957D01*
X142325843Y-83049957D02*
X145822400Y-79553400D01*
X145822400Y-77470600D02*
X151029400Y-72263600D01*
X144333363Y-88833363D02*
X143235931Y-88833363D01*
X145822400Y-79553400D02*
X145822400Y-77470600D01*
X149739600Y-67564600D02*
X149475000Y-67300000D01*
X143235931Y-88833363D02*
X142325843Y-87923275D01*
X151029400Y-68072600D02*
X150521400Y-67564600D01*
X150521400Y-67564600D02*
X149739600Y-67564600D01*
X144750000Y-84199000D02*
X146094909Y-84199000D01*
X146094909Y-84199000D02*
X147133824Y-85237915D01*
X147500000Y-81043098D02*
X147500000Y-81250000D01*
X147500000Y-81250000D02*
X147000000Y-81750000D01*
X148308737Y-82877294D02*
X148901591Y-83470148D01*
X147693052Y-80850046D02*
X147500000Y-81043098D01*
X139091400Y-77013400D02*
X139091400Y-76481001D01*
X139091400Y-76481001D02*
X138031364Y-75420965D01*
X147000000Y-81848571D02*
X148028723Y-82877294D01*
X148028723Y-82877294D02*
X148308737Y-82877294D01*
X147000000Y-81750000D02*
X147000000Y-81848571D01*
X129750000Y-74699000D02*
X129750000Y-72550000D01*
X123750000Y-66550000D02*
X123750000Y-65250000D01*
X129750000Y-72550000D02*
X123750000Y-66550000D01*
X132750000Y-77699000D02*
X129750000Y-74699000D01*
X145905535Y-81888306D02*
X145280934Y-81888306D01*
X148194484Y-84177255D02*
X145905535Y-81888306D01*
X138761200Y-71704800D02*
X138761200Y-69647400D01*
X147933335Y-83278294D02*
X147862623Y-83278294D01*
X139320000Y-72746200D02*
X139320000Y-72263600D01*
X139320000Y-72263600D02*
X138761200Y-71704800D01*
X148548038Y-83823701D02*
X148478742Y-83823701D01*
X148478742Y-83823701D02*
X147933335Y-83278294D01*
X147862623Y-83278294D02*
X146214187Y-81629858D01*
X138761200Y-69647400D02*
X138304000Y-69190200D01*
X138304000Y-69190200D02*
X138304000Y-66650200D01*
X146214187Y-81629858D02*
X146214187Y-80955053D01*
X143708132Y-75432532D02*
X143688800Y-75413200D01*
X143708132Y-78449000D02*
X143708132Y-75432532D01*
X134000000Y-63500000D02*
X135400000Y-64900000D01*
X147840931Y-91478132D02*
X146719063Y-92600000D01*
X135400000Y-64900000D02*
X135500000Y-64900000D01*
X146719063Y-92600000D02*
X145875000Y-92600000D01*
X133250000Y-79824000D02*
X134250000Y-80824000D01*
X125592967Y-63149001D02*
X126399001Y-63149001D01*
X139475000Y-86675000D02*
X138750000Y-85950000D01*
X133401000Y-77429346D02*
X133401000Y-77968654D01*
X133000000Y-74225000D02*
X133000000Y-77028346D01*
X138750000Y-82500000D02*
X137074000Y-80824000D01*
X133401000Y-77968654D02*
X133250000Y-78119654D01*
X138750000Y-85950000D02*
X138750000Y-82500000D01*
X137074000Y-80824000D02*
X134250000Y-80824000D01*
X139900000Y-89250000D02*
X139900000Y-88900000D01*
X139900000Y-88900000D02*
X139475000Y-88475000D01*
X124500000Y-64241968D02*
X125592967Y-63149001D01*
X128928346Y-65099000D02*
X129480346Y-65651000D01*
X132999000Y-65651000D02*
X129480346Y-65651000D01*
X126399001Y-63149001D02*
X128349000Y-65099000D01*
X133000000Y-77028346D02*
X133401000Y-77429346D01*
X128349000Y-65099000D02*
X128928346Y-65099000D01*
X133500000Y-73725000D02*
X133000000Y-74225000D01*
X149250000Y-94311703D02*
X149250000Y-95239376D01*
X139475000Y-88475000D02*
X139475000Y-86675000D01*
X149962251Y-93599452D02*
X149250000Y-94311703D01*
X133750000Y-64900000D02*
X132999000Y-65651000D01*
X133250000Y-78119654D02*
X133250000Y-79824000D01*
X124500000Y-65750000D02*
X124500000Y-64241968D01*
X127678486Y-77000000D02*
X125500000Y-74821514D01*
X144650000Y-83333620D02*
X144651000Y-83334620D01*
X130750000Y-77750000D02*
X130000000Y-77000000D01*
X144250000Y-83333620D02*
X144650000Y-83333620D01*
X125500000Y-74821514D02*
X125500000Y-72750000D01*
X130000000Y-77000000D02*
X127678486Y-77000000D01*
X145937637Y-83334620D02*
X147487378Y-84884361D01*
X144651000Y-83334620D02*
X145937637Y-83334620D01*
X127714158Y-71250000D02*
X127250000Y-71250000D01*
X129272384Y-75353144D02*
X129272384Y-72808226D01*
X145994743Y-82684620D02*
X147840931Y-84530808D01*
X131834620Y-77915380D02*
X129272384Y-75353144D01*
X129272384Y-72808226D02*
X127714158Y-71250000D01*
X144644535Y-82524704D02*
X144804451Y-82684620D01*
X144804451Y-82684620D02*
X145994743Y-82684620D01*
X134625000Y-73125000D02*
X134250000Y-72750000D01*
X150250000Y-86934314D02*
X150157843Y-86842157D01*
X148194484Y-91831685D02*
X150250000Y-89776169D01*
X134625000Y-75292834D02*
X134625000Y-73125000D01*
X150250000Y-89776169D02*
X150250000Y-86934314D01*
X137008166Y-77676000D02*
X134625000Y-75292834D01*
X137477000Y-77699200D02*
X137453800Y-77676000D01*
X137453800Y-77676000D02*
X137008166Y-77676000D01*
D79*
X181425000Y-112950000D02*
X181916280Y-112950000D01*
X182766280Y-112100000D02*
X182825000Y-112100000D01*
X181916280Y-112950000D02*
X182766280Y-112100000D01*
D78*
X148250000Y-98500000D02*
X148639376Y-98110624D01*
X147925000Y-103875000D02*
X147925000Y-104475000D01*
X147393200Y-105893200D02*
X146950000Y-105450000D01*
X147925000Y-104475000D02*
X146950000Y-105450000D01*
X138150000Y-97900000D02*
X140250000Y-100000000D01*
X148108400Y-105893200D02*
X147393200Y-105893200D01*
X138150000Y-96967500D02*
X138150000Y-97900000D01*
X140234400Y-101473600D02*
X140234400Y-104445400D01*
M02*
