M48
; DRILL file {KiCad 9.0.6} date 2026-02-17T16:04:10+0100
; FORMAT={-:-/ absolute / metric / decimal}
; #@! TF.CreationDate,2026-02-17T16:04:10+01:00
; #@! TF.GenerationSoftware,Kicad,Pcbnew,9.0.6
; #@! TF.FileFunction,MixedPlating,1,4
FMAT,2
METRIC
; #@! TA.AperFunction,Plated,PTH,ComponentDrill
T1C0.250
; #@! TA.AperFunction,Plated,PTH,ViaDrill
T2C0.300
; #@! TA.AperFunction,Plated,PTH,ComponentDrill
T3C1.000
; #@! TA.AperFunction,Plated,PTH,ComponentDrill
T4C1.300
; #@! TA.AperFunction,Plated,PTH,ComponentDrill
T5C3.200
; #@! TA.AperFunction,NonPlated,NPTH,ComponentDrill
T6C0.900
; #@! TA.AperFunction,NonPlated,NPTH,ComponentDrill
T7C1.100
; #@! TA.AperFunction,NonPlated,NPTH,ComponentDrill
T8C2.850
%
G90
G05
T1
X139.3Y-92.5
X139.3Y-93.5
T2
X123.75Y-65.25
X123.851Y-62.078
X124.5Y-65.75
X124.5Y-99.25
X124.801Y-68.55
X124.88Y-55.38
X124.902Y-58.75
X125.0Y-70.5
X125.0Y-77.75
X125.5Y-72.75
X126.192Y-76.433
X127.25Y-71.25
X127.5Y-103.0
X127.75Y-56.5
X127.75Y-100.25
X128.638Y-68.25
X129.5Y-113.75
X129.5Y-115.25
X129.75Y-65.0
X130.0Y-63.5
X130.506Y-88.012
X130.75Y-77.75
X130.75Y-109.75
X131.25Y-59.25
X131.25Y-71.25
X131.5Y-61.1
X131.5Y-107.0
X131.75Y-64.5
X131.835Y-77.915
X131.874Y-95.75
X132.75Y-77.699
X133.0Y-67.0
X133.2Y-72.676
X133.25Y-71.376
X133.5Y-73.725
X133.5Y-99.25
X133.627Y-55.623
X133.75Y-64.9
X133.761Y-76.376
X133.825Y-74.925
X134.0Y-63.5
X134.25Y-72.75
X134.25Y-80.824
X135.25Y-105.0
X135.25Y-108.0
X135.256Y-80.174
X135.5Y-64.9
X135.5Y-69.5
X136.75Y-99.0
X137.25Y-68.75
X137.25Y-93.0
X137.25Y-95.0
X137.477Y-77.699
X137.5Y-76.25
X137.5Y-84.25
X137.75Y-100.5
X138.0Y-113.5
X138.0Y-115.5
X138.031Y-75.421
X138.257Y-72.741
X138.304Y-66.65
X138.5Y-90.0
X138.609Y-65.177
X138.675Y-87.0
X138.75Y-99.5
X139.091Y-77.013
X139.193Y-78.487
X139.269Y-68.9
X139.32Y-72.746
X139.9Y-89.25
X140.234Y-101.474
X140.234Y-104.445
X140.25Y-84.25
X140.25Y-86.4
X140.25Y-100.0
X140.5Y-95.0
X140.9Y-87.25
X141.0Y-91.75
X141.45Y-96.35
X141.75Y-102.25
X141.764Y-92.225
X142.5Y-95.25
X142.571Y-69.8
X142.807Y-56.457
X142.851Y-106.681
X142.976Y-84.6
X143.2Y-109.35
X143.25Y-100.75
X143.25Y-104.0
X143.5Y-85.9
X143.689Y-75.413
X143.708Y-78.449
X143.75Y-92.5
X143.765Y-66.041
X144.0Y-95.0
X144.222Y-56.566
X144.25Y-83.334
X144.275Y-99.25
X144.645Y-82.525
X144.7Y-110.75
X144.75Y-84.199
X145.0Y-103.25
X145.281Y-81.888
X145.594Y-70.892
X145.772Y-60.453
X145.875Y-92.6
X145.95Y-109.1
X146.0Y-114.5
X146.0Y-118.25
X146.15Y-94.4
X146.214Y-80.955
X146.25Y-101.5
X146.284Y-91.798
X146.5Y-93.25
X146.5Y-95.5
X146.75Y-97.0
X146.991Y-70.994
X147.5Y-102.25
X147.525Y-55.525
X147.607Y-97.87
X147.693Y-80.85
X147.727Y-71.806
X147.731Y-94.091
X147.75Y-122.0
X148.108Y-105.893
X148.25Y-98.5
X148.5Y-101.25
X148.576Y-72.406
X148.994Y-99.256
X149.228Y-70.051
X149.25Y-95.239
X149.531Y-77.242
X150.158Y-86.842
X150.267Y-68.631
X150.293Y-78.995
X150.362Y-70.91
X150.722Y-83.718
X150.877Y-63.196
X151.0Y-100.0
X151.023Y-85.727
X151.258Y-66.93
X151.369Y-79.214
X151.5Y-118.5
X151.666Y-98.666
X151.75Y-100.5
X152.0Y-87.25
X152.0Y-114.5
X152.824Y-88.479
X153.25Y-122.0
X153.366Y-57.379
X153.5Y-90.75
X153.519Y-55.373
X153.676Y-95.492
X153.75Y-82.078
X154.0Y-87.5
X154.124Y-106.0
X154.25Y-89.25
X154.258Y-80.182
X155.0Y-114.5
X155.175Y-81.925
X155.25Y-90.0
X155.319Y-97.223
X155.492Y-84.899
X155.594Y-90.906
X155.9Y-87.145
X155.94Y-101.94
X156.0Y-104.5
X156.25Y-108.95
X156.5Y-97.95
X156.571Y-123.7
X156.75Y-80.564
X156.948Y-57.303
X157.086Y-79.139
X157.202Y-72.213
X157.5Y-115.25
X157.649Y-81.98
X158.487Y-93.135
X158.75Y-76.25
X158.75Y-84.75
X158.926Y-80.574
X159.22Y-118.54
X159.25Y-99.5
X159.25Y-103.25
X159.557Y-82.41
X159.75Y-123.0
X159.869Y-72.822
X159.894Y-57.506
X159.958Y-102.694
X159.97Y-68.631
X160.0Y-90.75
X160.0Y-105.75
X160.199Y-71.806
X160.25Y-79.25
X160.25Y-85.25
X160.484Y-94.016
X161.0Y-77.0
X161.0Y-83.5
X161.085Y-87.165
X161.25Y-103.461
X161.5Y-84.5
X161.861Y-98.874
X162.5Y-81.5
X162.5Y-86.25
X162.5Y-94.75
X162.5Y-113.75
X162.8Y-87.65
X163.75Y-93.0
X164.0Y-80.25
X164.0Y-83.5
X164.0Y-105.25
X164.0Y-123.0
X164.115Y-85.285
X164.25Y-104.25
X164.364Y-73.711
X164.762Y-118.514
X165.0Y-87.0
X165.0Y-94.5
X165.0Y-103.75
X165.25Y-82.5
X165.313Y-88.95
X165.482Y-56.414
X165.75Y-113.0
X165.763Y-99.366
X166.571Y-88.987
X166.65Y-58.3
X166.844Y-82.586
X167.127Y-93.051
X167.25Y-98.25
X167.25Y-102.25
X167.35Y-56.3
X167.415Y-103.165
X168.25Y-118.75
X168.3Y-59.3
X168.454Y-96.495
X168.479Y-83.774
X168.669Y-91.419
X169.183Y-80.75
X169.25Y-114.5
X169.289Y-84.564
X169.292Y-97.333
X169.335Y-89.835
X169.368Y-98.349
X169.399Y-90.892
X169.5Y-86.25
X169.5Y-123.75
X169.96Y-88.4
X170.039Y-79.473
X170.125Y-96.05
X170.5Y-62.6
X170.5Y-75.0
X170.6Y-122.25
X171.0Y-102.75
X171.2Y-60.1
X171.25Y-88.5
X171.6Y-64.6
X172.0Y-87.75
X172.241Y-83.224
X172.25Y-104.0
X172.5Y-120.25
X173.25Y-84.5
X173.25Y-100.25
X173.25Y-123.5
X173.4Y-81.376
X173.5Y-69.75
X174.169Y-75.235
X174.25Y-103.75
X174.5Y-80.5
X174.5Y-101.5
X174.85Y-77.225
X175.471Y-90.082
X175.5Y-110.25
X175.75Y-96.5
X175.75Y-99.25
X175.896Y-64.923
X176.0Y-108.0
X176.25Y-122.0
X176.783Y-118.484
X177.268Y-89.637
X177.5Y-115.0
X177.522Y-94.887
X178.08Y-84.913
X178.893Y-96.14
X179.096Y-59.945
X179.274Y-74.727
X179.5Y-82.5
X179.75Y-70.5
X179.75Y-95.25
X180.2Y-118.025
X180.475Y-110.724
X180.5Y-107.5
X180.57Y-58.395
X180.75Y-101.75
X181.0Y-63.5
X181.4Y-119.0
X182.0Y-114.0
X182.25Y-117.75
X182.45Y-120.2
X182.551Y-60.224
X182.576Y-57.059
X182.932Y-64.059
X183.0Y-87.0
X183.0Y-107.0
X183.25Y-75.25
X184.0Y-87.0
X184.0Y-98.25
X184.0Y-107.0
X184.25Y-75.25
X184.576Y-115.842
X185.1Y-121.25
X185.25Y-98.25
X185.548Y-123.394
X185.65Y-119.355
X186.025Y-51.867
X187.5Y-58.25
X187.716Y-118.254
X187.75Y-113.0
X188.0Y-49.0
X189.5Y-121.94
X189.609Y-118.616
X190.25Y-110.25
X191.75Y-55.0
X192.99Y-63.577
X193.168Y-85.726
X193.219Y-95.022
X194.032Y-83.897
X194.108Y-62.739
X194.819Y-61.062
T3
X127.08Y-90.2
X127.22Y-82.7
X129.62Y-90.2
X129.76Y-82.7
X131.25Y-69.0
X131.25Y-74.0
X132.16Y-90.2
X132.3Y-82.7
X134.7Y-90.2
X134.84Y-82.7
X140.83Y-51.29
X140.83Y-53.83
X143.37Y-51.29
X143.37Y-53.83
X145.91Y-51.29
X145.91Y-53.83
X148.45Y-51.29
X148.45Y-53.83
X150.99Y-51.29
X150.99Y-53.83
X153.53Y-51.29
X153.53Y-53.83
X156.07Y-51.29
X156.07Y-53.83
X158.61Y-51.29
X158.61Y-53.83
X161.15Y-51.29
X161.15Y-53.83
X163.69Y-51.29
X163.69Y-53.83
X166.23Y-51.29
X166.23Y-53.83
X168.77Y-51.29
X168.77Y-53.83
X171.31Y-51.29
X171.31Y-53.83
X173.85Y-51.29
X173.85Y-53.83
X176.39Y-51.29
X176.39Y-53.83
X178.25Y-72.75
X178.93Y-51.29
X178.93Y-53.83
X192.325Y-112.925
X192.375Y-116.075
T4
X189.0Y-64.0
X189.0Y-69.0
X189.0Y-76.75
X189.0Y-81.75
X189.0Y-89.5
X189.0Y-94.5
X189.0Y-102.25
X189.0Y-107.25
T5
X124.0Y-51.0
X124.0Y-121.0
X194.0Y-51.0
X194.0Y-121.0
T6
X184.5Y-124.0
X187.5Y-124.0
T7
X148.3Y-119.0
X152.7Y-119.0
X171.3Y-119.0
X175.7Y-119.0
T8
X135.75Y-48.75
X184.01Y-48.75
M30
