%TF.GenerationSoftware,KiCad,Pcbnew,9.0.6*%
%TF.CreationDate,2026-02-17T16:04:16+01:00*%
%TF.ProjectId,2026_FH2_C_AV_FC,32303236-5f46-4483-925f-435f41565f46,rev?*%
%TF.SameCoordinates,Original*%
%TF.FileFunction,Paste,Top*%
%TF.FilePolarity,Positive*%
%FSLAX46Y46*%
G04 Gerber Fmt 4.6, Leading zero omitted, Abs format (unit mm)*
G04 Created by KiCad (PCBNEW 9.0.6) date 2026-02-17 16:04:16*
%MOMM*%
%LPD*%
G01*
G04 APERTURE LIST*
G04 Aperture macros list*
%AMRoundRect*
0 Rectangle with rounded corners*
0 $1 Rounding radius*
0 $2 $3 $4 $5 $6 $7 $8 $9 X,Y pos of 4 corners*
0 Add a 4 corners polygon primitive as box body*
4,1,4,$2,$3,$4,$5,$6,$7,$8,$9,$2,$3,0*
0 Add four circle primitives for the rounded corners*
1,1,$1+$1,$2,$3*
1,1,$1+$1,$4,$5*
1,1,$1+$1,$6,$7*
1,1,$1+$1,$8,$9*
0 Add four rect primitives between the rounded corners*
20,1,$1+$1,$2,$3,$4,$5,0*
20,1,$1+$1,$4,$5,$6,$7,0*
20,1,$1+$1,$6,$7,$8,$9,0*
20,1,$1+$1,$8,$9,$2,$3,0*%
%AMRotRect*
0 Rectangle, with rotation*
0 The origin of the aperture is its center*
0 $1 length*
0 $2 width*
0 $3 Rotation angle, in degrees counterclockwise*
0 Add horizontal line*
21,1,$1,$2,0,0,$3*%
G04 Aperture macros list end*
%ADD10R,0.600000X2.500000*%
%ADD11R,2.000000X2.500000*%
%ADD12RoundRect,0.140000X0.021213X-0.219203X0.219203X-0.021213X-0.021213X0.219203X-0.219203X0.021213X0*%
%ADD13RoundRect,0.200000X0.200000X0.275000X-0.200000X0.275000X-0.200000X-0.275000X0.200000X-0.275000X0*%
%ADD14RoundRect,0.218750X-0.256250X0.218750X-0.256250X-0.218750X0.256250X-0.218750X0.256250X0.218750X0*%
%ADD15RoundRect,0.218750X-0.424264X-0.114905X-0.114905X-0.424264X0.424264X0.114905X0.114905X0.424264X0*%
%ADD16RoundRect,0.067500X-0.157500X-0.157500X0.157500X-0.157500X0.157500X0.157500X-0.157500X0.157500X0*%
%ADD17RoundRect,0.200000X-0.275000X0.200000X-0.275000X-0.200000X0.275000X-0.200000X0.275000X0.200000X0*%
%ADD18RoundRect,0.218750X0.256250X-0.218750X0.256250X0.218750X-0.256250X0.218750X-0.256250X-0.218750X0*%
%ADD19RoundRect,0.225000X0.250000X-0.225000X0.250000X0.225000X-0.250000X0.225000X-0.250000X-0.225000X0*%
%ADD20RoundRect,0.135000X-0.035355X0.226274X-0.226274X0.035355X0.035355X-0.226274X0.226274X-0.035355X0*%
%ADD21RoundRect,0.225000X0.225000X0.250000X-0.225000X0.250000X-0.225000X-0.250000X0.225000X-0.250000X0*%
%ADD22RoundRect,0.218750X0.026517X-0.335876X0.335876X-0.026517X-0.026517X0.335876X-0.335876X0.026517X0*%
%ADD23RoundRect,0.250000X0.400000X0.450000X-0.400000X0.450000X-0.400000X-0.450000X0.400000X-0.450000X0*%
%ADD24R,1.000000X0.800000*%
%ADD25R,0.700000X1.500000*%
%ADD26RoundRect,0.140000X0.219203X0.021213X0.021213X0.219203X-0.219203X-0.021213X-0.021213X-0.219203X0*%
%ADD27RoundRect,0.075000X0.415425X0.521491X-0.521491X-0.415425X-0.415425X-0.521491X0.521491X0.415425X0*%
%ADD28RoundRect,0.075000X-0.415425X0.521491X-0.521491X0.415425X0.415425X-0.521491X0.521491X-0.415425X0*%
%ADD29RoundRect,0.225000X-0.250000X0.225000X-0.250000X-0.225000X0.250000X-0.225000X0.250000X0.225000X0*%
%ADD30R,0.650000X0.970000*%
%ADD31RoundRect,0.218750X-0.218750X-0.256250X0.218750X-0.256250X0.218750X0.256250X-0.218750X0.256250X0*%
%ADD32RoundRect,0.135000X0.035355X-0.226274X0.226274X-0.035355X-0.035355X0.226274X-0.226274X0.035355X0*%
%ADD33RoundRect,0.218750X0.218750X0.256250X-0.218750X0.256250X-0.218750X-0.256250X0.218750X-0.256250X0*%
%ADD34R,0.650000X1.100000*%
%ADD35RotRect,0.900000X1.000000X135.000000*%
%ADD36RoundRect,0.200000X0.275000X-0.200000X0.275000X0.200000X-0.275000X0.200000X-0.275000X-0.200000X0*%
%ADD37RoundRect,0.225000X-0.225000X-0.250000X0.225000X-0.250000X0.225000X0.250000X-0.225000X0.250000X0*%
%ADD38RoundRect,0.225000X-0.335876X-0.017678X-0.017678X-0.335876X0.335876X0.017678X0.017678X0.335876X0*%
%ADD39R,1.000000X0.600000*%
%ADD40R,0.350000X0.650000*%
%ADD41RoundRect,0.200000X-0.200000X-0.275000X0.200000X-0.275000X0.200000X0.275000X-0.200000X0.275000X0*%
%ADD42RoundRect,0.135000X-0.226274X-0.035355X-0.035355X-0.226274X0.226274X0.035355X0.035355X0.226274X0*%
%ADD43R,0.400000X1.200000*%
%ADD44RoundRect,0.140000X-0.021213X0.219203X-0.219203X0.021213X0.021213X-0.219203X0.219203X-0.021213X0*%
%ADD45RoundRect,0.200000X-0.335876X-0.053033X-0.053033X-0.335876X0.335876X0.053033X0.053033X0.335876X0*%
%ADD46RoundRect,0.250000X-0.400000X-0.450000X0.400000X-0.450000X0.400000X0.450000X-0.400000X0.450000X0*%
%ADD47RoundRect,0.200000X-0.053033X0.335876X-0.335876X0.053033X0.053033X-0.335876X0.335876X-0.053033X0*%
%ADD48RoundRect,0.250000X-0.275000X-0.700000X0.275000X-0.700000X0.275000X0.700000X-0.275000X0.700000X0*%
%ADD49RoundRect,0.175000X-0.175000X0.725000X-0.175000X-0.725000X0.175000X-0.725000X0.175000X0.725000X0*%
%ADD50RoundRect,0.200000X-0.200000X0.700000X-0.200000X-0.700000X0.200000X-0.700000X0.200000X0.700000X0*%
%ADD51R,1.700000X0.900000*%
%ADD52R,1.100000X0.800000*%
%ADD53R,1.500000X3.500000*%
%ADD54R,0.250000X0.600000*%
%ADD55R,1.300000X0.600000*%
%ADD56RoundRect,0.225000X0.335876X0.017678X0.017678X0.335876X-0.335876X-0.017678X-0.017678X-0.335876X0*%
%ADD57RoundRect,0.140000X-0.219203X-0.021213X-0.021213X-0.219203X0.219203X0.021213X0.021213X0.219203X0*%
%ADD58RoundRect,0.100000X0.100000X-0.637500X0.100000X0.637500X-0.100000X0.637500X-0.100000X-0.637500X0*%
%ADD59RoundRect,0.200000X0.053033X-0.335876X0.335876X-0.053033X-0.053033X0.335876X-0.335876X0.053033X0*%
%ADD60RoundRect,0.200000X0.335876X0.053033X0.053033X0.335876X-0.335876X-0.053033X-0.053033X-0.335876X0*%
%ADD61RoundRect,0.225000X-0.017678X0.335876X-0.335876X0.017678X0.017678X-0.335876X0.335876X-0.017678X0*%
%ADD62RoundRect,0.250000X0.275000X0.700000X-0.275000X0.700000X-0.275000X-0.700000X0.275000X-0.700000X0*%
%ADD63RoundRect,0.150000X-0.150000X0.587500X-0.150000X-0.587500X0.150000X-0.587500X0.150000X0.587500X0*%
%ADD64RoundRect,0.140000X-0.170000X0.140000X-0.170000X-0.140000X0.170000X-0.140000X0.170000X0.140000X0*%
G04 APERTURE END LIST*
D10*
%TO.C,J9*%
X171900000Y-116420000D03*
X172700000Y-116420000D03*
X173500000Y-116420000D03*
X174300000Y-116420000D03*
X175100000Y-116420000D03*
D11*
X169050000Y-116420000D03*
X177950000Y-116420000D03*
X169050000Y-121870000D03*
X177950000Y-121870000D03*
%TD*%
D12*
%TO.C,C23*%
X156481189Y-73644411D03*
X157160011Y-72965589D03*
%TD*%
D13*
%TO.C,R32*%
X193000000Y-56500000D03*
X191350000Y-56500000D03*
%TD*%
D14*
%TO.C,D18*%
X179700000Y-92662500D03*
X179700000Y-94237500D03*
%TD*%
D15*
%TO.C,FB1*%
X165473827Y-69269152D03*
X166976429Y-70771754D03*
%TD*%
D16*
%TO.C,U6*%
X185075000Y-112950000D03*
X185075000Y-112100000D03*
X185925000Y-112100000D03*
X185925000Y-112950000D03*
%TD*%
D17*
%TO.C,R22*%
X126500000Y-96200000D03*
X126500000Y-97850000D03*
%TD*%
D18*
%TO.C,D16*%
X188200000Y-50962500D03*
X188200000Y-49387500D03*
%TD*%
D19*
%TO.C,C67*%
X151000000Y-65775000D03*
X151000000Y-64225000D03*
%TD*%
D20*
%TO.C,R23*%
X148610624Y-96639376D03*
X147889376Y-97360624D03*
%TD*%
D21*
%TO.C,C45*%
X133525000Y-95000000D03*
X131975000Y-95000000D03*
%TD*%
D22*
%TO.C,D28*%
X170828159Y-102671840D03*
X171941853Y-101558146D03*
%TD*%
D14*
%TO.C,D10*%
X188500000Y-117462500D03*
X188500000Y-119037500D03*
%TD*%
D23*
%TO.C,D4*%
X165824998Y-123000002D03*
X162924998Y-123000002D03*
%TD*%
D24*
%TO.C,SW1*%
X182350000Y-122890000D03*
X182350000Y-125100000D03*
X189650000Y-122890000D03*
X189650000Y-125100000D03*
D25*
X183750000Y-122240000D03*
X186750000Y-122240000D03*
X188250000Y-122240000D03*
%TD*%
D26*
%TO.C,C35*%
X172839411Y-83839411D03*
X172160589Y-83160589D03*
%TD*%
D27*
%TO.C,U3*%
X173173031Y-86652128D03*
X172819478Y-86298575D03*
X172465925Y-85945021D03*
X172112371Y-85591468D03*
X171758818Y-85237915D03*
X171405264Y-84884361D03*
X171051711Y-84530808D03*
X170698158Y-84177255D03*
X170344604Y-83823701D03*
X169991051Y-83470148D03*
X169637497Y-83116594D03*
X169283944Y-82763041D03*
X168930391Y-82409488D03*
X168576837Y-82055934D03*
X168223284Y-81702381D03*
X167869731Y-81348827D03*
X167516177Y-80995274D03*
X167162624Y-80641721D03*
X166809070Y-80288167D03*
X166455517Y-79934614D03*
X166101964Y-79581060D03*
X165748410Y-79227507D03*
X165394857Y-78873954D03*
X165041303Y-78520400D03*
X164687750Y-78166847D03*
X164334197Y-77813294D03*
X163980643Y-77459740D03*
X163627090Y-77106187D03*
X163273536Y-76752633D03*
X162919983Y-76399080D03*
X162566430Y-76045527D03*
X162212876Y-75691973D03*
X161859323Y-75338420D03*
X161505770Y-74984866D03*
X161152216Y-74631313D03*
X160798663Y-74277760D03*
D28*
X158093979Y-74277760D03*
X157740426Y-74631313D03*
X157386872Y-74984866D03*
X157033319Y-75338420D03*
X156679766Y-75691973D03*
X156326212Y-76045527D03*
X155972659Y-76399080D03*
X155619106Y-76752633D03*
X155265552Y-77106187D03*
X154911999Y-77459740D03*
X154558445Y-77813294D03*
X154204892Y-78166847D03*
X153851339Y-78520400D03*
X153497785Y-78873954D03*
X153144232Y-79227507D03*
X152790678Y-79581060D03*
X152437125Y-79934614D03*
X152083572Y-80288167D03*
X151730018Y-80641721D03*
X151376465Y-80995274D03*
X151022911Y-81348827D03*
X150669358Y-81702381D03*
X150315805Y-82055934D03*
X149962251Y-82409488D03*
X149608698Y-82763041D03*
X149255145Y-83116594D03*
X148901591Y-83470148D03*
X148548038Y-83823701D03*
X148194484Y-84177255D03*
X147840931Y-84530808D03*
X147487378Y-84884361D03*
X147133824Y-85237915D03*
X146780271Y-85591468D03*
X146426717Y-85945021D03*
X146073164Y-86298575D03*
X145719611Y-86652128D03*
D27*
X145719611Y-89356812D03*
X146073164Y-89710365D03*
X146426717Y-90063919D03*
X146780271Y-90417472D03*
X147133824Y-90771025D03*
X147487378Y-91124579D03*
X147840931Y-91478132D03*
X148194484Y-91831685D03*
X148548038Y-92185239D03*
X148901591Y-92538792D03*
X149255145Y-92892346D03*
X149608698Y-93245899D03*
X149962251Y-93599452D03*
X150315805Y-93953006D03*
X150669358Y-94306559D03*
X151022911Y-94660113D03*
X151376465Y-95013666D03*
X151730018Y-95367219D03*
X152083572Y-95720773D03*
X152437125Y-96074326D03*
X152790678Y-96427880D03*
X153144232Y-96781433D03*
X153497785Y-97134986D03*
X153851339Y-97488540D03*
X154204892Y-97842093D03*
X154558445Y-98195646D03*
X154911999Y-98549200D03*
X155265552Y-98902753D03*
X155619106Y-99256307D03*
X155972659Y-99609860D03*
X156326212Y-99963413D03*
X156679766Y-100316967D03*
X157033319Y-100670520D03*
X157386872Y-101024074D03*
X157740426Y-101377627D03*
X158093979Y-101731180D03*
D28*
X160798663Y-101731180D03*
X161152216Y-101377627D03*
X161505770Y-101024074D03*
X161859323Y-100670520D03*
X162212876Y-100316967D03*
X162566430Y-99963413D03*
X162919983Y-99609860D03*
X163273536Y-99256307D03*
X163627090Y-98902753D03*
X163980643Y-98549200D03*
X164334197Y-98195646D03*
X164687750Y-97842093D03*
X165041303Y-97488540D03*
X165394857Y-97134986D03*
X165748410Y-96781433D03*
X166101964Y-96427880D03*
X166455517Y-96074326D03*
X166809070Y-95720773D03*
X167162624Y-95367219D03*
X167516177Y-95013666D03*
X167869731Y-94660113D03*
X168223284Y-94306559D03*
X168576837Y-93953006D03*
X168930391Y-93599452D03*
X169283944Y-93245899D03*
X169637497Y-92892346D03*
X169991051Y-92538792D03*
X170344604Y-92185239D03*
X170698158Y-91831685D03*
X171051711Y-91478132D03*
X171405264Y-91124579D03*
X171758818Y-90771025D03*
X172112371Y-90417472D03*
X172465925Y-90063919D03*
X172819478Y-89710365D03*
X173173031Y-89356812D03*
%TD*%
D29*
%TO.C,C13*%
X161500000Y-112225000D03*
X161500000Y-113775000D03*
%TD*%
D30*
%TO.C,D12*%
X129250000Y-97010000D03*
X129250000Y-100490000D03*
%TD*%
D31*
%TO.C,D8*%
X180762500Y-119650000D03*
X182337500Y-119650000D03*
%TD*%
D26*
%TO.C,C29*%
X152339411Y-98089411D03*
X151660589Y-97410589D03*
%TD*%
D31*
%TO.C,D15*%
X132212500Y-110500000D03*
X133787500Y-110500000D03*
%TD*%
D32*
%TO.C,R27*%
X148639376Y-98110624D03*
X149360624Y-97389376D03*
%TD*%
D33*
%TO.C,D26*%
X161287501Y-125000000D03*
X159712499Y-125000000D03*
%TD*%
D22*
%TO.C,D27*%
X173276516Y-100223484D03*
X174390210Y-99109790D03*
%TD*%
D34*
%TO.C,D35*%
X147540000Y-58050000D03*
X149460000Y-58050000D03*
X148500000Y-55950000D03*
%TD*%
D35*
%TO.C,Y1*%
X173128858Y-73856066D03*
X171643934Y-72371142D03*
X170371142Y-73643934D03*
X171856066Y-75128858D03*
%TD*%
D36*
%TO.C,R29*%
X189950000Y-51000000D03*
X189950000Y-49350000D03*
%TD*%
D19*
%TO.C,C42*%
X185500000Y-115800000D03*
X185500000Y-114250000D03*
%TD*%
D20*
%TO.C,R24*%
X150110624Y-98139376D03*
X149389376Y-98860624D03*
%TD*%
D21*
%TO.C,C11*%
X159525000Y-114000000D03*
X157975000Y-114000000D03*
%TD*%
D37*
%TO.C,C44*%
X134975000Y-95000000D03*
X136525000Y-95000000D03*
%TD*%
D21*
%TO.C,C63*%
X142600000Y-68937500D03*
X141050000Y-68937500D03*
%TD*%
D13*
%TO.C,R31*%
X190000000Y-56500000D03*
X188350000Y-56500000D03*
%TD*%
D38*
%TO.C,C36*%
X163036154Y-71860829D03*
X164132170Y-72956845D03*
%TD*%
D39*
%TO.C,U14*%
X141150000Y-66387500D03*
X142350000Y-66387500D03*
X141150000Y-65612500D03*
X142350000Y-65612500D03*
D40*
X140775000Y-67550000D03*
X141425000Y-67550000D03*
X142075000Y-67550000D03*
X142725000Y-67550000D03*
X142725000Y-64450000D03*
X142075000Y-64450000D03*
X141425000Y-64450000D03*
X140775000Y-64450000D03*
%TD*%
D41*
%TO.C,R66*%
X146275000Y-103875000D03*
X147925000Y-103875000D03*
%TD*%
D42*
%TO.C,R50*%
X163139376Y-102639376D03*
X163860624Y-103360624D03*
%TD*%
D43*
%TO.C,IC7*%
X158450000Y-117500000D03*
X159100000Y-117499999D03*
X159750000Y-117500000D03*
X159750000Y-115600000D03*
X159100000Y-115600001D03*
X158450000Y-115600000D03*
%TD*%
D44*
%TO.C,C33*%
X169976909Y-95151552D03*
X169298087Y-95830374D03*
%TD*%
D22*
%TO.C,D1*%
X174690729Y-101637697D03*
X175804423Y-100524003D03*
%TD*%
D29*
%TO.C,C70*%
X147250000Y-59700000D03*
X147250000Y-61250000D03*
%TD*%
D45*
%TO.C,R62*%
X143166637Y-87666637D03*
X144333363Y-88833363D03*
%TD*%
D13*
%TO.C,R60*%
X142575000Y-62750000D03*
X140925000Y-62750000D03*
%TD*%
D36*
%TO.C,R35*%
X179530000Y-103977500D03*
X179530000Y-102327500D03*
%TD*%
D46*
%TO.C,D5*%
X158050000Y-123000000D03*
X160950000Y-123000000D03*
%TD*%
D26*
%TO.C,C27*%
X144697841Y-87168316D03*
X144019019Y-86489494D03*
%TD*%
D36*
%TO.C,R33*%
X179700000Y-91025000D03*
X179700000Y-89375000D03*
%TD*%
D21*
%TO.C,C68*%
X149125000Y-68887500D03*
X147575000Y-68887500D03*
%TD*%
D19*
%TO.C,C40*%
X181000000Y-115800000D03*
X181000000Y-114250000D03*
%TD*%
D20*
%TO.C,R25*%
X147860624Y-95889376D03*
X147139376Y-96610624D03*
%TD*%
D37*
%TO.C,C16*%
X164225000Y-114000000D03*
X165775000Y-114000000D03*
%TD*%
D42*
%TO.C,R49*%
X162389376Y-103389376D03*
X163110624Y-104110624D03*
%TD*%
%TO.C,R58*%
X165889376Y-100889376D03*
X166610624Y-101610624D03*
%TD*%
D47*
%TO.C,R10*%
X170309291Y-76654131D03*
X169142565Y-77820857D03*
%TD*%
D48*
%TO.C,F3*%
X157925000Y-120500000D03*
X161075000Y-120500000D03*
%TD*%
D12*
%TO.C,C26*%
X147910589Y-81839411D03*
X148589411Y-81160589D03*
%TD*%
D38*
%TO.C,C37*%
X164273592Y-70623392D03*
X165369608Y-71719408D03*
%TD*%
D42*
%TO.C,R59*%
X164889376Y-101389376D03*
X165610624Y-102110624D03*
%TD*%
D49*
%TO.C,U7*%
X141450000Y-96967500D03*
D50*
X140350000Y-96967500D03*
X139250000Y-96967500D03*
X138150000Y-96967500D03*
X137050000Y-96967500D03*
X135950000Y-96967500D03*
X134850000Y-96967500D03*
X133750000Y-96967500D03*
D49*
X132650000Y-96967500D03*
X132650000Y-106467500D03*
D50*
X133750000Y-106467500D03*
X134850000Y-106467500D03*
X135950000Y-106467500D03*
X137050000Y-106467500D03*
X138150000Y-106467500D03*
X139250000Y-106467500D03*
X140350000Y-106467500D03*
D49*
X141450000Y-106467500D03*
%TD*%
D19*
%TO.C,C62*%
X144250000Y-64525000D03*
X144250000Y-62975000D03*
%TD*%
D43*
%TO.C,IC6*%
X164200000Y-117500000D03*
X164850000Y-117499999D03*
X165500000Y-117500000D03*
X165500000Y-115600000D03*
X164850000Y-115600001D03*
X164200000Y-115600000D03*
%TD*%
D34*
%TO.C,D31*%
X140815000Y-58050000D03*
X142735000Y-58050000D03*
X141775000Y-55950000D03*
%TD*%
D51*
%TO.C,SW2*%
X175650000Y-76550000D03*
X175650000Y-79950000D03*
D52*
X174009999Y-78250000D03*
%TD*%
D31*
%TO.C,D7*%
X163212499Y-111250000D03*
X164787501Y-111250000D03*
%TD*%
D18*
%TO.C,D14*%
X143250000Y-103962501D03*
X143250000Y-102387499D03*
%TD*%
D26*
%TO.C,C28*%
X148410153Y-94769713D03*
X147731331Y-94090891D03*
%TD*%
D18*
%TO.C,D9*%
X176500000Y-83037501D03*
X176500000Y-81462499D03*
%TD*%
D29*
%TO.C,C30*%
X173250000Y-79725000D03*
X173250000Y-81275000D03*
%TD*%
D22*
%TO.C,D2*%
X172215855Y-104112571D03*
X173329549Y-102998877D03*
%TD*%
D53*
%TO.C,J1*%
X133750000Y-114000000D03*
X131050000Y-114000000D03*
X136450000Y-114000000D03*
%TD*%
D13*
%TO.C,R67*%
X146950000Y-105450000D03*
X145300000Y-105450000D03*
%TD*%
D54*
%TO.C,D37*%
X149750000Y-110250000D03*
X150250000Y-110250000D03*
X150750000Y-110250000D03*
X151250000Y-110250000D03*
X151750000Y-110250000D03*
X151750000Y-109400000D03*
X151250000Y-109400000D03*
X150750000Y-109400000D03*
X150250000Y-109400000D03*
X149750000Y-109400000D03*
%TD*%
D55*
%TO.C,Q7*%
X145267500Y-107110000D03*
X145267500Y-109010000D03*
X147367500Y-108060000D03*
%TD*%
D29*
%TO.C,C65*%
X143000000Y-59725000D03*
X143000000Y-61275000D03*
%TD*%
D36*
%TO.C,R34*%
X179750000Y-65575000D03*
X179750000Y-63925000D03*
%TD*%
D56*
%TO.C,C25*%
X174548008Y-72048008D03*
X173451992Y-70951992D03*
%TD*%
D54*
%TO.C,D36*%
X172750000Y-110250000D03*
X173250000Y-110250000D03*
X173750000Y-110250000D03*
X174250000Y-110250000D03*
X174750000Y-110250000D03*
X174750000Y-109400000D03*
X174250000Y-109400000D03*
X173750000Y-109400000D03*
X173250000Y-109400000D03*
X172750000Y-109400000D03*
%TD*%
D26*
%TO.C,C22*%
X164496831Y-75147500D03*
X163818009Y-74468678D03*
%TD*%
D14*
%TO.C,D20*%
X179500000Y-105675000D03*
X179500000Y-107250000D03*
%TD*%
D16*
%TO.C,U5*%
X182825000Y-112950000D03*
X182825000Y-112100000D03*
X183675000Y-112100000D03*
X183675000Y-112950000D03*
%TD*%
D39*
%TO.C,U15*%
X147900000Y-66137500D03*
X149100000Y-66137500D03*
X147900000Y-65362500D03*
X149100000Y-65362500D03*
D40*
X147525000Y-67300000D03*
X148175000Y-67300000D03*
X148825000Y-67300000D03*
X149475000Y-67300000D03*
X149475000Y-64200000D03*
X148825000Y-64200000D03*
X148175000Y-64200000D03*
X147525000Y-64200000D03*
%TD*%
D41*
%TO.C,R5*%
X158350000Y-111250000D03*
X160000000Y-111250000D03*
%TD*%
D57*
%TO.C,C21*%
X168767757Y-79418426D03*
X169446579Y-80097248D03*
%TD*%
D33*
%TO.C,D17*%
X192962500Y-58250000D03*
X191387500Y-58250000D03*
%TD*%
D29*
%TO.C,C43*%
X126500000Y-99500000D03*
X126500000Y-101050000D03*
%TD*%
D10*
%TO.C,J10*%
X148900000Y-116420000D03*
X149700000Y-116420000D03*
X150500000Y-116420000D03*
X151300000Y-116420000D03*
X152100000Y-116420000D03*
D11*
X146050000Y-116420000D03*
X154950000Y-116420000D03*
X146050000Y-121870000D03*
X154950000Y-121870000D03*
%TD*%
D18*
%TO.C,D13*%
X143250000Y-100825002D03*
X143250000Y-99250000D03*
%TD*%
D14*
%TO.C,D6*%
X171250000Y-62712499D03*
X171250000Y-64287501D03*
%TD*%
D41*
%TO.C,R21*%
X128925000Y-62500000D03*
X130575000Y-62500000D03*
%TD*%
D29*
%TO.C,C69*%
X149750000Y-59725000D03*
X149750000Y-61275000D03*
%TD*%
%TO.C,C66*%
X140500000Y-59725000D03*
X140500000Y-61275000D03*
%TD*%
D13*
%TO.C,R20*%
X130575000Y-64250000D03*
X128925000Y-64250000D03*
%TD*%
D58*
%TO.C,IC9*%
X181475000Y-58862500D03*
X182125000Y-58862500D03*
X182775000Y-58862500D03*
X183425000Y-58862500D03*
X184075000Y-58862500D03*
X184725000Y-58862500D03*
X185375000Y-58862500D03*
X186025000Y-58862500D03*
X186025000Y-53137500D03*
X185375000Y-53137500D03*
X184725000Y-53137500D03*
X184075000Y-53137500D03*
X183425000Y-53137500D03*
X182775000Y-53137500D03*
X182125000Y-53137500D03*
X181475000Y-53137500D03*
%TD*%
D13*
%TO.C,R63*%
X149325000Y-62750000D03*
X147675000Y-62750000D03*
%TD*%
D44*
%TO.C,C32*%
X166441374Y-98687086D03*
X165762552Y-99365908D03*
%TD*%
D36*
%TO.C,R36*%
X179600000Y-77825000D03*
X179600000Y-76175000D03*
%TD*%
D59*
%TO.C,R9*%
X167867727Y-76546019D03*
X169034453Y-75379293D03*
%TD*%
D41*
%TO.C,R53*%
X162675000Y-125000000D03*
X164325000Y-125000000D03*
%TD*%
D36*
%TO.C,R11*%
X187000000Y-119075000D03*
X187000000Y-117425000D03*
%TD*%
D60*
%TO.C,R61*%
X144083363Y-90833363D03*
X142916637Y-89666637D03*
%TD*%
D61*
%TO.C,C38*%
X166607045Y-72921489D03*
X165511029Y-74017505D03*
%TD*%
D36*
%TO.C,R12*%
X175000000Y-83075000D03*
X175000000Y-81425000D03*
%TD*%
D16*
%TO.C,U4*%
X180575000Y-112950000D03*
X180575000Y-112100000D03*
X181425000Y-112100000D03*
X181425000Y-112950000D03*
%TD*%
D33*
%TO.C,FB2*%
X133737500Y-108567500D03*
X132162500Y-108567500D03*
%TD*%
D12*
%TO.C,C24*%
X151090086Y-78329481D03*
X151768908Y-77650659D03*
%TD*%
D14*
%TO.C,D19*%
X179750000Y-67212500D03*
X179750000Y-68787500D03*
%TD*%
D42*
%TO.C,R51*%
X166639376Y-100139376D03*
X167360624Y-100860624D03*
%TD*%
D62*
%TO.C,F2*%
X166075000Y-120500000D03*
X162925000Y-120500000D03*
%TD*%
D33*
%TO.C,D38*%
X146900000Y-110700000D03*
X145324998Y-110700000D03*
%TD*%
D57*
%TO.C,C34*%
X174247834Y-88787589D03*
X174926656Y-89466411D03*
%TD*%
D63*
%TO.C,Q1*%
X126950000Y-62312500D03*
X125050000Y-62312500D03*
X126000000Y-64187501D03*
%TD*%
D64*
%TO.C,C46*%
X130700000Y-107987500D03*
X130700000Y-108947500D03*
%TD*%
D19*
%TO.C,C41*%
X183250000Y-115800000D03*
X183250000Y-114250000D03*
%TD*%
D42*
%TO.C,R52*%
X163889376Y-101889376D03*
X164610624Y-102610624D03*
%TD*%
D26*
%TO.C,C31*%
X157425763Y-103431771D03*
X156746941Y-102752949D03*
%TD*%
D56*
%TO.C,C20*%
X157298008Y-105048008D03*
X156201992Y-103951992D03*
%TD*%
D36*
%TO.C,R13*%
X188500000Y-115825000D03*
X188500000Y-114175000D03*
%TD*%
D41*
%TO.C,R30*%
X188350000Y-58250000D03*
X190000000Y-58250000D03*
%TD*%
D14*
%TO.C,D21*%
X179600000Y-79462500D03*
X179600000Y-81037500D03*
%TD*%
M02*
